<?xml version="1.0" encoding="UTF-8" standalone="no"?>
<svg
   xmlns:dc="http://purl.org/dc/elements/1.1/"
   xmlns:cc="http://creativecommons.org/ns#"
   xmlns:rdf="http://www.w3.org/1999/02/22-rdf-syntax-ns#"
   xmlns:svg="http://www.w3.org/2000/svg"
   xmlns="http://www.w3.org/2000/svg"
   width="512"
   height="512"
   viewBox="0 0 135.46666 135.46667"
   version="1.1"
   id="svg8">
  <defs
     id="defs2" />
  <metadata
     id="metadata5">
    <rdf:RDF>
      <cc:Work
         rdf:about="">
        <dc:format>image/svg+xml</dc:format>
        <dc:type
           rdf:resource="http://purl.org/dc/dcmitype/StillImage" />
        <dc:title />
      </cc:Work>
    </rdf:RDF>
  </metadata>
  <g
     id="layer1"
     transform="translate(-53.419224,-73.382207)">
    <path
       id="path993"
       style="fill:#bebebe;stroke:none;stroke-width:11.8469;stroke-linecap:round;stroke-miterlimit:4;stroke-dasharray:none;fill-opacity:1"
       d="M 121.10993,73.382209 84.548849,136.70702 a 45.357227,45.357227 0 0 0 -4.894275,8.477 l -0.223759,0.38758 h 0.05478 a 45.357227,45.357227 0 0 0 -3.690214,17.91983 45.357227,45.357227 0 0 0 45.357439,45.35744 45.357227,45.357227 0 0 0 45.35692,-45.35744 45.357227,45.357227 0 0 0 -9.14311,-27.30944 z M 86.917697,154.71368 a 78.139765,78.139765 0 0 0 42.687833,42.8842 37.3074,37.3074 0 0 1 -5.87251,0.46509 37.3074,37.3074 0 0 1 -37.307283,-37.30729 37.3074,37.3074 0 0 1 0.49196,-6.042 z" />
  </g>
</svg>
