<?xml version="1.0" encoding="UTF-8" standalone="no"?>
<svg
   xmlns:dc="http://purl.org/dc/elements/1.1/"
   xmlns:cc="http://creativecommons.org/ns#"
   xmlns:rdf="http://www.w3.org/1999/02/22-rdf-syntax-ns#"
   xmlns:svg="http://www.w3.org/2000/svg"
   xmlns="http://www.w3.org/2000/svg"
   width="512"
   height="512"
   viewBox="0 0 135.46668 135.46667"
   version="1.1"
   id="svg8">
  <defs
     id="defs2" />
  <metadata
     id="metadata5">
    <rdf:RDF>
      <cc:Work
         rdf:about="">
        <dc:format>image/svg+xml</dc:format>
        <dc:type
           rdf:resource="http://purl.org/dc/dcmitype/StillImage" />
        <dc:title />
      </cc:Work>
    </rdf:RDF>
  </metadata>
  <g
     id="layer1"
     transform="translate(-190.89499,-249.42034)">
    <path
       id="path1461"
       style="color:#000000;font-style:normal;font-variant:normal;font-weight:normal;font-stretch:normal;font-size:medium;line-height:normal;font-family:sans-serif;font-variant-ligatures:normal;font-variant-position:normal;font-variant-caps:normal;font-variant-numeric:normal;font-variant-alternates:normal;font-variant-east-asian:normal;font-feature-settings:normal;font-variation-settings:normal;text-indent:0;text-align:start;text-decoration:none;text-decoration-line:none;text-decoration-style:solid;text-decoration-color:#000000;letter-spacing:normal;word-spacing:normal;text-transform:none;writing-mode:lr-tb;direction:ltr;text-orientation:mixed;dominant-baseline:auto;baseline-shift:baseline;text-anchor:start;white-space:normal;shape-padding:0;shape-margin:0;inline-size:0;clip-rule:nonzero;display:inline;overflow:visible;visibility:visible;isolation:auto;mix-blend-mode:normal;color-interpolation:sRGB;color-interpolation-filters:linearRGB;solid-color:#000000;solid-opacity:1;vector-effect:none;fill:#bebebe;fill-opacity:1;fill-rule:nonzero;stroke:none;stroke-width:0.965849;stroke-linecap:round;stroke-linejoin:miter;stroke-miterlimit:4;stroke-dasharray:none;stroke-dashoffset:0;stroke-opacity:1;color-rendering:auto;image-rendering:auto;shape-rendering:auto;text-rendering:auto;enable-background:accumulate;stop-color:#000000"
       d="m 241.81185,249.42034 a 50.942813,50.942624 0 0 0 -0.17569,5.2e-4 50.942813,50.942624 0 0 0 -25.27026,6.82488 50.942813,50.942624 0 0 0 -25.47091,44.11772 50.942813,50.942624 0 0 0 50.94281,50.94214 50.942813,50.942624 0 0 0 27.71644,-8.20045 l 38.67005,38.66991 a 10.624341,10.624302 0 0 0 15.02541,0 10.624341,10.624302 0 0 0 0,-15.02535 l -38.66955,-38.6694 a 50.942813,50.942624 0 0 0 8.19998,-27.71685 50.942813,50.942624 0 0 0 -25.47142,-44.11772 50.942813,50.942624 0 0 0 -25.49686,-6.8254 z m -0.0993,19.30476 a 31.638229,31.638112 0 0 1 15.94377,4.23847 31.638229,31.638112 0 0 1 10.40408,9.69883 31.872772,31.872654 0 0 1 0.0164,0.0249 31.872772,31.872654 0 0 1 5.50876,17.90973 31.872772,31.872654 0 0 1 -31.87308,31.87295 31.872772,31.872654 0 0 1 -31.87308,-31.87295 31.872772,31.872654 0 0 1 31.6914,-31.87096 31.872772,31.872654 0 0 1 0.18168,-10e-4 z" />
  </g>
</svg>
