<?xml version="1.0" encoding="UTF-8" standalone="no"?>
<svg
   xmlns:dc="http://purl.org/dc/elements/1.1/"
   xmlns:cc="http://creativecommons.org/ns#"
   xmlns:rdf="http://www.w3.org/1999/02/22-rdf-syntax-ns#"
   xmlns:svg="http://www.w3.org/2000/svg"
   xmlns="http://www.w3.org/2000/svg"
   width="512"
   height="512"
   viewBox="0 0 135.46665 135.46665"
   version="1.1"
   id="svg8">
  <defs
     id="defs2" />
  <metadata
     id="metadata5">
    <rdf:RDF>
      <cc:Work
         rdf:about="">
        <dc:format>image/svg+xml</dc:format>
        <dc:type
           rdf:resource="http://purl.org/dc/dcmitype/StillImage" />
        <dc:title />
      </cc:Work>
    </rdf:RDF>
  </metadata>
  <g
     id="layer1"
     transform="translate(-37.266664,-80.766664)">
    <path
       style="color:#000000;font-style:normal;font-variant:normal;font-weight:normal;font-stretch:normal;font-size:medium;line-height:normal;font-family:sans-serif;font-variant-ligatures:normal;font-variant-position:normal;font-variant-caps:normal;font-variant-numeric:normal;font-variant-alternates:normal;font-variant-east-asian:normal;font-feature-settings:normal;font-variation-settings:normal;text-indent:0;text-align:start;text-decoration:none;text-decoration-line:none;text-decoration-style:solid;text-decoration-color:#000000;letter-spacing:normal;word-spacing:normal;text-transform:none;writing-mode:lr-tb;direction:ltr;text-orientation:mixed;dominant-baseline:auto;baseline-shift:baseline;text-anchor:start;white-space:normal;shape-padding:0;shape-margin:0;inline-size:0;clip-rule:nonzero;display:inline;overflow:visible;visibility:visible;isolation:auto;mix-blend-mode:normal;color-interpolation:sRGB;color-interpolation-filters:linearRGB;solid-color:#000000;solid-opacity:1;vector-effect:none;fill:#bebebe;fill-opacity:1;fill-rule:nonzero;stroke-width:7.09488;stroke-linecap:butt;stroke-linejoin:miter;stroke-miterlimit:4;stroke-dasharray:none;stroke-dashoffset:0;stroke-opacity:1;color-rendering:auto;image-rendering:auto;shape-rendering:auto;text-rendering:auto;enable-background:accumulate;stop-color:#000000;stop-opacity:1;stroke:none;opacity:1"
       d="M 105,80.766664 C 67.591911,80.766661 37.266662,111.09191 37.266665,148.5 c 0,37.40809 30.325248,67.73333 67.733335,67.73333 37.40809,0 67.73333,-30.32524 67.73333,-67.73333 0,-37.40809 -30.32524,-67.733336 -67.73333,-67.733336 z m 0,14.277681 c 0.94949,-1e-6 1.87647,0.09612 2.77192,0.278536 0.89545,0.182417 1.75984,0.451098 2.58279,0.797884 0.82294,0.346788 1.60433,0.771414 2.33629,1.264523 0.73197,0.493108 1.41405,1.054999 2.03657,1.676383 0.62253,0.621371 1.18538,1.302379 1.68,2.033989 0.49461,0.7316 0.92045,1.51354 1.26866,2.33732 0.34823,0.82378 0.61918,1.68953 0.80253,2.58744 0.18325,0.89791 0.27954,1.82776 0.27957,2.78174 2e-5,0.95401 -0.0962,1.88432 -0.27957,2.78226 -0.18331,0.89794 -0.4533,1.76362 -0.8015,2.58744 -0.34819,0.8238 -0.77508,1.60567 -1.26969,2.33732 -0.4946,0.73165 -1.05747,1.41311 -1.68,2.03451 -0.62252,0.6214 -1.30408,1.18325 -2.03605,1.67638 -0.73198,0.49312 -1.51386,0.91721 -2.33681,1.26401 -0.82296,0.34681 -1.68733,0.61597 -2.58279,0.7984 -0.89548,0.1824 -1.82241,0.27853 -2.77192,0.27853 -0.9495,0 -1.87646,-0.0961 -2.77193,-0.27853 -0.89547,-0.18243 -1.75981,-0.45159 -2.582784,-0.7984 -0.822958,-0.3468 -1.604828,-0.77089 -2.336808,-1.26401 -0.731973,-0.49313 -1.413523,-1.05498 -2.036051,-1.67638 -0.622533,-0.6214 -1.185415,-1.30286 -1.680001,-2.03451 -0.494609,-0.73165 -0.921501,-1.51352 -1.26969,-2.33732 -0.34821,-0.82382 -0.618183,-1.6895 -0.801502,-2.58744 -0.183275,-0.89794 -0.279578,-1.82825 -0.27957,-2.78226 1.9e-5,-0.95398 0.09621,-1.88383 0.27957,-2.78174 0.183348,-0.89791 0.454326,-1.76366 0.802534,-2.58744 0.34822,-0.82378 0.774049,-1.60572 1.268658,-2.33732 0.494596,-0.73161 1.057487,-1.412618 1.680001,-2.033989 0.622528,-0.621384 1.304586,-1.183275 2.036567,-1.676383 0.731962,-0.493109 1.513353,-0.917735 2.336292,-1.264523 0.822954,-0.346786 1.687334,-0.615467 2.582784,-0.797884 0.89543,-0.182414 1.82246,-0.278537 2.77193,-0.278536 z m 5.3e-4,41.093615 c 1.02573,0 2.02606,0.0271 2.98896,0.0775 0.96291,0.0505 1.88828,0.12376 2.76417,0.21756 0.8759,0.0939 1.70182,0.20813 2.46652,0.33848 0.76469,0.13035 1.46827,0.2774 2.09755,0.43719 0.62928,0.15982 1.18285,0.33317 1.64796,0.50849 0.46512,0.17532 0.84158,0.35266 1.11828,0.51935 0.27668,0.16669 0.44527,0.30688 0.54467,0.42736 0.0994,0.12049 0.1297,0.22111 0.1297,0.30851 v 60.14879 c 0,0.0875 -0.0303,0.18801 -0.1297,0.3085 -0.0994,0.12049 -0.26801,0.2607 -0.54467,0.42737 -0.2767,0.16669 -0.65316,0.34351 -1.11828,0.51883 -0.46511,0.17532 -1.01868,0.34921 -1.64796,0.50901 -0.62928,0.1598 -1.33286,0.30631 -2.09755,0.43667 -0.7647,0.13033 -1.59062,0.24468 -2.46652,0.33848 -0.87589,0.0939 -1.80126,0.16767 -2.76417,0.21807 -0.9629,0.0505 -1.96323,0.0775 -2.98896,0.0775 -1.02572,0 -2.0266,-0.0271 -2.98949,-0.0775 -0.96289,-0.0504 -1.88828,-0.12427 -2.764166,-0.21807 -0.875885,-0.0939 -1.701822,-0.20815 -2.466518,-0.33848 -0.764706,-0.13036 -1.467696,-0.27687 -2.097029,-0.43667 -0.629322,-0.15981 -1.182693,-0.33369 -1.64796,-0.50901 -0.46528,-0.17532 -0.842581,-0.35213 -1.119312,-0.51883 -0.276743,-0.16668 -0.445201,-0.30688 -0.544671,-0.42737 -0.09938,-0.12049 -0.12972,-0.2211 -0.12972,-0.3085 V 138.9724 c 0,-0.0874 0.03034,-0.18802 0.129707,-0.30851 0.09942,-0.12048 0.267928,-0.26066 0.544671,-0.42736 0.27673,-0.16669 0.654032,-0.34403 1.119312,-0.51935 0.465267,-0.17531 1.018638,-0.34867 1.64796,-0.50849 0.629332,-0.15979 1.332322,-0.30684 2.097029,-0.43719 0.764696,-0.13035 1.590633,-0.24468 2.466517,-0.33848 0.87588,-0.0939 1.80128,-0.16726 2.76417,-0.21756 0.96289,-0.0505 1.96377,-0.0775 2.98948,-0.0775 z"
       id="path885" />
  </g>
</svg>
