<?xml version="1.0" encoding="UTF-8" standalone="no"?>
<svg
   xmlns:dc="http://purl.org/dc/elements/1.1/"
   xmlns:cc="http://creativecommons.org/ns#"
   xmlns:rdf="http://www.w3.org/1999/02/22-rdf-syntax-ns#"
   xmlns:svg="http://www.w3.org/2000/svg"
   xmlns="http://www.w3.org/2000/svg"
   width="512"
   height="512"
   viewBox="0 0 135.46665 135.46668"
   version="1.1"
   id="svg8">
  <defs
     id="defs2" />
  <metadata
     id="metadata5">
    <rdf:RDF>
      <cc:Work
         rdf:about="">
        <dc:format>image/svg+xml</dc:format>
        <dc:type
           rdf:resource="http://purl.org/dc/dcmitype/StillImage" />
        <dc:title />
      </cc:Work>
    </rdf:RDF>
  </metadata>
  <g
     id="layer1"
     transform="translate(-27.130369,-70.630376)">
    <path
       style="color:#000000;font-style:normal;font-variant:normal;font-weight:normal;font-stretch:normal;font-size:medium;line-height:normal;font-family:sans-serif;font-variant-ligatures:normal;font-variant-position:normal;font-variant-caps:normal;font-variant-numeric:normal;font-variant-alternates:normal;font-variant-east-asian:normal;font-feature-settings:normal;font-variation-settings:normal;text-indent:0;text-align:start;text-decoration:none;text-decoration-line:none;text-decoration-style:solid;text-decoration-color:#000000;letter-spacing:normal;word-spacing:normal;text-transform:none;writing-mode:lr-tb;direction:ltr;text-orientation:mixed;dominant-baseline:auto;baseline-shift:baseline;text-anchor:start;white-space:normal;shape-padding:0;shape-margin:0;inline-size:0;clip-rule:nonzero;display:inline;overflow:visible;visibility:visible;opacity:1;isolation:auto;mix-blend-mode:normal;color-interpolation:sRGB;color-interpolation-filters:linearRGB;solid-color:#000000;solid-opacity:1;vector-effect:none;fill:#bebebe;fill-opacity:1;fill-rule:nonzero;stroke:none;stroke-width:0.245592;stroke-linecap:butt;stroke-linejoin:miter;stroke-miterlimit:4;stroke-dasharray:none;stroke-dashoffset:0;stroke-opacity:1;color-rendering:auto;image-rendering:auto;shape-rendering:auto;text-rendering:auto;enable-background:accumulate;stop-color:#000000;stop-opacity:1"
       d="m 84.5437,70.630376 c -2.343756,0 -4.231108,1.886568 -4.231108,4.230688 v 9.768896 c -4.600315,1.245652 -9.021623,3.076904 -13.155447,5.448828 l -6.907392,-6.907424 c -1.657676,-1.657676 -4.326252,-1.657676 -5.983716,0 l -14.59468,14.59468 c -1.657676,1.657676 -1.657676,4.326216 0,5.983716 l 6.907424,6.90739 c -2.37192,4.13382 -4.203172,8.55511 -5.448828,13.15542 h -9.768896 c -2.343756,0 -4.230688,1.88717 -4.230688,4.23114 v 20.63997 c 0,2.34376 1.886568,4.23114 4.230688,4.23114 h 9.768896 c 1.245812,4.60018 3.077192,9.02133 5.449216,13.155 l -6.907812,6.90784 c -1.657676,1.65767 -1.657676,4.32577 0,5.98323 l 14.59468,14.59518 c 1.657676,1.65764 4.326252,1.65764 5.983716,0 l 6.907844,-6.90786 c 4.133688,2.37186 8.55484,4.2031 13.154995,5.44878 v 9.76892 c 0,2.34376 1.887172,4.23116 4.231108,4.23116 h 20.64 c 2.34376,0 4.23111,-1.88716 4.23111,-4.23116 v -9.76892 c 4.60017,-1.2458 9.02131,-3.0772 13.15497,-5.44923 l 6.90787,6.90783 c 1.65768,1.65768 4.32577,1.65768 5.98323,0 l 14.59517,-14.5947 c 1.65767,-1.65768 1.65767,-4.32574 0,-5.98323 l -6.90785,-6.90784 c 2.37188,-4.13369 4.20312,-8.55484 5.4488,-13.155 h 9.7689 c 2.34375,0 4.23114,-1.88717 4.23114,-4.23114 v -20.63997 c 0,-2.34376 -1.88718,-4.23114 -4.23114,-4.23114 h -9.7689 c -1.24568,-4.60015 -3.07692,-9.02129 -5.4488,-13.15497 l 6.9074,-6.90784 c 1.65767,-1.65768 1.65767,-4.326252 0,-5.983716 l -14.59472,-14.59468 c -1.65767,-1.657676 -4.32576,-1.657676 -5.98323,0 l -6.90787,6.907812 c -4.13366,-2.37202 -8.5548,-4.203404 -13.15497,-5.449216 v -9.768896 c 0,-2.343756 -1.88717,-4.230688 -4.23111,-4.230688 z M 94.7684,116.8737 c 0.032,-7e-5 0.06424,-7e-5 0.09636,0 11.86858,6e-5 21.48996,9.62142 21.49002,21.49 -5e-5,11.86859 -9.62143,21.48996 -21.49002,21.49002 -11.868572,-8e-5 -21.489927,-9.62145 -21.489983,-21.49002 -5.2e-5,-11.83147 9.563379,-21.43748 21.394731,-21.49 z"
       id="path18" />
  </g>
</svg>
