<?xml version="1.0" encoding="UTF-8" standalone="no"?>
<svg
   xmlns:dc="http://purl.org/dc/elements/1.1/"
   xmlns:cc="http://creativecommons.org/ns#"
   xmlns:rdf="http://www.w3.org/1999/02/22-rdf-syntax-ns#"
   xmlns:svg="http://www.w3.org/2000/svg"
   xmlns="http://www.w3.org/2000/svg"
   width="135.46666mm"
   height="135.46666mm"
   viewBox="0 0 135.46665 135.46665"
   version="1.1"
   id="svg8">
  <defs
     id="defs2" />
  <metadata
     id="metadata5">
    <rdf:RDF>
      <cc:Work
         rdf:about="">
        <dc:format>image/svg+xml</dc:format>
        <dc:type
           rdf:resource="http://purl.org/dc/dcmitype/StillImage" />
        <dc:title />
      </cc:Work>
    </rdf:RDF>
  </metadata>
  <g
     id="layer1"
     transform="translate(-189.85709,-184.29012)">
    <path
       id="rect969"
       style="fill:#bebebe;fill-opacity:1;stroke:none;stroke-width:86.6661;stroke-linejoin:round;stroke-miterlimit:4;stroke-dasharray:none;stroke-opacity:1"
       d="M 50.544922 0 C 22.542774 0 0 22.542774 0 50.544922 L 0 461.45508 C 0 489.45723 22.542774 512 50.544922 512 L 461.45508 512 C 489.45723 512 512 489.45723 512 461.45508 L 512 50.544922 C 512 22.542774 489.45723 0 461.45508 0 L 50.544922 0 z M 50.996094 30.720703 A 20.480001 20.480001 0 0 1 51.199219 30.720703 A 20.480001 20.480001 0 0 1 71.679688 51.199219 A 20.480001 20.480001 0 0 1 51.199219 71.679688 A 20.480001 20.480001 0 0 1 30.720703 51.199219 A 20.480001 20.480001 0 0 1 50.996094 30.720703 z M 460.5957 30.720703 A 20.480001 20.480001 0 0 1 460.80078 30.720703 A 20.480001 20.480001 0 0 1 481.2793 51.199219 A 20.480001 20.480001 0 0 1 460.80078 71.679688 A 20.480001 20.480001 0 0 1 440.32031 51.199219 A 20.480001 20.480001 0 0 1 460.5957 30.720703 z M 255.3125 38.400391 A 217.6 217.6 0 0 1 256 38.400391 A 217.6 217.6 0 0 1 473.59961 256 A 217.6 217.6 0 0 1 256 473.59961 A 217.6 217.6 0 0 1 38.400391 256 A 217.6 217.6 0 0 1 255.3125 38.400391 z M 225.62109 61.820312 A 178.99519 178.99519 0 0 0 152.64648 90.474609 A 178.99519 178.99519 0 0 1 222.52148 177.13477 A 69.360635 69.360635 0 0 1 252.88477 170.19531 A 178.99519 178.99519 0 0 0 225.62109 61.820312 z M 347.67188 83.730469 A 178.99519 178.99519 0 0 1 307.55859 187.57422 A 69.360635 69.360635 0 0 1 328.75 210.40039 A 178.99519 178.99519 0 0 0 408.97461 132.60156 A 178.99519 178.99519 0 0 0 347.67188 83.730469 z M 79.417969 185.07422 A 178.99519 178.99519 0 0 0 72.646484 185.21875 A 178.99519 178.99519 0 0 0 60.974609 262.74609 A 178.99519 178.99519 0 0 1 170.96094 245.56055 A 69.360635 69.360635 0 0 1 180.13281 215.79688 A 178.99519 178.99519 0 0 0 79.417969 185.07422 z M 256 189.43945 A 66.559999 66.559999 0 0 0 189.43945 256 A 66.559999 66.559999 0 0 0 256 322.56055 A 66.559999 66.559999 0 0 0 322.56055 256 A 66.559999 66.559999 0 0 0 256 189.43945 z M 451.02539 249.25391 A 178.99519 178.99519 0 0 1 341.03906 266.43945 A 69.360635 69.360635 0 0 1 331.86719 296.20312 A 178.99519 178.99519 0 0 0 439.35352 326.78125 A 178.99519 178.99519 0 0 0 451.02539 249.25391 z M 183.25 301.59961 A 178.99519 178.99519 0 0 0 103.02539 379.39844 A 178.99519 178.99519 0 0 0 164.32812 428.26953 A 178.99519 178.99519 0 0 1 204.44141 324.42578 A 69.360635 69.360635 0 0 1 183.25 301.59961 z M 289.47852 334.86523 A 69.360635 69.360635 0 0 1 259.11523 341.80469 A 178.99519 178.99519 0 0 0 286.37891 450.17969 A 178.99519 178.99519 0 0 0 359.35352 421.52539 A 178.99519 178.99519 0 0 1 289.47852 334.86523 z M 50.996094 440.32031 A 20.480001 20.480001 0 0 1 51.199219 440.32031 A 20.480001 20.480001 0 0 1 71.679688 460.80078 A 20.480001 20.480001 0 0 1 51.199219 481.2793 A 20.480001 20.480001 0 0 1 30.720703 460.80078 A 20.480001 20.480001 0 0 1 50.996094 440.32031 z M 460.5957 440.32031 A 20.480001 20.480001 0 0 1 460.80078 440.32031 A 20.480001 20.480001 0 0 1 481.2793 460.80078 A 20.480001 20.480001 0 0 1 460.80078 481.2793 A 20.480001 20.480001 0 0 1 440.32031 460.80078 A 20.480001 20.480001 0 0 1 460.5957 440.32031 z "
       transform="matrix(0.26458333,0,0,0.26458333,189.85709,184.29012)" />
  </g>
</svg>
