<?xml version="1.0" encoding="UTF-8" standalone="no"?>
<svg
   xmlns:dc="http://purl.org/dc/elements/1.1/"
   xmlns:cc="http://creativecommons.org/ns#"
   xmlns:rdf="http://www.w3.org/1999/02/22-rdf-syntax-ns#"
   xmlns:svg="http://www.w3.org/2000/svg"
   xmlns="http://www.w3.org/2000/svg"
   xmlns:sodipodi="http://sodipodi.sourceforge.net/DTD/sodipodi-0.dtd"
   xmlns:inkscape="http://www.inkscape.org/namespaces/inkscape"
   width="512"
   height="512"
   viewBox="0 0 135.46667 135.46668"
   version="1.1"
   id="svg8"
   inkscape:version="1.0.2 (e86c870879, 2021-01-15)"
   sodipodi:docname="system-monitoring-center-environment-variables-symbolic.svg"
   inkscape:export-filename="/home/asush/Masaüstü/files/python/task_manager/icon_studies/smart-system-monitor-settings.symbolic.png"
   inkscape:export-xdpi="20.171528"
   inkscape:export-ydpi="20.171528">
  <defs
     id="defs2" />
  <sodipodi:namedview
     id="base"
     pagecolor="#ffffff"
     bordercolor="#666666"
     borderopacity="1.0"
     inkscape:pageopacity="0.0"
     inkscape:pageshadow="2"
     inkscape:zoom="0.49923165"
     inkscape:cx="230.88555"
     inkscape:cy="349.32063"
     inkscape:document-units="mm"
     inkscape:current-layer="layer1"
     inkscape:document-rotation="0"
     showgrid="false"
     inkscape:snap-object-midpoints="true"
     inkscape:snap-center="true"
     inkscape:window-width="1366"
     inkscape:window-height="696"
     inkscape:window-x="0"
     inkscape:window-y="0"
     inkscape:window-maximized="1"
     units="px" />
  <metadata
     id="metadata5">
    <rdf:RDF>
      <cc:Work
         rdf:about="">
        <dc:format>image/svg+xml</dc:format>
        <dc:type
           rdf:resource="http://purl.org/dc/dcmitype/StillImage" />
        <dc:title />
      </cc:Work>
    </rdf:RDF>
  </metadata>
  <g
     inkscape:label="Katman 1"
     inkscape:groupmode="layer"
     id="layer1"
     transform="translate(-446.95175,-403.90611)">
    <g
       aria-label="{}"
       id="text4032"
       style="font-style:normal;font-weight:normal;font-size:86.5542px;line-height:1.25;font-family:sans-serif;fill:#bebebe;fill-opacity:1;stroke:none;stroke-width:2.16386"
       transform="translate(-7.1666667e-5,14.482033)">
      <path
         d="m 500.2594,497.72983 v 12.67888 h -12.22807 q -12.28443,0 -17.91949,-4.95885 -5.63506,-4.95885 -5.63506,-15.83451 v -10.81932 q 0,-8.45258 -3.04293,-11.72092 -3.04293,-3.32468 -11.04471,-3.32468 h -3.43739 v -12.56618 h 3.43739 q 8.00178,0 11.04471,-3.26834 3.04293,-3.26833 3.04293,-11.72092 v -11.55187 q 0,-10.87566 5.63506,-15.77816 5.63506,-4.95885 17.91949,-4.95885 h 12.22807 v 12.67888 h -3.88819 q -7.94543,0 -10.3685,2.47942 -2.36673,2.42308 -2.36673,10.42486 v 9.3542 q 0,8.84704 -2.53577,12.84793 -2.53578,4.00089 -8.73435,5.40966 6.25492,1.52146 8.73435,5.52236 2.53577,4.00089 2.53577,12.79158 v 9.3542 q 0,8.05813 2.36673,10.4812 2.42307,2.47943 10.3685,2.47943 z"
         style="font-style:normal;font-variant:normal;font-weight:bold;font-stretch:normal;font-size:115.406px;font-family:sans-serif;-inkscape-font-specification:'sans-serif, Bold';font-variant-ligatures:normal;font-variant-caps:normal;font-variant-numeric:normal;font-variant-east-asian:normal;stroke-width:2.16386;fill:#bebebe;fill-opacity:1"
         id="path28877" />
      <path
         d="m 529.11091,497.72983 h 3.94454 q 7.88908,0 10.2558,-2.47943 2.42308,-2.42307 2.42308,-10.4812 v -9.3542 q 0,-8.79069 2.53578,-12.79158 2.53577,-4.0009 8.79069,-5.52236 -6.25492,-1.40877 -8.79069,-5.40966 -2.53578,-4.00089 -2.53578,-12.84793 v -9.3542 q 0,-8.00178 -2.42308,-10.42486 -2.36672,-2.47942 -10.2558,-2.47942 h -3.94454 v -12.67888 h 12.22807 q 12.28443,0 17.91949,4.95885 5.63506,4.9025 5.63506,15.77816 v 11.55187 q 0,8.45259 3.04293,11.72092 3.04293,3.26834 11.04472,3.26834 h 3.43738 v 12.56618 h -3.43738 q -8.00179,0 -11.04472,3.32468 -3.04293,3.26834 -3.04293,11.72092 v 10.81932 q 0,10.87566 -5.63506,15.83451 -5.63506,4.95885 -17.91949,4.95885 h -12.22807 z"
         style="font-style:normal;font-variant:normal;font-weight:bold;font-stretch:normal;font-size:115.406px;font-family:sans-serif;-inkscape-font-specification:'sans-serif, Bold';font-variant-ligatures:normal;font-variant-caps:normal;font-variant-numeric:normal;font-variant-east-asian:normal;stroke-width:2.16386;fill:#bebebe;fill-opacity:1"
         id="path28879" />
    </g>
  </g>
</svg>
