<?xml version="1.0" encoding="UTF-8" standalone="no"?>
<svg
   xmlns:dc="http://purl.org/dc/elements/1.1/"
   xmlns:cc="http://creativecommons.org/ns#"
   xmlns:rdf="http://www.w3.org/1999/02/22-rdf-syntax-ns#"
   xmlns:svg="http://www.w3.org/2000/svg"
   xmlns="http://www.w3.org/2000/svg"
   xmlns:sodipodi="http://sodipodi.sourceforge.net/DTD/sodipodi-0.dtd"
   xmlns:inkscape="http://www.inkscape.org/namespaces/inkscape"
   width="135.46667mm"
   height="135.46667mm"
   viewBox="0 0 135.46667 135.46667"
   version="1.1"
   id="svg8"
   inkscape:version="1.0.2 (e86c870879, 2021-01-15)"
   sodipodi:docname="system-monitoring-center-info-about-symbolic.svg">
  <defs
     id="defs2" />
  <sodipodi:namedview
     id="base"
     pagecolor="#ffffff"
     bordercolor="#666666"
     borderopacity="1.0"
     inkscape:pageopacity="0.0"
     inkscape:pageshadow="2"
     inkscape:zoom="0.41349098"
     inkscape:cx="213.76295"
     inkscape:cy="305.615"
     inkscape:document-units="mm"
     inkscape:current-layer="layer1"
     inkscape:document-rotation="0"
     showgrid="false"
     inkscape:window-width="1366"
     inkscape:window-height="696"
     inkscape:window-x="0"
     inkscape:window-y="0"
     inkscape:window-maximized="1" />
  <metadata
     id="metadata5">
    <rdf:RDF>
      <cc:Work
         rdf:about="">
        <dc:format>image/svg+xml</dc:format>
        <dc:type
           rdf:resource="http://purl.org/dc/dcmitype/StillImage" />
        <dc:title />
      </cc:Work>
    </rdf:RDF>
  </metadata>
  <g
     inkscape:label="Katman 1"
     inkscape:groupmode="layer"
     id="layer1"
     transform="translate(-37.266664,-80.766664)">
    <path
       id="path28846"
       style="color:#000000;font-style:normal;font-variant:normal;font-weight:normal;font-stretch:normal;font-size:medium;line-height:normal;font-family:sans-serif;font-variant-ligatures:normal;font-variant-position:normal;font-variant-caps:normal;font-variant-numeric:normal;font-variant-alternates:normal;font-variant-east-asian:normal;font-feature-settings:normal;font-variation-settings:normal;text-indent:0;text-align:start;text-decoration:none;text-decoration-line:none;text-decoration-style:solid;text-decoration-color:#000000;letter-spacing:normal;word-spacing:normal;text-transform:none;writing-mode:lr-tb;direction:ltr;text-orientation:mixed;dominant-baseline:auto;baseline-shift:baseline;text-anchor:start;white-space:normal;shape-padding:0;shape-margin:0;inline-size:0;clip-rule:nonzero;display:inline;overflow:visible;visibility:visible;isolation:auto;mix-blend-mode:normal;color-interpolation:sRGB;color-interpolation-filters:linearRGB;solid-color:#000000;solid-opacity:1;vector-effect:none;fill:#bebebe;fill-opacity:1;fill-rule:nonzero;stroke:none;stroke-width:9.04396;stroke-linecap:butt;stroke-linejoin:round;stroke-miterlimit:20.1;stroke-dasharray:none;stroke-dashoffset:0;stroke-opacity:1;color-rendering:auto;image-rendering:auto;shape-rendering:auto;text-rendering:auto;enable-background:accumulate;stop-color:#000000"
       d="M 255.6875 0 C 114.47762 0.17187697 -0.0003741715 114.78976 0 256 C -0.00027590551 397.33173 114.66826 512.00026 256 512 C 397.33173 512.00026 512.00026 397.33173 512 256 C 512.00026 114.66827 397.33173 -0.00027590551 256 0 L 255.69531 0 A 4.5224319 4.5224319 0 0 0 255.68945 0 L 255.6875 0 z M 256 47.707031 C 281.09406 47.706997 301.45256 68.509002 301.45312 94.423828 C 301.45354 120.33941 281.09474 141.14262 256 141.14258 C 230.90523 141.14262 210.54648 120.33941 210.54688 94.423828 C 210.54745 68.509002 230.90592 47.706997 256 47.707031 z M 253.51562 192.37109 C 264.34065 192.37109 274.09517 194.15401 280.73633 196.79492 C 284.05687 198.11538 286.57509 199.66368 288.03516 201.04102 C 289.49519 202.41831 289.81445 203.35946 289.81445 204.08203 L 289.81445 452.58203 C 289.81445 453.3046 289.49507 454.24575 288.03516 455.62305 C 286.57509 457.00034 284.05687 458.54872 280.73633 459.86914 C 274.09517 462.51005 264.34065 464.29297 253.51562 464.29297 C 242.6906 464.29297 232.93661 462.51009 226.29492 459.86914 C 222.97409 458.54869 220.45437 457.00038 218.99414 455.62305 C 217.53391 454.24571 217.21484 453.30445 217.21484 452.58203 L 217.21484 204.08203 C 217.21484 203.35965 217.53391 202.41835 218.99414 201.04102 C 220.45437 199.66364 222.97409 198.11538 226.29492 196.79492 C 232.93661 194.15398 242.6906 192.37109 253.51562 192.37109 z "
       transform="matrix(0.26458333,0,0,0.26458333,37.266664,80.766664)" />
  </g>
</svg>
