<?xml version="1.0" encoding="UTF-8" standalone="no"?>
<svg
   xmlns:dc="http://purl.org/dc/elements/1.1/"
   xmlns:cc="http://creativecommons.org/ns#"
   xmlns:rdf="http://www.w3.org/1999/02/22-rdf-syntax-ns#"
   xmlns:svg="http://www.w3.org/2000/svg"
   xmlns="http://www.w3.org/2000/svg"
   width="512"
   height="512"
   viewBox="0 0 135.46665 135.46666"
   version="1.1"
   id="svg8">
  <defs
     id="defs2" />
  <metadata
     id="metadata5">
    <rdf:RDF>
      <cc:Work
         rdf:about="">
        <dc:format>image/svg+xml</dc:format>
        <dc:type
           rdf:resource="http://purl.org/dc/dcmitype/StillImage" />
        <dc:title></dc:title>
      </cc:Work>
    </rdf:RDF>
  </metadata>
  <path
     id="path942"
     style="color:#000000;font-style:normal;font-variant:normal;font-weight:normal;font-stretch:normal;font-size:medium;line-height:normal;font-family:sans-serif;font-variant-ligatures:normal;font-variant-position:normal;font-variant-caps:normal;font-variant-numeric:normal;font-variant-alternates:normal;font-variant-east-asian:normal;font-feature-settings:normal;font-variation-settings:normal;text-indent:0;text-align:start;text-decoration:none;text-decoration-line:none;text-decoration-style:solid;text-decoration-color:#000000;letter-spacing:normal;word-spacing:normal;text-transform:none;writing-mode:lr-tb;direction:ltr;text-orientation:mixed;dominant-baseline:auto;baseline-shift:baseline;text-anchor:start;white-space:normal;shape-padding:0;shape-margin:0;inline-size:0;clip-rule:nonzero;display:inline;overflow:visible;visibility:visible;isolation:auto;mix-blend-mode:normal;color-interpolation:sRGB;color-interpolation-filters:linearRGB;solid-color:#000000;solid-opacity:1;vector-effect:none;fill:#bebebe;fill-opacity:1;fill-rule:nonzero;stroke:none;stroke-width:1.0132;stroke-linecap:butt;stroke-linejoin:miter;stroke-miterlimit:4;stroke-dasharray:none;stroke-dashoffset:0;stroke-opacity:1;color-rendering:auto;image-rendering:auto;shape-rendering:auto;text-rendering:auto;enable-background:accumulate;stop-color:#000000"
     d="M 67.732295,3.7499999e-6 C 30.384517,3.7499999e-6 2.5699998e-6,30.384517 2.5699998e-6,67.732296 1.257e-5,105.08008 30.384517,135.46665 67.732295,135.46665 c 37.347775,0 67.734355,-30.38657 67.734355,-67.734354 C 135.46665,30.384528 105.08007,3.7499999e-6 67.732295,3.7499999e-6 Z M 65.052873,10.251056 V 45.5042 c -9.892442,0.127391 -19.203975,0.954672 -27.469637,2.349724 1.688462,-8.856722 4.459806,-16.752439 7.981423,-23.115382 3.390301,-6.125673 7.393518,-10.747945 11.726933,-13.608987 2.532467,-0.461928 5.123322,-0.758272 7.761281,-0.878499 z m 5.360913,0 c 2.637811,0.120313 5.228412,0.417042 7.760766,0.879016 4.333763,2.861072 8.337308,7.48308 11.727448,13.60847 3.521625,6.362943 6.292961,14.25866 7.981423,23.115382 -8.265781,-1.39501 -17.57764,-2.222243 -27.469637,-2.349724 z m -24.38404,4.155302 c -1.868675,2.319613 -3.59501,4.913588 -5.15679,7.735444 -4.133482,7.468455 -7.223868,16.613031 -8.943641,26.788026 -3.319306,0.708335 -6.428643,1.514269 -9.288319,2.407605 -4.365827,1.36384 -8.156111,2.921738 -11.27218,4.711856 3.89589,-18.980521 17.103679,-34.512681 34.66093,-41.642931 z m 43.408199,10e-4 c 17.556545,7.130836 30.764075,22.66262 34.659895,41.642417 -3.11573,-1.790451 -6.90569,-3.348334 -11.27218,-4.712375 -2.85967,-0.893336 -5.96882,-1.69927 -9.28832,-2.407605 -1.71962,-10.174962 -4.809634,-19.319538 -8.943121,-26.787993 -1.561542,-2.821436 -3.287691,-5.41506 -5.156274,-7.734411 z M 65.052873,50.867695 V 84.599482 C 54.710306,84.460382 45.036669,83.52067 36.678379,81.998091 36.071409,77.42634 35.745104,72.648907 35.745104,67.732296 c 0,-4.915855 0.325967,-9.692348 0.932759,-14.26321 8.358402,-1.522629 18.032237,-2.462289 28.37501,-2.601391 z m 5.360913,0 c 10.342329,0.139202 20.016473,1.078809 28.37501,2.601391 0.606792,4.570862 0.932759,9.347355 0.932759,14.26321 -3e-6,4.916609 -0.326305,9.694044 -0.933275,14.265795 -8.358423,1.522531 -18.032372,2.462194 -28.374494,2.601391 z M 31.125747,54.607 c -0.486228,4.241083 -0.741556,8.629594 -0.741556,13.125296 0,4.496427 0.255178,8.885962 0.741556,13.12788 -2.449282,-0.564962 -4.754754,-1.182203 -6.885883,-1.847948 -5.48258,-1.7127 -9.836949,-3.753913 -12.631269,-5.817734 -0.466738,-0.344718 -0.880415,-0.683331 -1.252637,-1.015958 -0.111482,-1.467178 -0.168465,-2.949924 -0.168465,-4.44624 0,-1.495422 0.0566,-2.97734 0.167949,-4.443656 0.372314,-0.33261 0.786261,-0.671123 1.253153,-1.015957 2.79432,-2.063822 7.148689,-4.105034 12.631269,-5.817732 2.131129,-0.665745 4.436601,-1.282988 6.885883,-1.847951 z m 73.215163,0 c 2.44941,0.564963 4.75475,1.182206 6.88588,1.847951 5.48257,1.712698 9.83695,3.75391 12.63127,5.817732 0.46689,0.344834 0.88094,0.683347 1.25316,1.015957 0.11135,1.466316 0.16794,2.948234 0.16794,4.443656 0,1.496316 -0.057,2.979062 -0.16846,4.44624 -0.37213,0.332627 -0.7859,0.67124 -1.25264,1.015958 -2.79432,2.063821 -7.1487,4.105034 -12.63127,5.817734 -2.13113,0.665745 -4.43647,1.282986 -6.88588,1.847948 0.48633,-4.241918 0.74156,-8.631453 0.74156,-13.12788 0,-4.495702 -0.25538,-8.884213 -0.74156,-13.125296 z m 19.75641,24.810372 c -3.89644,18.97869 -17.10343,34.509748 -34.658856,41.640858 1.868307,-2.31917 3.594409,-4.9123 5.155755,-7.73338 4.133349,-7.4682 7.223471,-16.613318 8.943121,-26.788534 3.3195,-0.708146 6.42865,-1.513752 9.28832,-2.407089 4.3662,-1.363958 8.15605,-2.92155 11.27166,-4.711855 z m -112.727987,5.16e-4 c 3.115954,1.789974 6.906118,3.347582 11.271663,4.711339 2.859676,0.893337 5.969013,1.698943 9.288319,2.407089 1.719808,10.175213 4.810297,19.320324 8.943641,26.788534 1.561582,2.8215 3.287869,5.41498 5.156274,7.73442 C 28.473085,113.92874 15.265846,98.397308 11.369333,79.417888 Z m 26.213903,8.19433 c 8.265662,1.394492 17.577195,2.220902 27.469637,2.348177 V 125.2156 c -2.637226,-0.1202 -5.227417,-0.41624 -7.759215,-0.87798 -4.334253,-2.86035 -8.338126,-7.4828 -11.728999,-13.6095 -3.521498,-6.36274 -6.292945,-14.258944 -7.981423,-23.115902 z m 60.300187,0 c -1.688478,8.856958 -4.459917,16.753162 -7.981423,23.115902 -3.390709,6.12642 -7.39491,10.7486 -11.729515,13.60898 -2.531681,0.46179 -5.121621,0.75821 -7.758699,0.8785 V 89.960395 c 9.891995,-0.127368 19.203856,-0.95373 27.469637,-2.348177 z" />
</svg>
