<?xml version="1.0" encoding="UTF-8" standalone="no"?>
<svg
   xmlns:dc="http://purl.org/dc/elements/1.1/"
   xmlns:cc="http://creativecommons.org/ns#"
   xmlns:rdf="http://www.w3.org/1999/02/22-rdf-syntax-ns#"
   xmlns:svg="http://www.w3.org/2000/svg"
   xmlns="http://www.w3.org/2000/svg"
   width="512"
   height="512"
   viewBox="0 0 135.46666 135.46668"
   version="1.1"
   id="svg8">
  <defs
     id="defs2" />
  <metadata
     id="metadata5">
    <rdf:RDF>
      <cc:Work
         rdf:about="">
        <dc:format>image/svg+xml</dc:format>
        <dc:type
           rdf:resource="http://purl.org/dc/dcmitype/StillImage" />
        <dc:title></dc:title>
      </cc:Work>
    </rdf:RDF>
  </metadata>
  <path
     id="path1169"
     style="color:#000000;font-style:normal;font-variant:normal;font-weight:normal;font-stretch:normal;font-size:medium;line-height:normal;font-family:sans-serif;font-variant-ligatures:normal;font-variant-position:normal;font-variant-caps:normal;font-variant-numeric:normal;font-variant-alternates:normal;font-variant-east-asian:normal;font-feature-settings:normal;font-variation-settings:normal;text-indent:0;text-align:start;text-decoration:none;text-decoration-line:none;text-decoration-style:solid;text-decoration-color:#000000;letter-spacing:normal;word-spacing:normal;text-transform:none;writing-mode:lr-tb;direction:ltr;text-orientation:mixed;dominant-baseline:auto;baseline-shift:baseline;text-anchor:start;white-space:normal;shape-padding:0;shape-margin:0;inline-size:0;clip-rule:nonzero;display:inline;overflow:visible;visibility:visible;isolation:auto;mix-blend-mode:normal;color-interpolation:sRGB;color-interpolation-filters:linearRGB;solid-color:#000000;solid-opacity:1;vector-effect:none;fill:#bebebe;fill-opacity:1;fill-rule:nonzero;stroke:none;stroke-width:3.46821;stroke-linecap:butt;stroke-linejoin:miter;stroke-miterlimit:4;stroke-dasharray:none;stroke-dashoffset:0;stroke-opacity:1;color-rendering:auto;image-rendering:auto;shape-rendering:auto;text-rendering:auto;enable-background:accumulate;stop-color:#000000"
     d="M 394.62305 0 L 394.62305 0.80859375 L 394.62305 22.849609 C 384.50227 26.121247 375.32712 31.495904 367.61523 38.462891 L 347.81055 27.029297 L 324.875 66.755859 L 325.57227 67.160156 L 344.66406 78.181641 C 343.59181 83.213348 343.02148 88.432299 343.02148 93.783203 C 343.02148 99.135294 343.59131 104.3539 344.66406 109.38672 L 324.875 120.8125 L 347.81055 160.53906 L 348.51172 160.13477 L 367.61719 149.10547 C 375.32878 156.07216 384.50287 161.44514 394.62305 164.7168 L 394.62305 187.56836 L 440.49805 187.56836 L 440.49805 186.75977 L 440.49805 164.7168 C 450.61841 161.44509 459.79419 156.07036 467.50586 149.10352 L 487.31055 160.53906 L 510.24805 120.8125 L 509.54883 120.4082 L 490.45898 109.38672 C 491.53173 104.3539 492.09961 99.135294 492.09961 93.783203 C 492.09961 88.432299 491.53124 83.213348 490.45898 78.181641 L 510.25 66.755859 L 487.3125 27.029297 L 486.61133 27.433594 L 467.50781 38.462891 C 459.79591 31.495904 450.61887 26.121247 440.49805 22.849609 L 440.49805 0 L 394.62305 0 z M 417.5625 49.806641 C 441.84993 49.806641 461.53711 69.495737 461.53711 93.783203 C 461.53711 118.07067 441.84993 137.75977 417.5625 137.75977 C 393.27503 137.75977 373.58594 118.07067 373.58594 93.783203 C 373.58594 69.495737 393.27503 49.806644 417.5625 49.806641 z M 151.53711 109.19922 L 151.53711 110.93555 L 151.53711 158.26953 C 129.80276 165.29537 110.09839 176.83725 93.537109 191.79883 L 51.007812 167.24414 L 1.7519531 252.55859 L 3.2519531 253.42383 L 44.25 277.0957 C 41.947338 287.90128 40.724609 299.10465 40.724609 310.5957 C 40.724609 322.08932 41.946344 333.29749 44.25 344.10547 L 1.75 368.64258 L 51.007812 453.95703 L 52.511719 453.08984 L 93.541016 429.40234 C 110.10167 444.3633 129.80412 455.90385 151.53711 462.92969 L 151.53711 512 L 250.05469 512 L 250.05469 510.26367 L 250.05469 462.92969 C 271.78801 455.90373 291.49193 444.36169 308.05273 429.40039 L 350.58398 453.95703 L 399.83984 368.64258 L 398.33984 367.77734 L 357.3418 344.10547 C 359.64546 333.29749 360.86914 322.08932 360.86914 310.5957 C 360.86914 299.10465 359.64643 287.90128 357.34375 277.0957 L 399.84375 252.55664 L 350.58789 167.24219 L 349.08398 168.11133 L 308.05469 191.79883 C 291.49339 176.83725 271.78905 165.29537 250.05469 158.26953 L 250.05469 109.19922 L 151.53711 109.19922 z M 200.79688 216.16016 C 252.95416 216.16016 295.23633 258.4423 295.23633 310.59961 C 295.23633 362.75688 252.95416 405.03906 200.79688 405.03906 C 148.6396 405.03906 106.35938 362.75688 106.35938 310.59961 C 106.35938 258.44231 148.6396 216.16016 200.79688 216.16016 z "
     transform="scale(0.26458334)" />
</svg>
