<?xml version="1.0" encoding="UTF-8" standalone="no"?>
<svg
   xmlns:dc="http://purl.org/dc/elements/1.1/"
   xmlns:cc="http://creativecommons.org/ns#"
   xmlns:rdf="http://www.w3.org/1999/02/22-rdf-syntax-ns#"
   xmlns:svg="http://www.w3.org/2000/svg"
   xmlns="http://www.w3.org/2000/svg"
   width="512"
   height="512"
   viewBox="0 0 135.46668 135.46666"
   version="1.1"
   id="svg8">
  <defs
     id="defs2" />
  <metadata
     id="metadata5">
    <rdf:RDF>
      <cc:Work
         rdf:about="">
        <dc:format>image/svg+xml</dc:format>
        <dc:type
           rdf:resource="http://purl.org/dc/dcmitype/StillImage" />
        <dc:title></dc:title>
      </cc:Work>
    </rdf:RDF>
  </metadata>
  <path
     id="rect831"
     style="color:#000000;font-style:normal;font-variant:normal;font-weight:normal;font-stretch:normal;font-size:medium;line-height:normal;font-family:sans-serif;font-variant-ligatures:normal;font-variant-position:normal;font-variant-caps:normal;font-variant-numeric:normal;font-variant-alternates:normal;font-variant-east-asian:normal;font-feature-settings:normal;font-variation-settings:normal;text-indent:0;text-align:start;text-decoration:none;text-decoration-line:none;text-decoration-style:solid;text-decoration-color:#000000;letter-spacing:normal;word-spacing:normal;text-transform:none;writing-mode:lr-tb;direction:ltr;text-orientation:mixed;dominant-baseline:auto;baseline-shift:baseline;text-anchor:start;white-space:normal;shape-padding:0;shape-margin:0;inline-size:0;clip-rule:nonzero;display:inline;overflow:visible;visibility:visible;opacity:1;isolation:auto;mix-blend-mode:normal;color-interpolation:sRGB;color-interpolation-filters:linearRGB;solid-color:#000000;solid-opacity:1;vector-effect:none;fill:#bebebe;fill-opacity:1;fill-rule:nonzero;stroke:none;stroke-width:3.65613;stroke-linecap:butt;stroke-linejoin:miter;stroke-miterlimit:4;stroke-dasharray:none;stroke-dashoffset:0;stroke-opacity:1;color-rendering:auto;image-rendering:auto;shape-rendering:auto;text-rendering:auto;enable-background:accumulate;stop-color:#000000;stop-opacity:1"
     d="m 149.1543,0 v 48.714844 h -34.95118 c -35.944873,0 -65.488276,29.543403 -65.488276,65.488276 V 149.1543 H 0 v 39.56836 H 48.714844 V 236.2168 H 0 v 39.5664 h 48.714844 v 47.49414 H 0 v 39.56836 h 48.714844 v 34.95703 c 0,35.94486 29.543403,65.48243 65.488276,65.48243 H 149.1543 V 512 h 39.56836 V 463.28516 H 236.2168 V 512 h 39.5664 v -48.71484 h 47.49414 V 512 h 39.56836 v -48.71484 h 34.95703 c 35.94486,0 65.48243,-29.53757 65.48243,-65.48243 V 362.8457 H 512 V 323.27734 H 463.28516 V 275.7832 H 512 V 236.2168 H 463.28516 V 188.72266 H 512 V 149.1543 h -48.71484 v -34.95118 c 0,-35.944873 -29.53757,-65.488276 -65.48243,-65.488276 H 362.8457 V 0 H 323.27734 V 48.714844 H 275.7832 V 0 H 236.2168 V 48.714844 H 188.72266 V 0 Z m -34.95118,87.412109 h 283.59961 c 15.17779,0 26.79297,11.613243 26.79297,26.791011 v 283.59961 c 0,15.17779 -11.61518,26.79297 -26.79297,26.79297 H 114.20312 c -15.177768,0 -26.791011,-11.61518 -26.791011,-26.79297 V 114.20312 c 0,-15.177768 11.613243,-26.791011 26.791011,-26.791011 z m 11.20704,37.998051 v 10.41015 105.66992 H 241.49023 V 125.41016 Z m 145.09961,0 v 10.41015 105.66992 H 386.58984 V 125.41016 Z M 125.41016,270.51758 v 10.40039 105.67969 H 241.49023 V 270.51758 Z m 145.09961,0 v 10.40039 105.67969 H 386.58984 V 270.51758 Z"
     transform="scale(0.26458334)" />
</svg>
