<?xml version="1.0" encoding="UTF-8" standalone="no"?>
<svg
   xmlns:dc="http://purl.org/dc/elements/1.1/"
   xmlns:cc="http://creativecommons.org/ns#"
   xmlns:rdf="http://www.w3.org/1999/02/22-rdf-syntax-ns#"
   xmlns:svg="http://www.w3.org/2000/svg"
   xmlns="http://www.w3.org/2000/svg"
   width="512"
   height="512"
   viewBox="0 0 135.46667 135.46666"
   version="1.1"
   id="svg8">
  <defs
     id="defs2" />
  <metadata
     id="metadata5">
    <rdf:RDF>
      <cc:Work
         rdf:about="">
        <dc:format>image/svg+xml</dc:format>
        <dc:type
           rdf:resource="http://purl.org/dc/dcmitype/StillImage" />
        <dc:title></dc:title>
      </cc:Work>
    </rdf:RDF>
  </metadata>
  <path
     id="path1262"
     style="color:#000000;font-style:normal;font-variant:normal;font-weight:normal;font-stretch:normal;font-size:medium;line-height:normal;font-family:sans-serif;font-variant-ligatures:normal;font-variant-position:normal;font-variant-caps:normal;font-variant-numeric:normal;font-variant-alternates:normal;font-variant-east-asian:normal;font-feature-settings:normal;font-variation-settings:normal;text-indent:0;text-align:start;text-decoration:none;text-decoration-line:none;text-decoration-style:solid;text-decoration-color:#000000;letter-spacing:normal;word-spacing:normal;text-transform:none;writing-mode:lr-tb;direction:ltr;text-orientation:mixed;dominant-baseline:auto;baseline-shift:baseline;text-anchor:start;white-space:normal;shape-padding:0;shape-margin:0;inline-size:0;clip-rule:nonzero;display:inline;overflow:visible;visibility:visible;isolation:auto;mix-blend-mode:normal;color-interpolation:sRGB;color-interpolation-filters:linearRGB;solid-color:#000000;solid-opacity:1;vector-effect:none;fill:#bebebe;fill-opacity:1;fill-rule:nonzero;stroke:none;stroke-width:6.22665;stroke-linecap:round;stroke-linejoin:round;stroke-miterlimit:4;stroke-dasharray:none;stroke-dashoffset:0;stroke-opacity:1;color-rendering:auto;image-rendering:auto;shape-rendering:auto;text-rendering:auto;enable-background:accumulate;stop-color:#000000"
     d="M 24.670844,-3.5893752e-6 C 18.679594,-3.5893752e-6 13.758854,4.9207364 13.758854,10.911996 V 124.55467 c 0,5.99125 4.92074,10.912 10.91199,10.912 h 86.127046 c 5.99125,0 10.90992,-4.92075 10.90992,-10.912 V 10.911996 C 121.70781,4.9207364 116.78914,-3.5893752e-6 110.79789,-3.5893752e-6 H 95.516654 A 0.10979598,0.10979598 0 0 1 95.625694,0.10903641 V 22.974306 a 0.10979598,0.10979598 0 0 1 -0.10904,0.10955 h -55.56664 a 0.10979598,0.10979598 0 0 1 -0.10904,-0.10955 V 0.10903641 A 0.10979598,0.10979598 0 0 1 39.950014,-3.5893752e-6 Z m 20.63647,0 A 0.0740514,0.0740514 0 0 0 45.233414,0.07389641 V 16.372646 a 0.0740514,0.0740514 0 0 0 0.0739,0.0744 h 10.54147 a 0.0740514,0.0740514 0 0 0 0.0739,-0.0744 V 0.07389641 a 0.0740514,0.0740514 0 0 0 -0.0739,-0.073899999375 z m 17.15657,0 A 0.0740514,0.0740514 0 0 0 62.389484,0.07389641 V 16.372646 a 0.0740514,0.0740514 0 0 0 0.0744,0.0744 h 10.54096 a 0.0740514,0.0740514 0 0 0 0.0744,-0.0744 V 0.07389641 a 0.0740514,0.0740514 0 0 0 -0.0744,-0.073899999375 z m 17.154,0 A 0.0740514,0.0740514 0 0 0 79.543984,0.07389641 V 16.372646 a 0.0740514,0.0740514 0 0 0 0.0739,0.0744 h 10.54147 a 0.0740514,0.0740514 0 0 0 0.0739,-0.0744 V 0.07389641 A 0.0740514,0.0740514 0 0 0 90.159354,-3.5893752e-6 Z M 26.131734,7.0662364 c 2.9298,0 5.30666,2.37686 5.30666,5.3066496 0,2.92979 -2.37686,5.30872 -5.30666,5.30872 -2.92979,0 -5.30665,-2.37893 -5.30665,-5.30872 0,-2.9297896 2.37686,-5.3066496 5.30665,-5.3066496 z m 83.203196,0 c 2.92979,0 5.30665,2.37686 5.30665,5.3066496 0,2.92979 -2.37686,5.30872 -5.30665,5.30872 -2.9298,0 -5.30666,-2.37893 -5.30666,-5.30872 0,-2.9297896 2.37686,-5.3066496 5.30666,-5.3066496 z M 40.487454,44.032966 h 54.49176 c 6.443536,0 11.719176,5.27513 11.719176,11.71867 v 23.962883 c 1e-5,6.44353 -5.27564,11.71866 -11.719176,11.71866 h -54.49176 c -6.44354,0 -11.71919,-5.27513 -11.71919,-11.71866 V 55.751636 c 1e-5,-6.44354 5.27565,-11.71867 11.71919,-11.71867 z m 0,5.64824 c -3.41215,0 -6.07043,2.65828 -6.07043,6.07043 v 23.962883 c 0,3.41214 2.65828,6.07043 6.07043,6.07043 h 54.49176 c 3.41215,0 6.070436,-2.65829 6.070436,-6.07043 V 55.751636 c 0,-3.41215 -2.658286,-6.07043 -6.070436,-6.07043 z m -14.35572,68.105404 c 2.9298,0 5.30666,2.37686 5.30666,5.30665 0,2.9298 -2.37686,5.30665 -5.30666,5.30665 -2.92979,0 -5.30665,-2.37685 -5.30665,-5.30665 0,-2.92979 2.37686,-5.30665 5.30665,-5.30665 z m 83.203196,0 c 2.92979,0 5.30665,2.37686 5.30665,5.30665 0,2.9298 -2.37686,5.30665 -5.30665,5.30665 -2.9298,0 -5.30666,-2.37685 -5.30666,-5.30665 0,-2.92979 2.37686,-5.30665 5.30666,-5.30665 z" />
</svg>
