<?xml version="1.0" encoding="UTF-8" standalone="no"?>
<svg
   width="512"
   height="512"
   viewBox="0 0 135.46666 135.46668"
   version="1.1"
   id="svg8"
   xmlns="http://www.w3.org/2000/svg"
   xmlns:svg="http://www.w3.org/2000/svg"
   xmlns:rdf="http://www.w3.org/1999/02/22-rdf-syntax-ns#"
   xmlns:cc="http://creativecommons.org/ns#"
   xmlns:dc="http://purl.org/dc/elements/1.1/">
  <defs
     id="defs2">
    <rect
       x="100.35936"
       y="188.85616"
       width="33.861729"
       height="51.982349"
       id="rect1121" />
  </defs>
  <metadata
     id="metadata5">
    <rdf:RDF>
      <cc:Work
         rdf:about="">
        <dc:format>image/svg+xml</dc:format>
        <dc:type
           rdf:resource="http://purl.org/dc/dcmitype/StillImage" />
      </cc:Work>
    </rdf:RDF>
  </metadata>
  <g
     id="layer1"
     transform="translate(-71.279902,74.840254)">
    <g
       id="g996">
      <path
         id="path992"
         style="color:#000000;font-style:normal;font-variant:normal;font-weight:normal;font-stretch:normal;font-size:medium;line-height:normal;font-family:sans-serif;font-variant-ligatures:normal;font-variant-position:normal;font-variant-caps:normal;font-variant-numeric:normal;font-variant-alternates:normal;font-variant-east-asian:normal;font-feature-settings:normal;font-variation-settings:normal;text-indent:0;text-align:start;text-decoration:none;text-decoration-line:none;text-decoration-style:solid;text-decoration-color:#000000;letter-spacing:normal;word-spacing:normal;text-transform:none;writing-mode:lr-tb;direction:ltr;text-orientation:mixed;dominant-baseline:auto;baseline-shift:baseline;text-anchor:start;white-space:normal;shape-padding:0;shape-margin:0;inline-size:0;clip-rule:nonzero;display:inline;overflow:visible;visibility:visible;opacity:0.993;isolation:auto;mix-blend-mode:normal;color-interpolation:sRGB;color-interpolation-filters:linearRGB;solid-color:#000000;solid-opacity:1;vector-effect:none;fill:#bfbebe;fill-opacity:1;fill-rule:nonzero;stroke:none;stroke-width:0.319294;stroke-linecap:butt;stroke-linejoin:miter;stroke-miterlimit:4;stroke-dasharray:none;stroke-dashoffset:0;stroke-opacity:1;color-rendering:auto;image-rendering:auto;shape-rendering:auto;text-rendering:auto;enable-background:accumulate;stop-color:#000000"
         d="m 116.24001,-56.971788 c -5.66643,0 -10.22887,4.562444 -10.22887,10.228871 v 5.777774 H 91.44943 c -11.17391,0 -20.16953,8.995621 -20.16953,20.169545 v 43.384 c 0,11.173906 8.99562,20.169544 20.16953,20.169544 h 95.12759 c 11.17393,0 20.16955,-8.995638 20.16955,-20.169544 v -43.384 c 0,-11.173924 -8.99562,-20.169545 -20.16955,-20.169545 h -14.56269 v -5.777774 c 0,-5.666427 -4.56242,-10.228871 -10.22888,-10.228871 z m 22.65894,25.72571 c 0.0381,-5.8e-5 0.0762,-5.8e-5 0.11428,0 17.75171,0 32.14218,14.390773 32.14247,32.14248 0,17.751916 -14.39057,32.142498 -32.14247,32.142479 -17.75191,1.9e-5 -32.1425,-14.390563 -32.14249,-32.142479 1.6e-4,-17.707207 14.3211,-32.079577 32.02821,-32.14248 z m 48.46316,2.498337 h 7.45625 c 1.96619,0 3.54974,1.58357 3.54974,3.549744 v 2.669265 c 0,1.966175 -1.58355,3.54875 -3.54974,3.54875 h -7.45625 c -1.96616,0 -3.54876,-1.582575 -3.54876,-3.54875 v -2.669265 c 0,-1.966174 1.5826,-3.549744 3.54876,-3.549744 z" />
      <path
         style="color:#000000;font-style:normal;font-variant:normal;font-weight:normal;font-stretch:normal;font-size:medium;line-height:normal;font-family:sans-serif;font-variant-ligatures:normal;font-variant-position:normal;font-variant-caps:normal;font-variant-numeric:normal;font-variant-alternates:normal;font-variant-east-asian:normal;font-feature-settings:normal;font-variation-settings:normal;text-indent:0;text-align:start;text-decoration:none;text-decoration-line:none;text-decoration-style:solid;text-decoration-color:#000000;letter-spacing:normal;word-spacing:normal;text-transform:none;writing-mode:lr-tb;direction:ltr;text-orientation:mixed;dominant-baseline:auto;baseline-shift:baseline;text-anchor:start;white-space:normal;shape-padding:0;shape-margin:0;inline-size:0;clip-rule:nonzero;display:inline;overflow:visible;visibility:visible;opacity:0.993;isolation:auto;mix-blend-mode:normal;color-interpolation:sRGB;color-interpolation-filters:linearRGB;solid-color:#000000;solid-opacity:1;vector-effect:none;fill:#bfbebe;fill-opacity:1;fill-rule:nonzero;stroke:none;stroke-width:0.319294;stroke-linecap:butt;stroke-linejoin:miter;stroke-miterlimit:4;stroke-dasharray:none;stroke-dashoffset:0;stroke-opacity:1;color-rendering:auto;image-rendering:auto;shape-rendering:auto;text-rendering:auto;enable-background:accumulate;stop-color:#000000"
         d="m 138.95893,-24.387078 c -13.94247,0.02981 -25.22934,11.340696 -25.22947,25.283199 -1.2e-4,13.963867 11.31987,25.283852 25.28373,25.283736 13.96366,-1.73e-4 25.28332,-11.320062 25.2832,-25.283736 -1.7e-4,-13.963464 -11.31975,-25.283045 -25.2832,-25.283199 -0.0173,-1.9e-5 -0.0362,-1.9e-5 -0.0542,0 z"
         id="path989" />
    </g>
    <g
       transform="matrix(3.8084096,0,0,3.8084096,-845.99367,-667.94512)"
       id="text1119"
       style="font-style:normal;font-weight:normal;font-size:10.5833px;line-height:1.25;font-family:sans-serif;white-space:pre;shape-inside:url(#rect1121);fill:#000000;fill-opacity:1;stroke:none" />
  </g>
</svg>
