<?xml version="1.0" encoding="UTF-8" standalone="no"?>
<svg
   xmlns:dc="http://purl.org/dc/elements/1.1/"
   xmlns:cc="http://creativecommons.org/ns#"
   xmlns:rdf="http://www.w3.org/1999/02/22-rdf-syntax-ns#"
   xmlns:svg="http://www.w3.org/2000/svg"
   xmlns="http://www.w3.org/2000/svg"
   width="512"
   height="512"
   viewBox="0 0 135.46665 135.46668"
   version="1.1"
   id="svg8">
  <defs
     id="defs2" />
  <metadata
     id="metadata5">
    <rdf:RDF>
      <cc:Work
         rdf:about="">
        <dc:format>image/svg+xml</dc:format>
        <dc:type
           rdf:resource="http://purl.org/dc/dcmitype/StillImage" />
        <dc:title></dc:title>
      </cc:Work>
    </rdf:RDF>
  </metadata>
  <path
     id="path1169"
     style="color:#000000;font-style:normal;font-variant:normal;font-weight:normal;font-stretch:normal;font-size:medium;line-height:normal;font-family:sans-serif;font-variant-ligatures:normal;font-variant-position:normal;font-variant-caps:normal;font-variant-numeric:normal;font-variant-alternates:normal;font-variant-east-asian:normal;font-feature-settings:normal;font-variation-settings:normal;text-indent:0;text-align:start;text-decoration:none;text-decoration-line:none;text-decoration-style:solid;text-decoration-color:#000000;letter-spacing:normal;word-spacing:normal;text-transform:none;writing-mode:lr-tb;direction:ltr;text-orientation:mixed;dominant-baseline:auto;baseline-shift:baseline;text-anchor:start;white-space:normal;shape-padding:0;shape-margin:0;inline-size:0;clip-rule:nonzero;display:inline;overflow:visible;visibility:visible;isolation:auto;mix-blend-mode:normal;color-interpolation:sRGB;color-interpolation-filters:linearRGB;solid-color:#000000;solid-opacity:1;vector-effect:none;fill:#bebebe;fill-opacity:1;fill-rule:nonzero;stroke:none;stroke-width:1.1664;stroke-linecap:butt;stroke-linejoin:miter;stroke-miterlimit:4;stroke-dasharray:none;stroke-dashoffset:0;stroke-opacity:1;color-rendering:auto;image-rendering:auto;shape-rendering:auto;text-rendering:auto;enable-background:accumulate;stop-color:#000000"
     d="M 51.166903,2.4999992e-6 V 0.58394614 16.50287 C 43.857381,18.865742 37.230358,22.747425 31.660601,27.779184 L 17.357599,19.52129 0.79220291,48.213594 1.2965649,48.504533 15.084353,56.465287 c -0.774413,3.634044 -1.185457,7.402432 -1.185457,11.26701 0,3.865436 0.411226,7.634748 1.185974,11.269596 L 0.79168614,87.254104 17.357082,115.94641 l 0.505913,-0.29198 13.79864,-7.96643 c 5.569543,5.03155 12.196207,8.91291 19.505268,11.27579 v 16.50287 h 33.132343 v -0.58394 -15.91893 c 7.309175,-2.36291 13.935672,-6.24465 19.505264,-11.27631 l 14.30404,8.25841 16.5654,-28.691786 -0.50436,-0.291457 -13.78831,-7.960754 c 0.77475,-3.634848 1.18597,-7.404158 1.18597,-11.269596 0,-3.864578 -0.41104,-7.632966 -1.18545,-11.26701 l 14.29318,-8.252209 -16.5654,-28.692305 -0.50591,0.291972 -13.79812,7.966439 C 98.235791,22.747425 91.60877,18.865742 84.299246,16.50287 V 2.4999992e-6 Z M 67.733332,35.97248 c 17.541115,0 31.760852,14.219737 31.760852,31.760852 0,17.541115 -14.219737,31.760852 -31.760852,31.760852 -17.541112,-3e-6 -31.760848,-14.219737 -31.760848,-31.760852 0,-17.541115 14.219736,-31.760849 31.760848,-31.760852 z" />
</svg>
