<?xml version="1.0" encoding="UTF-8" standalone="no"?>
<svg
   xmlns:dc="http://purl.org/dc/elements/1.1/"
   xmlns:cc="http://creativecommons.org/ns#"
   xmlns:rdf="http://www.w3.org/1999/02/22-rdf-syntax-ns#"
   xmlns:svg="http://www.w3.org/2000/svg"
   xmlns="http://www.w3.org/2000/svg"
   width="512"
   height="512"
   viewBox="0 0 135.46667 135.46668"
   version="1.1"
   id="svg8">
  <defs
     id="defs2" />
  <metadata
     id="metadata5">
    <rdf:RDF>
      <cc:Work
         rdf:about="">
        <dc:format>image/svg+xml</dc:format>
        <dc:type
           rdf:resource="http://purl.org/dc/dcmitype/StillImage" />
        <dc:title />
      </cc:Work>
    </rdf:RDF>
  </metadata>
  <g
     id="layer1"
     transform="translate(-147.93097,-157.24948)">
    <path
       id="rect1298"
       style="fill:#bebebe;stroke:none;stroke-width:1.98945;stroke-miterlimit:4;stroke-dasharray:none;stroke-opacity:1;fill-opacity:1"
       d="m 180.54967,164.49813 c -18.36107,1.747 -32.6187,16.79042 -32.6187,35.2087 v 27.50169 h 32.6187 v -12.69794 c -4.75375,-1.45104 -8.18574,-5.77465 -8.18574,-10.91096 v -12.95787 c 0,-5.1363 3.43199,-9.4594 8.18574,-10.91044 z m 7.16258,0 v 15.23266 c 4.75408,1.45085 8.18574,5.77443 8.18574,10.91096 v 12.95787 c 0,5.13654 -3.43166,9.46063 -8.18574,10.91148 v 12.69742 h 32.61922 v -27.50169 c 0,-18.41828 -14.25809,-33.4617 -32.61922,-35.2087 z m -39.78128,69.71047 v 15.88017 c 0,19.59987 16.14514,35.37872 36.19999,35.37872 20.05485,0 36.20051,-15.77885 36.20051,-35.37872 V 234.2086 Z" />
    <path
       id="rect835"
       style="fill:#bebebe;stroke-width:3.39579;fill-opacity:1"
       d="m 249.36358,258.24374 34.03406,-33.26092 -34.03406,-33.26093 v 19.93054 h -25.88719 v 26.65976 h 25.88719 z" />
  </g>
</svg>
