<?xml version="1.0" encoding="UTF-8" standalone="no"?>
<svg
   xmlns:dc="http://purl.org/dc/elements/1.1/"
   xmlns:cc="http://creativecommons.org/ns#"
   xmlns:rdf="http://www.w3.org/1999/02/22-rdf-syntax-ns#"
   xmlns:svg="http://www.w3.org/2000/svg"
   xmlns="http://www.w3.org/2000/svg"
   width="135.46666mm"
   height="135.46666mm"
   viewBox="0 0 135.46665 135.46667"
   version="1.1"
   id="svg8">
  <defs
     id="defs2" />
  <metadata
     id="metadata5">
    <rdf:RDF>
      <cc:Work
         rdf:about="">
        <dc:format>image/svg+xml</dc:format>
        <dc:type
           rdf:resource="http://purl.org/dc/dcmitype/StillImage" />
        <dc:title />
      </cc:Work>
    </rdf:RDF>
  </metadata>
  <g
     id="layer1"
     transform="translate(-120.2562,75.121374)">
    <path
       id="path18-1"
       style="color:#000000;font-style:normal;font-variant:normal;font-weight:normal;font-stretch:normal;font-size:medium;line-height:normal;font-family:sans-serif;font-variant-ligatures:normal;font-variant-position:normal;font-variant-caps:normal;font-variant-numeric:normal;font-variant-alternates:normal;font-variant-east-asian:normal;font-feature-settings:normal;font-variation-settings:normal;text-indent:0;text-align:start;text-decoration:none;text-decoration-line:none;text-decoration-style:solid;text-decoration-color:#000000;letter-spacing:normal;word-spacing:normal;text-transform:none;writing-mode:lr-tb;direction:ltr;text-orientation:mixed;dominant-baseline:auto;baseline-shift:baseline;text-anchor:start;white-space:normal;shape-padding:0;shape-margin:0;inline-size:0;clip-rule:nonzero;display:inline;overflow:visible;visibility:visible;isolation:auto;mix-blend-mode:normal;color-interpolation:sRGB;color-interpolation-filters:linearRGB;solid-color:#000000;solid-opacity:1;vector-effect:none;fill:#bebebe;fill-opacity:1;fill-rule:nonzero;stroke:none;stroke-width:0.928226;stroke-linecap:butt;stroke-linejoin:miter;stroke-miterlimit:4;stroke-dasharray:none;stroke-dashoffset:0;stroke-opacity:1;color-rendering:auto;image-rendering:auto;shape-rendering:auto;text-rendering:auto;enable-background:accumulate;stop-color:#000000"
       d="M 216.99219,0 C 208.13388,0 201,7.1325584 201,15.992188 v 36.921874 c -17.38609,4.708082 -34.09566,11.62928 -49.71875,20.59375 L 125.17188,47.398438 c -6.26525,-6.26521 -16.35274,-6.26521 -22.61719,0 L 47.398438,102.5625 c -6.265248,6.26521 -6.265248,16.34477 0,22.60938 l 26.109374,26.10937 C 64.54338,166.90431 57.622182,183.61391 52.914062,201 H 15.992188 C 7.1338812,201 0,208.13313 0,216.99219 V 295 c 0,8.85827 7.1325206,15.99219 15.992188,15.99219 h 36.921874 c 4.70812,17.38613 11.629318,34.09569 20.59375,49.71875 l -26.109374,26.10937 c -6.265248,6.26521 -6.265248,16.3527 0,22.61719 l 55.156252,55.16406 c 6.26524,6.26506 16.35273,6.26506 22.61719,0 l 26.10937,-26.10937 c 15.62309,8.96447 32.33266,15.88563 49.71875,20.59375 v 36.92187 C 201,504.86612 208.1332,512 216.99219,512 H 295 c 8.85831,0 15.99219,-7.13301 15.99219,-15.99219 v -36.92187 c 17.38609,-4.70812 34.09569,-11.62928 49.71875,-20.59375 l 26.10937,26.10937 c 6.26525,6.26525 16.35277,6.26525 22.61719,0 l 55.16406,-55.16406 c 6.26521,-6.26521 6.26521,-16.35262 0,-22.61719 l -26.10937,-26.10937 c 8.96447,-15.62306 15.88563,-32.33262 20.59375,-49.71875 h 36.92187 C 504.86612,310.99219 512,303.8591 512,295 V 216.99219 C 512,208.13388 504.86695,201 496.00781,201 h -36.92187 c -4.70812,-17.38609 -11.62928,-34.09569 -20.59375,-49.71875 l 26.10937,-26.10937 c 6.26521,-6.26525 6.26521,-16.34496 0,-22.60938 L 409.4375,47.398438 c -6.26521,-6.26521 -16.35277,-6.26521 -22.61719,0 L 360.71094,73.507812 C 345.08788,64.543342 328.37828,57.622144 310.99219,52.914062 V 15.992188 C 310.99219,7.1339568 303.85895,0 295,0 Z m 39.00976,95.292969 c 13.76999,0 25.0625,11.292531 25.0625,25.062501 v 106.75586 c 0,13.76997 -11.29251,25.0625 -25.0625,25.0625 -13.76995,0 -25.06054,-11.29253 -25.06054,-25.0625 V 120.35547 c -4e-5,-13.76997 11.29059,-25.062501 25.06054,-25.062501 z m -80.13476,56.621091 h 0.008 c 0.16105,0.001 0.32727,0.004 0.48828,0.008 0.15402,0.004 0.31104,0.009 0.46484,0.0156 h 0.006 0.008 c 0.16119,0.008 0.31946,0.0187 0.48047,0.0293 0.14985,0.0102 0.3015,0.0243 0.45117,0.0371 h 0.0293 c 0.15096,0.0125 0.30075,0.0275 0.45118,0.043 h 0.0137 0.0156 c 0.16007,0.0171 0.3206,0.0401 0.48047,0.0605 h 0.008 0.0137 c 0.14279,0.0186 0.2872,0.0374 0.42968,0.0586 l 0.0508,0.008 c 0.14242,0.0207 0.28563,0.043 0.42774,0.0664 h 0.0156 l 0.0156,0.008 c 0.15874,0.0267 0.31429,0.0502 0.47266,0.0801 0.15057,0.0284 0.29955,0.0565 0.44921,0.0879 l 0.0234,0.008 c 0.1502,0.0312 0.29955,0.0617 0.44922,0.0957 l 0.0234,0.008 h 0.0156 c 0.14714,0.0343 0.28928,0.0743 0.43555,0.11133 l 0.0293,0.008 c 0.14604,0.0366 0.29041,0.0721 0.43554,0.11133 h 0.008 c 0.15609,0.0425 0.31731,0.0872 0.47265,0.13281 0.15477,0.0456 0.31102,0.0977 0.46485,0.14649 h 0.008 0.008 c 0.14566,0.0466 0.29079,0.099 0.43555,0.14844 l 0.0215,0.008 c 0.14563,0.0495 0.29079,0.10206 0.43555,0.1543 h 0.008 l 0.0156,0.008 c 0.14354,0.0525 0.28524,0.10689 0.42773,0.16211 l 0.0234,0.008 c 0.14033,0.0542 0.28046,0.1053 0.41992,0.16211 l 0.008,0.008 c 0.14567,0.0593 0.29117,0.12146 0.43555,0.1836 h 0.0156 l 0.0156,0.008 c 0.13996,0.0609 0.28121,0.12197 0.41992,0.18555 l 0.0234,0.0137 c 0.13859,0.0632 0.27491,0.12756 0.41211,0.19336 l 0.008,0.008 h 0.008 c 0.14279,0.069 0.28638,0.14108 0.42774,0.21289 h 0.008 c 0.14204,0.0721 0.28753,0.14775 0.42773,0.22266 l 0.008,0.006 0.008,0.008 c 0.13727,0.0737 0.27056,0.14631 0.40625,0.22265 l 0.0156,0.006 c 0.12624,0.0706 0.2503,0.1419 0.375,0.21485 l 0.0313,0.0156 c 0.12984,0.0755 0.2543,0.1584 0.38281,0.23633 l 0.0234,0.006 0.0234,0.0156 c 0.13652,0.0844 0.27132,0.17066 0.40625,0.25782 0.13557,0.0875 0.26464,0.17544 0.39844,0.26562 l -0.0449,-0.0371 c 0.13406,0.0888 0.26615,0.18198 0.39844,0.27344 l 0.0312,0.0234 0.0293,0.0215 c 0.11868,0.0841 0.23635,0.16571 0.35352,0.25196 l 0.0391,0.0293 c 0.11717,0.0855 0.23005,0.17024 0.3457,0.25782 l 0.008,0.008 0.0156,0.008 c 0.12851,0.098 0.25072,0.19439 0.37695,0.29492 h 0.008 c 0.12586,0.10035 0.25103,0.20763 0.375,0.31055 0.12245,0.10167 0.24309,0.20447 0.36328,0.30859 h 0.006 c 0.11376,0.0985 0.22797,0.20216 0.33984,0.30274 l 0.0234,0.0156 c 0.11301,0.10118 0.22091,0.20722 0.33203,0.31055 l 0.008,0.006 h 0.008 c 0.1179,0.11013 0.23004,0.22147 0.3457,0.33398 l 0.0156,0.0215 0.0234,0.0156 c 0.0556,0.0545 0.10731,0.10704 0.16211,0.16211 l 0.043,0.043 c 0.099,0.0988 0.19974,0.2022 0.29687,0.30273 l 0.0215,0.0234 0.0156,0.0137 c 0.099,0.10421 0.19781,0.21239 0.29492,0.31836 l 0.0371,0.0371 c 0.0975,0.10549 0.19344,0.20915 0.28907,0.31641 l 0.008,0.0156 0.0156,0.0137 c 0.10205,0.11561 0.20296,0.23011 0.30274,0.34765 l 0.0137,0.0156 c 0.0994,0.11716 0.19741,0.23446 0.29492,0.35351 h -0.006 c 0.10243,0.12484 0.20296,0.25008 0.30274,0.37696 l 0.0137,0.0137 0.008,0.0156 c 0.0937,0.12057 0.18979,0.23899 0.28125,0.36133 l 0.0137,0.0215 c 0.0907,0.12118 0.17719,0.24037 0.26563,0.36328 l 0.008,0.0137 0.0156,0.0156 c 0.0832,0.11641 0.16325,0.22782 0.24414,0.34571 l 0.0293,0.0449 c 0.082,0.11811 0.1644,0.24174 0.24414,0.36133 l 0.0156,0.0234 0.0234,0.0293 c 0.0782,0.12034 0.15217,0.23959 0.22851,0.36133 l 0.0293,0.0449 c 0.0763,0.12079 0.14858,0.23914 0.22266,0.36133 l 0.0137,0.0215 0.0156,0.0234 c 0.0748,0.12552 0.14814,0.24812 0.22071,0.375 l 0.0234,0.0371 c 0.0733,0.12776 0.14379,0.25566 0.21485,0.38477 l 0.006,0.0215 0.0156,0.0156 c 0.0767,0.14121 0.14858,0.28499 0.22266,0.42774 l -0.0156,-0.0449 c 0.0752,0.14266 0.1407,0.29139 0.21289,0.43554 l 0.008,0.0156 0.0156,0.0137 c 0.0711,0.14378 0.13862,0.28452 0.20703,0.42969 h -0.008 c 0.0642,0.13626 0.1298,0.26879 0.19141,0.40625 l 0.0156,0.0293 c 0.0616,0.13619 0.11879,0.27478 0.17773,0.4121 l 0.008,0.008 v 0.0156 c 0.0631,0.14879 0.13131,0.29331 0.1914,0.44336 v 0.006 0.008 c 0.0567,0.1425 0.11588,0.28415 0.16993,0.42774 l 0.008,0.0234 c 0.0514,0.13588 0.0977,0.26946 0.14648,0.40625 l 0.008,0.0215 c 0.0518,0.14389 0.10713,0.28287 0.15624,0.42773 l -0.0234,-0.043 c 0.0499,0.14302 0.10159,0.28381 0.14843,0.42773 l 0.006,0.0293 c 0.0472,0.14374 0.096,0.28309 0.14063,0.42773 v 0.0156 l 0.008,0.0137 c 0.0457,0.15001 0.0901,0.30029 0.13281,0.45117 v 0.0137 c 0.0408,0.1447 0.081,0.29011 0.11915,0.43555 l 0.006,0.0156 c 0.0386,0.14565 0.0773,0.28921 0.11133,0.43555 0.0367,0.14941 0.0695,0.29913 0.10352,0.44922 l 0.008,0.0234 c 0.0329,0.14469 0.0655,0.29026 0.0957,0.43554 v 0.0137 c 0.0306,0.14784 0.0614,0.29499 0.0879,0.44335 0.0287,0.15109 0.0556,0.30735 0.082,0.45899 l 0.008,0.0215 c 0.0257,0.15105 0.0515,0.30553 0.0742,0.45703 v 0.0234 l 0.006,0.0293 c 0.0231,0.15981 0.0475,0.31826 0.0664,0.47852 l -0.006,-0.0137 c 0.02,0.15978 0.0435,0.32033 0.0586,0.48047 l -0.008,-0.0234 c 0.0178,0.15978 0.0357,0.32037 0.0508,0.48047 v 0.008 c 0.0151,0.16061 0.0277,0.32547 0.0391,0.48632 v 0.008 c 0.0113,0.16052 0.0217,0.31978 0.0293,0.48046 v 0.043 0.0371 c 0.005,0.14869 0.006,0.30241 0.008,0.45118 v 0.0371 c 0.004,0.14595 0.008,0.28959 0.008,0.43555 v 0.004 c 0,0.15578 -0.005,0.30909 -0.008,0.46484 v 0.043 0.0371 c -0.008,0.16077 -0.0139,0.32765 -0.0215,0.48828 v 0.0371 l -0.008,0.0371 c -0.0113,0.14151 -0.0199,0.28642 -0.0312,0.42773 l -0.008,0.0586 c -0.0113,0.1401 -0.022,0.28199 -0.0371,0.42187 v 0.0215 0.0215 c -0.0166,0.16083 -0.0397,0.31999 -0.0586,0.48047 -0.02,0.15989 -0.0437,0.32101 -0.0664,0.48047 v 0.0137 0.008 c -0.0231,0.15662 -0.0478,0.30871 -0.0742,0.46485 v 0.008 c -0.0257,0.15167 -0.0518,0.29999 -0.082,0.45117 -0.0295,0.15785 -0.0617,0.32129 -0.0957,0.47852 -0.0325,0.15775 -0.0657,0.31558 -0.10352,0.47265 v 0.0156 l -0.008,0.0137 c -0.0367,0.157 -0.0693,0.31645 -0.10938,0.47266 l 0.008,-0.0508 c -0.0386,0.15666 -0.0772,0.30902 -0.11915,0.46485 l -0.008,0.0215 v 0.0234 c -0.0416,0.15039 -0.0886,0.29966 -0.13281,0.44922 v 0.0156 c -0.0446,0.15032 -0.0911,0.29982 -0.13867,0.44922 l -0.008,0.008 c -0.0472,0.14769 -0.0907,0.29662 -0.14062,0.44335 l -0.008,0.0156 c -0.0491,0.14541 -0.10214,0.29113 -0.1543,0.43555 v 0.006 l -0.008,0.008 c -0.0525,0.14371 -0.10693,0.29287 -0.16211,0.43555 l -0.008,0.0234 c -0.0552,0.14348 -0.11172,0.28536 -0.16993,0.42774 v 0.0137 l -0.008,0.008 c -0.0582,0.14173 -0.11688,0.28132 -0.17773,0.42188 l -0.008,0.0215 c -0.0605,0.14044 -0.12048,0.2826 -0.1836,0.42188 l -0.008,0.008 -0.008,0.0137 c -0.0677,0.1469 -0.13674,0.29785 -0.20704,0.44336 -0.0676,0.13999 -0.14221,0.28133 -0.21289,0.41992 l -0.008,0.0156 c -0.0695,0.13686 -0.14265,0.27075 -0.21484,0.40625 v 0.008 c -0.0745,0.13972 -0.15142,0.2817 -0.22852,0.41992 -0.0786,0.14067 -0.15507,0.28087 -0.23633,0.41992 l -0.008,0.008 -0.006,0.0156 c -0.076,0.12829 -0.15223,0.25597 -0.23047,0.38281 l -0.0215,0.0293 c -0.0779,0.12684 -0.1562,0.25159 -0.23633,0.37695 -0.0866,0.13536 -0.17643,0.27265 -0.26562,0.40625 l -0.008,0.008 -0.008,0.0156 c -0.0831,0.12336 -0.16653,0.24541 -0.25195,0.36719 l -0.0215,0.0312 c -0.0854,0.122 -0.1705,0.24091 -0.25781,0.36133 l -0.0156,0.0215 -0.0234,0.0234 c -0.0896,0.12117 -0.17378,0.24189 -0.26563,0.36133 l -0.0215,0.0215 c -0.0918,0.12 -0.18714,0.24311 -0.28125,0.36133 -0.10054,0.12612 -0.19993,0.2451 -0.30274,0.36914 -0.10278,0.12412 -0.20509,0.24717 -0.31054,0.36914 v 0.008 c -0.0998,0.11535 -0.20655,0.22642 -0.3086,0.33985 l -0.0156,0.0234 c -0.10091,0.11286 -0.20737,0.22113 -0.31055,0.33203 l -0.008,0.0137 -0.008,0.008 c -0.11036,0.11769 -0.2194,0.23223 -0.33203,0.34766 l -0.008,0.008 -0.006,0.006 c -0.0631,0.0642 -0.12948,0.12986 -0.19336,0.19336 l -0.0137,0.0137 c -1.79183,1.7927 -3.49012,3.64518 -5.10156,5.55078 -1.6159,1.9108 -3.14192,3.87709 -4.57617,5.89063 -1.43377,2.01299 -2.78023,4.07554 -4.03125,6.17968 -1.25121,2.10452 -2.40258,4.24724 -3.46875,6.42969 -1.06719,2.18429 -2.04384,4.40165 -2.92383,6.65039 -0.8801,2.24912 -1.66996,4.53717 -2.36328,6.84375 -0.69324,2.30623 -1.28908,4.63397 -1.79297,6.98242 -0.50373,2.3475 -0.91129,4.71206 -1.22461,7.09375 -0.31343,2.38134 -0.53726,4.77703 -0.6582,7.17578 -0.12057,2.40087 -0.14559,4.80016 -0.0723,7.20508 0.0735,2.40496 0.24841,4.81931 0.51563,7.22656 0.26649,2.39659 0.63427,4.78659 1.09961,7.17579 0.46443,2.38338 1.02708,4.75456 1.6914,7.10937 v 0.006 c 0.66399,2.35701 1.42334,4.69132 2.28711,7.00586 0.86415,2.31504 1.83542,4.60784 2.90235,6.87305 1.06665,2.26478 2.23537,4.50269 3.50586,6.70312 1.2712,2.20202 2.61811,4.33025 4.04492,6.38477 1.42715,2.05495 2.92992,4.0346 4.5039,5.9414 1.57346,1.90622 3.22142,3.7395 4.92969,5.49219 1.70771,1.75201 3.47524,3.42365 5.30859,5.01953 1.83376,1.59618 3.73168,3.11642 5.66797,4.55274 1.94457,1.43223 3.93986,2.78598 5.98829,4.05273 2.047,1.26583 4.14224,2.4401 6.28124,3.53516 2.13835,1.09478 4.32338,2.10883 6.54102,3.02734 2.21734,0.91841 4.46733,1.7425 6.75391,2.48047 2.28344,0.73697 4.60408,1.38922 6.94531,1.94141 h 0.008 c 2.34119,0.5517 4.70728,1.01104 7.09375,1.37304 1.18022,0.17902 2.36795,0.33282 3.5586,0.46485 0.0222,0.002 0.0442,0.005 0.0664,0.008 1.03191,0.11364 2.06845,0.20164 3.10547,0.2793 0.2526,0.0188 0.50538,0.0419 0.75781,0.0586 0.88664,0.0588 1.77441,0.0964 2.66407,0.12891 0.37637,0.0135 0.75285,0.0306 1.1289,0.0391 0.73448,0.0175 1.47078,0.0183 2.20703,0.0176 0.54841,-0.002 1.09711,-0.002 1.64453,-0.0137 0.61274,-0.0122 1.22624,-0.0371 1.83985,-0.0625 0.62871,-0.0264 1.25755,-0.0522 1.88476,-0.0918 0.53657,-0.0337 1.07401,-0.0798 1.61133,-0.12305 0.7486,-0.0608 1.49632,-0.12159 2.24219,-0.20117 0.29171,-0.0305 0.58337,-0.0683 0.875,-0.10156 1.02032,-0.11905 2.04028,-0.24682 3.05273,-0.40039 2.38889,-0.36238 4.7503,-0.8206 7.09375,-1.37305 2.34361,-0.55255 4.65961,-1.20371 6.94532,-1.94141 h 0.008 c 2.28658,-0.73796 4.53852,-1.56205 6.75586,-2.48047 2.21764,-0.91852 4.40079,-1.93063 6.53906,-3.02539 2.13899,-1.09504 4.23617,-2.27127 6.2832,-3.53711 2.04839,-1.26674 4.04169,-2.62048 5.98633,-4.05273 1.94412,-1.43187 3.84207,-2.95071 5.67578,-4.54688 1.83341,-1.59592 3.60101,-3.26759 5.3086,-5.01953 1.70831,-1.75269 3.35814,-3.58596 4.93164,-5.49218 1.57394,-1.90681 3.07484,-3.88646 4.50195,-5.94141 1.42689,-2.05456 2.77379,-4.1848 4.04492,-6.38672 1.27045,-2.20043 2.4392,-4.43639 3.50586,-6.70117 1.06696,-2.26521 2.03819,-4.55801 2.90235,-6.87305 0.86373,-2.31454 1.6231,-4.64884 2.2871,-7.00586 v -0.008 c 0.66433,-2.35487 1.22706,-4.72416 1.69141,-7.10742 0.46534,-2.3892 0.83315,-4.7792 1.09961,-7.17578 0.26729,-2.40726 0.44388,-4.82161 0.51758,-7.22657 0.0733,-2.40491 0.0467,-4.80421 -0.0742,-7.20507 -0.1211,-2.39876 -0.34293,-4.79447 -0.65625,-7.17578 -0.31355,-2.38169 -0.72283,-4.74626 -1.22656,-7.09376 -0.50389,-2.34843 -1.09969,-4.6762 -1.79297,-6.98242 v -0.008 c -0.69332,-2.30658 -1.48318,-4.58683 -2.36328,-6.83594 -0.87995,-2.24873 -1.85465,-4.46609 -2.92188,-6.65039 -1.06613,-2.18244 -2.21949,-4.32518 -3.4707,-6.42968 -1.25102,-2.10415 -2.59553,-4.16668 -4.0293,-6.17969 -1.43429,-2.01353 -2.96222,-3.97982 -4.57812,-5.89063 -1.61144,-1.90559 -3.30774,-3.75806 -5.09961,-5.55078 -0.0688,-0.0683 -0.139,-0.1379 -0.20703,-0.20703 l -0.008,-0.008 -0.008,-0.008 c -0.11263,-0.11544 -0.22167,-0.228 -0.33203,-0.3457 l -0.008,-0.008 -0.0156,-0.0156 c -0.10318,-0.11085 -0.20182,-0.21925 -0.30273,-0.33203 -0.10772,-0.11981 -0.21877,-0.23936 -0.32422,-0.36133 -0.10545,-0.12202 -0.20774,-0.24502 -0.31055,-0.36914 v -0.008 c -0.1028,-0.12408 -0.20257,-0.24302 -0.30273,-0.36914 -0.0941,-0.11822 -0.18746,-0.24133 -0.2793,-0.36133 -0.0983,-0.12756 -0.19344,-0.25524 -0.28906,-0.38476 l -0.0215,-0.0215 -0.0156,-0.0215 c -0.0877,-0.12038 -0.17277,-0.24128 -0.25781,-0.36328 -0.0926,-0.13172 -0.18349,-0.26491 -0.27344,-0.39844 l -0.008,-0.0137 -0.008,-0.008 c -0.0892,-0.13358 -0.17907,-0.27087 -0.26562,-0.40625 -0.0801,-0.12537 -0.15847,-0.25012 -0.23633,-0.37696 -0.085,-0.13713 -0.16798,-0.27328 -0.25,-0.41211 l -0.008,-0.008 v -0.0156 c -0.0813,-0.13905 -0.16553,-0.27925 -0.24414,-0.41993 l -0.008,-0.008 c -0.0763,-0.13718 -0.14701,-0.27539 -0.22071,-0.41406 -0.0756,-0.14227 -0.15557,-0.28396 -0.22851,-0.42774 l 0.0137,0.0156 c -0.0733,-0.14341 -0.1504,-0.29068 -0.2207,-0.43555 -0.0707,-0.1455 -0.13938,-0.29645 -0.20704,-0.44336 l -0.008,-0.0156 -0.008,-0.0137 c -0.0665,-0.14634 -0.12791,-0.29573 -0.19141,-0.44336 -0.0601,-0.13847 -0.12028,-0.27449 -0.17773,-0.41407 l -0.006,-0.008 v -0.0137 c -0.0578,-0.14238 -0.11474,-0.28426 -0.16992,-0.42773 -0.0578,-0.14979 -0.11512,-0.30026 -0.16992,-0.45118 l -0.008,-0.0137 v -0.008 c -0.0521,-0.14443 -0.10516,-0.29015 -0.15429,-0.43555 -0.004,-0.005 -0.006,-0.0103 -0.008,-0.0156 -7.5e-4,-0.002 7.6e-4,-0.006 0,-0.008 -0.0491,-0.14452 -0.0941,-0.29007 -0.14062,-0.43554 h -0.008 v -0.008 c -0.0476,-0.14873 -0.0882,-0.29959 -0.13282,-0.44922 -0.0461,-0.15403 -0.0901,-0.30211 -0.13281,-0.45703 l -0.008,-0.0312 -0.008,-0.0293 c -0.0363,-0.13615 -0.0773,-0.26755 -0.11133,-0.4043 -0.004,-0.01 -0.005,-0.0214 -0.008,-0.0312 -0.004,-0.01 -0.003,-0.0195 -0.006,-0.0293 -0.0348,-0.1367 -0.0636,-0.27479 -0.0977,-0.4121 l -0.006,-0.0156 v -0.0137 c -0.0359,-0.15708 -0.0695,-0.3149 -0.10351,-0.47266 -0.0317,-0.15256 -0.0655,-0.31169 -0.0957,-0.46484 -0.0295,-0.15597 -0.0556,-0.31029 -0.082,-0.4668 -0.0268,-0.15855 -0.0515,-0.31162 -0.0742,-0.4707 v -0.0156 -0.008 c -0.0234,-0.15943 -0.0475,-0.32059 -0.0664,-0.48047 -0.02,-0.16049 -0.0435,-0.31766 -0.0586,-0.47851 v -0.0234 -0.0215 c -0.0151,-0.13988 -0.0258,-0.27982 -0.0371,-0.41993 -0.0151,-0.16084 -0.0277,-0.32719 -0.0391,-0.48828 l -0.008,-0.0371 v -0.0371 c -0.008,-0.16065 -0.0177,-0.32554 -0.0215,-0.48633 v -0.0371 -0.0449 c -0.004,-0.15574 -0.008,-0.30905 -0.008,-0.46484 v -0.008 -0.008 c 0,-0.14345 0.006,-0.28426 0.008,-0.42773 0.004,-0.16092 0.004,-0.32547 0.008,-0.48633 v -0.0371 -0.0449 c 0.008,-0.16072 0.0179,-0.31995 0.0293,-0.48047 v -0.008 c 0.0113,-0.16085 0.0239,-0.32574 0.0391,-0.48633 v -0.008 c 0.014,-0.16007 0.0319,-0.32071 0.0508,-0.48047 l -0.008,0.0234 c 0.0166,-0.16016 0.0397,-0.32071 0.0586,-0.48047 l -0.006,0.0156 c 0.0196,-0.16026 0.0437,-0.32063 0.0664,-0.48046 l 0.006,-0.0293 v -0.0215 c 0.0231,-0.15153 0.0478,-0.30791 0.0742,-0.45898 0.0268,-0.15917 0.0577,-0.31993 0.0879,-0.47852 0.028,-0.14837 0.0596,-0.29554 0.0899,-0.44336 0.031,-0.14998 0.0617,-0.3018 0.0957,-0.45117 0.034,-0.15248 0.0657,-0.30528 0.10352,-0.45703 0.0382,-0.15691 0.0838,-0.30875 0.125,-0.46484 l -0.008,0.008 c 0.0412,-0.15529 0.0886,-0.31041 0.13282,-0.46484 l -0.0156,0.0293 c 0.0435,-0.15544 0.0938,-0.31225 0.14063,-0.46679 v -0.0137 l 0.008,-0.0156 c 0.0457,-0.14913 0.0919,-0.29321 0.14062,-0.44141 0.0442,-0.13584 0.0863,-0.27124 0.13282,-0.40625 0.0491,-0.14487 0.10251,-0.28381 0.15429,-0.42773 0.0514,-0.14423 0.10221,-0.28648 0.15625,-0.42969 0.0567,-0.15088 0.11607,-0.29951 0.17578,-0.44922 v -0.008 -0.008 c 0.0601,-0.15008 0.13025,-0.29456 0.19336,-0.44336 v -0.0137 l 0.008,-0.008 c 0.059,-0.13732 0.11417,-0.27784 0.17578,-0.41406 0.0658,-0.14765 0.13043,-0.28926 0.19922,-0.43554 0.0684,-0.14518 0.13597,-0.28397 0.20703,-0.42774 l 0.008,-0.0156 0.0156,-0.0137 c 0.0661,-0.13235 0.13044,-0.26732 0.19922,-0.39843 0.0741,-0.14275 0.14398,-0.28068 0.22071,-0.42188 l 0.0156,-0.0137 0.008,-0.0234 c 0.0711,-0.12911 0.13919,-0.25506 0.2129,-0.38281 0.0797,-0.13948 0.16174,-0.27619 0.24414,-0.41406 l 0.0156,-0.0215 0.0156,-0.0234 c 0.0741,-0.12217 0.14435,-0.24049 0.2207,-0.36132 0.0854,-0.13706 0.16975,-0.27095 0.25781,-0.40625 l 0.0234,-0.0293 0.0156,-0.0215 c 0.0798,-0.11955 0.16251,-0.24322 0.24414,-0.36133 0.0911,-0.13289 0.18009,-0.26744 0.27344,-0.39844 l 0.0137,-0.008 0.008,-0.0156 c 0.0884,-0.12291 0.17453,-0.24012 0.26562,-0.36133 0.0964,-0.12957 0.1959,-0.25716 0.29492,-0.38476 l 0.008,-0.0137 0.0156,-0.0156 c 0.0998,-0.12688 0.20071,-0.25016 0.30273,-0.375 h -0.008 c 0.096,-0.11762 0.19666,-0.23189 0.29492,-0.34765 0.10356,-0.12299 0.20435,-0.24833 0.31055,-0.36914 l 0.0156,-0.0156 0.0137,-0.0137 c 0.0956,-0.10723 0.19155,-0.21284 0.28906,-0.31836 0.10847,-0.11898 0.22091,-0.23677 0.33203,-0.35352 l 0.0215,-0.0234 0.0234,-0.0215 c 0.0971,-0.10019 0.19042,-0.19646 0.28907,-0.29492 0.0695,-0.0703 0.13478,-0.1376 0.20507,-0.20703 l 0.0234,-0.0156 0.0156,-0.0215 c 0.11565,-0.11252 0.22778,-0.2219 0.3457,-0.33203 h 0.008 l 0.008,-0.008 c 0.11112,-0.10334 0.21903,-0.20934 0.33204,-0.31055 0.11981,-0.10776 0.23962,-0.21107 0.36132,-0.31641 h 0.008 c 0.12208,-0.10537 0.24517,-0.21548 0.36914,-0.31836 0.12397,-0.10288 0.25071,-0.20242 0.37695,-0.30273 0.12646,-0.10054 0.25626,-0.20481 0.38477,-0.30274 h 0.006 l 0.008,-0.006 c 0.11414,-0.0865 0.232,-0.17533 0.34765,-0.25976 0.1301,-0.0959 0.25872,-0.18606 0.39063,-0.2793 l 0.0312,-0.0234 0.0293,-0.0215 c 0.13254,-0.0915 0.26426,-0.18466 0.39843,-0.27344 l -0.043,0.0371 c 0.13369,-0.0901 0.26276,-0.17816 0.39844,-0.26562 0.13501,-0.0871 0.26981,-0.17342 0.40625,-0.25782 l 0.0215,-0.0156 0.0234,-0.008 c 0.1301,-0.079 0.2591,-0.1598 0.39063,-0.23633 0.13406,-0.0787 0.26275,-0.15251 0.39844,-0.22852 0.14071,-0.0792 0.27976,-0.15217 0.42187,-0.22851 l 0.008,-0.008 0.0137,-0.008 c 0.14033,-0.0749 0.28014,-0.14863 0.42187,-0.2207 0.1434,-0.0728 0.29079,-0.14492 0.43555,-0.21484 h 0.008 l 0.008,-0.008 c 0.13523,-0.0649 0.27567,-0.12908 0.41211,-0.1914 0.14661,-0.0674 0.29558,-0.13482 0.44336,-0.19922 l 0.0156,-0.008 h 0.0156 c 0.14449,-0.0622 0.28771,-0.1243 0.4336,-0.1836 0.14241,-0.0581 0.28606,-0.11459 0.42968,-0.16992 0.14982,-0.0582 0.29842,-0.11478 0.44922,-0.16992 l 0.0156,-0.008 h 0.008 c 0.14453,-0.0523 0.29003,-0.10487 0.43555,-0.1543 0.1519,-0.0521 0.30396,-0.10731 0.45703,-0.15625 h 0.008 0.008 c 0.15402,-0.0488 0.30989,-0.095 0.46485,-0.14063 v -0.008 h 0.008 c 0.15515,-0.0457 0.30875,-0.0903 0.46484,-0.13281 h 0.008 0.008 c 0.14317,-0.0387 0.28411,-0.0735 0.42773,-0.10938 0.15629,-0.0398 0.30762,-0.0825 0.46485,-0.11914 h 0.0234 l 0.0137,-0.008 c 0.14942,-0.0341 0.30074,-0.0643 0.45117,-0.0957 0.15723,-0.033 0.31467,-0.0658 0.47265,-0.0957 0.15837,-0.03 0.31392,-0.0532 0.47266,-0.0801 l 0.0156,-0.008 h 0.0137 c 0.14449,-0.0237 0.29079,-0.0452 0.43554,-0.0664 0.15973,-0.024 0.32022,-0.0456 0.48047,-0.0664 h 0.008 0.008 c 0.15972,-0.0203 0.31826,-0.0435 0.47851,-0.0606 h 0.0156 0.0156 c 0.15058,-0.0156 0.29842,-0.0305 0.44922,-0.043 0.15931,-0.014 0.3206,-0.0265 0.48047,-0.0371 0.16082,-0.0106 0.31946,-0.0217 0.48047,-0.0293 h 0.008 0.006 c 0.15402,-0.007 0.31297,-0.0119 0.4668,-0.0156 0.16101,-0.004 0.32494,-0.007 0.48633,-0.008 l -0.0195,0.002 h 0.0156 c 0.1618,0 0.32456,0.005 0.48633,0.008 0.14279,0.003 0.28487,0.003 0.42773,0.008 h 0.0527 c 0.14415,0.005 0.29154,0.0139 0.43554,0.0215 h 0.0215 0.0312 c 0.15628,0.009 0.30875,0.0246 0.46484,0.0371 h 0.0156 c 0.14849,0.0117 0.29325,0.0228 0.4414,0.0371 H 338.5 c 0.15266,0.0143 0.30472,0.0334 0.45703,0.0508 h 0.008 0.008 c 0.16044,0.0186 0.32023,0.0386 0.48046,0.0606 h 0.008 l 0.0137,0.008 c 0.15171,0.0212 0.29999,0.0422 0.45117,0.0664 h 0.0234 c 0.15171,0.0239 0.29804,0.0454 0.44922,0.0723 l 0.008,0.008 h 0.008 c 0.15893,0.0286 0.32016,0.0581 0.47852,0.0898 h 0.008 c 0.15232,0.0308 0.30743,0.0621 0.45899,0.0957 l 0.0137,0.008 c 0.15231,0.0337 0.30742,0.0669 0.45898,0.10351 h 0.008 l 0.008,0.006 c 0.14925,0.0365 0.29287,0.0719 0.4414,0.11133 l 0.0234,0.008 c 0.1485,0.0391 0.29558,0.0753 0.44336,0.11719 l 0.008,0.008 h 0.006 c 0.14774,0.0423 0.29671,0.0877 0.44336,0.13282 l 0.0234,0.008 c 0.14604,0.0447 0.29041,0.0853 0.43555,0.13281 l 0.0215,0.008 0.0234,0.008 c 0.14834,0.0497 0.30377,0.10168 0.45117,0.15429 l 0.0137,0.008 c 0.13901,0.0496 0.27573,0.10411 0.41406,0.15624 l 0.0234,0.006 c 0.14393,0.0539 0.28487,0.10741 0.42774,0.16407 l 0.008,0.008 h 0.008 c 0.14925,0.0597 0.29325,0.12089 0.44141,0.18359 h 0.008 l 0.008,0.008 c 0.14355,0.0611 0.28563,0.11964 0.42774,0.18359 l 0.0156,0.008 c 0.13463,0.0604 0.27283,0.12273 0.40625,0.18555 l 0.0234,0.008 c 0.13897,0.0652 0.27415,0.13138 0.41211,0.19922 l 0.0234,0.0137 0.0215,0.008 c 0.13935,0.0699 0.27611,0.14224 0.41406,0.21485 l 0.0156,0.008 c 0.13576,0.0714 0.2717,0.14674 0.40625,0.2207 h 0.008 c 0.13878,0.0762 0.2671,0.14964 0.4043,0.22852 l 0.008,0.008 h 0.008 c 0.1316,0.076 0.26061,0.15783 0.39063,0.23633 l 0.0234,0.0137 c 0.13081,0.0786 0.26137,0.15522 0.39063,0.23633 l 0.0156,0.008 0.008,0.008 c 0.1333,0.0843 0.26691,0.17088 0.39843,0.25781 l 0.008,0.008 c 0.13156,0.0867 0.26098,0.17053 0.39062,0.25977 l 0.008,0.006 0.008,0.008 c 0.1251,0.0867 0.25336,0.17068 0.37695,0.25976 l 0.0215,0.0137 c 0.12397,0.0891 0.24669,0.18193 0.36914,0.27343 v 0.008 c 0.12839,0.0963 0.25816,0.18824 0.38477,0.28711 l 0.008,0.008 0.006,0.008 c 0.12699,0.0995 0.25223,0.1928 0.37696,0.29492 0.11865,0.0974 0.2383,0.19529 0.35546,0.29492 l 0.0137,0.0156 c 0.11754,0.0997 0.232,0.20072 0.34765,0.30273 l 0.0156,0.0137 0.008,0.008 c 0.10998,0.098 0.22394,0.19683 0.33203,0.29687 l 0.0293,0.0293 c 0.10847,0.0994 0.21177,0.20129 0.31836,0.30273 l 0.0137,0.006 0.008,0.008 c 0.11641,0.11169 0.23352,0.22582 0.34766,0.33985 2.74167,2.74166 5.34164,5.58096 7.81054,8.50391 2.46981,2.92393 4.8063,5.93058 6.99805,9.01367 2.19228,3.08389 4.24253,6.24376 6.15625,9.4707 1.91339,3.22623 3.69019,6.51919 5.32227,9.86914 1.63162,3.34921 3.11691,6.75495 4.46484,10.20899 1.34778,3.45366 2.55593,6.95143 3.61719,10.49023 1.06095,3.53846 1.98156,7.12091 2.7539,10.72656 0.77246,3.6062 1.39417,7.23659 1.875,10.88867 0.48053,3.65073 0.81682,7.3258 1.00391,11.00586 v 0.008 c 0.18747,3.6806 0.22799,7.3743 0.11914,11.06445 -0.10892,3.69123 -0.36852,7.38511 -0.77539,11.06641 v 0.006 c -0.40675,3.68284 -0.96704,7.36123 -1.67578,11.01368 v 0.008 c -0.70881,3.65498 -1.57037,7.2935 -2.58398,10.9043 -1.01337,3.61208 -2.18052,7.19374 -3.5,10.74023 -1.32012,3.54812 -2.7943,7.05866 -4.42188,10.51953 -1.62777,3.46096 -3.41225,6.87927 -5.35156,10.23828 -1.93932,3.35912 -4.00204,6.61178 -6.18555,9.75196 -2.1843,3.14119 -4.4907,6.16978 -6.90234,9.08593 -2.41115,2.91545 -4.929,5.71642 -7.55078,8.40039 -2.6216,2.68378 -5.34529,5.25037 -8.15821,7.69336 -2.81227,2.44248 -5.71499,4.76465 -8.70312,6.96094 -2.98863,2.19676 -6.0552,4.26708 -9.19727,6.20703 -3.1432,1.94069 -6.36542,3.74657 -9.64844,5.42578 -3.28354,1.67953 -6.62823,3.22718 -10.03125,4.63672 -3.40183,1.40906 -6.86032,2.68969 -10.37109,3.82422 -0.10186,0.0329 -0.2047,0.063 -0.30664,0.0957 l 0.0371,0.14453 -6.3125,1.72657 c 0.048,-0.0136 0.0381,-0.004 -0.0371,0.0156 -3.74555,1.00364 -7.50628,1.84079 -11.27148,2.51758 -3.76638,0.67702 -7.54353,1.19219 -11.31055,1.54883 -1.13763,0.10772 -2.27354,0.19656 -3.41016,0.27539 -0.008,6e-4 -0.0169,0.001 -0.0254,0.002 -0.0423,0.003 -0.0846,0.005 -0.12695,0.008 -0.84124,0.0574 -1.68285,0.10866 -2.52344,0.15039 -0.24856,0.0126 -0.49735,0.02 -0.74609,0.0312 -0.663,0.0293 -1.32575,0.0585 -1.98828,0.0781 -0.50711,0.0154 -1.01568,0.0234 -1.52344,0.0332 -0.31174,0.006 -0.62392,0.0159 -0.93555,0.0195 -0.0508,5.7e-4 -0.1015,-5.5e-4 -0.15234,0 -0.77147,0.009 -1.54361,0.01 -2.31641,0.006 -0.13669,-8.2e-4 -0.2735,-7.2e-4 -0.41015,-0.002 -0.16096,-10e-4 -0.32142,0.002 -0.48243,0 -0.75076,-0.009 -1.50249,-0.0297 -2.2539,-0.0508 -3.00434,-0.0845 -6.01283,-0.26162 -9.02539,-0.54688 -3.76702,-0.35661 -7.53636,-0.87375 -11.30274,-1.55078 -3.7652,-0.67679 -7.52593,-1.51393 -11.27148,-2.51757 h -0.008 c -0.10092,-0.0268 -0.11044,-0.0337 -0.0371,-0.0137 l -6.30469,-1.72851 0.0391,-0.14844 c -0.10454,-0.0335 -0.20999,-0.0639 -0.31445,-0.0977 -3.51073,-1.13453 -6.97121,-2.41516 -10.37305,-3.82421 -3.40297,-1.40954 -6.74771,-2.95525 -10.03125,-4.63477 -3.28301,-1.67921 -6.49742,-3.48509 -9.64062,-5.42578 -3.14208,-1.93995 -6.2165,-4.01222 -9.20508,-6.20899 -2.98813,-2.19629 -5.89086,-4.51847 -8.70313,-6.96093 -2.81287,-2.443 -5.53661,-5.00764 -8.1582,-7.69141 -2.62174,-2.68397 -5.13963,-5.48495 -7.55078,-8.40039 -2.41164,-2.91615 -4.718,-5.9467 -6.90235,-9.08789 -2.18345,-3.14018 -4.24623,-6.39283 -6.18554,-9.75195 -1.93928,-3.35901 -3.72384,-6.77735 -5.35156,-10.23828 -1.62758,-3.46088 -3.10177,-6.97142 -4.42188,-10.51954 -1.31951,-3.54648 -2.48663,-7.12814 -3.5,-10.74023 -1.01359,-3.61079 -1.87513,-7.24736 -2.58398,-10.90234 -0.70938,-3.65482 -1.26678,-7.33624 -1.67383,-11.02149 -0.40736,-3.68373 -0.66654,-7.37859 -0.77539,-11.07226 -0.10885,-3.69016 -0.0703,-7.3858 0.11718,-11.06641 0.18702,-3.68252 0.52304,-7.36051 1.00391,-11.01367 0.48083,-3.65209 1.11035,-7.28248 1.88281,-10.88867 0.77235,-3.60567 1.68511,-7.18616 2.7461,-10.72461 1.06125,-3.53881 2.26939,-7.03655 3.61718,-10.49024 1.34794,-3.45404 2.84104,-6.85977 4.47266,-10.20898 1.63208,-3.34995 3.40111,-6.64292 5.31445,-9.86914 1.91377,-3.22694 3.97179,-6.38877 6.16407,-9.47266 2.19174,-3.08309 4.52241,-6.08776 6.99218,-9.01172 2.46894,-2.92295 5.07474,-5.76225 7.81641,-8.5039 0.11414,-0.11403 0.23125,-0.22813 0.34766,-0.33985 l 0.008,-0.008 0.006,-0.008 c 0.10507,-0.10031 0.2114,-0.20436 0.31836,-0.30274 0.1183,-0.10968 0.24076,-0.21699 0.36133,-0.32422 l 0.0156,-0.008 0.008,-0.0156 c 0.11452,-0.10084 0.2293,-0.20413 0.34571,-0.30274 0.12056,-0.10303 0.2463,-0.20802 0.36914,-0.30859 0.12461,-0.10212 0.25777,-0.19732 0.38476,-0.29688 v -0.006 l 0.008,-0.008 c 0.12646,-0.0989 0.2543,-0.19276 0.38281,-0.28906 v -0.008 c 0.12397,-0.0927 0.25147,-0.18123 0.37695,-0.27149 0.13047,-0.0944 0.25796,-0.18167 0.39063,-0.27344 l 0.008,-0.008 0.008,-0.008 c 0.1282,-0.0881 0.26099,-0.17221 0.39063,-0.25781 0.13425,-0.0889 0.27018,-0.17953 0.40625,-0.26563 l 0.0156,-0.008 0.008,-0.008 c 0.12934,-0.0811 0.25986,-0.15772 0.39063,-0.23633 0.13746,-0.0832 0.27497,-0.17153 0.41406,-0.25195 h 0.008 l 0.008,-0.006 c 0.1392,-0.08 0.27932,-0.15333 0.41992,-0.23047 h -0.0156 c 0.13633,-0.075 0.27649,-0.14833 0.41407,-0.22071 0.14282,-0.0753 0.28335,-0.14832 0.42773,-0.2207 l 0.0234,-0.008 0.0293,-0.0156 c 0.13784,-0.0678 0.27498,-0.13406 0.41407,-0.19922 0.14033,-0.0662 0.27819,-0.12794 0.41992,-0.1914 0.14736,-0.0663 0.29482,-0.12806 0.44336,-0.19141 l 0.008,-0.008 h 0.008 c 0.14774,-0.0627 0.29445,-0.12583 0.44336,-0.18555 h 0.008 l 0.006,-0.008 c 0.14053,-0.0558 0.28796,-0.10897 0.42969,-0.16211 0.14774,-0.0559 0.29287,-0.10919 0.44141,-0.16211 0.15228,-0.0545 0.30553,-0.11071 0.45898,-0.16211 l 0.0215,-0.008 0.0234,-0.008 c 0.14525,-0.0476 0.28928,-0.0881 0.43555,-0.13281 0.15402,-0.0476 0.3099,-0.0962 0.46484,-0.14063 h 0.008 l 0.008,-0.006 c 0.1477,-0.0419 0.29482,-0.0801 0.44336,-0.11914 0.15609,-0.0415 0.31385,-0.0788 0.4707,-0.11719 l 0.008,-0.008 h 0.008 c 0.14906,-0.0361 0.3015,-0.0703 0.45117,-0.10352 0.15685,-0.0351 0.31543,-0.0718 0.47266,-0.10351 h 0.006 0.008 c 0.15836,-0.0318 0.31354,-0.0592 0.47265,-0.0879 h 0.008 l 0.008,-0.008 c 0.15859,-0.0281 0.32135,-0.0493 0.48047,-0.0742 0.14906,-0.0237 0.29992,-0.0456 0.44922,-0.0664 l 0.008,-0.008 h 0.008 c 0.16029,-0.022 0.3257,-0.0401 0.48633,-0.0586 h 0.008 c 0.15232,-0.0173 0.30629,-0.0384 0.45899,-0.0527 0.15511,-0.0151 0.30912,-0.025 0.46484,-0.0371 0.16086,-0.0128 0.31751,-0.0277 0.47852,-0.0371 h 0.0312 0.0215 c 0.14411,-0.008 0.29117,-0.0166 0.43555,-0.0215 0.1601,-0.006 0.32059,-0.005 0.48047,-0.008 0.16176,-0.003 0.32651,-0.008 0.48828,-0.008 z"
       transform="matrix(0.26458333,0,0,0.26458333,120.2562,-75.121374)" />
  </g>
</svg>
