<?xml version="1.0" encoding="UTF-8" standalone="no"?>
<svg
   xmlns:dc="http://purl.org/dc/elements/1.1/"
   xmlns:cc="http://creativecommons.org/ns#"
   xmlns:rdf="http://www.w3.org/1999/02/22-rdf-syntax-ns#"
   xmlns:svg="http://www.w3.org/2000/svg"
   xmlns="http://www.w3.org/2000/svg"
   width="512"
   height="512"
   viewBox="0 0 135.46667 135.46668"
   version="1.1"
   id="svg8">
  <defs
     id="defs2" />
  <metadata
     id="metadata5">
    <rdf:RDF>
      <cc:Work
         rdf:about="">
        <dc:format>image/svg+xml</dc:format>
        <dc:type
           rdf:resource="http://purl.org/dc/dcmitype/StillImage" />
        <dc:title></dc:title>
      </cc:Work>
    </rdf:RDF>
  </metadata>
  <path
     id="path2064"
     style="color:#000000;font-style:normal;font-variant:normal;font-weight:normal;font-stretch:normal;font-size:medium;line-height:normal;font-family:sans-serif;font-variant-ligatures:normal;font-variant-position:normal;font-variant-caps:normal;font-variant-numeric:normal;font-variant-alternates:normal;font-variant-east-asian:normal;font-feature-settings:normal;font-variation-settings:normal;text-indent:0;text-align:start;text-decoration:none;text-decoration-line:none;text-decoration-style:solid;text-decoration-color:#000000;letter-spacing:normal;word-spacing:normal;text-transform:none;writing-mode:lr-tb;direction:ltr;text-orientation:mixed;dominant-baseline:auto;baseline-shift:baseline;text-anchor:start;white-space:normal;shape-padding:0;shape-margin:0;inline-size:0;clip-rule:nonzero;display:inline;overflow:visible;visibility:visible;isolation:auto;mix-blend-mode:normal;color-interpolation:sRGB;color-interpolation-filters:linearRGB;solid-color:#000000;solid-opacity:1;vector-effect:none;fill:#bebebe;fill-opacity:1;fill-rule:nonzero;stroke:none;stroke-width:3.77953;stroke-linecap:round;stroke-linejoin:round;stroke-miterlimit:4;stroke-dasharray:none;stroke-dashoffset:0;stroke-opacity:1;color-rendering:auto;image-rendering:auto;shape-rendering:auto;text-rendering:auto;enable-background:accumulate;stop-color:#000000"
     d="M 254.88086 2.8710938 C 238.11642 2.8710938 223.67773 17.309789 223.67773 34.074219 L 223.67773 223.35352 C 223.67773 240.11795 238.11642 254.55664 254.88086 254.55664 L 257.11914 254.55664 C 273.88358 254.55664 288.32227 240.11795 288.32227 223.35352 L 288.32227 34.074219 C 288.32227 17.309789 273.88358 2.8710937 257.11914 2.8710938 L 254.88086 2.8710938 z M 355.49023 77.78125 A 30.236219 30.236219 0 0 0 329.1875 92.900391 A 30.236219 30.236219 0 0 0 340.25977 134.20312 C 406.43888 172.41161 438.55163 249.94853 418.77344 323.76172 C 398.99525 397.57491 332.42096 448.65625 256.00391 448.65625 C 179.58689 448.65625 113.00474 397.57491 93.226562 323.76172 C 73.448379 249.94853 105.56113 172.41161 171.74023 134.20312 A 30.236219 30.236219 0 0 0 182.8125 92.900391 A 30.236219 30.236219 0 0 0 156.82812 77.783203 A 30.236219 30.236219 0 0 0 141.50391 81.835938 C 51.8746 133.58345 8.0260223 239.44361 34.8125 339.41211 C 61.598978 439.38061 152.50892 509.12891 256.00391 509.12891 C 359.49893 509.12891 450.40101 439.38061 477.1875 339.41211 C 503.97396 239.44361 460.1254 133.58345 370.49609 81.835938 A 30.236219 30.236219 0 0 0 355.49023 77.78125 z "
     transform="scale(0.26458335)" />
</svg>
