<?xml version="1.0" encoding="UTF-8" standalone="no"?>
<svg
   xmlns:dc="http://purl.org/dc/elements/1.1/"
   xmlns:cc="http://creativecommons.org/ns#"
   xmlns:rdf="http://www.w3.org/1999/02/22-rdf-syntax-ns#"
   xmlns:svg="http://www.w3.org/2000/svg"
   xmlns="http://www.w3.org/2000/svg"
   width="512"
   height="512"
   viewBox="0 0 135.46667 135.46668"
   version="1.1"
   id="svg8">
  <defs
     id="defs2" />
  <metadata
     id="metadata5">
    <rdf:RDF>
      <cc:Work
         rdf:about="">
        <dc:format>image/svg+xml</dc:format>
        <dc:type
           rdf:resource="http://purl.org/dc/dcmitype/StillImage" />
        <dc:title></dc:title>
      </cc:Work>
    </rdf:RDF>
  </metadata>
  <path
     id="path2064"
     style="color:#000000;font-style:normal;font-variant:normal;font-weight:normal;font-stretch:normal;font-size:medium;line-height:normal;font-family:sans-serif;font-variant-ligatures:normal;font-variant-position:normal;font-variant-caps:normal;font-variant-numeric:normal;font-variant-alternates:normal;font-variant-east-asian:normal;font-feature-settings:normal;font-variation-settings:normal;text-indent:0;text-align:start;text-decoration:none;text-decoration-line:none;text-decoration-style:solid;text-decoration-color:#000000;letter-spacing:normal;word-spacing:normal;text-transform:none;writing-mode:lr-tb;direction:ltr;text-orientation:mixed;dominant-baseline:auto;baseline-shift:baseline;text-anchor:start;white-space:normal;shape-padding:0;shape-margin:0;inline-size:0;clip-rule:nonzero;display:inline;overflow:visible;visibility:visible;isolation:auto;mix-blend-mode:normal;color-interpolation:sRGB;color-interpolation-filters:linearRGB;solid-color:#000000;solid-opacity:1;vector-effect:none;fill:#bebebe;fill-opacity:1;fill-rule:nonzero;stroke:none;stroke-width:4.64542;stroke-linecap:butt;stroke-linejoin:round;stroke-miterlimit:4;stroke-dasharray:none;stroke-dashoffset:0;stroke-opacity:1;color-rendering:auto;image-rendering:auto;shape-rendering:auto;text-rendering:auto;enable-background:accumulate;stop-color:#000000"
     d="M 256.97266 96.5 A 263.6827 263.6827 0 0 0 0 301.07812 L 41.189453 312.11523 C 65.498734 221.39176 147.33395 158.59766 241.25781 158.59766 C 261.11095 158.59766 280.42042 161.41346 298.76367 166.69531 L 322.37891 104.74023 A 263.6827 263.6827 0 0 0 256.97266 96.5 z M 357.42773 116.38672 L 333.16602 180.0332 C 385.24888 205.79344 425.48731 253.02573 441.32031 312.11523 L 512 293.17578 A 263.6827 263.6827 0 0 0 357.42773 116.38672 z M 368.56836 226.01953 L 249.7207 323.37109 A 46.454008 46.454008 0 0 0 208.4082 336.19922 A 46.454008 46.454008 0 0 0 208.4082 401.89453 A 46.454008 46.454008 0 0 0 274.10352 401.89453 A 46.454008 46.454008 0 0 0 286.92969 360.57617 L 384.28125 241.73242 L 368.56836 226.01953 z "
     transform="scale(0.26458335)" />
</svg>
