<?xml version="1.0" encoding="UTF-8" standalone="no"?>
<svg
   xmlns:dc="http://purl.org/dc/elements/1.1/"
   xmlns:cc="http://creativecommons.org/ns#"
   xmlns:rdf="http://www.w3.org/1999/02/22-rdf-syntax-ns#"
   xmlns:svg="http://www.w3.org/2000/svg"
   xmlns="http://www.w3.org/2000/svg"
   width="512"
   height="512"
   viewBox="0 0 135.46665 135.46666"
   version="1.1"
   id="svg8">
  <defs
     id="defs2" />
  <metadata
     id="metadata5">
    <rdf:RDF>
      <cc:Work
         rdf:about="">
        <dc:format>image/svg+xml</dc:format>
        <dc:type
           rdf:resource="http://purl.org/dc/dcmitype/StillImage" />
        <dc:title></dc:title>
      </cc:Work>
    </rdf:RDF>
  </metadata>
  <path
     id="path1256"
     style="color:#000000;font-style:normal;font-variant:normal;font-weight:normal;font-stretch:normal;font-size:medium;line-height:normal;font-family:sans-serif;font-variant-ligatures:normal;font-variant-position:normal;font-variant-caps:normal;font-variant-numeric:normal;font-variant-alternates:normal;font-variant-east-asian:normal;font-feature-settings:normal;font-variation-settings:normal;text-indent:0;text-align:start;text-decoration:none;text-decoration-line:none;text-decoration-style:solid;text-decoration-color:#000000;letter-spacing:normal;word-spacing:normal;text-transform:none;writing-mode:lr-tb;direction:ltr;text-orientation:mixed;dominant-baseline:auto;baseline-shift:baseline;text-anchor:start;white-space:normal;shape-padding:0;shape-margin:0;inline-size:0;clip-rule:nonzero;display:inline;overflow:visible;visibility:visible;isolation:auto;mix-blend-mode:normal;color-interpolation:sRGB;color-interpolation-filters:linearRGB;solid-color:#000000;solid-opacity:1;vector-effect:none;fill:#bebebe;fill-opacity:1;fill-rule:nonzero;stroke:none;stroke-width:9.63545;stroke-linecap:butt;stroke-linejoin:miter;stroke-miterlimit:4;stroke-dasharray:none;stroke-dashoffset:0;stroke-opacity:1;color-rendering:auto;image-rendering:auto;shape-rendering:auto;text-rendering:auto;enable-background:accumulate;stop-color:#000000"
     d="M 255.99609 0 C 114.86529 0 -7.2834968e-07 114.87611 0 256.01758 C 0 397.12331 114.86529 512 255.99609 512 C 397.12687 512 512 397.12346 512 256.01758 C 512 114.87594 397.1269 0 255.99609 0 z M 255.99609 44.341797 C 262.21666 44.341797 268.36914 44.624616 274.45117 45.146484 C 280.79558 55.728382 287.07532 71.506777 292.37695 91.042969 C 298.82179 114.79177 303.92546 144.13429 307.12305 176.99414 C 290.6316 175.92559 273.54235 175.35156 255.99609 175.35156 C 238.45191 175.35156 221.36586 175.92584 204.87695 176.99414 C 208.07454 144.13429 213.17821 114.79177 219.62305 91.042969 C 224.92493 71.50588 231.20412 55.726437 237.54883 45.144531 C 243.62863 44.623047 249.77783 44.341797 255.99609 44.341797 z M 213.75391 48.537109 C 209.08685 59.049434 204.9362 71.257262 201.2207 84.941406 C 194.08515 111.24335 188.65518 143.10954 185.39844 178.50781 C 161.11301 180.73766 138.41295 184.09211 117.91797 188.39258 C 125.20681 152.39393 138.11658 120.32867 154.88086 94.759766 C 165.50387 78.543176 177.56107 65.008551 190.66016 54.574219 C 198.18227 52.147237 205.88582 50.121455 213.75391 48.537109 z M 298.24805 48.537109 C 306.11565 50.12171 313.8201 52.149053 321.3418 54.576172 C 334.44095 65.010153 346.49707 78.544598 357.11914 94.759766 C 373.88311 120.32818 386.78934 152.39266 394.07617 188.39062 C 373.58238 184.09081 350.88519 180.73751 326.60156 178.50781 C 323.34482 143.10954 317.91485 111.24335 310.7793 84.941406 C 307.06388 71.257568 302.91497 59.049275 298.24805 48.537109 z M 144.91797 75.666016 C 142.87403 78.480165 140.87912 81.361805 138.94141 84.318359 C 119.29415 114.29601 104.89888 151.58748 97.599609 193.14844 C 93.361971 194.25272 89.241801 195.39915 85.253906 196.58984 C 71.717482 200.64269 59.658981 205.16653 49.271484 210.23047 C 61.736387 153.39012 96.933479 105.21639 144.91797 75.666016 z M 367.08594 75.673828 C 415.06689 105.22478 450.26364 153.39419 462.72852 210.23047 C 452.34102 205.16653 440.28254 200.64269 426.74609 196.58984 C 422.75871 195.3993 418.63756 194.25259 414.40039 193.14844 C 407.10112 151.58748 392.70584 114.29601 373.05859 84.318359 C 371.12248 81.364242 369.12817 78.485777 367.08594 75.673828 z M 255.99609 194.43555 C 274.14727 194.43555 291.7926 195.0783 308.74609 196.24805 C 310.11049 215.31374 310.85156 235.34832 310.85156 256.01758 C 310.85156 276.67102 310.11191 296.69497 308.74805 315.75195 C 291.79396 316.92178 274.14796 317.56445 255.99609 317.56445 C 237.84597 317.56445 220.20374 316.92156 203.25195 315.75195 C 201.88809 296.69497 201.14844 276.67102 201.14844 256.01758 C 201.14844 235.34832 201.88951 215.31374 203.25391 196.24805 C 220.2051 195.07852 237.84667 194.43555 255.99609 194.43555 z M 183.85547 197.84375 C 182.60455 216.4942 181.93359 235.96256 181.93359 256.01758 C 181.93359 276.05789 182.60305 295.51423 183.85352 314.15625 C 158.48078 311.70032 135.06244 307.99965 114.48047 303.32422 C 112.37316 288.06636 111.25195 272.23651 111.25195 256 C 111.25195 239.76179 112.37119 223.93205 114.47656 208.67578 C 135.05998 203.99982 158.48041 200.29983 183.85547 197.84375 z M 328.14453 197.84375 C 353.51707 200.2996 376.93578 203.99876 397.51758 208.67383 C 399.62243 223.93071 400.74219 239.76107 400.74219 256 C 400.74219 272.23722 399.62046 288.06771 397.51367 303.32617 C 376.93332 308.00071 353.5167 311.70056 328.14648 314.15625 C 329.39695 295.51423 330.06641 276.05789 330.06641 256.01758 C 330.06641 235.96256 329.39545 216.4942 328.14453 197.84375 z M 94.605469 213.72656 C 93.022444 227.46308 92.195312 241.58591 92.195312 256 C 92.195312 270.41238 93.023076 284.53617 94.607422 298.27344 C 93.295155 297.89875 91.997356 297.52008 90.716797 297.13672 C 71.62513 291.43791 56.108677 284.69488 45.423828 277.81445 C 44.695365 270.65001 44.320312 263.3787 44.320312 256.01758 C 44.320312 248.6427 44.697037 241.3589 45.427734 234.18164 C 56.112443 227.30209 71.627815 220.56142 90.716797 214.86328 C 91.996764 214.4801 93.293824 214.10108 94.605469 213.72656 z M 417.39453 213.72656 C 418.70619 214.10108 420.00324 214.4801 421.2832 214.86328 C 440.37222 220.56142 455.88759 227.30222 466.57227 234.18164 C 467.30302 241.3589 467.67969 248.64271 467.67969 256.01758 C 467.67969 263.3787 467.30469 270.65001 466.57617 277.81445 C 455.89135 284.69488 440.3749 291.43778 421.2832 297.13672 C 420.00265 297.52008 418.70486 297.89875 417.39258 298.27344 C 418.97692 284.53617 419.80469 270.41238 419.80469 256 C 419.80469 241.58591 418.97756 227.46308 417.39453 213.72656 z M 49.265625 301.76758 C 59.654356 306.8326 71.715104 311.3566 85.253906 315.41016 C 89.243366 316.60461 93.366142 317.75447 97.605469 318.86133 C 104.90663 360.3977 119.29952 397.67703 138.94141 427.64648 C 140.89177 430.62479 142.90102 433.52569 144.95898 436.35938 C 96.946772 406.80892 61.729349 358.62041 49.265625 301.76758 z M 462.73438 301.76758 C 450.2706 358.61668 415.05404 406.80252 367.04492 436.35352 C 369.1015 433.52163 371.10954 430.6228 373.05859 427.64648 C 392.70048 397.67703 407.09337 360.3977 414.39453 318.86133 C 418.63396 317.75447 422.75663 316.60461 426.74609 315.41016 C 440.28492 311.3566 452.34565 306.8326 462.73438 301.76758 z M 117.92578 323.62305 C 138.4195 327.92656 161.11556 331.27724 185.39844 333.50195 C 188.65521 368.89208 194.08529 400.75714 201.2207 427.05859 C 204.93503 440.73843 209.0846 452.94435 213.75 463.46289 C 205.90843 461.88375 198.23042 459.86537 190.73242 457.44922 C 177.60518 447.00711 165.52356 433.45173 154.88086 417.20508 C 138.12318 391.64624 125.21618 359.59568 117.92578 323.62305 z M 394.06836 323.625 C 386.77997 359.59689 373.87648 391.64678 357.11914 417.20508 C 346.47706 433.4508 334.39536 447.00538 321.26758 457.44727 C 313.77006 459.86345 306.091 461.88162 298.25 463.46094 C 302.9151 452.94278 307.06517 440.73769 310.7793 427.05859 C 317.91471 400.75714 323.34479 368.89208 326.60156 333.50195 C 350.88123 331.27746 373.57682 327.92757 394.06836 323.625 z M 204.87695 335.00977 C 221.36616 336.075 238.45153 336.64844 255.99609 336.64844 C 273.54273 336.64844 290.63131 336.07524 307.12305 335.00977 C 303.92547 367.86396 298.82193 397.20767 292.37695 420.95703 C 287.07561 440.52601 280.79451 456.30493 274.45312 466.85352 C 268.37046 467.3755 262.21732 467.6582 255.99609 467.6582 C 249.77717 467.6582 243.6273 467.37707 237.54688 466.85547 C 231.20519 456.30687 224.92463 440.52691 219.62305 420.95703 C 213.17807 397.20767 208.07453 367.86396 204.87695 335.00977 z "
     transform="scale(0.26458331)" />
</svg>
