<?xml version="1.0" encoding="UTF-8" standalone="no"?>
<svg
   xmlns:dc="http://purl.org/dc/elements/1.1/"
   xmlns:cc="http://creativecommons.org/ns#"
   xmlns:rdf="http://www.w3.org/1999/02/22-rdf-syntax-ns#"
   xmlns:svg="http://www.w3.org/2000/svg"
   xmlns="http://www.w3.org/2000/svg"
   width="512"
   height="512"
   viewBox="0 0 135.46666 135.46668"
   version="1.1"
   id="svg8">
  <defs
     id="defs2" />
  <metadata
     id="metadata5">
    <rdf:RDF>
      <cc:Work
         rdf:about="">
        <dc:format>image/svg+xml</dc:format>
        <dc:type
           rdf:resource="http://purl.org/dc/dcmitype/StillImage" />
        <dc:title></dc:title>
      </cc:Work>
    </rdf:RDF>
  </metadata>
  <path
     id="path1169"
     style="color:#000000;font-style:normal;font-variant:normal;font-weight:normal;font-stretch:normal;font-size:medium;line-height:normal;font-family:sans-serif;font-variant-ligatures:normal;font-variant-position:normal;font-variant-caps:normal;font-variant-numeric:normal;font-variant-alternates:normal;font-variant-east-asian:normal;font-feature-settings:normal;font-variation-settings:normal;text-indent:0;text-align:start;text-decoration:none;text-decoration-line:none;text-decoration-style:solid;text-decoration-color:#000000;letter-spacing:normal;word-spacing:normal;text-transform:none;writing-mode:lr-tb;direction:ltr;text-orientation:mixed;dominant-baseline:auto;baseline-shift:baseline;text-anchor:start;white-space:normal;shape-padding:0;shape-margin:0;inline-size:0;clip-rule:nonzero;display:inline;overflow:visible;visibility:visible;isolation:auto;mix-blend-mode:normal;color-interpolation:sRGB;color-interpolation-filters:linearRGB;solid-color:#000000;solid-opacity:1;vector-effect:none;fill:#bebebe;fill-opacity:1;fill-rule:nonzero;stroke:none;stroke-width:1.1664;stroke-linecap:butt;stroke-linejoin:miter;stroke-miterlimit:4;stroke-dasharray:none;stroke-dashoffset:0;stroke-opacity:1;color-rendering:auto;image-rendering:auto;shape-rendering:auto;text-rendering:auto;enable-background:accumulate;stop-color:#000000"
     d="M 51.166905,4.9488518e-6 V 0.58394861 16.502873 C 43.857383,18.865746 37.230359,22.74743 31.660602,27.779188 L 17.3576,19.521294 0.79220202,48.213599 1.296564,48.504538 l 13.78779,7.960754 c -0.774413,3.634044 -1.185457,7.402433 -1.185458,11.267011 0,3.865435 0.411227,7.634748 1.185975,11.269596 L 0.79168526,87.25411 17.357083,115.94642 l 0.505912,-0.29197 13.798642,-7.96644 c 5.569542,5.03155 12.196207,8.91292 19.505268,11.2758 v 16.50286 h 33.132344 v -0.58394 -15.91892 c 7.309176,-2.36292 13.935673,-6.24466 19.505261,-11.27632 l 14.30404,8.25841 16.5654,-28.69179 -0.50436,-0.291457 -13.78831,-7.960754 c 0.77475,-3.634848 1.18597,-7.404161 1.18597,-11.269596 0,-3.864578 -0.41104,-7.632967 -1.18545,-11.267011 l 14.29318,-8.252209 -16.5654,-28.692306 -0.50591,0.291972 -13.79812,7.966439 C 98.235795,22.74743 91.608774,18.865745 84.299249,16.502873 V 4.9488518e-6 Z M 67.733854,46.321725 c 11.825248,0 21.411612,9.586365 21.411612,21.411612 0,11.825248 -9.586364,21.411613 -21.411612,21.411613 -11.82525,0 -21.411097,-9.586365 -21.411097,-21.411613 0,-11.825247 9.585847,-21.411612 21.411097,-21.411612 z" />
</svg>
