<?xml version="1.0" encoding="UTF-8" standalone="no"?>
<svg
   xmlns:dc="http://purl.org/dc/elements/1.1/"
   xmlns:cc="http://creativecommons.org/ns#"
   xmlns:rdf="http://www.w3.org/1999/02/22-rdf-syntax-ns#"
   xmlns:svg="http://www.w3.org/2000/svg"
   xmlns="http://www.w3.org/2000/svg"
   width="512"
   height="512"
   viewBox="0 0 135.46665 135.46665"
   version="1.1"
   id="svg8">
  <defs
     id="defs2" />
  <metadata
     id="metadata5">
    <rdf:RDF>
      <cc:Work
         rdf:about="">
        <dc:format>image/svg+xml</dc:format>
        <dc:type
           rdf:resource="http://purl.org/dc/dcmitype/StillImage" />
        <dc:title></dc:title>
      </cc:Work>
    </rdf:RDF>
  </metadata>
  <path
     id="rect969"
     style="fill:#bebebe;fill-opacity:1;stroke:none;stroke-width:56.2231;stroke-linejoin:round;stroke-miterlimit:4;stroke-dasharray:none;stroke-opacity:1"
     d="M 0 86.789062 L 0 133.76367 L 37.333984 133.76367 L 37.333984 415.60156 L 84.308594 415.60156 L 84.308594 133.76367 L 84.308594 86.789062 L 0 86.789062 z M 103.09766 133.76367 L 103.09766 368.62891 L 277.0293 368.62891 L 512 368.62891 L 512 133.76367 L 277.0293 133.76367 L 103.09766 133.76367 z M 391.59766 166.64453 A 84.551655 84.551655 0 0 1 391.76953 166.64453 A 84.551655 84.551655 0 0 1 476.32227 251.19531 A 84.551655 84.551655 0 0 1 391.76953 335.74805 A 84.551655 84.551655 0 0 1 307.21875 251.19531 A 84.551655 84.551655 0 0 1 391.59766 166.64453 z M 6.375 173.5332 L 6.375 229.90039 L 29.861328 229.90039 L 29.861328 173.5332 L 6.375 173.5332 z M 164.47852 184.76172 L 260.96484 184.76172 C 268.54767 184.76172 274.65234 189.51534 274.65234 195.42188 L 274.65234 197.04688 C 274.65234 202.9534 268.54767 207.70898 260.96484 207.70898 L 164.47852 207.70898 C 156.89572 207.70898 150.79102 202.9534 150.79102 197.04688 L 150.79102 195.42188 C 150.79102 189.51534 156.89572 184.76172 164.47852 184.76172 z M 391.76953 223.77734 A 27.419116 27.419116 0 0 0 364.34961 251.19531 A 27.419116 27.419116 0 0 0 391.76953 278.61523 A 27.419116 27.419116 0 0 0 419.18945 251.19531 A 27.419116 27.419116 0 0 0 391.76953 223.77734 z M 164.47852 239.7207 L 260.96484 239.7207 C 268.54767 239.7207 274.65234 244.47628 274.65234 250.38281 L 274.65234 252.00781 C 274.65234 257.91435 268.54767 262.66992 260.96484 262.66992 L 164.47852 262.66992 C 156.89572 262.66992 150.79102 257.91435 150.79102 252.00781 L 150.79102 250.38281 C 150.79102 244.47628 156.89572 239.7207 164.47852 239.7207 z M 6.375 286.26758 L 6.375 342.63672 L 29.861328 342.63672 L 29.861328 286.26758 L 6.375 286.26758 z M 164.47852 294.68164 L 260.96484 294.68164 C 268.54767 294.68164 274.65234 299.43722 274.65234 305.34375 L 274.65234 306.96875 C 274.65234 312.87528 268.54767 317.62891 260.96484 317.62891 L 164.47852 317.62891 C 156.89572 317.62891 150.79102 312.87528 150.79102 306.96875 L 150.79102 305.34375 C 150.79102 299.43722 156.89572 294.68164 164.47852 294.68164 z M 129.86133 378.23828 L 129.86133 425.21094 L 289.88672 425.21094 L 289.88672 378.23828 L 129.86133 378.23828 z M 339.5918 378.23828 L 339.5918 425.21094 L 443.28906 425.21094 L 443.28906 378.23828 L 339.5918 378.23828 z "
     transform="scale(0.2645833)" />
</svg>
