<?xml version="1.0" encoding="UTF-8" standalone="no"?>
<svg
   xmlns:dc="http://purl.org/dc/elements/1.1/"
   xmlns:cc="http://creativecommons.org/ns#"
   xmlns:rdf="http://www.w3.org/1999/02/22-rdf-syntax-ns#"
   xmlns:svg="http://www.w3.org/2000/svg"
   xmlns="http://www.w3.org/2000/svg"
   xmlns:sodipodi="http://sodipodi.sourceforge.net/DTD/sodipodi-0.dtd"
   xmlns:inkscape="http://www.inkscape.org/namespaces/inkscape"
   width="512"
   height="512"
   viewBox="0 0 135.46666 135.46668"
   version="1.1"
   id="svg8"
   inkscape:version="1.0.2 (e86c870879, 2021-01-15)"
   sodipodi:docname="smart-system-monitor-services-symbolic.svg"
   inkscape:export-filename="/home/asush/Masaüstü/files/python/task_manager/icon_studies/smart-system-monitor-settings.symbolic.png"
   inkscape:export-xdpi="20.171528"
   inkscape:export-ydpi="20.171528">
  <defs
     id="defs2" />
  <sodipodi:namedview
     id="base"
     pagecolor="#ffffff"
     bordercolor="#666666"
     borderopacity="1.0"
     inkscape:pageopacity="0.0"
     inkscape:pageshadow="2"
     inkscape:zoom="0.62597653"
     inkscape:cx="243.08712"
     inkscape:cy="219.72982"
     inkscape:document-units="mm"
     inkscape:current-layer="layer1"
     inkscape:document-rotation="0"
     showgrid="false"
     inkscape:snap-object-midpoints="true"
     inkscape:snap-center="true"
     inkscape:window-width="1366"
     inkscape:window-height="696"
     inkscape:window-x="0"
     inkscape:window-y="0"
     inkscape:window-maximized="1"
     units="px" />
  <metadata
     id="metadata5">
    <rdf:RDF>
      <cc:Work
         rdf:about="">
        <dc:format>image/svg+xml</dc:format>
        <dc:type
           rdf:resource="http://purl.org/dc/dcmitype/StillImage" />
        <dc:title></dc:title>
      </cc:Work>
    </rdf:RDF>
  </metadata>
  <g
     inkscape:label="Katman 1"
     inkscape:groupmode="layer"
     id="layer1"
     transform="translate(-27.130369,-67.562618)">
    <path
       style="color:#000000;font-style:normal;font-variant:normal;font-weight:normal;font-stretch:normal;font-size:medium;line-height:normal;font-family:sans-serif;font-variant-ligatures:normal;font-variant-position:normal;font-variant-caps:normal;font-variant-numeric:normal;font-variant-alternates:normal;font-variant-east-asian:normal;font-feature-settings:normal;font-variation-settings:normal;text-indent:0;text-align:start;text-decoration:none;text-decoration-line:none;text-decoration-style:solid;text-decoration-color:#000000;letter-spacing:normal;word-spacing:normal;text-transform:none;writing-mode:lr-tb;direction:ltr;text-orientation:mixed;dominant-baseline:auto;baseline-shift:baseline;text-anchor:start;white-space:normal;shape-padding:0;shape-margin:0;inline-size:0;clip-rule:nonzero;display:inline;overflow:visible;visibility:visible;opacity:1;isolation:auto;mix-blend-mode:normal;color-interpolation:sRGB;color-interpolation-filters:linearRGB;solid-color:#000000;solid-opacity:1;vector-effect:none;fill:#000000;fill-opacity:1;fill-rule:nonzero;stroke:none;stroke-width:0.166462;stroke-linecap:butt;stroke-linejoin:miter;stroke-miterlimit:4;stroke-dasharray:none;stroke-dashoffset:0;stroke-opacity:1;color-rendering:auto;image-rendering:auto;shape-rendering:auto;text-rendering:auto;enable-background:accumulate;stop-color:#000000;stop-opacity:1"
       d="m 66.044943,93.545142 c -1.58859,0 -2.867832,1.27871 -2.867832,2.867547 v 6.621331 c -3.118078,0.84429 -6.114827,2.08551 -8.91672,3.69319 l -4.681808,-4.68183 c -1.123567,-1.12356 -2.93232,-1.12356 -4.055743,0 l -9.892228,9.89223 c -1.123567,1.12357 -1.123567,2.9323 0,4.05575 l 4.68183,4.6818 c -1.607681,2.80189 -2.848898,5.79863 -3.693198,8.9167 h -6.621327 c -1.58859,0 -2.867546,1.27913 -2.867546,2.86785 v 13.98972 c 0,1.58858 1.278709,2.86785 2.867546,2.86785 h 6.621327 c 0.844407,3.11798 2.085712,6.11463 3.693461,8.91641 l -4.682093,4.68211 c -1.123567,1.12357 -1.123567,2.93199 0,4.05542 l 9.892228,9.89257 c 1.123567,1.12354 2.932319,1.12354 4.055743,0 l 4.682115,-4.68213 c 2.801799,1.60765 5.798443,2.84885 8.916413,3.69317 v 6.62134 c 0,1.58859 1.27912,2.86786 2.867832,2.86786 h 13.989728 c 1.588592,0 2.867834,-1.27911 2.867834,-2.86786 v -6.62134 c 3.11798,-0.84441 6.114621,-2.08572 8.916396,-3.69347 l 4.682129,4.6821 c 1.123567,1.12357 2.931992,1.12357 4.05542,0 l 9.89255,-9.89224 c 1.12357,-1.12357 1.12357,-2.93197 0,-4.05542 l -4.68211,-4.68211 c 1.60765,-2.8018 2.84886,-5.79844 3.69317,-8.91641 h 6.62133 c 1.58859,0 2.86786,-1.27913 2.86786,-2.86785 v -13.98972 c 0,-1.58858 -1.27913,-2.86785 -2.86786,-2.86785 h -6.62133 c -0.84431,-3.11796 -2.08552,-6.1146 -3.69317,-8.91639 l 4.68181,-4.68211 c 1.12356,-1.12357 1.12356,-2.93233 0,-4.05575 l -9.89225,-9.89223 c -1.123568,-1.12356 -2.931993,-1.12356 -4.05542,0 l -4.682129,4.6821 c -2.801782,-1.60775 -5.798416,-2.84906 -8.916396,-3.69346 v -6.621331 c 0,-1.58859 -1.279123,-2.867547 -2.867834,-2.867547 z m 6.930269,31.343578 c 0.02177,-5e-5 0.04355,-5e-5 0.06531,0 8.044485,4e-5 14.565825,6.52137 14.565869,14.56585 -3.7e-5,8.0445 -6.521377,14.56583 -14.565869,14.56587 -8.044481,-6e-5 -14.565805,-6.52139 -14.565842,-14.56587 -3.4e-5,-8.01933 6.48203,-14.53025 14.501281,-14.56585 z"
       id="path18" />
    <path
       style="color:#000000;font-style:normal;font-variant:normal;font-weight:normal;font-stretch:normal;font-size:medium;line-height:normal;font-family:sans-serif;font-variant-ligatures:normal;font-variant-position:normal;font-variant-caps:normal;font-variant-numeric:normal;font-variant-alternates:normal;font-variant-east-asian:normal;font-feature-settings:normal;font-variation-settings:normal;text-indent:0;text-align:start;text-decoration:none;text-decoration-line:none;text-decoration-style:solid;text-decoration-color:#000000;letter-spacing:normal;word-spacing:normal;text-transform:none;writing-mode:lr-tb;direction:ltr;text-orientation:mixed;dominant-baseline:auto;baseline-shift:baseline;text-anchor:start;white-space:normal;shape-padding:0;shape-margin:0;inline-size:0;clip-rule:nonzero;display:inline;overflow:visible;visibility:visible;opacity:1;isolation:auto;mix-blend-mode:normal;color-interpolation:sRGB;color-interpolation-filters:linearRGB;solid-color:#000000;solid-opacity:1;vector-effect:none;fill:#000000;fill-opacity:1;fill-rule:nonzero;stroke:none;stroke-width:0.083231;stroke-linecap:butt;stroke-linejoin:miter;stroke-miterlimit:4;stroke-dasharray:none;stroke-dashoffset:0;stroke-opacity:1;color-rendering:auto;image-rendering:auto;shape-rendering:auto;text-rendering:auto;enable-background:accumulate;stop-color:#000000;stop-opacity:1"
       d="m 136.14488,85.227876 c -0.79429,0 -1.43391,0.639355 -1.43391,1.433773 v 3.310664 c -1.55904,0.42215 -3.05741,1.042758 -4.45836,1.8466 l -2.34091,-2.340915 c -0.56178,-0.561785 -1.46616,-0.561785 -2.02786,0 l -4.94612,4.946114 c -0.56178,0.561782 -0.56178,1.466147 0,2.02787 l 2.34092,2.340904 c -0.80384,1.400944 -1.42445,2.899314 -1.8466,4.458354 h -3.31066 c -0.7943,0 -1.43378,0.63956 -1.43378,1.43392 v 6.99486 c 0,0.79429 0.63936,1.43392 1.43378,1.43392 h 3.31066 c 0.42221,1.55899 1.04286,3.05732 1.84673,4.45821 l -2.34105,2.34106 c -0.56178,0.56178 -0.56178,1.466 0,2.0277 l 4.94612,4.94629 c 0.56178,0.56177 1.46616,0.56177 2.02786,0 l 2.34106,-2.34106 c 1.4009,0.80382 2.89922,1.42442 4.45821,1.84658 v 3.31067 c 0,0.79429 0.63956,1.43393 1.43391,1.43393 h 6.99487 c 0.7943,0 1.43391,-0.63955 1.43391,-1.43393 v -3.31067 c 1.55899,-0.42221 3.05731,-1.04286 4.4582,-1.84674 l 2.34107,2.34106 c 0.56178,0.56178 1.466,0.56178 2.02771,0 l 4.94628,-4.94613 c 0.56178,-0.56178 0.56178,-1.46598 0,-2.0277 l -2.34107,-2.34106 c 0.80383,-1.4009 1.42443,-2.89922 1.84659,-4.45821 h 3.31067 c 0.79429,0 1.43392,-0.63956 1.43392,-1.43392 v -6.99486 c 0,-0.79429 -0.63955,-1.43392 -1.43392,-1.43392 h -3.31067 c -0.42216,-1.55899 -1.04276,-3.0573 -1.84659,-4.458199 l 2.34091,-2.341059 c 0.56178,-0.561782 0.56178,-1.466159 0,-2.02787 l -4.94612,-4.946114 c -0.56179,-0.561785 -1.466,-0.561785 -2.02771,0 l -2.34107,2.341045 c -1.40089,-0.803874 -2.89921,-1.424526 -4.4582,-1.84673 v -3.310664 c 0,-0.794293 -0.63955,-1.433773 -1.43391,-1.433773 z m 3.46514,15.671794 c 0.0109,-3e-5 0.0218,-3e-5 0.0327,0 4.02225,1e-5 7.28291,3.26068 7.28293,7.28292 -2e-5,4.02224 -3.26068,7.28291 -7.28293,7.28293 -4.02224,-2e-5 -7.2829,-3.26069 -7.28292,-7.28293 -2e-5,-4.00966 3.24102,-7.26513 7.25064,-7.28292 z"
       id="path18-2" />
  </g>
</svg>
