<?xml version="1.0" encoding="UTF-8" standalone="no"?>
<svg
   xmlns:dc="http://purl.org/dc/elements/1.1/"
   xmlns:cc="http://creativecommons.org/ns#"
   xmlns:rdf="http://www.w3.org/1999/02/22-rdf-syntax-ns#"
   xmlns:svg="http://www.w3.org/2000/svg"
   xmlns="http://www.w3.org/2000/svg"
   width="512"
   height="512"
   viewBox="0 0 135.46666 135.46668"
   version="1.1"
   id="svg8">
  <defs
     id="defs2" />
  <metadata
     id="metadata5">
    <rdf:RDF>
      <cc:Work
         rdf:about="">
        <dc:format>image/svg+xml</dc:format>
        <dc:type
           rdf:resource="http://purl.org/dc/dcmitype/StillImage" />
        <dc:title></dc:title>
      </cc:Work>
    </rdf:RDF>
  </metadata>
  <path
     id="path18"
     style="color:#000000;font-style:normal;font-variant:normal;font-weight:normal;font-stretch:normal;font-size:medium;line-height:normal;font-family:sans-serif;font-variant-ligatures:normal;font-variant-position:normal;font-variant-caps:normal;font-variant-numeric:normal;font-variant-alternates:normal;font-variant-east-asian:normal;font-feature-settings:normal;font-variation-settings:normal;text-indent:0;text-align:start;text-decoration:none;text-decoration-line:none;text-decoration-style:solid;text-decoration-color:#000000;letter-spacing:normal;word-spacing:normal;text-transform:none;writing-mode:lr-tb;direction:ltr;text-orientation:mixed;dominant-baseline:auto;baseline-shift:baseline;text-anchor:start;white-space:normal;shape-padding:0;shape-margin:0;inline-size:0;clip-rule:nonzero;display:inline;overflow:visible;visibility:visible;isolation:auto;mix-blend-mode:normal;color-interpolation:sRGB;color-interpolation-filters:linearRGB;solid-color:#000000;solid-opacity:1;vector-effect:none;fill:#bebebe;fill-opacity:1;fill-rule:nonzero;stroke:none;stroke-width:0.629148;stroke-linecap:butt;stroke-linejoin:miter;stroke-miterlimit:4;stroke-dasharray:none;stroke-dashoffset:0;stroke-opacity:1;color-rendering:auto;image-rendering:auto;shape-rendering:auto;text-rendering:auto;enable-background:accumulate;stop-color:#000000"
     d="M 412.02344 66.765625 C 409.0214 66.765625 406.60352 69.183022 406.60352 72.185547 L 406.60352 84.697266 C 400.71108 86.292793 395.04884 88.639591 389.75391 91.677734 L 380.90625 82.830078 C 378.78299 80.706796 375.36515 80.706796 373.24219 82.830078 L 354.54688 101.52344 C 352.42361 103.64671 352.42361 107.06445 354.54688 109.1875 L 363.39453 118.03516 C 360.3564 123.33006 358.01154 128.99428 356.41602 134.88672 L 343.90234 134.88672 C 340.90027 134.88672 338.48438 137.30434 338.48438 140.30664 L 338.48438 166.74219 C 338.48438 169.74423 340.89981 172.16211 343.90234 172.16211 L 356.41602 172.16211 C 358.01177 178.05435 360.35824 183.71702 363.39648 189.01172 L 354.54688 197.86133 C 352.42361 199.98459 352.42361 203.40048 354.54688 205.52344 L 373.24219 224.21875 C 375.36545 226.34198 378.78329 226.34198 380.90625 224.21875 L 389.75391 215.37109 C 395.04865 218.40915 400.71127 220.75404 406.60352 222.34961 L 406.60352 234.86328 C 406.60352 237.86532 409.02117 240.2832 412.02344 240.2832 L 438.46094 240.2832 C 441.46302 240.2832 443.88086 237.86566 443.88086 234.86328 L 443.88086 222.34961 C 449.7731 220.75386 455.43577 218.40938 460.73047 215.37109 L 469.57812 224.21875 C 471.70139 226.34201 475.11919 226.34201 477.24219 224.21875 L 495.9375 205.52344 C 498.06076 203.40017 498.06076 199.98436 495.9375 197.86133 L 487.08789 189.01172 C 490.12599 183.71698 492.47279 178.05435 494.06836 172.16211 L 506.58008 172.16211 C 509.58212 172.16211 512 169.74449 512 166.74219 L 512 140.30664 C 512 137.3046 509.58242 134.88672 506.58008 134.88672 L 494.06836 134.88672 C 492.47279 128.99447 490.12599 123.33185 487.08789 118.03711 L 495.93555 109.1875 C 498.05881 107.06423 498.05881 103.64644 495.93555 101.52344 L 477.24219 82.830078 C 475.11889 80.706796 471.70112 80.706796 469.57812 82.830078 L 460.73047 91.677734 C 455.43577 88.639471 449.7731 86.292997 443.88086 84.697266 L 443.88086 72.185547 C 443.88086 69.183495 441.46324 66.765625 438.46094 66.765625 L 412.02344 66.765625 z M 147.07812 98.201172 C 141.07401 98.201172 136.24023 103.03401 136.24023 109.03906 L 136.24023 134.06445 C 124.45537 137.25547 113.12889 141.94717 102.53906 148.02344 L 84.84375 130.32812 C 80.597198 126.0816 73.761633 126.0816 69.515625 130.32812 L 32.126953 167.7168 C 27.880401 171.96336 27.880401 178.79881 32.126953 183.04492 L 49.822266 200.74023 C 43.745991 211.33005 39.054336 222.65658 35.863281 234.44141 L 10.837891 234.44141 C 4.8337711 234.44141 3.5527137e-15 239.27664 0 245.28125 L 0 298.1543 C 0 304.15838 4.8328375 308.99414 10.837891 308.99414 L 35.863281 308.99414 C 39.054741 320.77863 43.745734 332.10395 49.822266 342.69336 L 32.126953 360.39062 C 27.880401 364.63719 27.880401 371.47076 32.126953 375.7168 L 69.515625 413.10742 C 73.762177 417.35387 80.597738 417.35387 84.84375 413.10742 L 102.53906 395.41016 C 113.12854 401.48631 124.45578 406.17801 136.24023 409.36914 L 136.24023 434.39453 C 136.24023 440.39865 141.07354 445.23438 147.07812 445.23438 L 199.95312 445.23438 C 205.95725 445.23438 210.79297 440.39926 210.79297 434.39453 L 210.79297 409.36914 C 222.57746 406.17767 233.9028 401.48669 244.49219 395.41016 L 262.1875 413.10547 C 266.43405 417.35203 273.2696 417.35203 277.51562 413.10547 L 314.9043 375.7168 C 319.15086 371.47023 319.15086 364.63674 314.9043 360.39062 L 297.20898 342.69336 C 303.28514 332.10388 307.97688 320.77859 311.16797 308.99414 L 336.19336 308.99414 C 342.19748 308.99414 347.03125 304.15891 347.03125 298.1543 L 347.03125 245.28125 C 347.03125 239.27717 342.19801 234.44141 336.19336 234.44141 L 311.16797 234.44141 C 307.97688 222.65699 303.28514 211.33163 297.20898 200.74219 L 314.9043 183.04492 C 319.15082 178.79836 319.15082 171.96279 314.9043 167.7168 L 277.51562 130.32812 C 273.26907 126.0816 266.43352 126.0816 262.1875 130.32812 L 244.49219 148.02539 C 233.90278 141.94886 222.57746 137.25589 210.79297 134.06445 L 210.79297 109.03906 C 210.79297 103.03494 205.9577 98.201172 199.95312 98.201172 L 147.07812 98.201172 z M 425.11914 125.99805 L 425.12109 125.99805 C 425.16165 125.99794 425.20359 125.99794 425.24414 125.99805 C 440.44634 125.99808 452.76946 138.32127 452.76953 153.52344 C 452.76946 168.7256 440.44634 181.05071 425.24414 181.05078 C 410.04197 181.05071 397.71687 168.7256 397.7168 153.52344 C 397.71672 138.36947 409.96558 126.06634 425.11914 125.99805 z M 173.27148 216.66602 L 173.27539 216.66602 C 173.35638 216.66584 173.43858 216.66583 173.51953 216.66602 C 203.92388 216.66617 228.57015 241.31246 228.57031 271.7168 C 228.57017 302.12121 203.92391 326.76938 173.51953 326.76953 C 143.11519 326.7693 118.46694 302.12113 118.4668 271.7168 C 118.46667 241.40883 142.96432 216.80267 173.27148 216.66602 z "
     transform="scale(0.26458334)" />
</svg>
