<?xml version="1.0" encoding="UTF-8" standalone="no"?>
<svg
   xmlns:dc="http://purl.org/dc/elements/1.1/"
   xmlns:cc="http://creativecommons.org/ns#"
   xmlns:rdf="http://www.w3.org/1999/02/22-rdf-syntax-ns#"
   xmlns:svg="http://www.w3.org/2000/svg"
   xmlns="http://www.w3.org/2000/svg"
   xmlns:sodipodi="http://sodipodi.sourceforge.net/DTD/sodipodi-0.dtd"
   xmlns:inkscape="http://www.inkscape.org/namespaces/inkscape"
   width="512"
   height="511.99814"
   viewBox="0 0 135.46666 135.46617"
   version="1.1"
   id="svg8"
   inkscape:version="1.0.2 (e86c870879, 2021-01-15)"
   sodipodi:docname="system-monitoring-center-disk-optical-symbolic.svg"
   inkscape:export-filename="/home/asush/Masaüstü/files/python/task_manager/icon_studies/smart-system-monitor-settings.symbolic.png"
   inkscape:export-xdpi="20.171528"
   inkscape:export-ydpi="20.171528">
  <defs
     id="defs2" />
  <sodipodi:namedview
     id="base"
     pagecolor="#ffffff"
     bordercolor="#666666"
     borderopacity="1.0"
     inkscape:pageopacity="0.0"
     inkscape:pageshadow="2"
     inkscape:zoom="0.4663641"
     inkscape:cx="304.4706"
     inkscape:cy="342.13137"
     inkscape:document-units="mm"
     inkscape:current-layer="layer1"
     inkscape:document-rotation="0"
     showgrid="false"
     inkscape:snap-object-midpoints="true"
     inkscape:snap-center="true"
     inkscape:window-width="1366"
     inkscape:window-height="696"
     inkscape:window-x="0"
     inkscape:window-y="0"
     inkscape:window-maximized="1"
     showguides="false"
     units="px" />
  <metadata
     id="metadata5">
    <rdf:RDF>
      <cc:Work
         rdf:about="">
        <dc:format>image/svg+xml</dc:format>
        <dc:type
           rdf:resource="http://purl.org/dc/dcmitype/StillImage" />
        <dc:title></dc:title>
      </cc:Work>
    </rdf:RDF>
  </metadata>
  <g
     inkscape:label="Katman 1"
     inkscape:groupmode="layer"
     id="layer1"
     transform="translate(-102.68554,-117.53567)">
    <path
       id="path835"
       style="opacity:1;fill:#bebebe;fill-opacity:1;stroke:none;stroke-width:32.9393;stroke-linecap:round"
       d="m 170.27625,117.5357 a 67.733227,67.733227 0 0 0 -67.59071,67.73333 67.733227,67.733227 0 0 0 67.73385,67.73282 67.733227,67.733227 0 0 0 67.73282,-67.73282 67.733227,67.733227 0 0 0 -67.73282,-67.73333 67.733227,67.733227 0 0 0 -0.14314,0 z m 53.1151,38.24728 a 55.662718,55.662718 0 0 1 5.2e-4,5.1e-4 55.662718,55.662718 0 0 1 0.16071,0.27957 55.662718,55.662718 0 0 1 0.10129,0.17932 55.662718,55.662718 0 0 1 0.0574,0.10129 55.662718,55.662718 0 0 1 0,5.1e-4 55.662718,55.662718 0 0 1 0.0879,0.1571 55.662718,55.662718 0 0 1 0.0692,0.12402 55.662718,55.662718 0 0 1 5.1e-4,5.2e-4 55.662718,55.662718 0 0 1 0.15503,0.28215 55.662718,55.662718 0 0 1 5.2e-4,5.2e-4 55.662718,55.662718 0 0 1 0.15348,0.28319 55.662718,55.662718 0 0 1 5.2e-4,5.1e-4 55.662718,55.662718 0 0 1 0.15244,0.28422 55.662718,55.662718 0 0 1 0.0982,0.18707 55.662718,55.662718 0 0 1 0.0522,0.0982 55.662718,55.662718 0 0 1 0,5.1e-4 55.662718,55.662718 0 0 1 0.0775,0.14883 55.662718,55.662718 0 0 1 0.0713,0.13695 55.662718,55.662718 0 0 1 5.1e-4,5.1e-4 55.662718,55.662718 0 0 1 0.14677,0.28629 55.662718,55.662718 0 0 1 5.1e-4,5.1e-4 55.662718,55.662718 0 0 1 0.14521,0.28733 55.662718,55.662718 0 0 1 5.2e-4,5.2e-4 55.662718,55.662718 0 0 1 0.14366,0.28835 55.662718,55.662718 0 0 1 5.2e-4,5.1e-4 55.662718,55.662718 0 0 1 0.14211,0.28939 55.662718,55.662718 0 0 1 0.14056,0.29043 55.662718,55.662718 0 0 1 0.13901,0.29093 55.662718,55.662718 0 0 1 0,5.2e-4 55.662718,55.662718 0 0 1 0.13746,0.29145 55.662718,55.662718 0 0 1 0,5.2e-4 55.662718,55.662718 0 0 1 0.0858,0.18552 55.662718,55.662718 0 0 1 0.0496,0.10697 55.662718,55.662718 0 0 1 5.2e-4,5.2e-4 55.662718,55.662718 0 0 1 0.13332,0.293 55.662718,55.662718 0 0 1 5.2e-4,5.2e-4 55.662718,55.662718 0 0 1 0.13177,0.29404 55.662718,55.662718 0 0 1 5.2e-4,5.2e-4 55.662718,55.662718 0 0 1 0.13022,0.29455 55.662718,55.662718 0 0 1 0,5.2e-4 55.662718,55.662718 0 0 1 0.12868,0.29507 55.662718,55.662718 0 0 1 0,5.2e-4 55.662718,55.662718 0 0 1 0.12712,0.2961 55.662718,55.662718 0 0 1 0,5.2e-4 55.662718,55.662718 0 0 1 0.0744,0.17622 55.662718,55.662718 0 0 1 0.0506,0.12092 55.662718,55.662718 0 0 1 5.2e-4,5.2e-4 55.662718,55.662718 0 0 1 0.1235,0.29765 55.662718,55.662718 0 0 1 0,5.2e-4 55.662718,55.662718 0 0 1 0.0496,0.12144 55.662718,55.662718 0 0 1 0.0718,0.17673 55.662718,55.662718 0 0 1 5.2e-4,5.2e-4 55.662718,55.662718 0 0 1 0.11989,0.29869 55.662718,55.662718 0 0 1 5.1e-4,5.1e-4 55.662718,55.662718 0 0 1 0.11783,0.29973 55.662718,55.662718 0 0 1 5.1e-4,5.2e-4 55.662718,55.662718 0 0 1 0.11679,0.30075 55.662718,55.662718 0 0 1 0.11421,0.30128 55.662718,55.662718 0 0 1 5.1e-4,5.1e-4 55.662718,55.662718 0 0 1 0.11266,0.30179 55.662718,55.662718 0 0 1 5.1e-4,5.2e-4 55.662718,55.662718 0 0 1 0.11111,0.30231 55.662718,55.662718 0 0 1 5.2e-4,5.1e-4 55.662718,55.662718 0 0 1 0.10903,0.30283 55.662718,55.662718 0 0 1 5.2e-4,5.1e-4 55.662718,55.662718 0 0 1 0.10749,0.30386 55.662718,55.662718 0 0 1 5.1e-4,5.2e-4 55.662718,55.662718 0 0 1 0.10594,0.30386 55.662718,55.662718 0 0 1 0,5.1e-4 55.662718,55.662718 0 0 1 0.10439,0.30489 55.662718,55.662718 0 0 1 0,5.2e-4 55.662718,55.662718 0 0 1 0.0346,0.10232 55.662718,55.662718 0 0 1 0.0677,0.20309 55.662718,55.662718 0 0 1 5.1e-4,5.1e-4 55.662718,55.662718 0 0 0 0,5.2e-4 55.662718,55.662718 0 0 1 0.10077,0.30644 55.662718,55.662718 0 0 1 0.0992,0.30696 55.662718,55.662718 0 0 1 0.0377,0.11937 55.662718,55.662718 0 0 1 0.0625,0.19017 55.662718,55.662718 0 0 1 0.0992,0.30748 55.662718,55.662718 0 0 1 0.0971,0.30799 55.662718,55.662718 0 0 1 0.0956,0.30799 55.662718,55.662718 0 0 1 0.093,0.30903 55.662718,55.662718 0 0 1 0.0915,0.30902 55.662718,55.662718 0 0 1 0.0904,0.31006 55.662718,55.662718 0 0 1 0.0884,0.31057 55.662718,55.662718 0 0 1 0.0858,0.3111 55.662718,55.662718 0 0 1 0.0847,0.31109 55.662718,55.662718 0 0 1 0.0832,0.31161 55.662718,55.662718 0 0 1 0.0806,0.31264 55.662718,55.662718 0 0 1 0.0796,0.31264 55.662718,55.662718 0 0 1 0.077,0.31368 55.662718,55.662718 0 0 1 0.0754,0.31367 55.662718,55.662718 0 0 1 0.0739,0.3142 55.662718,55.662718 0 0 1 0.0718,0.31471 55.662718,55.662718 0 0 1 0.0703,0.31522 55.662718,55.662718 0 0 1 0.0677,0.31471 55.662718,55.662718 0 0 1 0.0667,0.31574 55.662718,55.662718 0 0 1 0.0646,0.31627 55.662718,55.662718 0 0 1 0.0625,0.31729 55.662718,55.662718 0 0 1 0.061,0.31677 55.662718,55.662718 0 0 1 0.0589,0.31678 55.662718,55.662718 0 0 1 0.0574,0.31781 55.662718,55.662718 0 0 1 0.0553,0.31781 55.662718,55.662718 0 0 1 0.0537,0.31833 55.662718,55.662718 0 0 1 0.0512,0.31884 55.662718,55.662718 0 0 1 0.0501,0.31833 55.662718,55.662718 0 0 1 0.0481,0.31936 55.662718,55.662718 0 0 1 0.046,0.31884 55.662718,55.662718 0 0 1 0.0444,0.3204 55.662718,55.662718 0 0 1 0.0424,0.31936 55.662718,55.662718 0 0 1 0.0403,0.32039 55.662718,55.662718 0 0 1 0.0388,0.32039 55.662718,55.662718 0 0 1 0.0367,0.3204 55.662718,55.662718 0 0 1 0.0351,0.32091 55.662718,55.662718 0 0 1 0.0336,0.32143 55.662718,55.662718 0 0 1 0.031,0.32091 55.662718,55.662718 0 0 1 0.0294,0.32091 55.662718,55.662718 0 0 1 0.0274,0.32143 55.662718,55.662718 0 0 1 0.0258,0.32194 55.662718,55.662718 0 0 1 0.0238,0.32194 55.662718,55.662718 0 0 1 0.0217,0.32195 55.662718,55.662718 0 0 1 0.0202,0.32246 55.662718,55.662718 0 0 1 0.0186,0.32194 55.662718,55.662718 0 0 1 0.016,0.32246 55.662718,55.662718 0 0 1 0.0145,0.32195 55.662718,55.662718 0 0 1 0.0124,0.32298 55.662718,55.662718 0 0 1 0.0109,0.32246 55.662718,55.662718 0 0 1 0.009,0.32246 55.662718,55.662718 0 0 1 0.007,0.32246 55.662718,55.662718 0 0 1 0.005,0.32298 55.662718,55.662718 0 0 1 0.003,0.32246 55.662718,55.662718 0 0 1 10e-4,0.32246 55.662718,55.662718 0 0 1 -10e-4,0.32297 55.662718,55.662718 0 0 1 -0.003,0.32247 55.662718,55.662718 0 0 1 -0.005,0.32298 55.662718,55.662718 0 0 1 -0.006,0.32245 55.662718,55.662718 0 0 1 -0.009,0.32298 55.662718,55.662718 0 0 1 -0.0108,0.32246 55.662718,55.662718 0 0 1 -0.0114,0.32246 55.662718,55.662718 0 0 1 -0.0145,0.32195 55.662718,55.662718 0 0 1 -0.0165,0.32246 55.662718,55.662718 0 0 1 -0.0171,0.32246 55.662718,55.662718 0 0 1 -0.0202,0.32194 55.662718,55.662718 0 0 1 -0.0217,0.32195 55.662718,55.662718 0 0 1 -0.0227,0.32194 55.662718,55.662718 0 0 1 -0.0258,0.32143 55.662718,55.662718 0 0 1 -0.0274,0.32143 55.662718,55.662718 0 0 1 -0.0284,0.32143 55.662718,55.662718 0 0 1 -0.0315,0.32142 55.662718,55.662718 0 0 1 -0.0331,0.32091 55.662718,55.662718 0 0 1 -0.0341,0.32091 55.662718,55.662718 0 0 1 -0.0357,0.32091 55.662718,55.662718 0 0 1 -0.0382,0.3204 55.662718,55.662718 0 0 1 -0.0134,0.10025 l -35.53117,-4.36253 a 19.864404,19.864404 0 0 0 0.0217,-0.19171 19.864404,19.864404 0 0 0 0.0202,-0.19172 19.864404,19.864404 0 0 0 0.0176,-0.19172 19.864404,19.864404 0 0 0 0.0155,-0.19224 19.864404,19.864404 0 0 0 0.014,-0.19275 19.864404,19.864404 0 0 0 0.0124,-0.19172 19.864404,19.864404 0 0 0 0.0103,-0.19276 19.864404,19.864404 0 0 0 0.009,-0.19223 19.864404,19.864404 0 0 0 0.007,-0.19275 19.864404,19.864404 0 0 0 0.006,-0.19276 19.864404,19.864404 0 0 0 0.003,-0.19275 19.864404,19.864404 0 0 0 0.001,-0.19327 19.864404,19.864404 0 0 0 -5.2e-4,-0.19275 19.864404,19.864404 0 0 0 -0.003,-0.19276 19.864404,19.864404 0 0 0 -0.005,-0.19275 19.864404,19.864404 0 0 0 -0.003,-0.12816 H 195.052 a 19.864404,19.864404 0 0 0 0,-5.1e-4 h -0.001 a 19.864405,19.864405 0 0 0 -0.015,-0.76378 19.864404,19.864404 0 0 0 0,-0.007 19.864404,19.864404 0 0 0 0,-5.2e-4 19.864405,19.864405 0 0 0 -5.2e-4,-0.007 19.864405,19.864405 0 0 0 -0.0294,-0.55759 19.864404,19.864404 0 0 0 -5.2e-4,-0.0119 19.864404,19.864404 0 0 0 0,-5.1e-4 19.864405,19.864405 0 0 0 -0.014,-0.19172 19.864404,19.864404 0 0 0 0,-5.2e-4 19.864405,19.864405 0 0 0 -0.016,-0.19172 19.864404,19.864404 0 0 0 -0.0176,-0.19223 19.864404,19.864404 0 0 0 0,-5.2e-4 19.864405,19.864405 0 0 0 -0.0196,-0.1912 19.864404,19.864404 0 0 0 0,-5.2e-4 19.864405,19.864405 0 0 0 -0.002,-0.0191 19.864405,19.864405 0 0 0 -0.0403,-0.34262 19.864404,19.864404 0 0 0 -0.003,-0.0207 19.864404,19.864404 0 0 0 0,-5.1e-4 19.864405,19.864405 0 0 0 -0.0253,-0.19069 19.864404,19.864404 0 0 0 0,-5.2e-4 19.864404,19.864404 0 0 0 -0.0274,-0.19016 19.864404,19.864404 0 0 0 -0.0284,-0.19069 19.864404,19.864404 0 0 0 0,-5.2e-4 19.864405,19.864405 0 0 0 -0.0305,-0.18965 19.864404,19.864404 0 0 0 0,-5.2e-4 19.864405,19.864405 0 0 0 -0.006,-0.0326 19.864405,19.864405 0 0 0 -0.0553,-0.31264 19.864404,19.864404 0 0 0 -0.006,-0.0341 19.864404,19.864404 0 0 0 0,-5.2e-4 19.864405,19.864405 0 0 0 -0.0362,-0.18862 19.864404,19.864404 0 0 0 0,-5.1e-4 19.864405,19.864405 0 0 0 -0.008,-0.0377 19.864405,19.864405 0 0 0 -0.062,-0.29972 19.864404,19.864404 0 0 0 -0.008,-0.0398 19.864404,19.864404 0 0 0 0,-5.2e-4 19.864405,19.864405 0 0 0 -0.0419,-0.18759 19.864404,19.864404 0 0 0 -0.0434,-0.1881 19.864404,19.864404 0 0 0 -0.0455,-0.18707 19.864404,19.864404 0 0 0 0,-5.1e-4 19.864405,19.864405 0 0 0 -0.0119,-0.047 19.864405,19.864405 0 0 0 -0.0636,-0.24598 19.864404,19.864404 0 0 0 -0.0357,-0.11885 19.864404,19.864404 0 0 0 -0.0568,-0.18397 19.864404,19.864404 0 0 0 -0.0589,-0.18397 19.864404,19.864404 0 0 0 -0.0605,-0.18293 19.864404,19.864404 0 0 0 -0.0625,-0.18242 19.864404,19.864404 0 0 0 -0.0641,-0.1819 19.864404,19.864404 0 0 0 -0.0656,-0.18087 19.864404,19.864404 0 0 0 -0.0677,-0.18087 19.864404,19.864404 0 0 0 -0.0692,-0.17983 19.864404,19.864404 0 0 0 -0.0713,-0.17932 19.864404,19.864404 0 0 0 -0.0729,-0.17828 19.864404,19.864404 0 0 0 -0.0708,-0.1695 l 0.0641,-0.0274 a 19.864404,19.864404 0 0 0 -0.0563,-0.14418 19.864404,19.864404 0 0 0 -5.1e-4,-5.1e-4 19.864405,19.864405 0 0 0 -0.0718,-0.17829 19.864404,19.864404 0 0 0 -5.2e-4,-5.1e-4 19.864405,19.864405 0 0 0 -0.0429,-0.10439 19.864404,19.864404 0 0 0 -0.0305,-0.0734 19.864404,19.864404 0 0 0 0,-5.2e-4 19.864405,19.864405 0 0 0 -0.0754,-0.17673 19.864404,19.864404 0 0 0 -5.1e-4,-5.2e-4 19.864405,19.864405 0 0 0 -0.0434,-0.0992 19.864404,19.864404 0 0 0 -0.0336,-0.077 19.864404,19.864404 0 0 0 0,-5.2e-4 19.864405,19.864405 0 0 0 -0.0785,-0.17519 19.864404,19.864404 0 0 0 -5.2e-4,-5.1e-4 19.864405,19.864405 0 0 0 -0.0434,-0.0941 19.864404,19.864404 0 0 0 -0.0372,-0.0806 19.864404,19.864404 0 0 0 0,-5.1e-4 19.864405,19.864405 0 0 0 -0.0822,-0.17364 19.864404,19.864404 0 0 0 -5.2e-4,-5.1e-4 19.864405,19.864405 0 0 0 -0.0429,-0.0894 19.864404,19.864404 0 0 0 -0.0408,-0.0837 19.864404,19.864404 0 0 0 0,-5.2e-4 19.864405,19.864405 0 0 0 -0.0858,-0.17208 19.864404,19.864404 0 0 0 0,-5.2e-4 19.864405,19.864405 0 0 0 -0.0873,-0.17105 19.864404,19.864404 0 0 0 0,-5.1e-4 19.864405,19.864405 0 0 0 -0.0889,-0.17053 19.864404,19.864404 0 0 0 -5.2e-4,-5.2e-4 19.864405,19.864405 0 0 0 -0.0419,-0.0791 19.864404,19.864404 0 0 0 -0.0486,-0.0904 19.864404,19.864404 0 0 0 -0.0925,-0.1695 19.864404,19.864404 0 0 0 0,-5.2e-4 19.864405,19.864405 0 0 0 -0.0941,-0.16743 19.864404,19.864404 0 0 0 0,-5.1e-4 19.864405,19.864405 0 0 0 -0.0909,-0.15917 19.864405,19.864405 0 0 0 0,-5.1e-4 z m -52.97196,10.52184 c 10.44659,0 18.9637,8.51779 18.9637,18.96421 0,10.44644 -8.51711,18.9637 -18.9637,18.9637 -10.44662,0 -18.96473,-8.51711 -18.96473,-18.9637 0,-10.44659 8.51811,-18.96421 18.96473,-18.96421 z m 0,4.81262 c -7.8462,0 -14.15004,6.30541 -14.15004,14.15159 0,7.8462 6.30384,14.15159 14.15004,14.15159 7.84617,0 14.15108,-6.30539 14.15108,-14.15159 0,-7.84618 -6.30491,-14.15159 -14.15108,-14.15159 z m -60.04129,7.71271 0.0232,0.002 a 55.662718,55.662718 0 0 0 0,10e-4 l 35.5074,4.35994 a 19.864404,19.864404 0 0 0 -0.0217,0.19172 19.864404,19.864404 0 0 0 -0.0207,0.19172 19.864404,19.864404 0 0 0 -0.017,0.19172 19.864404,19.864404 0 0 0 -0.0171,0.19224 19.864404,19.864404 0 0 0 -0.014,0.19275 19.864404,19.864404 0 0 0 -0.0124,0.19172 19.864404,19.864404 0 0 0 -0.0103,0.19327 19.864404,19.864404 0 0 0 -0.009,0.19224 19.864404,19.864404 0 0 0 -0.007,0.19223 19.864404,19.864404 0 0 0 -0.006,0.19276 19.864404,19.864404 0 0 0 -0.003,0.19275 19.864404,19.864404 0 0 0 -0.001,0.19327 19.864404,19.864404 0 0 0 5.1e-4,0.19275 19.864404,19.864404 0 0 0 0.003,0.19275 19.864404,19.864404 0 0 0 0.004,0.19224 19.864404,19.864404 0 0 0 0.004,0.11627 h 0.0574 a 19.864405,19.864405 0 0 0 0,5.2e-4 19.864405,19.864405 0 0 0 10e-4,0.19224 19.864404,19.864404 0 0 0 0,5.1e-4 19.864405,19.864405 0 0 0 0.003,0.19224 19.864404,19.864404 0 0 0 0,5.2e-4 19.864404,19.864404 0 0 0 0,0.005 19.864404,19.864404 0 0 0 0.005,0.1881 19.864404,19.864404 0 0 0 0.006,0.18603 19.864405,19.864405 0 0 0 0,0.006 19.864404,19.864404 0 0 0 0,5.1e-4 19.864404,19.864404 0 0 0 5.2e-4,0.008 19.864404,19.864404 0 0 0 0.008,0.18449 19.864404,19.864404 0 0 0 0.0103,0.19223 19.864404,19.864404 0 0 0 0.0119,0.19276 19.864404,19.864404 0 0 0 0.0129,0.17776 19.864405,19.864405 0 0 0 0.001,0.014 19.864404,19.864404 0 0 0 0,5.1e-4 19.864404,19.864404 0 0 0 0.002,0.0155 19.864404,19.864404 0 0 0 0.0145,0.17621 19.864404,19.864404 0 0 0 0.016,0.17415 19.864405,19.864405 0 0 0 0.002,0.0176 19.864404,19.864404 0 0 0 0,5.2e-4 19.864404,19.864404 0 0 0 0.002,0.0155 19.864404,19.864404 0 0 0 5.2e-4,0.004 19.864404,19.864404 0 0 0 0.007,0.0527 19.864404,19.864404 0 0 0 0.0258,0.1912 19.864404,19.864404 0 0 0 0.0279,0.1912 19.864404,19.864404 0 0 0 0.03,0.18966 19.864404,19.864404 0 0 0 0.031,0.19068 19.864404,19.864404 0 0 0 0.0336,0.18966 19.864404,19.864404 0 0 0 0.0351,0.18965 19.864404,19.864404 0 0 0 0.0372,0.18913 19.864404,19.864404 0 0 0 0.0388,0.18914 19.864404,19.864404 0 0 0 0.0408,0.1881 19.864404,19.864404 0 0 0 0.0424,0.1881 19.864404,19.864404 0 0 0 0.0444,0.18759 19.864404,19.864404 0 0 0 0.046,0.18707 19.864404,19.864404 0 0 0 0.0481,0.18655 19.864404,19.864404 0 0 0 0.0501,0.18655 19.864404,19.864404 0 0 0 0.0512,0.18604 19.864404,19.864404 0 0 0 0.0537,0.185 19.864404,19.864404 0 0 0 0.0548,0.185 19.864404,19.864404 0 0 0 0.0574,0.18397 19.864404,19.864404 0 0 0 0.0584,0.18345 19.864404,19.864404 0 0 0 0.061,0.18293 19.864404,19.864404 0 0 0 0.062,0.18242 19.864404,19.864404 0 0 0 0.0641,0.1819 19.864404,19.864404 0 0 0 0.0656,0.18087 19.864404,19.864404 0 0 0 0.0682,0.18087 19.864404,19.864404 0 0 0 0.0687,0.17983 19.864404,19.864404 0 0 0 0.0713,0.17932 19.864404,19.864404 0 0 0 0.0729,0.1788 19.864404,19.864404 0 0 0 0.0713,0.1695 l -0.14572,0.062 a 19.864404,19.864404 0 0 0 0.0382,0.0972 19.864404,19.864404 0 0 0 0.0724,0.1788 19.864404,19.864404 0 0 0 0.0729,0.17777 19.864404,19.864404 0 0 0 5.1e-4,5.2e-4 19.864404,19.864404 0 0 0 0.076,0.17725 19.864404,19.864404 0 0 0 0.0765,0.17621 19.864404,19.864404 0 0 0 5.2e-4,5.2e-4 19.864404,19.864404 0 0 0 0.0791,0.1757 19.864404,19.864404 0 0 0 0.0801,0.17467 19.864404,19.864404 0 0 0 5.2e-4,5.1e-4 19.864404,19.864404 0 0 0 0.0827,0.17415 19.864404,19.864404 0 0 0 0.0832,0.17312 19.864404,19.864404 0 0 0 5.2e-4,5.2e-4 19.864405,19.864405 0 0 0 0.0853,0.17208 19.864404,19.864404 0 0 0 5.2e-4,5.1e-4 19.864404,19.864404 0 0 0 0.0873,0.17157 19.864404,19.864404 0 0 0 0.0894,0.17105 19.864404,19.864404 0 0 0 0.0904,0.17001 19.864404,19.864404 0 0 1 0,5.2e-4 19.864405,19.864405 0 0 0 0.092,0.16847 19.864404,19.864404 0 0 0 5.2e-4,5.1e-4 19.864405,19.864405 0 0 0 0.0935,0.16795 19.864404,19.864404 0 0 0 5.2e-4,5.2e-4 19.864404,19.864404 0 0 0 0.0915,0.15968 h -5.2e-4 l -31.00173,17.89813 h -5.1e-4 a 55.662718,55.662718 0 0 1 -1.38545,-2.55178 55.662718,55.662718 0 0 1 -5.1e-4,-5.2e-4 55.662718,55.662718 0 0 1 -0.14522,-0.28732 55.662718,55.662718 0 0 1 -5.1e-4,-5.2e-4 55.662718,55.662718 0 0 1 -0.28577,-0.57774 55.662718,55.662718 0 0 1 -5.2e-4,-5.2e-4 55.662718,55.662718 0 0 1 -0.41651,-0.87333 55.662718,55.662718 0 0 1 -5.2e-4,-5.1e-4 55.662718,55.662718 0 0 1 -0.53175,-1.17564 55.662718,55.662718 0 0 1 -5.2e-4,-5.2e-4 55.662718,55.662718 0 0 1 -0.25528,-0.59169 55.662718,55.662718 0 0 1 -5.1e-4,-5.2e-4 55.662718,55.662718 0 0 1 -0.37052,-0.894 55.662718,55.662718 0 0 1 -5.2e-4,-5.2e-4 55.662718,55.662718 0 0 1 -1.01803,-2.7187 55.662718,55.662718 0 0 1 -5.1e-4,-5.1e-4 55.662718,55.662718 0 0 1 -0.10387,-0.30489 55.662718,55.662718 0 0 1 -5.2e-4,-5.2e-4 55.662718,55.662718 0 0 1 -2.62258,-11.91555 55.662718,55.662718 0 0 1 -0.004,-0.0372 55.662718,55.662718 0 0 1 -0.0331,-0.2837 55.662718,55.662718 0 0 1 -0.0346,-0.3204 55.662718,55.662718 0 0 1 -0.0336,-0.32142 55.662718,55.662718 0 0 1 -0.0315,-0.32092 55.662718,55.662718 0 0 1 -0.0289,-0.32142 55.662718,55.662718 0 0 1 -0.0279,-0.32195 55.662718,55.662718 0 0 1 -0.0253,-0.32091 55.662718,55.662718 0 0 1 -0.0238,-0.32246 55.662718,55.662718 0 0 1 -0.0217,-0.32143 55.662718,55.662718 0 0 1 -0.0202,-0.32246 55.662718,55.662718 0 0 1 -0.0181,-0.32246 55.662718,55.662718 0 0 1 -0.0165,-0.32194 55.662718,55.662718 0 0 1 -0.0145,-0.32195 55.662718,55.662718 0 0 1 -0.0124,-0.32298 55.662718,55.662718 0 0 1 -0.0109,-0.32246 55.662718,55.662718 0 0 1 -0.009,-0.32246 55.662718,55.662718 0 0 1 -0.007,-0.32246 55.662718,55.662718 0 0 1 -0.005,-0.32298 55.662718,55.662718 0 0 1 -0.003,-0.32246 55.662718,55.662718 0 0 1 -5.2e-4,-0.32246 55.662718,55.662718 0 0 1 5.2e-4,-0.32297 55.662718,55.662718 0 0 1 0.003,-0.32298 55.662718,55.662718 0 0 1 0.005,-0.32246 55.662718,55.662718 0 0 1 0.005,-0.32298 55.662718,55.662718 0 0 1 0.009,-0.32246 55.662718,55.662718 0 0 1 0.0109,-0.32246 55.662718,55.662718 0 0 1 0.0114,-0.32246 55.662718,55.662718 0 0 1 0.015,-0.32247 55.662718,55.662718 0 0 1 0.016,-0.32194 55.662718,55.662718 0 0 1 0.017,-0.32246 55.662718,55.662718 0 0 1 0.0202,-0.32246 55.662718,55.662718 0 0 1 0.0217,-0.32143 55.662718,55.662718 0 0 1 0.0233,-0.32246 55.662718,55.662718 0 0 1 0.0253,-0.32091 55.662718,55.662718 0 0 1 0.0279,-0.32143 55.662718,55.662718 0 0 1 0.0279,-0.32194 55.662718,55.662718 0 0 1 0.0315,-0.32143 55.662718,55.662718 0 0 1 0.0331,-0.32091 55.662718,55.662718 0 0 1 0.0341,-0.32091 55.662718,55.662718 0 0 1 0.0362,-0.32039 55.662718,55.662718 0 0 1 0.0377,-0.3204 55.662718,55.662718 0 0 1 0.0134,-0.0992 z m 60.04026,0.70228 a 5.7364127,5.7364127 0 0 1 5.73608,5.7366 5.7364127,5.7364127 0 0 1 -5.73608,5.73609 5.7364127,5.7364127 0 0 1 -5.73712,-5.73609 5.7364127,5.7364127 0 0 1 5.73712,-5.7366 z" />
  </g>
</svg>
