<?xml version="1.0" encoding="UTF-8" standalone="no"?>
<svg
   xmlns:dc="http://purl.org/dc/elements/1.1/"
   xmlns:cc="http://creativecommons.org/ns#"
   xmlns:rdf="http://www.w3.org/1999/02/22-rdf-syntax-ns#"
   xmlns:svg="http://www.w3.org/2000/svg"
   xmlns="http://www.w3.org/2000/svg"
   xmlns:sodipodi="http://sodipodi.sourceforge.net/DTD/sodipodi-0.dtd"
   xmlns:inkscape="http://www.inkscape.org/namespaces/inkscape"
   width="512"
   height="512"
   viewBox="0 0 135.46669 135.46669"
   version="1.1"
   id="svg8"
   inkscape:version="1.0.2 (e86c870879, 2021-01-15)"
   sodipodi:docname="system-monitoring-center-user-offline-symbolic.svg"
   inkscape:export-filename="/home/asush/Masaüstü/files/python/task_manager/icon_studies/smart-system-monitor-user-current.symbolic.png"
   inkscape:export-xdpi="8.999999"
   inkscape:export-ydpi="8.999999">
  <defs
     id="defs2" />
  <sodipodi:namedview
     id="base"
     pagecolor="#ffffff"
     bordercolor="#666666"
     borderopacity="1.0"
     inkscape:pageopacity="0.0"
     inkscape:pageshadow="2"
     inkscape:zoom="0.48623647"
     inkscape:cx="214.67516"
     inkscape:cy="265.54992"
     inkscape:document-units="mm"
     inkscape:current-layer="layer1"
     inkscape:document-rotation="0"
     showgrid="false"
     inkscape:snap-object-midpoints="true"
     inkscape:snap-center="true"
     inkscape:window-width="1366"
     inkscape:window-height="696"
     inkscape:window-x="0"
     inkscape:window-y="0"
     inkscape:window-maximized="1"
     units="px" />
  <metadata
     id="metadata5">
    <rdf:RDF>
      <cc:Work
         rdf:about="">
        <dc:format>image/svg+xml</dc:format>
        <dc:type
           rdf:resource="http://purl.org/dc/dcmitype/StillImage" />
        <dc:title />
      </cc:Work>
    </rdf:RDF>
  </metadata>
  <g
     inkscape:label="Katman 1"
     inkscape:groupmode="layer"
     id="layer1"
     transform="translate(-147.93097,-157.24948)">
    <path
       id="rect1298"
       style="fill:#bebebe;stroke:none;stroke-width:2.22787;stroke-miterlimit:4;stroke-dasharray:none;stroke-opacity:1;fill-opacity:1"
       d="m 211.65369,157.24948 c -20.56152,1.95637 -36.528,18.8025 -36.528,39.42808 v 30.79761 h 36.528 v -14.21981 c -5.32346,-1.62493 -9.16688,-6.46651 -9.16688,-12.21837 v -14.51074 c 0,-5.75184 3.84342,-10.59293 9.16688,-12.21786 z m 8.0207,0 v 17.05839 c 5.32382,1.62473 9.16688,6.46628 9.16688,12.21838 v 14.51074 c 0,5.75212 -3.84306,10.59469 -9.16688,12.21941 v 14.21877 h 36.52852 v -30.79761 c 0,-20.62558 -15.96694,-37.47171 -36.52852,-39.42808 z m -44.5487,78.065 v 17.7829 c 0,21.94877 18.07981,39.61877 40.53809,39.61877 22.45828,0 40.53913,-17.67 40.53913,-39.61877 v -17.7829 z m 25.14368,5.97793 a 4.8134687,4.8134687 0 0 1 3.42047,1.41025 l 11.97394,11.97343 11.97292,-11.97343 a 4.8134687,4.8134687 0 0 1 6.80837,0 4.8134687,4.8134687 0 0 1 1.41025,3.38636 4.8134687,4.8134687 0 0 1 -1.41025,3.41995 l -11.97447,11.97446 11.9755,11.97498 a 4.8134687,4.8134687 0 0 1 0,6.80682 4.8134687,4.8134687 0 0 1 -6.80682,0 l -11.9755,-11.97498 -11.97446,11.97498 a 4.8134687,4.8134687 0 0 1 -6.80682,0 4.8134687,4.8134687 0 0 1 0,-6.80682 l 11.97395,-11.97498 -11.97292,-11.9724 a 4.8134687,4.8134687 0 0 1 0,-6.80837 4.8134687,4.8134687 0 0 1 3.38584,-1.41025 z" />
  </g>
</svg>
