<?xml version="1.0" encoding="UTF-8" standalone="no"?>
<svg
   xmlns:dc="http://purl.org/dc/elements/1.1/"
   xmlns:cc="http://creativecommons.org/ns#"
   xmlns:rdf="http://www.w3.org/1999/02/22-rdf-syntax-ns#"
   xmlns:svg="http://www.w3.org/2000/svg"
   xmlns="http://www.w3.org/2000/svg"
   xmlns:sodipodi="http://sodipodi.sourceforge.net/DTD/sodipodi-0.dtd"
   xmlns:inkscape="http://www.inkscape.org/namespaces/inkscape"
   width="512"
   height="512"
   viewBox="0 0 480 479.99997"
   id="svg9379"
   version="1.1"
   inkscape:version="1.0.2 (e86c870879, 2021-01-15)"
   sodipodi:docname="5.svg">
  <defs
     id="defs9381" />
  <sodipodi:namedview
     id="base"
     pagecolor="#ffffff"
     bordercolor="#666666"
     borderopacity="1.0"
     inkscape:pageopacity="0.0"
     inkscape:pageshadow="2"
     inkscape:zoom="0.5"
     inkscape:cx="336.89966"
     inkscape:cy="147.2217"
     inkscape:document-units="px"
     inkscape:current-layer="layer1"
     showgrid="false"
     fit-margin-top="0"
     fit-margin-left="0"
     fit-margin-right="0"
     fit-margin-bottom="0"
     inkscape:window-width="1366"
     inkscape:window-height="699"
     inkscape:window-x="0"
     inkscape:window-y="0"
     inkscape:window-maximized="1"
     inkscape:document-rotation="0"
     units="px" />
  <metadata
     id="metadata9384">
    <rdf:RDF>
      <cc:Work
         rdf:about="">
        <dc:format>image/svg+xml</dc:format>
        <dc:type
           rdf:resource="http://purl.org/dc/dcmitype/StillImage" />
        <dc:title></dc:title>
      </cc:Work>
    </rdf:RDF>
  </metadata>
  <g
     inkscape:label="Layer 1"
     inkscape:groupmode="layer"
     id="layer1"
     transform="translate(-369.55437,-142.38773)">
    <g
       id="g1337"
       transform="matrix(0.84628097,0,0,0.84628097,191.41096,471.42853)">
      <rect
         style="fill:#000000;fill-opacity:1;stroke:#888a85;stroke-width:4.6875;stroke-linecap:round;stroke-linejoin:round;stroke-miterlimit:4;stroke-dasharray:none;stroke-opacity:1"
         id="rect967"
         width="562.5"
         height="187.5"
         x="212.84525"
         y="-198.96423"
         rx="32.993774"
         ry="32.993774" />
      <g
         id="g1257">
        <path
           inkscape:export-ydpi="116.22256"
           inkscape:export-xdpi="116.22256"
           d="m 519.73345,-121.28146 c 0,-9.64501 -2.75019,-14.59663 -8.25055,-14.86778 -2.18854,-0.10339 -4.32541,0.24532 -6.40421,1.05231 -1.65913,0.59392 -2.776,1.18142 -3.36347,1.77536 v 23.02149 c 3.51842,2.2079 6.64305,3.23437 9.36741,3.07299 5.76506,-0.38091 8.65082,-5.06138 8.65082,-14.05437 z m 6.78508,0.40027 c 0,4.89997 -1.14914,8.96716 -3.46033,12.20153 -2.57588,3.66045 -6.14596,5.54557 -10.71023,5.64886 -3.44095,0.10978 -6.98521,-0.96838 -10.63275,-3.22792 v 20.92336 l -5.90065,-2.10459 v -46.44329 c 0.96838,-1.18788 2.21435,-2.2079 3.72502,-3.07298 3.51199,-2.0465 7.77928,-3.0988 12.80192,-3.15044 l 0.084,0.0838 c 4.59009,-0.0581 8.12789,1.82701 10.6134,5.64886 2.31764,3.50552 3.47969,7.99879 3.47969,13.4927 z"
           style="fill:#646464;fill-opacity:1"
           id="path6935"
           inkscape:connector-curvature="0" />
        <path
           inkscape:export-ydpi="116.22256"
           inkscape:export-xdpi="116.22256"
           d="m 562.58083,-107.14963 c 0,6.57204 -0.65851,11.12341 -1.97549,13.6541 -1.32345,2.53069 -3.84122,4.55136 -7.55978,6.05558 -3.01487,1.18786 -6.27507,1.83344 -9.77413,1.9432 l -0.97483,-3.71856 c 3.55716,-0.4842 6.06202,-0.96838 7.51459,-1.45257 2.85993,-0.96838 4.82251,-2.45322 5.90063,-4.44161 0.86507,-1.62043 1.29117,-4.71277 1.29117,-9.28995 v -1.53649 c -4.03489,1.83345 -8.26348,2.74374 -12.68571,2.74374 -2.90514,0 -5.4681,-0.91029 -7.676,-2.74374 -2.47904,-1.99486 -3.71856,-4.52555 -3.71856,-7.59206 V -138.086 l 5.90063,-2.02066 v 24.71938 c 0,2.64043 0.85218,4.67403 2.55652,6.10077 1.70434,1.42674 3.91222,2.11106 6.61722,2.05942 2.705,-0.0581 5.60367,-1.10395 8.6831,-3.15046 v -28.83821 h 5.90064 z"
           style="fill:#646464;fill-opacity:1"
           id="path6937"
           inkscape:connector-curvature="0" />
        <path
           inkscape:export-ydpi="116.22256"
           inkscape:export-xdpi="116.22256"
           d="m 585.61525,-103.35359 c -0.70369,0.0581 -1.34927,0.0838 -1.94321,0.0838 -3.33766,0 -5.93937,-0.79406 -7.79866,-2.38866 -1.85282,-1.59458 -2.78244,-3.79602 -2.78244,-6.60431 v -23.241 h -4.04137 v -3.71211 h 4.04137 v -9.85806 l 5.89416,-2.09816 v 11.95622 h 6.63015 v 3.71211 h -6.63015 v 23.07961 c 0,2.21435 0.59394,3.7831 1.78182,4.69983 1.02002,0.75534 2.64043,1.18788 4.84833,1.29764 v 3.07298 z"
           style="fill:#646464;fill-opacity:1"
           id="path6939"
           inkscape:connector-curvature="0" />
        <path
           inkscape:export-ydpi="116.22256"
           inkscape:export-xdpi="116.22256"
           d="m 621.34184,-103.83779 h -5.90063 v -22.77618 c 0,-2.31765 -0.54231,-4.3125 -1.62041,-5.9781 -1.24599,-1.88511 -2.97615,-2.82767 -5.19695,-2.82767 -2.705,0 -6.08787,1.42674 -10.14858,4.28024 v 27.30171 h -5.90064 v -54.44206 l 5.90064,-1.85927 v 24.79687 c 3.77021,-2.74375 7.88902,-4.11883 12.36291,-4.11883 3.12463,0 5.65532,1.0523 7.59207,3.15044 1.94322,2.09815 2.91159,4.71277 2.91159,7.83738 z"
           style="fill:#646464;fill-opacity:1"
           id="path6941"
           inkscape:connector-curvature="0" />
        <path
           inkscape:export-ydpi="116.22256"
           inkscape:export-xdpi="116.22256"
           d="m 652.70429,-122.2111 c 0,-3.70564 -0.70368,-6.7657 -2.10461,-9.18664 -1.6656,-2.95032 -4.2544,-4.50618 -7.75345,-4.66757 -6.46875,0.37444 -9.69667,5.00972 -9.69667,13.89295 0,4.07364 0.67141,7.47585 2.02713,10.20668 1.73017,3.47969 4.32541,5.19695 7.78574,5.13884 6.49457,-0.0517 9.74186,-5.17758 9.74186,-15.38426 z m 6.46229,0.0387 c 0,5.27442 -1.34927,9.66439 -4.04136,13.1699 -2.96322,3.92515 -7.05622,5.89418 -12.27899,5.89418 -5.17759,0 -9.21249,-1.96903 -12.12407,-5.89418 -2.64043,-3.50551 -3.95743,-7.89548 -3.95743,-13.1699 0,-4.95809 1.42676,-9.12855 4.28022,-12.52432 3.01489,-3.60236 6.97877,-5.40999 11.87874,-5.40999 4.89999,0 8.88968,1.80763 11.96267,5.40999 2.85346,3.39577 4.28022,7.56623 4.28022,12.52432 z"
           style="fill:#646464;fill-opacity:1"
           id="path6943"
           inkscape:connector-curvature="0" />
        <path
           inkscape:export-ydpi="116.22256"
           inkscape:export-xdpi="116.22256"
           d="m 692.99515,-103.83779 h -5.90064 v -24.06734 c 0,-2.64045 -0.79406,-4.69985 -2.3822,-6.18469 -1.58813,-1.4784 -3.70564,-2.19499 -6.34608,-2.13689 -2.80183,0.0517 -5.46809,0.96837 -7.99878,2.74372 v 29.6452 h -5.90063 v -30.3747 c 3.39577,-2.47257 6.5204,-4.08654 9.37386,-4.84187 2.69209,-0.7037 5.06785,-1.0523 7.11434,-1.0523 1.40093,0 2.71791,0.13553 3.95743,0.4067 2.31764,0.53584 4.20274,1.53003 5.65531,2.98907 1.6204,1.61396 2.42739,3.55071 2.42739,5.8167 z"
           style="fill:#646464;fill-opacity:1"
           id="path6945"
           inkscape:connector-curvature="0" />
        <path
           inkscape:export-ydpi="116.22256"
           inkscape:export-xdpi="116.22256"
           sodipodi:nodetypes="ccccccccccccccccccccccc"
           id="path6947"
           style="font-style:normal;font-weight:normal;font-size:15.1645px;line-height:125%;font-family:'Bitstream Vera Sans';fill:#646464;fill-opacity:1;stroke:none;stroke-width:1px;stroke-linecap:butt;stroke-linejoin:miter;stroke-opacity:1"
           d="m 704.46377,-145.71063 h 1.0138 v -6.35829 h 2.4016 v -0.75787 h -5.8169 v 0.75787 h 2.4015 v 6.35829 m 4.3143,0 h 0.8662 v -5.8071 l 1.8799,5.80636 h 0.9643 l 1.9589,-5.78667 v 5.78741 h 0.9449 v -7.11616 h -1.25 l -2.1408,6.09646 -1.8257,-6.09646 h -1.3977 v 7.11616"
           inkscape:connector-curvature="0" />
        <path
           inkscape:export-ydpi="116.22256"
           inkscape:export-xdpi="116.22256"
           inkscape:connector-curvature="0"
           id="path6949"
           style="font-style:normal;font-variant:normal;font-weight:600;font-stretch:normal;font-size:medium;line-height:125%;font-family:'Source Sans Pro';-inkscape-font-specification:'Source Sans Pro Semi-Bold';letter-spacing:0px;word-spacing:0px;fill:#646464;fill-opacity:1;stroke:none;stroke-width:1.23982px;stroke-linecap:butt;stroke-linejoin:miter;stroke-opacity:1"
           d="m 495.81455,-57.220133 h 3.70489 v -7.665396 h 3.32163 c 4.50351,0 7.9529,-2.139922 7.9529,-6.771079 0,-4.854759 -3.38551,-6.451715 -7.9529,-6.451715 h -7.02652 z m 3.70489,-10.635721 v -7.282119 h 3.03426 c 3.03413,0 4.59926,0.862354 4.59926,3.481365 0,2.555123 -1.50126,3.800754 -4.59926,3.800754 z" />
        <path
           inkscape:export-ydpi="116.22256"
           inkscape:export-xdpi="116.22256"
           inkscape:connector-curvature="0"
           id="path6951"
           style="font-style:normal;font-variant:normal;font-weight:600;font-stretch:normal;font-size:medium;line-height:125%;font-family:'Source Sans Pro';-inkscape-font-specification:'Source Sans Pro Semi-Bold';letter-spacing:0px;word-spacing:0px;fill:#646464;fill-opacity:1;stroke:none;stroke-width:1.23982px;stroke-linecap:butt;stroke-linejoin:miter;stroke-opacity:1"
           d="m 512.54065,-61.436102 c 0,2.746762 1.91638,4.599233 4.66315,4.599233 1.85238,0 3.44939,-0.926229 4.85464,-2.107984 h 0.0957 l 0.2875,1.72472 h 3.00225 v -9.29429 c 0,-4.375657 -1.91637,-6.771092 -5.84489,-6.771092 -2.49126,0 -4.69502,0.958179 -6.41978,2.044109 l 1.34151,2.45931 c 1.37338,-0.830416 2.84251,-1.533069 4.40752,-1.533069 2.10801,0 2.81064,1.405319 2.84264,3.066138 -6.41978,0.702666 -9.23042,2.459311 -9.23042,5.812925 z m 3.57714,-0.287451 c 0,-1.565019 1.40538,-2.682886 5.65328,-3.225851 v 3.513302 c -1.14988,1.08593 -2.13989,1.724708 -3.41752,1.724708 -1.3095,0 -2.23576,-0.60684 -2.23576,-2.012159 z" />
        <path
           inkscape:export-ydpi="116.22256"
           inkscape:export-xdpi="116.22256"
           inkscape:connector-curvature="0"
           id="path6953"
           style="font-style:normal;font-variant:normal;font-weight:600;font-stretch:normal;font-size:medium;line-height:125%;font-family:'Source Sans Pro';-inkscape-font-specification:'Source Sans Pro Semi-Bold';letter-spacing:0px;word-spacing:0px;fill:#646464;fill-opacity:1;stroke:none;stroke-width:1.23982px;stroke-linecap:butt;stroke-linejoin:miter;stroke-opacity:1"
           d="m 528.90744,-65.04523 c 0,5.206085 3.28977,8.208361 7.56954,8.208361 1.78863,0 3.67301,-0.702653 5.14227,-2.012159 l -1.53313,-2.33156 c -0.86238,0.702666 -1.94826,1.341443 -3.22589,1.341443 -2.45926,0 -4.18402,-2.076046 -4.18402,-5.206085 0,-3.161951 1.75663,-5.237997 4.27989,-5.237997 0.99013,0 1.82051,0.415202 2.65089,1.149805 l 1.75676,-2.33156 c -1.05401,-1.022055 -2.58714,-1.820533 -4.59927,-1.820533 -4.18402,0 -7.85704,3.002288 -7.85704,8.240285 z" />
        <path
           inkscape:export-ydpi="116.22256"
           inkscape:export-xdpi="116.22256"
           inkscape:connector-curvature="0"
           id="path6955"
           style="font-style:normal;font-variant:normal;font-weight:600;font-stretch:normal;font-size:medium;line-height:125%;font-family:'Source Sans Pro';-inkscape-font-specification:'Source Sans Pro Semi-Bold';letter-spacing:0px;word-spacing:0px;fill:#646464;fill-opacity:1;stroke:none;stroke-width:1.23982px;stroke-linecap:butt;stroke-linejoin:miter;stroke-opacity:1"
           d="m 544.71385,-57.220133 h 3.60902 v -3.992393 l 2.45939,-2.810649 4.02426,6.803042 h 3.99238 l -5.90864,-9.29429 5.36578,-6.387816 h -4.02439 l -5.8129,7.218232 h -0.0957 v -14.085149 h -3.60901 v 22.549023 z" />
        <path
           inkscape:export-ydpi="116.22256"
           inkscape:export-xdpi="116.22256"
           inkscape:connector-curvature="0"
           id="path6957"
           style="font-style:normal;font-variant:normal;font-weight:600;font-stretch:normal;font-size:medium;line-height:125%;font-family:'Source Sans Pro';-inkscape-font-specification:'Source Sans Pro Semi-Bold';letter-spacing:0px;word-spacing:0px;fill:#646464;fill-opacity:1;stroke:none;stroke-width:1.23982px;stroke-linecap:butt;stroke-linejoin:miter;stroke-opacity:1"
           d="m 560.38697,-61.436102 c 0,2.746762 1.91626,4.599233 4.66302,4.599233 1.8525,0 3.4495,-0.926229 4.85476,-2.107984 h 0.0957 l 0.28738,1.72472 h 3.00239 v -9.29429 c 0,-4.375657 -1.91639,-6.771092 -5.8449,-6.771092 -2.49126,0 -4.69501,0.958179 -6.41977,2.044109 l 1.34137,2.45931 c 1.37338,-0.830416 2.84264,-1.533069 4.40764,-1.533069 2.10801,0 2.81064,1.405319 2.84264,3.066138 -6.41976,0.702666 -9.2304,2.459311 -9.2304,5.812925 z m 3.57714,-0.287451 c 0,-1.565019 1.40538,-2.682886 5.65326,-3.225851 v 3.513302 c -1.14988,1.08593 -2.14001,1.724708 -3.4175,1.724708 -1.3095,0 -2.23576,-0.60684 -2.23576,-2.012159 z" />
        <path
           inkscape:export-ydpi="116.22256"
           inkscape:export-xdpi="116.22256"
           inkscape:connector-curvature="0"
           id="path6959"
           style="font-style:normal;font-variant:normal;font-weight:600;font-stretch:normal;font-size:medium;line-height:125%;font-family:'Source Sans Pro';-inkscape-font-specification:'Source Sans Pro Semi-Bold';letter-spacing:0px;word-spacing:0px;fill:#646464;fill-opacity:1;stroke:none;stroke-width:1.23982px;stroke-linecap:butt;stroke-linejoin:miter;stroke-opacity:1"
           d="m 579.7879,-54.920523 c 0,-0.734591 0.38338,-1.437257 1.21376,-2.076034 0.60687,0.159688 1.2775,0.223563 2.13988,0.223563 h 2.13987 c 1.78864,0 2.77877,0.351339 2.77877,1.565019 0,1.341444 -1.72476,2.523199 -4.24789,2.523199 -2.49126,0 -4.02439,-0.830416 -4.02439,-2.235747 z m -3.06614,0.542965 c 0,2.746774 2.77877,4.088217 6.51566,4.088217 5.11026,0 8.36802,-2.427373 8.36802,-5.525474 0,-2.714824 -1.98026,-3.864629 -5.74901,-3.864629 h -2.77876 c -1.91639,0 -2.55514,-0.542977 -2.55514,-1.437269 0,-0.702665 0.2875,-1.085929 0.7665,-1.501144 0.70276,0.287464 1.46926,0.415215 2.14001,0.415215 3.32163,0 5.94064,-1.852471 5.94064,-5.333836 0,-1.085917 -0.38325,-2.044096 -0.89425,-2.650936 h 2.87451 v -2.714825 h -5.62126 c -0.63888,-0.223576 -1.43726,-0.383276 -2.29964,-0.383276 -3.28976,0 -6.19627,2.012171 -6.19627,5.621287 0,1.852458 0.99013,3.353602 2.04413,4.15208 v 0.127763 c -0.89425,0.638778 -1.72463,1.69277 -1.72463,2.906463 0,1.277555 0.60675,2.107971 1.40525,2.618998 v 0.127763 c -1.43725,0.894292 -2.23576,2.044097 -2.23576,3.353603 z m 6.70728,-10.124707 c -1.53313,0 -2.74676,-1.149805 -2.74676,-3.161963 0,-1.980221 1.21363,-3.098089 2.74676,-3.098089 1.53301,0 2.71475,1.149805 2.71475,3.098089 0,2.012158 -1.21362,3.161963 -2.71475,3.161963 z" />
        <path
           inkscape:export-ydpi="116.22256"
           inkscape:export-xdpi="116.22256"
           inkscape:connector-curvature="0"
           id="path6961"
           style="font-style:normal;font-variant:normal;font-weight:600;font-stretch:normal;font-size:medium;line-height:125%;font-family:'Source Sans Pro';-inkscape-font-specification:'Source Sans Pro Semi-Bold';letter-spacing:0px;word-spacing:0px;fill:#646464;fill-opacity:1;stroke:none;stroke-width:1.23982px;stroke-linecap:butt;stroke-linejoin:miter;stroke-opacity:1"
           d="m 592.84805,-65.04523 c 0,5.174148 3.38551,8.208361 7.72928,8.208361 1.98026,0 3.86464,-0.702653 5.36577,-1.69277 l -1.24563,-2.299622 c -1.14975,0.734603 -2.29963,1.149817 -3.64101,1.149817 -2.52326,0 -4.3119,-1.596957 -4.63127,-4.439544 h 9.96504 c 0.0957,-0.383277 0.15975,-1.022054 0.15975,-1.72472 0,-4.375644 -2.23576,-7.441807 -6.48365,-7.441807 -3.67302,0 -7.21828,3.130038 -7.21828,8.240285 z m 3.54526,-1.405318 c 0.31938,-2.618999 1.91638,-3.99238 3.76877,-3.99238 2.14001,0 3.19389,1.501144 3.19389,3.99238 z" />
        <path
           inkscape:export-ydpi="116.22256"
           inkscape:export-xdpi="116.22256"
           inkscape:connector-curvature="0"
           id="path6963"
           style="font-style:normal;font-variant:normal;font-weight:600;font-stretch:normal;font-size:medium;line-height:125%;font-family:'Source Sans Pro';-inkscape-font-specification:'Source Sans Pro Semi-Bold';letter-spacing:0px;word-spacing:0px;fill:#646464;fill-opacity:1;stroke:none;stroke-width:1.23982px;stroke-linecap:butt;stroke-linejoin:miter;stroke-opacity:1"
           d="m 620.02627,-57.220518 h 3.70489 v -20.88819 h -3.70489 z" />
        <path
           inkscape:export-ydpi="116.22256"
           inkscape:export-xdpi="116.22256"
           inkscape:connector-curvature="0"
           id="path6965"
           style="font-style:normal;font-variant:normal;font-weight:600;font-stretch:normal;font-size:medium;line-height:125%;font-family:'Source Sans Pro';-inkscape-font-specification:'Source Sans Pro Semi-Bold';letter-spacing:0px;word-spacing:0px;fill:#646464;fill-opacity:1;stroke:none;stroke-width:1.23982px;stroke-linecap:butt;stroke-linejoin:miter;stroke-opacity:1"
           d="m 628.68974,-57.220518 h 3.67301 V -68.17564 c 1.3095,-1.277568 2.20375,-1.948296 3.57713,-1.948296 1.72476,0 2.45939,0.958179 2.45939,3.545253 v 9.358165 h 3.67289 v -9.837255 c 0,-3.960454 -1.46913,-6.228126 -4.82277,-6.228126 -2.13989,0 -3.73689,1.117879 -5.14214,2.491248 h -0.12775 l -0.2555,-2.107972 h -3.03426 z" />
        <path
           inkscape:export-ydpi="116.22256"
           inkscape:export-xdpi="116.22256"
           inkscape:connector-curvature="0"
           id="path6967"
           style="font-style:normal;font-variant:normal;font-weight:600;font-stretch:normal;font-size:medium;line-height:125%;font-family:'Source Sans Pro';-inkscape-font-specification:'Source Sans Pro Semi-Bold';letter-spacing:0px;word-spacing:0px;fill:#646464;fill-opacity:1;stroke:none;stroke-width:1.23982px;stroke-linecap:butt;stroke-linejoin:miter;stroke-opacity:1"
           d="m 645.63493,-65.045614 c 0,5.174147 2.52314,8.20836 6.45165,8.20836 1.69276,0 3.28977,-0.926229 4.43952,-2.076046 h 0.12788 l 0.2555,1.692782 h 3.03414 V -79.76954 h -3.67302 v 5.685162 l 0.12775,2.523198 c -1.21363,-1.053992 -2.33151,-1.724719 -4.12014,-1.724719 -3.41739,0 -6.64328,3.130026 -6.64328,8.240285 z m 3.80077,-0.03199 c 0,-3.289727 1.62888,-5.174135 3.64101,-5.174135 1.05401,0 2.10801,0.351327 3.19389,1.309506 v 7.314056 c -1.054,1.213693 -2.07601,1.756658 -3.28964,1.756658 -2.26776,0 -3.54526,-1.820533 -3.54526,-5.206085 z" />
        <path
           inkscape:export-ydpi="116.22256"
           inkscape:export-xdpi="116.22256"
           inkscape:connector-curvature="0"
           id="path6969"
           style="font-style:normal;font-variant:normal;font-weight:600;font-stretch:normal;font-size:medium;line-height:125%;font-family:'Source Sans Pro';-inkscape-font-specification:'Source Sans Pro Semi-Bold';letter-spacing:0px;word-spacing:0px;fill:#646464;fill-opacity:1;stroke:none;stroke-width:1.23982px;stroke-linecap:butt;stroke-linejoin:miter;stroke-opacity:1"
           d="m 663.59924,-65.045614 c 0,5.174147 3.38551,8.20836 7.72916,8.20836 1.98024,0 3.86463,-0.702665 5.36576,-1.692769 l -1.24563,-2.299623 c -1.14976,0.734603 -2.2995,1.149805 -3.64101,1.149805 -2.52313,0 -4.31176,-1.596957 -4.63114,-4.439531 h 9.96503 c 0.0957,-0.383277 0.15963,-1.022055 0.15963,-1.72472 0,-4.375657 -2.23576,-7.441807 -6.48364,-7.441807 -3.67302,0 -7.21816,3.130026 -7.21816,8.240285 z m 3.54514,-1.405318 c 0.31938,-2.619012 1.91638,-3.992393 3.76889,-3.992393 2.13989,0 3.19388,1.501144 3.19388,3.992393 z" />
        <path
           inkscape:export-ydpi="116.22256"
           inkscape:export-xdpi="116.22256"
           inkscape:connector-curvature="0"
           id="path6971"
           style="font-style:normal;font-variant:normal;font-weight:600;font-stretch:normal;font-size:medium;line-height:125%;font-family:'Source Sans Pro';-inkscape-font-specification:'Source Sans Pro Semi-Bold';letter-spacing:0px;word-spacing:0px;fill:#646464;fill-opacity:1;stroke:none;stroke-width:1.23982px;stroke-linecap:butt;stroke-linejoin:miter;stroke-opacity:1"
           d="m 678.58157,-57.220518 h 3.83276 l 1.66076,-3.098101 c 0.44725,-0.958179 0.92625,-1.884408 1.37338,-2.778699 h 0.12788 c 0.54287,0.894291 1.08588,1.85247 1.59688,2.778699 l 1.91638,3.098101 h 3.96038 l -4.98251,-7.761208 4.63126,-7.920897 h -3.80075 l -1.50114,2.970326 c -0.38325,0.862353 -0.8305,1.788595 -1.21375,2.650948 h -0.12775 c -0.479,-0.862353 -0.99013,-1.788595 -1.43726,-2.650948 l -1.75663,-2.970326 h -3.96039 l 4.66302,7.505683 z" />
      </g>
      <g
         id="g1116"
         transform="matrix(3.0105297,0,0,3.0105297,-1071.6269,431.80492)">
        <text
           xml:space="preserve"
           style="font-style:normal;font-weight:normal;font-size:37.5px;line-height:1.25;font-family:sans-serif;fill:#3775a9;fill-opacity:1;stroke:none;stroke-width:0.9375"
           x="443.38678"
           y="-170.58008"
           id="text1086"><tspan
             sodipodi:role="line"
             id="tspan1084"
             x="443.38678"
             y="-170.58008"
             style="font-style:normal;font-variant:normal;font-weight:bold;font-stretch:normal;font-family:Cantarell;-inkscape-font-specification:Cantarell;fill:#3775a9;fill-opacity:1;stroke-width:0.9375">Py</tspan></text>
        <text
           xml:space="preserve"
           style="font-style:normal;font-weight:normal;font-size:37.5px;line-height:1.25;font-family:sans-serif;fill:#ffd242;fill-opacity:1;stroke:none;stroke-width:0.9375"
           x="484.50461"
           y="-170.58099"
           id="text1086-3"><tspan
             sodipodi:role="line"
             id="tspan1084-6"
             x="484.50461"
             y="-170.58099"
             style="font-style:normal;font-variant:normal;font-weight:bold;font-stretch:normal;font-family:Cantarell;-inkscape-font-specification:Cantarell;fill:#ffd242;fill-opacity:1;stroke-width:0.9375">PI</tspan></text>
      </g>
    </g>
  </g>
</svg>
