<?xml version="1.0" encoding="UTF-8" standalone="no"?>
<svg
   xmlns:dc="http://purl.org/dc/elements/1.1/"
   xmlns:cc="http://creativecommons.org/ns#"
   xmlns:rdf="http://www.w3.org/1999/02/22-rdf-syntax-ns#"
   xmlns:svg="http://www.w3.org/2000/svg"
   xmlns="http://www.w3.org/2000/svg"
   width="512"
   height="512"
   viewBox="0 0 135.46668 135.46667"
   version="1.1"
   id="svg8">
  <defs
     id="defs2" />
  <metadata
     id="metadata5">
    <rdf:RDF>
      <cc:Work
         rdf:about="">
        <dc:format>image/svg+xml</dc:format>
        <dc:type
           rdf:resource="http://purl.org/dc/dcmitype/StillImage" />
        <dc:title />
      </cc:Work>
    </rdf:RDF>
  </metadata>
  <g
     id="layer1"
     transform="translate(-147.93097,-157.24948)">
    <path
       id="rect1298"
       style="fill:#bebebe;stroke:none;stroke-width:2.22787;stroke-miterlimit:4;stroke-dasharray:none;stroke-opacity:1;fill-opacity:1"
       d="m 211.65369,157.24948 c -20.56151,1.95637 -36.528,18.8025 -36.528,39.42808 v 30.79761 h 36.528 v -14.21981 c -5.32345,-1.62493 -9.16688,-6.46651 -9.16688,-12.21837 v -14.51075 c 0,-5.75183 3.84343,-10.59292 9.16688,-12.21785 z m 8.02071,0 v 17.05839 c 5.32381,1.62473 9.16688,6.46628 9.16688,12.21837 v 14.51075 c 0,5.75212 -3.84307,10.59469 -9.16688,12.21941 v 14.21877 h 36.52851 v -30.79761 c 0,-20.62558 -15.96693,-37.47171 -36.52851,-39.42808 z m -44.54871,78.065 v 17.7829 c 0,21.94877 18.07982,39.61876 40.5381,39.61876 22.45828,0 40.53912,-17.66999 40.53912,-39.61876 v -17.7829 z m 65.6208,2.17971 a 6.9999999,6.9999999 0 0 1 0.11421,0 6.9999999,6.9999999 0 0 1 4.49637,1.66812 6.9999999,6.9999999 0 0 1 0.79839,9.8671 l -34.61132,40.70087 -19.45876,-27.08 a 6.9999999,6.9999999 0 0 1 1.59939,-9.76943 6.9999999,6.9999999 0 0 1 9.76994,1.59939 l 9.01754,12.5491 23.0172,-27.07018 a 6.9999999,6.9999999 0 0 1 5.25704,-2.46497 z" />
  </g>
</svg>
