<?xml version="1.0" encoding="UTF-8" standalone="no"?>
<svg
   xmlns:dc="http://purl.org/dc/elements/1.1/"
   xmlns:cc="http://creativecommons.org/ns#"
   xmlns:rdf="http://www.w3.org/1999/02/22-rdf-syntax-ns#"
   xmlns:svg="http://www.w3.org/2000/svg"
   xmlns="http://www.w3.org/2000/svg"
   xmlns:sodipodi="http://sodipodi.sourceforge.net/DTD/sodipodi-0.dtd"
   xmlns:inkscape="http://www.inkscape.org/namespaces/inkscape"
   width="135.46667mm"
   height="135.46617mm"
   viewBox="0 0 135.46668 135.46617"
   version="1.1"
   id="svg8"
   inkscape:version="1.0.2 (e86c870879, 2021-01-15)"
   sodipodi:docname="smart-system-monitor-disk-optical-symbolic.svg"
   inkscape:export-filename="/home/asush/Masaüstü/files/python/task_manager/icon_studies/smart-system-monitor-settings.symbolic.png"
   inkscape:export-xdpi="20.171528"
   inkscape:export-ydpi="20.171528">
  <defs
     id="defs2" />
  <sodipodi:namedview
     id="base"
     pagecolor="#ffffff"
     bordercolor="#666666"
     borderopacity="1.0"
     inkscape:pageopacity="0.0"
     inkscape:pageshadow="2"
     inkscape:zoom="0.53441561"
     inkscape:cx="315.00502"
     inkscape:cy="404.45456"
     inkscape:document-units="mm"
     inkscape:current-layer="layer1"
     inkscape:document-rotation="0"
     showgrid="false"
     inkscape:snap-object-midpoints="true"
     inkscape:snap-center="true"
     inkscape:window-width="1366"
     inkscape:window-height="696"
     inkscape:window-x="0"
     inkscape:window-y="0"
     inkscape:window-maximized="1" />
  <metadata
     id="metadata5">
    <rdf:RDF>
      <cc:Work
         rdf:about="">
        <dc:format>image/svg+xml</dc:format>
        <dc:type
           rdf:resource="http://purl.org/dc/dcmitype/StillImage" />
        <dc:title />
      </cc:Work>
    </rdf:RDF>
  </metadata>
  <g
     inkscape:label="Katman 1"
     inkscape:groupmode="layer"
     id="layer1"
     transform="translate(-102.68554,-117.53567)">
    <path
       id="path835"
       style="opacity:1;fill:#000000;stroke:none;stroke-width:32.9393;stroke-linecap:round"
       d="m 170.27616,117.53571 a 67.733227,67.733227 0 0 0 -67.59062,67.73307 67.733227,67.733227 0 0 0 67.73361,67.73306 67.733227,67.733227 0 0 0 67.73306,-67.73306 67.733227,67.733227 0 0 0 -67.73306,-67.73307 67.733227,67.733227 0 0 0 -0.14299,0 z m 53.11542,38.24715 a 55.66272,55.66272 0 0 1 7.45752,27.83099 h -35.79792 a 19.864405,19.864405 0 0 0 -2.66126,-9.9323 z m -52.97243,10.52218 c 10.44659,0 18.96374,8.51732 18.96374,18.96374 0,10.44644 -8.51715,18.96373 -18.96374,18.96373 -10.44663,0 -18.96428,-8.51714 -18.96428,-18.96373 0,-10.44659 8.51765,-18.96374 18.96428,-18.96374 z m 0,4.81257 c -7.84621,0 -14.14955,6.30499 -14.14955,14.15117 0,7.8462 6.30334,14.15171 14.14955,14.15171 7.84617,0 14.15117,-6.30551 14.15117,-14.15171 0,-7.84618 -6.305,-14.15117 -14.15117,-14.15117 z m -0.001,8.41492 a 5.7364126,5.7364126 0 0 1 5.73626,5.73625 5.7364126,5.7364126 0 0 1 -5.73626,5.73625 5.7364126,5.7364126 0 0 1 -5.7368,-5.73625 5.7364126,5.7364126 0 0 1 5.7368,-5.73625 z m -60.37722,6.66266 h 35.79737 a 19.864405,19.864405 0 0 0 2.66181,9.93285 l -31.00221,17.89813 a 55.66272,55.66272 0 0 1 -7.45697,-27.83098 z" />
  </g>
</svg>
