<?xml version="1.0" encoding="UTF-8" standalone="no"?>
<svg
   xmlns:dc="http://purl.org/dc/elements/1.1/"
   xmlns:cc="http://creativecommons.org/ns#"
   xmlns:rdf="http://www.w3.org/1999/02/22-rdf-syntax-ns#"
   xmlns:svg="http://www.w3.org/2000/svg"
   xmlns="http://www.w3.org/2000/svg"
   xmlns:sodipodi="http://sodipodi.sourceforge.net/DTD/sodipodi-0.dtd"
   xmlns:inkscape="http://www.inkscape.org/namespaces/inkscape"
   width="512"
   height="512"
   viewBox="0 0 135.46667 135.46667"
   version="1.1"
   id="svg8"
   inkscape:version="1.0.2 (e86c870879, 2021-01-15)"
   sodipodi:docname="smart-system-monitor-number-precision-symbolic.svg">
  <defs
     id="defs2">
    <rect
       x="100.35936"
       y="188.85616"
       width="33.861729"
       height="51.982349"
       id="rect1121" />
  </defs>
  <sodipodi:namedview
     id="base"
     pagecolor="#ffffff"
     bordercolor="#666666"
     borderopacity="1.0"
     inkscape:pageopacity="0.0"
     inkscape:pageshadow="2"
     inkscape:zoom="0.22627417"
     inkscape:cx="-52.533921"
     inkscape:cy="104.56477"
     inkscape:document-units="mm"
     inkscape:current-layer="layer1"
     inkscape:document-rotation="0"
     showgrid="false"
     inkscape:window-width="1366"
     inkscape:window-height="696"
     inkscape:window-x="0"
     inkscape:window-y="0"
     inkscape:window-maximized="1"
     inkscape:snap-center="true"
     inkscape:snap-page="true"
     inkscape:snap-text-baseline="true"
     units="px" />
  <metadata
     id="metadata5">
    <rdf:RDF>
      <cc:Work
         rdf:about="">
        <dc:format>image/svg+xml</dc:format>
        <dc:type
           rdf:resource="http://purl.org/dc/dcmitype/StillImage" />
        <dc:title></dc:title>
      </cc:Work>
    </rdf:RDF>
  </metadata>
  <g
     inkscape:label="Katman 1"
     inkscape:groupmode="layer"
     id="layer1"
     transform="translate(-148.31061,-171.47046)">
    <g
       transform="matrix(14.175092,0,0,14.175092,-1765.0093,-1938.8621)"
       id="text1119"
       style="font-style:normal;font-weight:normal;font-size:10.5833px;line-height:1.25;font-family:sans-serif;white-space:pre;shape-inside:url(#rect1121);fill:#000000;fill-opacity:1;stroke:none" />
    <g
       aria-label=".00"
       id="text857"
       style="font-style:normal;font-weight:normal;font-size:75.7524px;line-height:1.25;font-family:sans-serif;fill:#000000;fill-opacity:1;stroke:none;stroke-width:1.89381"
       transform="translate(0,11.867718)">
      <path
         d="M 148.31061,259.22573 H 169.616 v 22.9033 h -21.30539 z"
         style="font-style:normal;font-variant:normal;font-weight:bold;font-stretch:normal;font-size:121.204px;font-family:sans-serif;-inkscape-font-specification:'sans-serif, Bold';font-variant-ligatures:normal;font-variant-caps:normal;font-variant-numeric:normal;font-variant-east-asian:normal;stroke-width:1.89381"
         id="path28822" />
      <path
         d="m 216.82811,254.46165 q 0,-10.35678 -1.96039,-14.57346 -1.9234,-4.25368 -6.50997,-4.25368 -4.58657,0 -6.54696,4.25368 -1.96039,4.21668 -1.96039,14.57346 0,10.46774 1.96039,14.7584 1.96039,4.29066 6.54696,4.29066 4.54958,0 6.50997,-4.29066 1.96039,-4.29066 1.96039,-14.7584 z m 14.24057,0.11096 q 0,13.72273 -5.91816,21.1944 -5.91816,7.43468 -16.79277,7.43468 -10.9116,0 -16.82976,-7.43468 -5.91815,-7.47167 -5.91815,-21.1944 0,-13.75971 5.91815,-21.1944 5.91816,-7.47167 16.82976,-7.47167 10.87461,0 16.79277,7.47167 5.91816,7.43469 5.91816,21.1944 z"
         style="font-style:normal;font-variant:normal;font-weight:bold;font-stretch:normal;font-size:75.7524px;font-family:sans-serif;-inkscape-font-specification:'sans-serif, Bold';font-variant-ligatures:normal;font-variant-caps:normal;font-variant-numeric:normal;font-variant-east-asian:normal;stroke-width:1.89381"
         id="path28824" />
      <path
         d="m 269.53669,254.46165 q 0,-10.35678 -1.96039,-14.57346 -1.9234,-4.25368 -6.50997,-4.25368 -4.58657,0 -6.54696,4.25368 -1.96039,4.21668 -1.96039,14.57346 0,10.46774 1.96039,14.7584 1.96039,4.29066 6.54696,4.29066 4.54958,0 6.50997,-4.29066 1.96039,-4.29066 1.96039,-14.7584 z m 14.24056,0.11096 q 0,13.72273 -5.91815,21.1944 -5.91816,7.43468 -16.79277,7.43468 -10.9116,0 -16.82976,-7.43468 -5.91816,-7.47167 -5.91816,-21.1944 0,-13.75971 5.91816,-21.1944 5.91816,-7.47167 16.82976,-7.47167 10.87461,0 16.79277,7.47167 5.91815,7.43469 5.91815,21.1944 z"
         style="font-style:normal;font-variant:normal;font-weight:bold;font-stretch:normal;font-size:75.7524px;font-family:sans-serif;-inkscape-font-specification:'sans-serif, Bold';font-variant-ligatures:normal;font-variant-caps:normal;font-variant-numeric:normal;font-variant-east-asian:normal;stroke-width:1.89381"
         id="path28826" />
    </g>
    <path
       style="color:#000000;font-style:normal;font-variant:normal;font-weight:normal;font-stretch:normal;font-size:medium;line-height:normal;font-family:sans-serif;font-variant-ligatures:normal;font-variant-position:normal;font-variant-caps:normal;font-variant-numeric:normal;font-variant-alternates:normal;font-variant-east-asian:normal;font-feature-settings:normal;font-variation-settings:normal;text-indent:0;text-align:start;text-decoration:none;text-decoration-line:none;text-decoration-style:solid;text-decoration-color:#000000;letter-spacing:normal;word-spacing:normal;text-transform:none;writing-mode:lr-tb;direction:ltr;text-orientation:mixed;dominant-baseline:auto;baseline-shift:baseline;text-anchor:start;white-space:normal;shape-padding:0;shape-margin:0;inline-size:0;clip-rule:nonzero;display:inline;overflow:visible;visibility:visible;opacity:1;isolation:auto;mix-blend-mode:normal;color-interpolation:sRGB;color-interpolation-filters:linearRGB;solid-color:#000000;solid-opacity:1;vector-effect:none;fill:#000000;fill-opacity:1;fill-rule:nonzero;stroke:none;stroke-width:3.35542;stroke-linecap:butt;stroke-linejoin:miter;stroke-miterlimit:4;stroke-dasharray:none;stroke-dashoffset:0;stroke-opacity:1;color-rendering:auto;image-rendering:auto;shape-rendering:auto;text-rendering:auto;enable-background:accumulate;stop-color:#000000;stop-opacity:1"
       d="m 236.83093,183.33818 46.94634,23.54206 -46.94634,23.54228 V 216.31499 H 174.129 v -18.86942 h 62.70193 z"
       id="rect835" />
  </g>
</svg>
