<?xml version="1.0" encoding="UTF-8" standalone="no"?>
<svg
   xmlns:dc="http://purl.org/dc/elements/1.1/"
   xmlns:cc="http://creativecommons.org/ns#"
   xmlns:rdf="http://www.w3.org/1999/02/22-rdf-syntax-ns#"
   xmlns:svg="http://www.w3.org/2000/svg"
   xmlns="http://www.w3.org/2000/svg"
   xmlns:sodipodi="http://sodipodi.sourceforge.net/DTD/sodipodi-0.dtd"
   xmlns:inkscape="http://www.inkscape.org/namespaces/inkscape"
   width="512"
   height="512"
   viewBox="0 0 135.46665 135.46668"
   version="1.1"
   id="svg8"
   inkscape:version="1.0.2 (e86c870879, 2021-01-15)"
   sodipodi:docname="system-monitoring-center-lock-symbolic.svg"
   inkscape:export-filename="/home/asush/Masaüstü/files/python/task_manager/icon_studies/smart-system-monitor-settings.symbolic.png"
   inkscape:export-xdpi="20.171528"
   inkscape:export-ydpi="20.171528">
  <defs
     id="defs2" />
  <sodipodi:namedview
     id="base"
     pagecolor="#ffffff"
     bordercolor="#666666"
     borderopacity="1.0"
     inkscape:pageopacity="0.0"
     inkscape:pageshadow="2"
     inkscape:zoom="0.54626583"
     inkscape:cx="247.88327"
     inkscape:cy="303.82232"
     inkscape:document-units="mm"
     inkscape:current-layer="layer1"
     inkscape:document-rotation="0"
     showgrid="false"
     inkscape:snap-object-midpoints="true"
     inkscape:snap-center="true"
     inkscape:window-width="1366"
     inkscape:window-height="696"
     inkscape:window-x="0"
     inkscape:window-y="0"
     inkscape:window-maximized="1"
     units="px" />
  <metadata
     id="metadata5">
    <rdf:RDF>
      <cc:Work
         rdf:about="">
        <dc:format>image/svg+xml</dc:format>
        <dc:type
           rdf:resource="http://purl.org/dc/dcmitype/StillImage" />
        <dc:title></dc:title>
      </cc:Work>
    </rdf:RDF>
  </metadata>
  <g
     inkscape:label="Katman 1"
     inkscape:groupmode="layer"
     id="layer1"
     transform="translate(-104.81325,-94.94546)">
    <path
       style="color:#000000;font-style:normal;font-variant:normal;font-weight:normal;font-stretch:normal;font-size:medium;line-height:normal;font-family:sans-serif;font-variant-ligatures:normal;font-variant-position:normal;font-variant-caps:normal;font-variant-numeric:normal;font-variant-alternates:normal;font-variant-east-asian:normal;font-feature-settings:normal;font-variation-settings:normal;text-indent:0;text-align:start;text-decoration:none;text-decoration-line:none;text-decoration-style:solid;text-decoration-color:#000000;letter-spacing:normal;word-spacing:normal;text-transform:none;writing-mode:lr-tb;direction:ltr;text-orientation:mixed;dominant-baseline:auto;baseline-shift:baseline;text-anchor:start;white-space:normal;shape-padding:0;shape-margin:0;inline-size:0;clip-rule:nonzero;display:inline;overflow:visible;visibility:visible;isolation:auto;mix-blend-mode:normal;color-interpolation:sRGB;color-interpolation-filters:linearRGB;solid-color:#000000;solid-opacity:1;vector-effect:none;fill:#bebebe;fill-opacity:1;fill-rule:nonzero;stroke:none;stroke-width:0.253969;stroke-linecap:round;stroke-linejoin:miter;stroke-miterlimit:4;stroke-dasharray:none;stroke-dashoffset:0;stroke-opacity:1;color-rendering:auto;image-rendering:auto;shape-rendering:auto;text-rendering:auto;enable-background:accumulate;stop-color:#000000"
       d="m 172.54187,94.945458 c -25.13297,-1.83e-4 -45.50732,20.412392 -45.50713,45.592532 9e-5,0.0413 2.4e-4,0.0824 4.4e-4,0.12375 v 23.28048 h -14.23939 v 66.46991 H 232.29737 V 163.94222 H 146.3467 v -23.28048 h 0.19135 c -2.5e-4,-0.0413 -4e-4,-0.0825 -4.5e-4,-0.12375 4e-5,-14.38862 11.6426,-26.05283 26.00427,-26.05262 14.36149,4e-5 26.00377,11.66418 26.00381,26.05262 -5e-5,0.0413 -2e-4,0.0824 -4.5e-4,0.12375 h 0.18102 v 6.87227 h 19.33218 v -6.88262 h -0.0103 c 2e-4,-0.0378 3.5e-4,-0.0756 4.5e-4,-0.1134 1.9e-4,-25.17997 -20.37388,-45.592466 -45.50668,-45.592532 z"
       id="path28840" />
    <path
       id="path28842"
       style="color:#000000;font-style:normal;font-variant:normal;font-weight:normal;font-stretch:normal;font-size:medium;line-height:normal;font-family:sans-serif;font-variant-ligatures:normal;font-variant-position:normal;font-variant-caps:normal;font-variant-numeric:normal;font-variant-alternates:normal;font-variant-east-asian:normal;font-feature-settings:normal;font-variation-settings:normal;text-indent:0;text-align:start;text-decoration:none;text-decoration-line:none;text-decoration-style:solid;text-decoration-color:#000000;letter-spacing:normal;word-spacing:normal;text-transform:none;writing-mode:lr-tb;direction:ltr;text-orientation:mixed;dominant-baseline:auto;baseline-shift:baseline;text-anchor:start;white-space:normal;shape-padding:0;shape-margin:0;inline-size:0;clip-rule:nonzero;display:inline;overflow:visible;visibility:visible;isolation:auto;mix-blend-mode:normal;color-interpolation:sRGB;color-interpolation-filters:linearRGB;solid-color:#000000;solid-opacity:1;vector-effect:none;fill:#bebebe;fill-opacity:1;fill-rule:nonzero;stroke:none;stroke-width:3.77953;stroke-linecap:round;stroke-linejoin:miter;stroke-miterlimit:4;stroke-dasharray:none;stroke-dashoffset:0;stroke-opacity:1;color-rendering:auto;image-rendering:auto;shape-rendering:auto;text-rendering:auto;enable-background:accumulate;stop-color:#000000"
       d="M 255.98047 0 C 160.73055 -0.00069165354 83.509085 77.226648 83.509766 172.47656 C 83.510144 172.63266 83.50901 172.78535 83.509766 172.94141 L 83.509766 260.28516 L 29.689453 260.28516 L 29.689453 512 L 482.30859 512 L 482.30859 260.28516 L 157.45703 260.28516 L 157.45703 173.42188 L 158.1875 173.42188 L 158.17969 172.94141 C 158.17878 172.78645 158.17991 172.63149 158.17969 172.47656 C 158.17984 118.45536 201.96122 74.673034 255.98242 74.673828 C 310.00294 74.674017 353.78501 118.45604 353.78516 172.47656 C 353.78497 172.63152 353.7861 172.78686 353.78516 172.94141 L 353.78516 173.42188 L 354.4707 173.42188 L 354.4707 190.16602 L 355.43164 190.16602 L 355.43164 172.46289 L 354.74414 172.46289 C 354.73658 117.931 310.5162 73.714995 255.98242 73.714844 C 201.44792 73.714012 157.22894 117.93032 157.2207 172.46289 L 156.49609 172.46289 L 156.49609 261.24414 L 481.35156 261.24414 L 481.35156 511.04102 L 30.648438 511.04102 L 30.648438 261.24414 L 84.46875 261.24414 L 84.46875 172.94141 C 84.467994 172.78607 84.46909 172.63186 84.46875 172.47656 C 84.46807 77.744934 161.24884 0.95829272 255.98047 0.95898438 C 350.71142 0.95923004 427.50068 77.745614 427.5 172.47656 C 427.49955 172.61867 427.50072 172.75621 427.5 172.89844 L 427.49219 173.38477 L 427.53711 173.38477 L 427.53711 190.16602 L 428.49609 190.16602 L 428.49609 172.42578 L 428.45312 172.42578 C 428.42667 77.201038 351.21385 0.00024944882 255.98242 0 L 255.98047 0 z "
       transform="matrix(0.26458333,0,0,0.26458333,104.81325,94.94546)" />
  </g>
</svg>
