<?xml version="1.0" encoding="UTF-8" standalone="no"?>
<svg
   xmlns:dc="http://purl.org/dc/elements/1.1/"
   xmlns:cc="http://creativecommons.org/ns#"
   xmlns:rdf="http://www.w3.org/1999/02/22-rdf-syntax-ns#"
   xmlns:svg="http://www.w3.org/2000/svg"
   xmlns="http://www.w3.org/2000/svg"
   width="135.46667mm"
   height="135.46666mm"
   viewBox="0 0 135.46666 135.46665"
   version="1.1"
   id="svg8">
  <defs
     id="defs2" />
  <metadata
     id="metadata5">
    <rdf:RDF>
      <cc:Work
         rdf:about="">
        <dc:format>image/svg+xml</dc:format>
        <dc:type
           rdf:resource="http://purl.org/dc/dcmitype/StillImage" />
        <dc:title />
      </cc:Work>
    </rdf:RDF>
  </metadata>
  <g
     id="layer1"
     transform="translate(245.65369,-74.151884)">
    <path
       id="path877"
       style="opacity:1;fill:#bebebe;stroke:none;stroke-width:0.31619;stroke-linecap:round;fill-opacity:1"
       d="m -177.92061,74.151884 a 67.733263,67.73333 0 0 0 -67.73308,67.733336 67.733263,67.73333 0 0 0 67.73308,67.73333 67.733263,67.73333 0 0 0 67.73359,-67.73333 67.733263,67.73333 0 0 0 -67.73359,-67.733336 z m 0.0263,11.989961 c -0.73739,0 -1.46988,0.025 -2.19719,0.0755 -0.72732,0.0504 -1.44935,0.12591 -2.16567,0.22531 -0.71631,0.0994 -1.42713,0.22304 -2.13154,0.37 -0.70441,0.14697 -1.40277,0.31749 -2.09434,0.51057 -0.69157,0.19309 -1.37621,0.4087 -2.05402,0.64647 -0.67782,0.23778 -1.3485,0.49774 -2.01164,0.77876 -0.66314,0.28102 -1.31913,0.58355 -1.96667,0.90641 -0.64755,0.32284 -1.28706,0.66617 -1.91808,1.02939 -0.63103,0.36324 -1.25333,0.74606 -1.86692,1.14825 -0.6136,0.40219 -1.21793,0.82327 -1.81316,1.26298 -0.59524,0.4397 -1.1814,0.89777 -1.75735,1.37356 -0.57595,0.4758 -1.14215,0.96956 -1.6979,1.48001 -0.55574,0.51044 -1.10124,1.03815 -1.63587,1.58181 -0.53465,0.54367 -1.05868,1.10351 -1.57127,1.67897 -0.51261,0.57545 -1.01342,1.166195 -1.50305,1.771995 -0.48962,0.60581 -0.96751,1.22666 -1.43326,1.86138 -0.53108,0.72377 -1.04759,1.46596 -1.54801,2.22622 -0.50043,0.76027 -0.98526,1.53862 -1.45394,2.33371 -0.46868,0.7951 -0.92093,1.60727 -1.35678,2.43551 -0.43584,0.82824 -0.85508,1.67242 -1.25701,2.53214 -0.40192,0.85973 -0.78672,1.7346 -1.15364,2.62413 -0.36691,0.88953 -0.71583,1.79381 -1.04665,2.71147 -0.33081,0.91766 -0.64292,1.84847 -0.93656,2.79259 -0.29363,0.94413 -0.56852,1.90121 -0.82389,2.87011 -2.5324,0.49645 -5.00167,1.02919 -7.39943,1.59215 -2.39776,0.56296 -4.72438,1.15608 -6.97149,1.77302 a 55.899099,55.888119 0 0 1 0.0109,-0.0377 55.899099,55.888119 0 0 1 0.0811,-0.28215 55.899099,55.888119 0 0 1 0.0827,-0.28164 55.899099,55.888119 0 0 1 0.0848,-0.28163 55.899099,55.888119 0 0 1 0.0858,-0.28112 55.899099,55.888119 0 0 1 0.0873,-0.28009 55.899099,55.888119 0 0 1 0.0884,-0.28008 55.899099,55.888119 0 0 1 0.0904,-0.27957 55.899099,55.888119 0 0 1 0.0915,-0.27906 55.899099,55.888119 0 0 1 0.0935,-0.27853 55.899099,55.888119 0 0 1 0.094,-0.27802 55.899099,55.888119 0 0 1 0.0966,-0.2775 55.899099,55.888119 0 0 1 0.0972,-0.27751 55.899099,55.888119 0 0 1 0.0987,-0.27595 55.899099,55.888119 0 0 1 0.10079,-0.27647 55.899099,55.888119 0 0 1 0.10182,-0.27543 55.899099,55.888119 0 0 1 0.10337,-0.27492 55.899099,55.888119 0 0 1 0.10493,-0.2744 55.899099,55.888119 0 0 1 0.10595,-0.27389 55.899099,55.888119 0 0 1 0.10751,-0.27337 55.899099,55.888119 0 0 1 0.10907,-0.27285 55.899099,55.888119 0 0 1 0.1106,-0.27182 55.899099,55.888119 0 0 1 0.11216,-0.27181 55.899099,55.888119 0 0 1 0.11319,-0.27079 55.899099,55.888119 0 0 1 0.11474,-0.27078 55.899099,55.888119 0 0 1 0.11631,-0.26924 55.899099,55.888119 0 0 1 0.11784,-0.26923 55.899099,55.888119 0 0 1 0.11887,-0.2682 55.899099,55.888119 0 0 1 0.12044,-0.2682 55.899099,55.888119 0 0 1 0.12146,-0.26717 55.899099,55.888119 0 0 1 0.12353,-0.26717 55.899099,55.888119 0 0 1 0.12457,-0.26561 55.899099,55.888119 0 0 1 0.12611,-0.26562 55.899099,55.888119 0 0 1 0.12767,-0.26407 55.899099,55.888119 0 0 1 0.12869,-0.26458 55.899099,55.888119 0 0 1 0.13027,-0.26303 55.899099,55.888119 0 0 1 0.13178,-0.26252 55.899099,55.888119 0 0 1 0.13285,-0.262 55.899099,55.888119 0 0 1 0.13437,-0.26148 55.899099,55.888119 0 0 1 0.13542,-0.26045 55.899099,55.888119 0 0 1 0.13697,-0.25942 55.899099,55.888119 0 0 1 0.13852,-0.2589 55.899099,55.888119 0 0 1 0.14007,-0.25838 55.899099,55.888119 0 0 1 0.14111,-0.25735 55.899099,55.888119 0 0 1 0.14265,-0.25735 55.899099,55.888119 0 0 1 0.14421,-0.25579 55.899099,55.888119 0 0 1 0.14471,-0.25529 55.899099,55.888119 0 0 1 0.1468,-0.25476 55.899099,55.888119 0 0 1 0.14782,-0.25373 55.899099,55.888119 0 0 1 0.14886,-0.25322 55.899099,55.888119 0 0 1 0.15092,-0.25218 55.899099,55.888119 0 0 1 0.15196,-0.25114 55.899099,55.888119 0 0 1 0.15299,-0.25115 55.899099,55.888119 0 0 1 0.15455,-0.2496 55.899099,55.888119 0 0 1 0.15557,-0.24908 55.899099,55.888119 0 0 1 0.15765,-0.24805 55.899099,55.888119 0 0 1 0.15816,-0.24753 55.899099,55.888119 0 0 1 0.15971,-0.24649 55.899099,55.888119 0 0 1 0.16126,-0.24547 55.899099,55.888119 0 0 1 0.16229,-0.24494 55.899099,55.888119 0 0 1 0.16386,-0.24391 55.899099,55.888119 0 0 1 0.16436,-0.2434 55.899099,55.888119 0 0 1 0.16642,-0.24185 55.899099,55.888119 0 0 1 0.16747,-0.24133 55.899099,55.888119 0 0 1 0.1685,-0.24081 55.899099,55.888119 0 0 1 0.17005,-0.23978 55.899099,55.888119 0 0 1 0.17108,-0.23822 55.899099,55.888119 0 0 1 0.17264,-0.23772 55.899099,55.888119 0 0 1 0.17366,-0.23667 55.899099,55.888119 0 0 1 0.17469,-0.23617 55.899099,55.888119 0 0 1 0.17626,-0.23512 55.899099,55.888119 0 0 1 0.17728,-0.2341 55.899099,55.888119 0 0 1 0.17884,-0.23306 55.899099,55.888119 0 0 1 0.17987,-0.23254 55.899099,55.888119 0 0 1 0.18142,-0.231 55.899099,55.888119 0 0 1 0.18193,-0.23047 55.899099,55.888119 0 0 1 0.18349,-0.22945 55.899099,55.888119 0 0 1 0.18452,-0.22841 55.899099,55.888119 0 0 1 0.18607,-0.22737 55.899099,55.888119 0 0 1 0.18711,-0.22635 55.899099,55.888119 0 0 1 0.18865,-0.2253 55.899099,55.888119 0 0 1 0.18969,-0.22428 55.899099,55.888119 0 0 1 0.19021,-0.22376 55.899099,55.888119 0 0 1 0.19227,-0.22221 55.899099,55.888119 0 0 1 0.19279,-0.22169 55.899099,55.888119 0 0 1 0.19434,-0.22066 55.899099,55.888119 0 0 1 0.19538,-0.21911 55.899099,55.888119 0 0 1 0.19589,-0.21859 55.899099,55.888119 0 0 1 0.19796,-0.21704 55.899099,55.888119 0 0 1 0.19899,-0.21652 55.899099,55.888119 0 0 1 0.19951,-0.21498 55.899099,55.888119 0 0 1 0.20106,-0.21445 55.899099,55.888119 0 0 1 0.2021,-0.21291 55.899099,55.888119 0 0 1 0.20313,-0.21239 55.899099,55.888119 0 0 1 0.20467,-0.21136 55.899099,55.888119 0 0 1 0.2052,-0.2098 55.899099,55.888119 0 0 1 0.20674,-0.20878 55.899099,55.888119 0 0 1 0.20778,-0.20774 55.899099,55.888119 0 0 1 0.20882,-0.2067 55.899099,55.888119 0 0 1 0.20984,-0.20567 55.899099,55.888119 0 0 1 0.21088,-0.20413 55.899099,55.888119 0 0 1 0.21192,-0.20309 55.899099,55.888119 0 0 1 0.21295,-0.20257 55.899099,55.888119 0 0 1 0.2145,-0.20102 55.899099,55.888119 0 0 1 0.21501,-0.19999 55.899099,55.888119 0 0 1 0.21605,-0.19895 55.899099,55.888119 0 0 1 0.21708,-0.1974 55.899099,55.888119 0 0 1 0.21864,-0.19689 55.899099,55.888119 0 0 1 0.21915,-0.19534 55.899099,55.888119 0 0 1 0.22018,-0.1943 55.899099,55.888119 0 0 1 0.22122,-0.193275 55.899099,55.888119 0 0 1 0.22277,-0.19172 55.899099,55.888119 0 0 1 0.2238,-0.1912 55.899099,55.888119 0 0 1 0.22433,-0.18914 55.899099,55.888119 0 0 1 0.22483,-0.18862 55.899099,55.888119 0 0 1 0.22638,-0.18707 55.899099,55.888119 0 0 1 0.22743,-0.18603 55.899099,55.888119 0 0 1 0.22845,-0.185 55.899099,55.888119 0 0 1 0.22898,-0.18345 55.899099,55.888119 0 0 1 0.23052,-0.18242 55.899099,55.888119 0 0 1 0.23104,-0.18087 55.899099,55.888119 0 0 1 0.23258,-0.18035 55.899099,55.888119 0 0 1 0.23259,-0.1788 55.899099,55.888119 0 0 1 0.23414,-0.17725 55.899099,55.888119 0 0 1 0.23518,-0.17673 55.899099,55.888119 0 0 1 0.23568,-0.17467 55.899099,55.888119 0 0 1 0.23673,-0.17415 55.899099,55.888119 0 0 1 0.23828,-0.1726 55.899099,55.888119 0 0 1 0.23827,-0.17105 55.899099,55.888119 0 0 1 0.23983,-0.17001 55.899099,55.888119 0 0 1 0.24034,-0.16899 55.899099,55.888119 0 0 1 0.24085,-0.16743 55.899099,55.888119 0 0 1 0.24241,-0.1664 55.899099,55.888119 0 0 1 0.24293,-0.16484 55.899099,55.888119 0 0 1 0.24396,-0.16382 55.899099,55.888119 0 0 1 0.24499,-0.16278 55.899099,55.888119 0 0 1 0.24552,-0.16071 55.899099,55.888119 0 0 1 0.24654,-0.1602 55.899099,55.888119 0 0 1 0.24758,-0.15865 55.899099,55.888119 0 0 1 0.24809,-0.15658 55.899099,55.888119 0 0 1 0.24861,-0.15606 55.899099,55.888119 0 0 1 0.24965,-0.15503 55.899099,55.888119 0 0 1 0.2512,-0.15348 55.899099,55.888119 0 0 1 0.2512,-0.15193 55.899099,55.888119 0 0 1 0.25171,-0.15037 55.899099,55.888119 0 0 1 0.25326,-0.14987 55.899099,55.888119 0 0 1 0.25327,-0.14779 55.899099,55.888119 0 0 1 0.25482,-0.14676 55.899099,55.888119 0 0 1 0.25533,-0.14521 55.899099,55.888119 0 0 1 0.25585,-0.14418 55.899099,55.888119 0 0 1 0.25688,-0.14263 55.899099,55.888119 0 0 1 0.25791,-0.14159 55.899099,55.888119 0 0 1 0.25843,-0.13953 55.899099,55.888119 0 0 1 0.25843,-0.13849 55.899099,55.888119 0 0 1 0.25999,-0.13746 55.899099,55.888119 0 0 1 0.2605,-0.13539 55.899099,55.888119 0 0 1 0.26101,-0.13488 55.899099,55.888119 0 0 1 0.26205,-0.13332 55.899099,55.888119 0 0 1 0.26257,-0.13178 55.899099,55.888119 0 0 1 0.26308,-0.13022 55.899099,55.888119 0 0 1 0.26412,-0.12867 55.899099,55.888119 0 0 1 0.26463,-0.12765 55.899099,55.888119 0 0 1 0.26516,-0.12609 55.899099,55.888119 0 0 1 0.26567,-0.12505 55.899099,55.888119 0 0 1 0.26722,-0.12299 55.899099,55.888119 0 0 1 0.2667,-0.12248 55.899099,55.888119 0 0 1 0.26825,-0.1204 55.899099,55.888119 0 0 1 0.26826,-0.11937 55.899099,55.888119 0 0 1 0.26928,-0.11783 55.899099,55.888119 0 0 1 0.2698,-0.11627 55.899099,55.888119 0 0 1 0.27032,-0.11524 55.899099,55.888119 0 0 1 0.27136,-0.11317 55.899099,55.888119 0 0 1 0.27084,-0.11214 55.899099,55.888119 0 0 1 0.2729,-0.11058 55.899099,55.888119 0 0 1 0.27239,-0.10904 55.899099,55.888119 0 0 1 0.27342,-0.10801 55.899099,55.888119 0 0 1 0.27342,-0.10645 55.899099,55.888119 0 0 1 0.27446,-0.1049 55.899099,55.888119 0 0 1 0.27497,-0.10335 55.899099,55.888119 0 0 1 0.27549,-0.10232 55.899099,55.888119 0 0 1 0.27601,-0.10026 55.899099,55.888119 0 0 1 0.27703,-0.0992 55.899099,55.888119 0 0 1 0.27652,-0.0977 55.899099,55.888119 0 0 1 0.27757,-0.0961 55.899099,55.888119 0 0 1 0.27806,-0.0951 55.899099,55.888119 0 0 1 0.2786,-0.093 55.899099,55.888119 0 0 1 0.2791,-0.092 55.899099,55.888119 0 0 1 0.27962,-0.0904 55.899099,55.888119 0 0 1 0.28015,-0.0884 55.899099,55.888119 0 0 1 0.28014,-0.0879 55.899099,55.888119 0 0 1 0.28118,-0.0858 55.899099,55.888119 0 0 1 0.28117,-0.0842 55.899099,55.888119 0 0 1 0.28221,-0.0832 55.899099,55.888119 0 0 1 0.28169,-0.0816 55.899099,55.888119 0 0 1 0.28273,-0.0801 55.899099,55.888119 0 0 1 0.28323,-0.0785 55.899099,55.888119 0 0 1 0.28376,-0.0765 55.899099,55.888119 0 0 1 0.28376,-0.076 55.899099,55.888119 0 0 1 0.28428,-0.0739 55.899099,55.888119 0 0 1 0.28479,-0.0724 55.899099,55.888119 0 0 1 0.28479,-0.0713 55.899099,55.888119 0 0 1 0.28532,-0.0698 55.899099,55.888119 0 0 1 0.28582,-0.0682 55.899099,55.888119 0 0 1 0.28635,-0.0661 55.899099,55.888119 0 0 1 0.28633,-0.0656 55.899099,55.888119 0 0 1 0.28738,-0.0636 55.899099,55.888119 0 0 1 0.28686,-0.0615 55.899099,55.888119 0 0 1 0.28738,-0.0605 55.899099,55.888119 0 0 1 0.2879,-0.0594 55.899099,55.888119 0 0 1 0.28788,-0.0574 55.899099,55.888119 0 0 1 0.28894,-0.0563 55.899099,55.888119 0 0 1 0.28788,-0.0543 55.899099,55.888119 0 0 1 0.28945,-0.0527 55.899099,55.888119 0 0 1 0.28893,-0.0517 55.899099,55.888119 0 0 1 0.28996,-0.0501 55.899099,55.888119 0 0 1 0.28996,-0.0481 55.899099,55.888119 0 0 1 0.28997,-0.047 55.899099,55.888119 0 0 1 0.28995,-0.045 55.899099,55.888119 0 0 1 0.29048,-0.0439 55.899099,55.888119 0 0 1 0.29049,-0.0429 55.899099,55.888119 0 0 1 0.29098,-0.0403 55.899099,55.888119 0 0 1 0.29152,-0.0393 55.899099,55.888119 0 0 1 0.291,-0.0382 55.899099,55.888119 0 0 1 0.29202,-0.0357 55.899099,55.888119 0 0 1 0.29151,-0.0351 55.899099,55.888119 0 0 1 0.29152,-0.0326 55.899099,55.888119 0 0 1 0.29254,-0.032 55.899099,55.888119 0 0 1 0.29203,-0.03 55.899099,55.888119 0 0 1 0.29255,-0.0284 55.899099,55.888119 0 0 1 0.29254,-0.0269 55.899099,55.888119 0 0 1 0.29254,-0.0258 55.899099,55.888119 0 0 1 0.29307,-0.0238 55.899099,55.888119 0 0 1 0.29306,-0.0222 55.899099,55.888119 0 0 1 0.29307,-0.0207 55.899099,55.888119 0 0 1 0.29254,-0.0191 55.899099,55.888119 0 0 1 0.29357,-0.0181 55.899099,55.888119 0 0 1 0.29307,-0.016 55.899099,55.888119 0 0 1 0.29358,-0.0145 55.899099,55.888119 0 0 1 0.29358,-0.0134 55.899099,55.888119 0 0 1 0.29358,-0.0114 55.899099,55.888119 0 0 1 0.29306,-0.0103 55.899099,55.888119 0 0 1 0.2941,-0.008 55.899099,55.888119 0 0 1 0.29357,-0.007 55.899099,55.888119 0 0 1 0.29359,-0.006 55.899099,55.888119 0 0 1 0.29409,-0.004 55.899099,55.888119 0 0 1 0.29359,-0.002 55.899099,55.888119 0 0 1 0.29409,-5.2e-4 z m 0.46414,0.002 a 55.899099,55.888119 0 0 1 0.12715,0.002 55.899099,55.888119 0 0 1 0.2941,0.004 55.899099,55.888119 0 0 1 0.29306,0.006 55.899099,55.888119 0 0 1 0.2941,0.007 55.899099,55.888119 0 0 1 0.29358,0.008 55.899099,55.888119 0 0 1 0.29357,0.01 55.899099,55.888119 0 0 1 0.29358,0.0119 55.899099,55.888119 0 0 1 0.29358,0.0129 55.899099,55.888119 0 0 1 0.29359,0.015 55.899099,55.888119 0 0 1 0.29305,0.016 55.899099,55.888119 0 0 1 0.29307,0.0181 55.899099,55.888119 0 0 1 0.29306,0.0191 55.899099,55.888119 0 0 1 0.29306,0.0212 55.899099,55.888119 0 0 1 0.29307,0.0222 55.899099,55.888119 0 0 1 0.29306,0.0238 55.899099,55.888119 0 0 1 0.29254,0.0253 55.899099,55.888119 0 0 1 0.29255,0.0269 55.899099,55.888119 0 0 1 0.29254,0.0284 55.899099,55.888119 0 0 1 0.29204,0.0305 55.899099,55.888119 0 0 1 0.29202,0.0315 55.899099,55.888119 0 0 1 0.29203,0.0331 55.899099,55.888119 0 0 1 0.29152,0.0346 55.899099,55.888119 0 0 1 0.29202,0.0362 55.899099,55.888119 0 0 1 0.291,0.0377 55.899099,55.888119 0 0 1 0.29151,0.0393 55.899099,55.888119 0 0 1 0.29047,0.0408 55.899099,55.888119 0 0 1 0.291,0.0424 55.899099,55.888119 0 0 1 0.29048,0.0434 55.899099,55.888119 0 0 1 0.28996,0.046 55.899099,55.888119 0 0 1 0.28996,0.0465 55.899099,55.888119 0 0 1 0.28996,0.0486 55.899099,55.888119 0 0 1 0.28996,0.0496 55.899099,55.888119 0 0 1 0.28893,0.0517 55.899099,55.888119 0 0 1 0.28892,0.0532 55.899099,55.888119 0 0 1 0.28842,0.0543 55.899099,55.888119 0 0 1 0.28893,0.0558 55.899099,55.888119 0 0 1 0.28789,0.0579 55.899099,55.888119 0 0 1 0.2879,0.0589 55.899099,55.888119 0 0 1 0.28737,0.061 55.899099,55.888119 0 0 1 0.28686,0.0615 55.899099,55.888119 0 0 1 0.28687,0.0641 55.899099,55.888119 0 0 1 0.28633,0.0646 55.899099,55.888119 0 0 1 0.28635,0.0667 55.899099,55.888119 0 0 1 0.28582,0.0682 55.899099,55.888119 0 0 1 0.28531,0.0698 55.899099,55.888119 0 0 1 0.28531,0.0708 55.899099,55.888119 0 0 1 0.2848,0.0729 55.899099,55.888119 0 0 1 0.28375,0.0739 55.899099,55.888119 0 0 1 0.28428,0.0754 55.899099,55.888119 0 0 1 0.28375,0.0775 55.899099,55.888119 0 0 1 0.28273,0.078 55.899099,55.888119 0 0 1 0.28272,0.0801 55.899099,55.888119 0 0 1 0.28222,0.0817 55.899099,55.888119 0 0 1 0.28168,0.0832 55.899099,55.888119 0 0 1 0.2817,0.0842 55.899099,55.888119 0 0 1 0.28065,0.0858 55.899099,55.888119 0 0 1 0.28066,0.0879 55.899099,55.888119 0 0 1 0.27962,0.0889 55.899099,55.888119 0 0 1 0.27964,0.0899 55.899099,55.888119 0 0 1 0.2791,0.092 55.899099,55.888119 0 0 1 0.27859,0.0935 55.899099,55.888119 0 0 1 0.27807,0.0951 55.899099,55.888119 0 0 1 0.27756,0.0956 55.899099,55.888119 0 0 1 0.27704,0.0977 55.899099,55.888119 0 0 1 0.27652,0.0992 55.899099,55.888119 0 0 1 0.27601,0.10077 55.899099,55.888119 0 0 1 0.27549,0.10181 55.899099,55.888119 0 0 1 0.27497,0.10387 55.899099,55.888119 0 0 1 0.27446,0.1049 55.899099,55.888119 0 0 1 0.27393,0.10594 55.899099,55.888119 0 0 1 0.2729,0.108 55.899099,55.888119 0 0 1 0.27292,0.10955 55.899099,55.888119 0 0 1 0.27238,0.11059 55.899099,55.888119 0 0 1 0.27135,0.11214 55.899099,55.888119 0 0 1 0.27084,0.11317 55.899099,55.888119 0 0 1 0.27032,0.11524 55.899099,55.888119 0 0 1 0.26981,0.11627 55.899099,55.888119 0 0 1 0.26928,0.11782 55.899099,55.888119 0 0 1 0.26825,0.11938 55.899099,55.888119 0 0 1 0.26826,0.1204 55.899099,55.888119 0 0 1 0.26722,0.12247 55.899099,55.888119 0 0 1 0.2667,0.12299 55.899099,55.888119 0 0 1 0.26566,0.12506 55.899099,55.888119 0 0 1 0.26516,0.12609 55.899099,55.888119 0 0 1 0.26463,0.12764 55.899099,55.888119 0 0 1 0.26412,0.12919 55.899099,55.888119 0 0 1 0.26309,0.12971 55.899099,55.888119 0 0 1 0.26256,0.13178 55.899099,55.888119 0 0 1 0.26205,0.13384 55.899099,55.888119 0 0 1 0.26102,0.13436 55.899099,55.888119 0 0 1 0.2605,0.13591 55.899099,55.888119 0 0 1 0.25998,0.13746 55.899099,55.888119 0 0 1 0.25843,0.13849 55.899099,55.888119 0 0 1 0.25844,0.13952 55.899099,55.888119 0 0 1 0.25791,0.1416 55.899099,55.888119 0 0 1 0.25688,0.14262 55.899099,55.888119 0 0 1 0.25585,0.14418 55.899099,55.888119 0 0 1 0.25533,0.14521 55.899099,55.888119 0 0 1 0.2543,0.14676 55.899099,55.888119 0 0 1 0.25378,0.1478 55.899099,55.888119 0 0 1 0.25327,0.14986 55.899099,55.888119 0 0 1 0.25171,0.15038 55.899099,55.888119 0 0 1 0.2512,0.15193 55.899099,55.888119 0 0 1 0.2512,0.15348 55.899099,55.888119 0 0 1 0.24912,0.15451 55.899099,55.888119 0 0 1 0.24913,0.15606 55.899099,55.888119 0 0 1 0.24809,0.1571 55.899099,55.888119 0 0 1 0.24758,0.15864 55.899099,55.888119 0 0 1 0.24655,0.15968 55.899099,55.888119 0 0 1 0.24499,0.16124 55.899099,55.888119 0 0 1 0.24499,0.16278 55.899099,55.888119 0 0 1 0.24397,0.16381 55.899099,55.888119 0 0 1 0.24293,0.16485 55.899099,55.888119 0 0 1 0.2424,0.1664 55.899099,55.888119 0 0 1 0.24138,0.16743 55.899099,55.888119 0 0 1 0.23982,0.16898 55.899099,55.888119 0 0 1 0.23982,0.17002 55.899099,55.888119 0 0 1 0.2388,0.17156 55.899099,55.888119 0 0 1 0.23776,0.1726 55.899099,55.888119 0 0 1 0.23672,0.17363 55.899099,55.888119 0 0 1 0.23569,0.17519 55.899099,55.888119 0 0 1 0.23518,0.17621 55.899099,55.888119 0 0 1 0.23414,0.17777 55.899099,55.888119 0 0 1 0.23311,0.17828 55.899099,55.888119 0 0 1 0.23206,0.18035 55.899099,55.888119 0 0 1 0.23105,0.18139 55.899099,55.888119 0 0 1 0.23051,0.1819 55.899099,55.888119 0 0 1 0.22898,0.18397 55.899099,55.888119 0 0 1 0.22845,0.185 55.899099,55.888119 0 0 1 0.22742,0.18603 55.899099,55.888119 0 0 1 0.22639,0.18707 55.899099,55.888119 0 0 1 0.22535,0.18862 55.899099,55.888119 0 0 1 0.22432,0.18965 55.899099,55.888119 0 0 1 0.22329,0.19069 55.899099,55.888119 0 0 1 0.22224,0.19172 55.899099,55.888119 0 0 1 0.22123,0.193275 55.899099,55.888119 0 0 1 0.2207,0.1943 55.899099,55.888119 0 0 1 0.21915,0.19534 55.899099,55.888119 0 0 1 0.21811,0.19637 55.899099,55.888119 0 0 1 0.21761,0.19792 55.899099,55.888119 0 0 1 0.21605,0.19895 55.899099,55.888119 0 0 1 0.21501,0.19999 55.899099,55.888119 0 0 1 0.2145,0.20103 55.899099,55.888119 0 0 1 0.21294,0.20205 55.899099,55.888119 0 0 1 0.21192,0.2036 55.899099,55.888119 0 0 1 0.21089,0.20464 55.899099,55.888119 0 0 1 0.20984,0.20568 55.899099,55.888119 0 0 1 0.20882,0.2067 55.899099,55.888119 0 0 1 0.20778,0.20774 55.899099,55.888119 0 0 1 0.20622,0.20877 55.899099,55.888119 0 0 1 0.20572,0.20981 55.899099,55.888119 0 0 1 0.20416,0.21084 55.899099,55.888119 0 0 1 0.20313,0.21239 55.899099,55.888119 0 0 1 0.20209,0.21291 55.899099,55.888119 0 0 1 0.20157,0.21445 55.899099,55.888119 0 0 1 0.19951,0.2155 55.899099,55.888119 0 0 1 0.19848,0.216 55.899099,55.888119 0 0 1 0.19796,0.21756 55.899099,55.888119 0 0 1 0.19641,0.21808 55.899099,55.888119 0 0 1 0.19486,0.21962 55.899099,55.888119 0 0 1 0.19485,0.22066 55.899099,55.888119 0 0 1 0.19279,0.22117 55.899099,55.888119 0 0 1 0.19176,0.22273 55.899099,55.888119 0 0 1 0.19073,0.22324 55.899099,55.888119 0 0 1 0.18916,0.22428 55.899099,55.888119 0 0 1 0.18866,0.22582 55.899099,55.888119 0 0 1 0.1866,0.22634 55.899099,55.888119 0 0 1 0.18606,0.2279 55.899099,55.888119 0 0 1 0.18452,0.22789 55.899099,55.888119 0 0 1 0.184,0.22944 55.899099,55.888119 0 0 1 0.18194,0.22996 55.899099,55.888119 0 0 1 0.18143,0.23152 55.899099,55.888119 0 0 1 0.17934,0.23202 55.899099,55.888119 0 0 1 0.17883,0.23358 55.899099,55.888119 0 0 1 0.1773,0.23409 55.899099,55.888119 0 0 1 0.17624,0.23513 55.899099,55.888119 0 0 1 0.17523,0.23565 55.899099,55.888119 0 0 1 0.17366,0.23719 55.899099,55.888119 0 0 1 0.17212,0.23771 55.899099,55.888119 0 0 1 0.1716,0.23875 55.899099,55.888119 0 0 1 0.16953,0.23978 55.899099,55.888119 0 0 1 0.16901,0.24029 55.899099,55.888119 0 0 1 0.16747,0.24133 55.899099,55.888119 0 0 1 0.16591,0.24236 55.899099,55.888119 0 0 1 0.16488,0.24288 55.899099,55.888119 0 0 1 0.16384,0.24443 55.899099,55.888119 0 0 1 0.16178,0.24443 55.899099,55.888119 0 0 1 0.16127,0.24598 55.899099,55.888119 0 0 1 0.15971,0.2465 55.899099,55.888119 0 0 1 0.15868,0.24701 55.899099,55.888119 0 0 1 0.15661,0.24805 55.899099,55.888119 0 0 1 0.15609,0.24908 55.899099,55.888119 0 0 1 0.15454,0.25011 55.899099,55.888119 0 0 1 0.15299,0.25063 55.899099,55.888119 0 0 1 0.15196,0.25167 55.899099,55.888119 0 0 1 0.15041,0.25166 55.899099,55.888119 0 0 1 0.14938,0.25373 55.899099,55.888119 0 0 1 0.14782,0.25322 55.899099,55.888119 0 0 1 0.14678,0.25476 55.899099,55.888119 0 0 1 0.14524,0.25528 55.899099,55.888119 0 0 1 0.14369,0.2558 55.899099,55.888119 0 0 1 0.14266,0.25735 55.899099,55.888119 0 0 1 0.14111,0.25735 55.899099,55.888119 0 0 1 0.13954,0.25838 55.899099,55.888119 0 0 1 0.13852,0.2589 55.899099,55.888119 0 0 1 0.13698,0.26045 55.899099,55.888119 0 0 1 0.13593,0.26045 55.899099,55.888119 0 0 1 0.13439,0.26096 55.899099,55.888119 0 0 1 0.13282,0.26201 55.899099,55.888119 0 0 1 0.13181,0.26251 55.899099,55.888119 0 0 1 0.13025,0.26303 55.899099,55.888119 0 0 1 0.1287,0.26407 55.899099,55.888119 0 0 1 0.12767,0.2651 55.899099,55.888119 0 0 1 0.12559,0.2651 55.899099,55.888119 0 0 1 0.12508,0.26613 55.899099,55.888119 0 0 1 0.12302,0.26614 55.899099,55.888119 0 0 1 0.12146,0.26768 55.899099,55.888119 0 0 1 0.12095,0.26768 55.899099,55.888119 0 0 1 0.11888,0.26872 55.899099,55.888119 0 0 1 0.11784,0.26872 55.899099,55.888119 0 0 1 0.11578,0.27027 55.899099,55.888119 0 0 1 0.11475,0.27027 55.899099,55.888119 0 0 1 0.11371,0.2713 55.899099,55.888119 0 0 1 0.11164,0.2713 55.899099,55.888119 0 0 1 0.11061,0.27233 55.899099,55.888119 0 0 1 0.10905,0.27234 55.899099,55.888119 0 0 1 0.10803,0.27337 55.899099,55.888119 0 0 1 0.10595,0.27388 55.899099,55.888119 0 0 1 0.10441,0.2744 55.899099,55.888119 0 0 1 0.10337,0.27492 55.899099,55.888119 0 0 1 0.10182,0.27544 55.899099,55.888119 0 0 1 0.10079,0.27647 55.899099,55.888119 0 0 1 0.0987,0.27647 55.899099,55.888119 0 0 1 0.0971,0.27698 55.899099,55.888119 0 0 1 0.0961,0.2775 55.899099,55.888119 0 0 1 0.0946,0.27802 55.899099,55.888119 0 0 1 0.0935,0.27905 55.899099,55.888119 0 0 1 0.091,0.27854 55.899099,55.888119 0 0 1 0.0904,0.28009 55.899099,55.888119 0 0 1 0.0889,0.27957 55.899099,55.888119 0 0 1 0.0868,0.2806 55.899099,55.888119 0 0 1 0.0863,0.2806 55.899099,55.888119 0 0 1 0.0842,0.28164 55.899099,55.888119 0 0 1 0.0827,0.28164 55.899099,55.888119 0 0 1 0.0811,0.28267 55.899099,55.888119 0 0 1 0.0801,0.28267 55.899099,55.888119 0 0 1 0.078,0.28318 55.899099,55.888119 0 0 1 0.077,0.28319 c -2.40985,-0.7892 -4.82902,-1.51166 -7.2542,-2.17248 -2.42519,-0.66082 -4.85607,-1.26042 -7.28934,-1.80195 -0.25483,-0.97917 -0.52959,-1.94599 -0.82337,-2.90009 -0.29378,-0.95408 -0.60699,-1.89527 -0.93862,-2.82256 -0.33164,-0.92729 -0.68137,-1.84062 -1.04976,-2.73937 -0.36839,-0.89875 -0.75528,-1.78304 -1.15932,-2.65152 -0.40406,-0.86848 -0.82564,-1.72098 -1.26426,-2.55746 -0.43863,-0.83651 -0.89448,-1.65651 -1.36659,-2.45929 -0.4721,-0.80277 -0.96082,-1.58861 -1.46531,-2.35592 -0.50449,-0.76734 -1.02464,-1.51623 -1.56041,-2.24638 -0.91332,-1.24466 -1.87338,-2.43499 -2.87687,-3.565675 -0.50176,-0.56533 -1.01468,-1.11574 -1.53767,-1.65055 -0.52301,-0.53482 -1.05634,-1.05406 -1.59971,-1.55701 -0.54336,-0.50295 -1.09626,-0.9896 -1.65914,-1.45934 -0.56286,-0.46974 -1.13552,-0.92287 -1.71702,-1.35806 -0.58151,-0.43519 -1.17203,-0.85284 -1.7713,-1.25212 -0.59926,-0.39929 -1.20733,-0.78001 -1.82349,-1.14205 -0.61616,-0.36204 -1.24042,-0.70492 -1.87261,-1.02836 -0.63218,-0.32344 -1.27229,-0.62755 -1.91963,-0.91105 -0.64735,-0.28351 -1.30194,-0.54636 -1.96357,-0.78859 -0.66163,-0.24221 -1.3304,-0.46341 -2.00544,-0.663 -0.67503,-0.19958 -1.3561,-0.3777 -2.04368,-0.53331 -0.68758,-0.1556 -1.38112,-0.28917 -2.08038,-0.39945 -0.69926,-0.11028 -1.40443,-0.19737 -2.1145,-0.26097 -0.71006,-0.0636 -1.42549,-0.10377 -2.1455,-0.11937 -0.0749,-0.003 -0.14864,-0.01 -0.22433,-0.0103 z m -0.19382,5.71903 c 0.10763,10e-4 0.21512,0.004 0.32252,0.006 0.1436,0.0282 0.31713,0.0897 0.51687,0.19843 0.19974,0.10877 0.42547,0.26467 0.67399,0.48111 0.24852,0.21645 0.51947,0.49369 0.80941,0.84491 0.28993,0.35122 0.5986,0.77676 0.9226,1.28985 0.36113,0.57188 0.72445,1.22953 1.08542,1.96732 0.36097,0.73779 0.71978,1.55538 1.07198,2.44584 0.3522,0.89047 0.69789,1.854165 1.03269,2.884065 0.3348,1.02992 0.6588,2.12587 0.96758,3.28197 0.27522,1.0305 0.53923,2.10879 0.79132,3.23133 0.25208,1.12252 0.49236,2.28945 0.71947,3.49695 0.22711,1.20751 0.44112,2.45596 0.64143,3.74137 0.20031,1.28542 0.38704,2.60784 0.55873,3.9641 -1.69492,-0.0859 -3.38401,-0.14874 -5.06476,-0.18914 -1.68075,-0.0405 -3.35317,-0.0578 -5.01721,-0.0558 -1.66402,0.003 -3.3192,0.0267 -4.96397,0.0703 -1.64476,0.0437 -3.27951,0.10735 -4.90247,0.18966 0.17175,-1.35775 0.3584,-2.68196 0.55874,-3.96875 0.20035,-1.28681 0.41424,-2.53673 0.64143,-3.74551 0.22717,-1.20878 0.46777,-2.37639 0.71999,-3.50005 0.25223,-1.12365 0.51636,-2.203 0.79184,-3.23443 0.30877,-1.1561 0.63285,-2.25205 0.96809,-3.28197 0.33522,-1.0299 0.68146,-1.993605 1.03424,-2.884065 0.35278,-0.89046 0.71213,-1.70804 1.07354,-2.44584 0.3614,-0.73779 0.72532,-1.39543 1.08644,-1.96732 0.33243,-0.52644 0.64791,-0.96047 0.94379,-1.31672 0.2959,-0.35625 0.57214,-0.63517 0.82389,-0.85059 0.25176,-0.21542 0.47914,-0.36786 0.67917,-0.47181 0.20002,-0.10402 0.37254,-0.15948 0.51324,-0.18138 z m -8.7102,1.39113 c -0.38138,0.71241 -0.74763,1.46761 -1.09989,2.26446 -0.35226,0.79684 -0.69042,1.63522 -1.01564,2.51457 -0.32522,0.87936 -0.63732,1.79957 -0.93759,2.759525 -0.30028,0.95995 -0.58888,1.95964 -0.86627,2.99827 -0.31505,1.17955 -0.61458,2.40845 -0.89831,3.6835 -0.28373,1.27505 -0.55123,2.59631 -0.80217,3.95944 -0.25095,1.36312 -0.48522,2.76837 -0.70191,4.21215 -0.21669,1.44378 -0.41601,2.92613 -0.59697,4.44314 -3.06989,0.24208 -6.09183,0.54793 -9.056,0.91002 -2.96416,0.36211 -5.87043,0.78051 -8.70917,1.24799 0.47051,-1.51668 0.99269,-2.99422 1.5635,-4.42764 0.57083,-1.43341 1.19042,-2.82281 1.85452,-4.16409 0.66408,-1.34127 1.37298,-2.63442 2.12328,-3.8747 0.75029,-1.24025 1.54193,-2.42755 2.37138,-3.55792 0.58104,-0.79185 1.17929,-1.55522 1.79404,-2.28875 0.61475,-0.73352 1.24576,-1.43736 1.89224,-2.11046 0.64648,-0.67311 1.30851,-1.3154 1.98476,-1.925985 0.67625,-0.61058 1.36702,-1.18934 2.07107,-1.7353 0.70406,-0.54596 1.4213,-1.05915 2.1512,-1.5384 0.7299,-0.47924 1.47237,-0.92491 2.22614,-1.33532 0.75376,-0.41043 1.51868,-0.78549 2.29436,-1.125 0.77568,-0.33951 1.56179,-0.64301 2.35743,-0.9095 z m 17.89592,0.36741 c 0.74509,0.28219 1.48148,0.59694 2.20805,0.94362 0.72656,0.34666 1.44327,0.72539 2.14964,1.13481 0.70637,0.40941 1.40261,0.8494 2.0871,1.31982 0.68449,0.47042 1.35743,0.971 2.01836,1.50068 0.66093,0.52969 1.30978,1.08865 1.94548,1.675875 0.63568,0.58722 1.25814,1.20234 1.86691,1.84536 0.60877,0.64302 1.20353,1.31365 1.7837,2.01073 0.58018,0.69708 1.14594,1.421 1.69584,2.17041 0.83194,1.13377 1.62586,2.32491 2.37809,3.56929 0.75224,1.24438 1.46249,2.54164 2.12794,3.88762 0.66544,1.34599 1.2855,2.74049 1.85709,4.17907 0.5716,1.43859 1.09491,2.92147 1.56558,4.44366 -2.8365,-0.51537 -5.67183,-0.95543 -8.49984,-1.32446 -2.828,-0.36905 -5.64849,-0.66698 -8.45643,-0.89814 -0.18094,-1.5161 -0.38034,-2.99711 -0.59697,-4.44004 -0.21664,-1.44292 -0.45054,-2.84773 -0.70139,-4.21008 -0.25085,-1.36235 -0.51858,-2.68251 -0.80218,-3.95686 -0.28358,-1.27436 -0.58343,-2.503 -0.8983,-3.68195 -0.26566,-0.99464 -0.54124,-1.95349 -0.82802,-2.87579 -0.28679,-0.922315 -0.58458,-1.808225 -0.89418,-2.656695 -0.3096,-0.84848 -0.63088,-1.65929 -0.96498,-2.43241 -0.33411,-0.77312 -0.68119,-1.50825 -1.04149,-2.20452 z m -9.27565,31.560875 c 1.78493,-0.005 3.58063,0.0184 5.38521,0.0672 1.80459,0.0487 3.61755,0.12299 5.43638,0.22169 0.23237,2.59832 0.41325,5.28993 0.536,8.05584 0.12273,2.7659 0.18761,5.60608 0.18761,8.50336 0,1.84301 -0.0262,3.66388 -0.0765,5.45703 -0.0503,1.79314 -0.12512,3.55891 -0.22277,5.29218 -0.0976,1.73326 -0.21784,3.43398 -0.35973,5.09736 -0.14191,1.66339 -0.30533,3.28906 -0.48845,4.87257 -1.73012,0.0802 -3.45395,0.13682 -5.16967,0.17002 -1.71574,0.034 -3.42358,0.0435 -5.12162,0.032 -1.69804,-0.0116 -3.38616,-0.0453 -5.06321,-0.0997 -1.67704,-0.0544 -3.34273,-0.12907 -4.99549,-0.22427 -0.18088,-1.57542 -0.34216,-3.19312 -0.48224,-4.84725 -0.14007,-1.65414 -0.25927,-3.34493 -0.3556,-5.06791 -0.0963,-1.72299 -0.17003,-3.47819 -0.21967,-5.26014 -0.0496,-1.78195 -0.0749,-3.59085 -0.0749,-5.42189 0,-2.8934 0.0643,-5.73009 0.1866,-8.49251 0.1223,-2.76241 0.30266,-5.45016 0.53443,-8.0455 1.70339,-0.0934 3.41865,-0.1688 5.14591,-0.2217 1.72726,-0.0529 3.46681,-0.0834 5.21775,-0.0884 z m 16.59239,0.68626 c 1.48497,0.12806 2.97305,0.27452 4.46313,0.4408 1.49009,0.16627 2.9822,0.35223 4.47554,0.55862 1.49333,0.2064 2.98804,0.43373 4.48276,0.68213 1.49473,0.24839 2.98905,0.51799 4.48329,0.81029 0.2221,1.08586 0.41949,2.18665 0.59026,3.30109 0.17077,1.11445 0.31494,2.24255 0.43158,3.38326 0.11664,1.14071 0.20543,2.29405 0.26515,3.4587 0.0597,1.16465 0.0904,2.34064 0.0904,3.52692 0,1.60297 -0.055,3.18744 -0.16229,4.75061 -0.10733,1.56316 -0.26667,3.10492 -0.47553,4.62194 -0.20886,1.51701 -0.46759,3.00963 -0.77219,4.47415 -0.30461,1.46451 -0.6552,2.90155 -1.04975,4.30723 -1.43935,0.26134 -2.87893,0.50213 -4.31789,0.72347 -1.43896,0.22134 -2.87739,0.4226 -4.31427,0.60564 -2.87378,0.36606 -5.74164,0.65758 -8.59701,0.88057 0.17183,-1.57491 0.32399,-3.18524 0.45587,-4.82709 0.13187,-1.64187 0.24346,-3.31506 0.33338,-5.01675 0.0899,-1.70169 0.1582,-3.43184 0.20416,-5.18625 0.046,-1.75442 0.0698,-3.5335 0.0698,-5.33352 0,-2.81421 -0.0574,-5.5773 -0.16798,-8.27547 -0.11059,-2.69817 -0.27448,-5.33144 -0.48844,-7.88634 z m -32.72065,0.0233 c -0.21331,2.55151 -0.37768,5.18118 -0.48842,7.87549 -0.11076,2.69431 -0.16799,5.45311 -0.16799,8.26306 0,1.78197 0.0231,3.54307 0.0682,5.28029 0.0451,1.73721 0.11226,3.4505 0.20054,5.13613 0.0883,1.68561 0.19775,3.34407 0.32718,4.97127 0.12941,1.62719 0.27853,3.22279 0.44709,4.78472 -3.1465,-0.27035 -6.23878,-0.60549 -9.26481,-0.99942 -3.02605,-0.39394 -5.98558,-0.84612 -8.86423,-1.34979 -0.37997,-1.38282 -0.7175,-2.79525 -1.01047,-4.23437 -0.293,-1.43912 -0.54104,-2.90525 -0.7417,-4.39456 -0.20067,-1.48931 -0.35443,-3.00222 -0.45743,-4.53564 -0.103,-1.53341 -0.15557,-3.08723 -0.15557,-4.65863 0,-1.19272 0.0311,-2.3752 0.0915,-3.54604 0.0604,-1.17083 0.15032,-2.3302 0.26825,-3.47679 0.11794,-1.1466 0.26414,-2.28029 0.43675,-3.40031 0.17262,-1.12001 0.37152,-2.22601 0.59595,-3.31711 2.96835,-0.51882 6.02192,-0.98317 9.14592,-1.38544 1.56201,-0.20114 3.14158,-0.38691 4.73707,-0.55605 1.59549,-0.1691 3.20681,-0.32162 4.83217,-0.45681 z m -24.75369,3.54397 h 5.2e-4 c -0.17345,1.01315 -0.32769,2.03668 -0.46053,3.06906 -0.13284,1.03239 -0.24454,2.07347 -0.33492,3.12384 -0.0904,1.05037 -0.15911,2.10997 -0.2052,3.17707 -0.0461,1.06709 -0.0698,2.14202 -0.0698,3.22461 0,1.44754 0.0414,2.88237 0.12198,4.30257 0.0806,1.42023 0.20047,2.82615 0.3587,4.21525 0.15823,1.3891 0.35473,2.76132 0.58767,4.11551 0.23296,1.35419 0.50209,2.69047 0.80683,4.00596 -2.57225,-0.53229 -5.06936,-1.10069 -7.48161,-1.69809 -2.41226,-0.5974 -4.73917,-1.22433 -6.97045,-1.87327 a 55.899099,55.888119 0 0 1 -0.062,-0.2589 55.899099,55.888119 0 0 1 -0.0667,-0.28577 55.899099,55.888119 0 0 1 -0.0651,-0.2868 55.899099,55.888119 0 0 1 -0.0636,-0.28681 55.899099,55.888119 0 0 1 -0.0615,-0.2868 55.899099,55.888119 0 0 1 -0.061,-0.28732 55.899099,55.888119 0 0 1 -0.0589,-0.28784 55.899099,55.888119 0 0 1 -0.0579,-0.28784 55.899099,55.888119 0 0 1 -0.0558,-0.28887 55.899099,55.888119 0 0 1 -0.0543,-0.28887 55.899099,55.888119 0 0 1 -0.0532,-0.28835 55.899099,55.888119 0 0 1 -0.0517,-0.28939 55.899099,55.888119 0 0 1 -0.0496,-0.28939 55.899099,55.888119 0 0 1 -0.0486,-0.28991 55.899099,55.888119 0 0 1 -0.047,-0.2899 55.899099,55.888119 0 0 1 -0.045,-0.2899 55.899099,55.888119 0 0 1 -0.0439,-0.29043 55.899099,55.888119 0 0 1 -0.0424,-0.29093 55.899099,55.888119 0 0 1 -0.0408,-0.29094 55.899099,55.888119 0 0 1 -0.0393,-0.29094 55.899099,55.888119 0 0 1 -0.0377,-0.29146 55.899099,55.888119 0 0 1 -0.0362,-0.29145 55.899099,55.888119 0 0 1 -0.0351,-0.29145 55.899099,55.888119 0 0 1 -0.0326,-0.29198 55.899099,55.888119 0 0 1 -0.032,-0.29197 55.899099,55.888119 0 0 1 -0.03,-0.29197 55.899099,55.888119 0 0 1 -0.0284,-0.29249 55.899099,55.888119 0 0 1 -0.0269,-0.29249 55.899099,55.888119 0 0 1 -0.0258,-0.29249 55.899099,55.888119 0 0 1 -0.0238,-0.293 55.899099,55.888119 0 0 1 -0.0227,-0.29249 55.899099,55.888119 0 0 1 -0.0207,-0.29352 55.899099,55.888119 0 0 1 -0.0191,-0.29301 55.899099,55.888119 0 0 1 -0.0176,-0.293 55.899099,55.888119 0 0 1 -0.016,-0.29301 55.899099,55.888119 0 0 1 -0.015,-0.29352 55.899099,55.888119 0 0 1 -0.0134,-0.29352 55.899099,55.888119 0 0 1 -0.0114,-0.29352 55.899099,55.888119 0 0 1 -0.0103,-0.29353 55.899099,55.888119 0 0 1 -0.008,-0.29352 55.899099,55.888119 0 0 1 -0.008,-0.29404 55.899099,55.888119 0 0 1 -0.005,-0.29352 55.899099,55.888119 0 0 1 -0.004,-0.29352 55.899099,55.888119 0 0 1 -0.002,-0.29404 55.899099,55.888119 0 0 1 -5.1e-4,-0.29352 55.899099,55.888119 0 0 1 5.1e-4,-0.26769 55.899099,55.888119 0 0 1 0.002,-0.29404 55.899099,55.888119 0 0 1 0.004,-0.29352 55.899099,55.888119 0 0 1 0.005,-0.29352 55.899099,55.888119 0 0 1 0.007,-0.29352 55.899099,55.888119 0 0 1 0.008,-0.29404 55.899099,55.888119 0 0 1 0.01,-0.29352 55.899099,55.888119 0 0 1 0.0119,-0.29301 55.899099,55.888119 0 0 1 0.0129,-0.29404 55.899099,55.888119 0 0 1 0.0145,-0.29352 55.899099,55.888119 0 0 1 0.016,-0.29249 55.899099,55.888119 0 0 1 0.0176,-0.29352 55.899099,55.888119 0 0 1 0.0191,-0.29301 55.899099,55.888119 0 0 1 0.0207,-0.29352 55.899099,55.888119 0 0 1 0.0222,-0.29249 55.899099,55.888119 0 0 1 0.0238,-0.293 55.899099,55.888119 0 0 1 0.0253,-0.29249 55.899099,55.888119 0 0 1 0.0269,-0.29249 55.899099,55.888119 0 0 1 0.0284,-0.29249 55.899099,55.888119 0 0 1 0.03,-0.29197 55.899099,55.888119 0 0 1 0.0315,-0.29197 55.899099,55.888119 0 0 1 0.0326,-0.29197 55.899099,55.888119 0 0 1 0.0346,-0.29197 55.899099,55.888119 0 0 1 0.0362,-0.29094 55.899099,55.888119 0 0 1 0.0377,-0.29198 55.899099,55.888119 0 0 1 0.0388,-0.29042 55.899099,55.888119 0 0 1 0.0408,-0.29145 55.899099,55.888119 0 0 1 0.0424,-0.29042 55.899099,55.888119 0 0 1 0.0434,-0.29043 55.899099,55.888119 0 0 1 0.0455,-0.29042 55.899099,55.888119 0 0 1 0.0465,-0.2899 c 2.23391,-0.6465 4.56365,-1.27033 6.97768,-1.86501 2.41402,-0.59468 4.91236,-1.16037 7.4842,-1.68981 z m 81.44291,0.24287 h 5.2e-4 c 2.44465,0.57993 4.88348,1.22046 7.3126,1.9265 2.42913,0.70603 4.8485,1.47766 7.25317,2.32027 a 55.899099,55.888119 0 0 1 0.0289,0.20103 55.899099,55.888119 0 0 1 0.0408,0.29093 55.899099,55.888119 0 0 1 0.0393,0.29094 55.899099,55.888119 0 0 1 0.0377,0.29094 55.899099,55.888119 0 0 1 0.0362,0.29197 55.899099,55.888119 0 0 1 0.0346,0.29146 55.899099,55.888119 0 0 1 0.0331,0.29197 55.899099,55.888119 0 0 1 0.032,0.29197 55.899099,55.888119 0 0 1 0.03,0.29249 55.899099,55.888119 0 0 1 0.0284,0.29197 55.899099,55.888119 0 0 1 0.0269,0.29249 55.899099,55.888119 0 0 1 0.0253,0.29249 55.899099,55.888119 0 0 1 0.0243,0.293 55.899099,55.888119 0 0 1 0.0222,0.29301 55.899099,55.888119 0 0 1 0.0207,0.293 55.899099,55.888119 0 0 1 0.0196,0.29301 55.899099,55.888119 0 0 1 0.0176,0.29301 55.899099,55.888119 0 0 1 0.016,0.29352 55.899099,55.888119 0 0 1 0.015,0.29352 55.899099,55.888119 0 0 1 0.0134,0.29301 55.899099,55.888119 0 0 1 0.0114,0.29352 55.899099,55.888119 0 0 1 0.0103,0.29404 55.899099,55.888119 0 0 1 0.008,0.293 55.899099,55.888119 0 0 1 0.007,0.29404 55.899099,55.888119 0 0 1 0.006,0.29352 55.899099,55.888119 0 0 1 0.004,0.29404 55.899099,55.888119 0 0 1 0.002,0.29301 55.899099,55.888119 0 0 1 5.1e-4,0.29404 55.899099,55.888119 0 0 1 0,0.0594 55.899099,55.888119 0 0 1 -0.001,0.29404 55.899099,55.888119 0 0 1 -0.003,0.29353 55.899099,55.888119 0 0 1 -0.004,0.29403 55.899099,55.888119 0 0 1 -0.006,0.29353 55.899099,55.888119 0 0 1 -0.007,0.29352 55.899099,55.888119 0 0 1 -0.009,0.29404 55.899099,55.888119 0 0 1 -0.01,0.293 55.899099,55.888119 0 0 1 -0.0124,0.29352 55.899099,55.888119 0 0 1 -0.0134,0.29353 55.899099,55.888119 0 0 1 -0.015,0.293 55.899099,55.888119 0 0 1 -0.016,0.29352 55.899099,55.888119 0 0 1 -0.0186,0.29353 55.899099,55.888119 0 0 1 -0.0196,0.293 55.899099,55.888119 0 0 1 -0.0207,0.29301 55.899099,55.888119 0 0 1 -0.0232,0.29249 55.899099,55.888119 0 0 1 -0.0238,0.29248 55.899099,55.888119 0 0 1 -0.0258,0.29301 55.899099,55.888119 0 0 1 -0.0274,0.29197 55.899099,55.888119 0 0 1 -0.0284,0.29301 55.899099,55.888119 0 0 1 -0.031,0.29197 55.899099,55.888119 0 0 1 -0.0315,0.29197 55.899099,55.888119 0 0 1 -0.0336,0.29145 55.899099,55.888119 0 0 1 -0.0351,0.29198 55.899099,55.888119 0 0 1 -0.0367,0.29145 55.899099,55.888119 0 0 1 -0.0377,0.29146 55.899099,55.888119 0 0 1 -0.0398,0.29042 55.899099,55.888119 0 0 1 -0.0408,0.29145 55.899099,55.888119 0 0 1 -0.0424,0.29043 55.899099,55.888119 0 0 1 -0.0439,0.29042 55.899099,55.888119 0 0 1 -0.0465,0.29042 55.899099,55.888119 0 0 1 -0.0465,0.2899 55.899099,55.888119 0 0 1 -0.0491,0.28939 55.899099,55.888119 0 0 1 -0.0501,0.28939 55.899099,55.888119 0 0 1 -0.0517,0.28939 55.899099,55.888119 0 0 1 -0.0537,0.28835 55.899099,55.888119 0 0 1 -0.0543,0.28887 55.899099,55.888119 0 0 1 -0.0563,0.28836 55.899099,55.888119 0 0 1 -0.0579,0.28784 55.899099,55.888119 0 0 1 -0.0594,0.28783 55.899099,55.888119 0 0 1 -0.061,0.28732 55.899099,55.888119 0 0 1 -0.062,0.28681 55.899099,55.888119 0 0 1 -0.0641,0.2868 55.899099,55.888119 0 0 1 -0.0651,0.28629 55.899099,55.888119 0 0 1 -0.0672,0.28629 c -2.40712,0.80384 -4.82742,1.53907 -7.25626,2.2102 -2.42885,0.67113 -4.86631,1.27794 -7.30848,1.82366 0.31466,-1.33473 0.59294,-2.69056 0.83371,-4.06538 0.24076,-1.37482 0.44414,-2.76859 0.60783,-4.1796 0.1637,-1.41101 0.28819,-2.83908 0.37163,-4.28242 0.0834,-1.44335 0.1256,-2.9021 0.1256,-4.37389 0,-1.06102 -0.0223,-2.11493 -0.0667,-3.16105 -0.0444,-1.04612 -0.11045,-2.08446 -0.19745,-3.11454 -0.087,-1.03009 -0.19525,-2.05152 -0.32303,-3.06441 -0.1278,-1.0129 -0.27566,-2.01713 -0.44245,-3.01171 z m 11.68322,31.74587 v 5.2e-4 a 55.899099,55.888119 0 0 1 -0.0899,0.24133 55.899099,55.888119 0 0 1 -0.10441,0.27491 55.899099,55.888119 0 0 1 -0.10492,0.27441 55.899099,55.888119 0 0 1 -0.10701,0.27336 55.899099,55.888119 0 0 1 -0.10802,0.27337 55.899099,55.888119 0 0 1 -0.10957,0.27234 55.899099,55.888119 0 0 1 -0.11164,0.27182 55.899099,55.888119 0 0 1 -0.11268,0.2713 55.899099,55.888119 0 0 1 -0.11371,0.27078 55.899099,55.888119 0 0 1 -0.11526,0.27027 55.899099,55.888119 0 0 1 -0.11681,0.26923 55.899099,55.888119 0 0 1 -0.11836,0.26924 55.899099,55.888119 0 0 1 -0.11941,0.2682 55.899099,55.888119 0 0 1 -0.12094,0.26768 55.899099,55.888119 0 0 1 -0.12249,0.26665 55.899099,55.888119 0 0 1 -0.12406,0.26614 55.899099,55.888119 0 0 1 -0.12507,0.26561 55.899099,55.888119 0 0 1 -0.12664,0.2651 55.899099,55.888119 0 0 1 -0.12818,0.26459 55.899099,55.888119 0 0 1 -0.12973,0.26355 55.899099,55.888119 0 0 1 -0.13077,0.26303 55.899099,55.888119 0 0 1 -0.13232,0.26252 55.899099,55.888119 0 0 1 -0.13334,0.26148 55.899099,55.888119 0 0 1 -0.13491,0.26097 55.899099,55.888119 0 0 1 -0.13645,0.25993 55.899099,55.888119 0 0 1 -0.13748,0.25993 55.899099,55.888119 0 0 1 -0.13904,0.25838 55.899099,55.888119 0 0 1 -0.14059,0.25838 55.899099,55.888119 0 0 1 -0.14161,0.25735 55.899099,55.888119 0 0 1 -0.14318,0.2558 55.899099,55.888119 0 0 1 -0.14472,0.25632 55.899099,55.888119 0 0 1 -0.14576,0.25476 55.899099,55.888119 0 0 1 -0.14679,0.25477 55.899099,55.888119 0 0 1 -0.14886,0.25321 55.899099,55.888119 0 0 1 -0.14938,0.2527 55.899099,55.888119 0 0 1 -0.15091,0.25166 55.899099,55.888119 0 0 1 -0.15299,0.25115 55.899099,55.888119 0 0 1 -0.15351,0.25011 55.899099,55.888119 0 0 1 -0.15506,0.2496 55.899099,55.888119 0 0 1 -0.15662,0.24857 55.899099,55.888119 0 0 1 -0.15713,0.24804 55.899099,55.888119 0 0 1 -0.15919,0.24701 55.899099,55.888119 0 0 1 -0.16023,0.24598 55.899099,55.888119 0 0 1 -0.16178,0.24495 55.899099,55.888119 0 0 1 -0.1628,0.24495 55.899099,55.888119 0 0 1 -0.16437,0.24339 55.899099,55.888119 0 0 1 -0.1654,0.24288 55.899099,55.888119 0 0 1 -0.16643,0.24185 55.899099,55.888119 0 0 1 -0.16798,0.24133 55.899099,55.888119 0 0 1 -0.16953,0.23977 55.899099,55.888119 0 0 1 -0.17057,0.23927 55.899099,55.888119 0 0 1 -0.17159,0.23823 55.899099,55.888119 0 0 1 -0.17263,0.23719 55.899099,55.888119 0 0 1 -0.17471,0.23668 55.899099,55.888119 0 0 1 -0.17521,0.23513 55.899099,55.888119 0 0 1 -0.17678,0.23512 55.899099,55.888119 0 0 1 -0.17779,0.23358 55.899099,55.888119 0 0 1 -0.17936,0.23306 55.899099,55.888119 0 0 1 -0.18038,0.23151 55.899099,55.888119 0 0 1 -0.18142,0.231 55.899099,55.888119 0 0 1 -0.18297,0.22996 55.899099,55.888119 0 0 1 -0.18401,0.22892 55.899099,55.888119 0 0 1 -0.18555,0.2279 55.899099,55.888119 0 0 1 -0.18659,0.22685 55.899099,55.888119 0 0 1 -0.18762,0.22583 55.899099,55.888119 0 0 1 -0.18814,0.22531 55.899099,55.888119 0 0 1 -0.19021,0.22376 55.899099,55.888119 0 0 1 -0.19124,0.22324 55.899099,55.888119 0 0 1 -0.19226,0.22221 55.899099,55.888119 0 0 1 -0.19383,0.22118 55.899099,55.888119 0 0 1 -0.19434,0.21962 55.899099,55.888119 0 0 1 -0.1959,0.21911 55.899099,55.888119 0 0 1 -0.19693,0.21807 55.899099,55.888119 0 0 1 -0.19846,0.21704 55.899099,55.888119 0 0 1 -0.199,0.21549 55.899099,55.888119 0 0 1 -0.20054,0.21498 55.899099,55.888119 0 0 1 -0.20106,0.21342 55.899099,55.888119 0 0 1 -0.20261,0.21291 55.899099,55.888119 0 0 1 -0.20417,0.21136 55.899099,55.888119 0 0 1 -0.20467,0.21084 55.899099,55.888119 0 0 1 -0.20572,0.20929 55.899099,55.888119 0 0 1 -0.20726,0.20877 55.899099,55.888119 0 0 1 -0.2083,0.20722 55.899099,55.888119 0 0 1 -0.20881,0.20619 55.899099,55.888119 0 0 1 -0.21036,0.20515 55.899099,55.888119 0 0 1 -0.2114,0.20361 55.899099,55.888119 0 0 1 -0.21244,0.20309 55.899099,55.888119 0 0 1 -0.21346,0.20154 55.899099,55.888119 0 0 1 -0.21502,0.20102 55.899099,55.888119 0 0 1 -0.21553,0.19895 55.899099,55.888119 0 0 1 -0.21656,0.19896 55.899099,55.888119 0 0 1 -0.21761,0.19688 55.899099,55.888119 0 0 1 -0.21863,0.19637 55.899099,55.888119 0 0 1 -0.21967,0.19482 55.899099,55.888119 0 0 1 -0.22121,0.19379 55.899099,55.888119 0 0 1 -0.22174,0.19224 55.899099,55.888119 0 0 1 -0.22277,0.19172 55.899099,55.888119 0 0 1 -0.22379,0.19068 55.899099,55.888119 0 0 1 -0.22485,0.18862 55.899099,55.888119 0 0 1 -0.22586,0.18811 55.899099,55.888119 0 0 1 -0.22691,0.18655 55.899099,55.888119 0 0 1 -0.22742,0.18552 55.899099,55.888119 0 0 1 -0.22897,0.18448 55.899099,55.888119 0 0 1 -0.22949,0.18293 55.899099,55.888119 0 0 1 -0.23103,0.18191 55.899099,55.888119 0 0 1 -0.23156,0.18086 55.899099,55.888119 0 0 1 -0.23207,0.17932 55.899099,55.888119 0 0 1 -0.23414,0.17828 55.899099,55.888119 0 0 1 -0.23415,0.17725 55.899099,55.888119 0 0 1 -0.23517,0.1757 55.899099,55.888119 0 0 1 -0.23621,0.17415 55.899099,55.888119 0 0 1 -0.23775,0.17364 55.899099,55.888119 0 0 1 -0.23776,0.17156 55.899099,55.888119 0 0 1 -0.2388,0.17105 55.899099,55.888119 0 0 1 -0.24033,0.1695 55.899099,55.888119 0 0 1 -0.24035,0.16847 55.899099,55.888119 0 0 1 -0.24189,0.16691 55.899099,55.888119 0 0 1 -0.24292,0.16536 55.899099,55.888119 0 0 1 -0.24345,0.16485 55.899099,55.888119 0 0 1 -0.24396,0.1633 55.899099,55.888119 0 0 1 -0.245,0.16175 55.899099,55.888119 0 0 1 -0.24602,0.16071 55.899099,55.888119 0 0 1 -0.24706,0.15916 55.899099,55.888119 0 0 1 -0.24758,0.15813 55.899099,55.888119 0 0 1 -0.24862,0.15658 55.899099,55.888119 0 0 1 -0.24913,0.15555 55.899099,55.888119 0 0 1 -0.25016,0.154 55.899099,55.888119 0 0 1 -0.25067,0.15296 55.899099,55.888119 0 0 1 -0.25223,0.15141 55.899099,55.888119 0 0 1 -0.25223,0.14986 55.899099,55.888119 0 0 1 -0.25327,0.14883 55.899099,55.888119 0 0 1 -0.25378,0.14728 55.899099,55.888119 0 0 1 -0.25533,0.14624 55.899099,55.888119 0 0 1 -0.25533,0.1447 55.899099,55.888119 0 0 1 -0.25688,0.14314 55.899099,55.888119 0 0 1 -0.25637,0.14262 55.899099,55.888119 0 0 1 -0.25791,0.14056 55.899099,55.888119 0 0 1 -0.25844,0.13953 55.899099,55.888119 0 0 1 -0.25998,0.13798 55.899099,55.888119 0 0 1 -0.25946,0.13694 55.899099,55.888119 0 0 1 -0.26102,0.13488 55.899099,55.888119 0 0 1 -0.26153,0.13384 55.899099,55.888119 0 0 1 -0.26258,0.13281 55.899099,55.888119 0 0 1 -0.26256,0.13074 55.899099,55.888119 0 0 1 -0.26361,0.13022 55.899099,55.888119 0 0 1 -0.26411,0.12816 55.899099,55.888119 0 0 1 -0.26515,0.12712 55.899099,55.888119 0 0 1 -0.26515,0.12558 55.899099,55.888119 0 0 1 -0.2667,0.12454 55.899099,55.888119 0 0 1 -0.26671,0.12247 55.899099,55.888119 0 0 1 -0.26774,0.12092 55.899099,55.888119 0 0 1 -0.26773,0.12041 55.899099,55.888119 0 0 1 -0.26928,0.11886 55.899099,55.888119 0 0 1 -0.26877,0.11679 55.899099,55.888119 0 0 1 -0.27033,0.11575 55.899099,55.888119 0 0 1 -0.27032,0.11421 55.899099,55.888119 0 0 1 -0.27135,0.11317 55.899099,55.888119 0 0 1 -0.27188,0.1111 55.899099,55.888119 0 0 1 -0.27238,0.11007 55.899099,55.888119 0 0 1 -0.2729,0.10852 55.899099,55.888119 0 0 1 -0.27342,0.10749 55.899099,55.888119 0 0 1 -0.27446,0.10594 55.899099,55.888119 0 0 1 -0.27446,0.10386 55.899099,55.888119 0 0 1 -0.27497,0.10284 55.899099,55.888119 0 0 1 -0.27601,0.1018 55.899099,55.888119 0 0 1 -0.27651,0.10026 55.899099,55.888119 0 0 1 -0.27653,0.0982 55.899099,55.888119 0 0 1 -0.27756,0.0966 55.899099,55.888119 0 0 1 -0.27755,0.0956 55.899099,55.888119 0 0 1 -0.27859,0.0946 55.899099,55.888119 0 0 1 -0.27807,0.0925 55.899099,55.888119 0 0 1 -0.27963,0.0909 55.899099,55.888119 0 0 1 -0.27962,0.0899 55.899099,55.888119 0 0 1 -0.28015,0.0884 55.899099,55.888119 0 0 1 -0.28065,0.0868 55.899099,55.888119 0 0 1 -0.28118,0.0853 55.899099,55.888119 0 0 1 -0.28169,0.0837 55.899099,55.888119 0 0 1 -0.28221,0.0827 55.899099,55.888119 0 0 1 -0.2822,0.0806 55.899099,55.888119 0 0 1 -0.28272,0.0796 55.899099,55.888119 0 0 1 -0.28325,0.078 55.899099,55.888119 0 0 1 -0.28377,0.076 55.899099,55.888119 0 0 1 -0.28427,0.0749 55.899099,55.888119 0 0 1 -0.28428,0.0734 55.899099,55.888119 0 0 1 -0.28478,0.0723 55.899099,55.888119 0 0 1 -0.28532,0.0703 55.899099,55.888119 0 0 1 -0.2853,0.0687 55.899099,55.888119 0 0 1 -0.28583,0.0672 55.899099,55.888119 0 0 1 -0.28686,0.0662 55.899099,55.888119 0 0 1 -0.28634,0.0646 55.899099,55.888119 0 0 1 -0.28738,0.0631 55.899099,55.888119 0 0 1 -0.28686,0.061 55.899099,55.888119 0 0 1 -0.2879,0.0599 55.899099,55.888119 0 0 1 -0.28788,0.0584 55.899099,55.888119 0 0 1 -0.28842,0.0568 55.899099,55.888119 0 0 1 -0.2879,0.0553 55.899099,55.888119 0 0 1 -0.28892,0.0538 55.899099,55.888119 0 0 1 -0.28893,0.0527 55.899099,55.888119 0 0 1 -0.28995,0.0506 55.899099,55.888119 0 0 1 -0.28945,0.0496 55.899099,55.888119 0 0 1 -0.28945,0.0475 55.899099,55.888119 0 0 1 -0.29047,0.046 55.899099,55.888119 0 0 1 -0.29048,0.045 55.899099,55.888119 0 0 1 -0.29048,0.0429 55.899099,55.888119 0 0 1 -0.29099,0.0419 55.899099,55.888119 0 0 1 -0.29048,0.0398 55.899099,55.888119 0 0 1 -0.29152,0.0393 55.899099,55.888119 0 0 1 -0.29099,0.0367 55.899099,55.888119 0 0 1 -0.29203,0.0357 55.899099,55.888119 0 0 1 -0.29203,0.0341 55.899099,55.888119 0 0 1 -0.29151,0.0326 55.899099,55.888119 0 0 1 -0.29254,0.0305 55.899099,55.888119 0 0 1 -0.29255,0.0295 55.899099,55.888119 0 0 1 -0.29203,0.0279 55.899099,55.888119 0 0 1 -0.29254,0.0264 55.899099,55.888119 0 0 1 -0.29307,0.0248 55.899099,55.888119 0 0 1 -0.29305,0.0232 55.899099,55.888119 0 0 1 -0.29255,0.0217 55.899099,55.888119 0 0 1 -0.29307,0.0202 55.899099,55.888119 0 0 1 -0.29306,0.0186 55.899099,55.888119 0 0 1 -0.29358,0.017 55.899099,55.888119 0 0 1 -0.29358,0.0155 55.899099,55.888119 0 0 1 -0.29306,0.0139 55.899099,55.888119 0 0 1 -0.29358,0.0124 55.899099,55.888119 0 0 1 -0.29358,0.0109 55.899099,55.888119 0 0 1 -0.29358,0.009 55.899099,55.888119 0 0 1 -0.2941,0.007 55.899099,55.888119 0 0 1 -0.29305,0.007 55.899099,55.888119 0 0 1 -0.2941,0.005 55.899099,55.888119 0 0 1 -0.29358,0.003 c 0.0769,-5e-4 0.15141,-0.007 0.22742,-0.0103 0.72001,-0.0156 1.43544,-0.0558 2.1455,-0.11937 0.71007,-0.0636 1.41524,-0.15068 2.1145,-0.26096 0.69926,-0.11028 1.3928,-0.24385 2.08038,-0.39946 0.68758,-0.1556 1.36865,-0.33321 2.04368,-0.53279 0.67504,-0.19959 1.34381,-0.42079 2.00544,-0.66301 0.66163,-0.24221 1.31622,-0.50559 1.96357,-0.78909 0.64734,-0.28351 1.28745,-0.58709 1.91963,-0.91054 0.63219,-0.32344 1.25645,-0.66684 1.87261,-1.02888 0.61616,-0.36203 1.22423,-0.74329 1.82349,-1.14257 0.59927,-0.39929 1.18979,-0.81642 1.7713,-1.2516 0.5815,-0.43519 1.15416,-0.8878 1.71702,-1.35754 0.56288,-0.46975 1.11578,-0.9569 1.65914,-1.45986 0.54337,-0.50295 1.0767,-1.02167 1.59971,-1.55649 0.52299,-0.53481 1.03591,-1.08522 1.53767,-1.65055 1.00349,-1.13067 1.96355,-2.32153 2.87687,-3.56619 0.85683,-1.1677 1.67439,-2.38399 2.44993,-3.64577 0.77555,-1.26179 1.50912,-2.56906 2.19926,-3.91759 0.69014,-1.34853 1.33658,-2.73822 1.93722,-4.16615 0.60062,-1.42794 1.15573,-2.89404 1.66275,-4.39405 2.39926,-0.49558 4.79718,-1.04642 7.19114,-1.65675 2.39394,-0.61033 4.78369,-1.28015 7.16529,-2.01228 z m -104.82019,0.078 c 2.22863,0.60763 4.53405,1.1907 6.90944,1.7446 2.37541,0.55389 4.82028,1.07845 7.32657,1.56735 0.50874,1.52745 1.06708,3.02005 1.67257,4.47362 0.60549,1.45356 1.25836,2.86808 1.95634,4.24005 0.69796,1.37197 1.44102,2.70106 2.22716,3.98374 0.78614,1.28268 1.61555,2.51898 2.4856,3.70468 0.46575,0.63473 0.94364,1.25506 1.43326,1.86087 0.48964,0.6058 0.99045,1.19705 1.50305,1.7725 0.51259,0.57545 1.03663,1.1353 1.57127,1.67897 0.53463,0.54367 1.08013,1.07086 1.63588,1.5813 0.55575,0.51046 1.12195,1.00422 1.6979,1.48001 0.57595,0.47579 1.1621,0.93385 1.75734,1.37356 0.59523,0.43971 1.19957,0.86131 1.81316,1.26349 0.61359,0.40219 1.23589,0.78502 1.86692,1.14825 0.63102,0.36324 1.27053,0.70706 1.91808,1.02991 0.64754,0.32284 1.30353,0.62486 1.96667,0.90589 0.66314,0.28103 1.33382,0.54098 2.01164,0.77877 0.67781,0.23777 1.36245,0.45287 2.05402,0.64595 0.69157,0.19308 1.38993,0.3636 2.09434,0.51056 0.70441,0.14696 1.41523,0.27061 2.13155,0.37001 0.71632,0.0994 1.43835,0.1749 2.16567,0.22531 0.72731,0.0504 1.4598,0.076 2.19719,0.076 a 55.899099,55.888119 0 0 1 -0.0481,0 55.899099,55.888119 0 0 1 -0.29358,-10e-4 55.899099,55.888119 0 0 1 -0.2941,-0.002 55.899099,55.888119 0 0 1 -0.29306,-0.004 55.899099,55.888119 0 0 1 -0.29409,-0.006 55.899099,55.888119 0 0 1 -0.29358,-0.007 55.899099,55.888119 0 0 1 -0.29359,-0.009 55.899099,55.888119 0 0 1 -0.29409,-0.0103 55.899099,55.888119 0 0 1 -0.29306,-0.0119 55.899099,55.888119 0 0 1 -0.29358,-0.0129 55.899099,55.888119 0 0 1 -0.29358,-0.015 55.899099,55.888119 0 0 1 -0.29306,-0.0171 55.899099,55.888119 0 0 1 -0.29358,-0.0176 55.899099,55.888119 0 0 1 -0.29306,-0.0196 55.899099,55.888119 0 0 1 -0.29307,-0.0212 55.899099,55.888119 0 0 1 -0.29306,-0.0222 55.899099,55.888119 0 0 1 -0.29255,-0.0243 55.899099,55.888119 0 0 1 -0.29306,-0.0258 55.899099,55.888119 0 0 1 -0.29202,-0.0274 55.899099,55.888119 0 0 1 -0.29255,-0.0284 55.899099,55.888119 0 0 1 -0.29204,-0.03 55.899099,55.888119 0 0 1 -0.29202,-0.032 55.899099,55.888119 0 0 1 -0.29203,-0.0336 55.899099,55.888119 0 0 1 -0.29151,-0.0351 55.899099,55.888119 0 0 1 -0.29151,-0.0362 55.899099,55.888119 0 0 1 -0.29152,-0.0382 55.899099,55.888119 0 0 1 -0.29099,-0.0393 55.899099,55.888119 0 0 1 -0.29099,-0.0408 55.899099,55.888119 0 0 1 -0.29048,-0.0429 55.899099,55.888119 0 0 1 -0.29048,-0.0439 55.899099,55.888119 0 0 1 -0.29048,-0.0455 55.899099,55.888119 0 0 1 -0.28996,-0.047 55.899099,55.888119 0 0 1 -0.28945,-0.0486 55.899099,55.888119 0 0 1 -0.28995,-0.0506 55.899099,55.888119 0 0 1 -0.28893,-0.0512 55.899099,55.888119 0 0 1 -0.28893,-0.0537 55.899099,55.888119 0 0 1 -0.28841,-0.0543 55.899099,55.888119 0 0 1 -0.28841,-0.0563 55.899099,55.888119 0 0 1 -0.28841,-0.0579 55.899099,55.888119 0 0 1 -0.28738,-0.0594 55.899099,55.888119 0 0 1 -0.28738,-0.0605 55.899099,55.888119 0 0 1 -0.28737,-0.062 55.899099,55.888119 0 0 1 -0.28687,-0.0641 55.899099,55.888119 0 0 1 -0.28633,-0.0651 55.899099,55.888119 0 0 1 -0.28583,-0.0672 55.899099,55.888119 0 0 1 -0.28582,-0.0682 55.899099,55.888119 0 0 1 -0.28532,-0.0698 55.899099,55.888119 0 0 1 -0.2853,-0.0713 55.899099,55.888119 0 0 1 -0.28428,-0.0729 55.899099,55.888119 0 0 1 -0.28428,-0.0744 55.899099,55.888119 0 0 1 -0.28376,-0.076 55.899099,55.888119 0 0 1 -0.28376,-0.077 55.899099,55.888119 0 0 1 -0.28272,-0.0791 55.899099,55.888119 0 0 1 -0.28273,-0.0801 55.899099,55.888119 0 0 1 -0.2822,-0.0816 55.899099,55.888119 0 0 1 -0.2817,-0.0832 55.899099,55.888119 0 0 1 -0.28117,-0.0848 55.899099,55.888119 0 0 1 -0.28066,-0.0863 55.899099,55.888119 0 0 1 -0.28066,-0.0879 55.899099,55.888119 0 0 1 -0.28013,-0.0889 55.899099,55.888119 0 0 1 -0.27911,-0.0904 55.899099,55.888119 0 0 1 -0.27911,-0.092 55.899099,55.888119 0 0 1 -0.27859,-0.0935 55.899099,55.888119 0 0 1 -0.27756,-0.0951 55.899099,55.888119 0 0 1 -0.27807,-0.0966 55.899099,55.888119 0 0 1 -0.27704,-0.0977 55.899099,55.888119 0 0 1 -0.27652,-0.0997 55.899099,55.888119 0 0 1 -0.2755,-0.10025 55.899099,55.888119 0 0 1 -0.27548,-0.10284 55.899099,55.888119 0 0 1 -0.27497,-0.10387 55.899099,55.888119 0 0 1 -0.27394,-0.1049 55.899099,55.888119 0 0 1 -0.27394,-0.10645 55.899099,55.888119 0 0 1 -0.27342,-0.10801 55.899099,55.888119 0 0 1 -0.27239,-0.10955 55.899099,55.888119 0 0 1 -0.27239,-0.11059 55.899099,55.888119 0 0 1 -0.27083,-0.11265 55.899099,55.888119 0 0 1 -0.27084,-0.11369 55.899099,55.888119 0 0 1 -0.27084,-0.11524 55.899099,55.888119 0 0 1 -0.26928,-0.11679 55.899099,55.888119 0 0 1 -0.26929,-0.11782 55.899099,55.888119 0 0 1 -0.26877,-0.11937 55.899099,55.888119 0 0 1 -0.26774,-0.12093 55.899099,55.888119 0 0 1 -0.2667,-0.12247 55.899099,55.888119 0 0 1 -0.2667,-0.12351 55.899099,55.888119 0 0 1 -0.26567,-0.12505 55.899099,55.888119 0 0 1 -0.26515,-0.12661 55.899099,55.888119 0 0 1 -0.26464,-0.12712 55.899099,55.888119 0 0 1 -0.26412,-0.1292 55.899099,55.888119 0 0 1 -0.26308,-0.13125 55.899099,55.888119 0 0 1 -0.26205,-0.13178 55.899099,55.888119 0 0 1 -0.26205,-0.13332 55.899099,55.888119 0 0 1 -0.26102,-0.13488 55.899099,55.888119 0 0 1 -0.2605,-0.13591 55.899099,55.888119 0 0 1 -0.25895,-0.13746 55.899099,55.888119 0 0 1 -0.25894,-0.13901 55.899099,55.888119 0 0 1 -0.25844,-0.14004 55.899099,55.888119 0 0 1 -0.25739,-0.14159 55.899099,55.888119 0 0 1 -0.25689,-0.14263 55.899099,55.888119 0 0 1 -0.25585,-0.14418 55.899099,55.888119 0 0 1 -0.25533,-0.14572 55.899099,55.888119 0 0 1 -0.25429,-0.14677 55.899099,55.888119 0 0 1 -0.25379,-0.14831 55.899099,55.888119 0 0 1 -0.25274,-0.14934 55.899099,55.888119 0 0 1 -0.25223,-0.1509 55.899099,55.888119 0 0 1 -0.2512,-0.15244 55.899099,55.888119 0 0 1 -0.25017,-0.15348 55.899099,55.888119 0 0 1 -0.24963,-0.15503 55.899099,55.888119 0 0 1 -0.24913,-0.15607 55.899099,55.888119 0 0 1 -0.24758,-0.15761 55.899099,55.888119 0 0 1 -0.24707,-0.15864 55.899099,55.888119 0 0 1 -0.24654,-0.1602 55.899099,55.888119 0 0 1 -0.24552,-0.16123 55.899099,55.888119 0 0 1 -0.24447,-0.16278 55.899099,55.888119 0 0 1 -0.24396,-0.16382 55.899099,55.888119 0 0 1 -0.24293,-0.16536 55.899099,55.888119 0 0 1 -0.24189,-0.1664 55.899099,55.888119 0 0 1 -0.24137,-0.16795 55.899099,55.888119 0 0 1 -0.23983,-0.16898 55.899099,55.888119 0 0 1 -0.2393,-0.17002 55.899099,55.888119 0 0 1 -0.2388,-0.17156 55.899099,55.888119 0 0 1 -0.23776,-0.17312 55.899099,55.888119 0 0 1 -0.23672,-0.17363 55.899099,55.888119 0 0 1 -0.23518,-0.17518 55.899099,55.888119 0 0 1 -0.23517,-0.17674 55.899099,55.888119 0 0 1 -0.23362,-0.17776 55.899099,55.888119 0 0 1 -0.23311,-0.17932 55.899099,55.888119 0 0 1 -0.23207,-0.17983 55.899099,55.888119 0 0 1 -0.23104,-0.18139 55.899099,55.888119 0 0 1 -0.23,-0.18242 55.899099,55.888119 0 0 1 -0.22898,-0.18396 55.899099,55.888119 0 0 1 -0.22845,-0.18501 55.899099,55.888119 0 0 1 -0.22742,-0.18655 55.899099,55.888119 0 0 1 -0.22587,-0.18707 55.899099,55.888119 0 0 1 -0.22535,-0.18862 55.899099,55.888119 0 0 1 -0.22433,-0.19017 55.899099,55.888119 0 0 1 -0.22328,-0.19068 55.899099,55.888119 0 0 1 -0.22225,-0.19224 55.899099,55.888119 0 0 1 -0.2207,-0.19275 55.899099,55.888119 0 0 1 -0.2207,-0.19482 55.899099,55.888119 0 0 1 -0.21915,-0.19534 55.899099,55.888119 0 0 1 -0.21812,-0.1974 55.899099,55.888119 0 0 1 -0.21709,-0.19741 55.899099,55.888119 0 0 1 -0.21604,-0.19947 55.899099,55.888119 0 0 1 -0.21502,-0.19998 55.899099,55.888119 0 0 1 -0.21346,-0.20103 55.899099,55.888119 0 0 1 -0.21347,-0.20257 55.899099,55.888119 0 0 1 -0.21139,-0.2036 55.899099,55.888119 0 0 1 -0.21088,-0.20464 55.899099,55.888119 0 0 1 -0.20986,-0.20567 55.899099,55.888119 0 0 1 -0.20829,-0.20723 55.899099,55.888119 0 0 1 -0.20778,-0.20722 55.899099,55.888119 0 0 1 -0.20623,-0.20929 55.899099,55.888119 0 0 1 -0.2052,-0.2098 55.899099,55.888119 0 0 1 -0.20416,-0.21188 55.899099,55.888119 0 0 1 -0.20313,-0.21239 55.899099,55.888119 0 0 1 -0.20157,-0.2129 55.899099,55.888119 0 0 1 -0.20106,-0.21446 55.899099,55.888119 0 0 1 -0.20003,-0.21549 55.899099,55.888119 0 0 1 -0.19847,-0.21653 55.899099,55.888119 0 0 1 -0.19745,-0.21756 55.899099,55.888119 0 0 1 -0.19589,-0.21807 55.899099,55.888119 0 0 1 -0.19538,-0.21962 55.899099,55.888119 0 0 1 -0.19433,-0.22118 55.899099,55.888119 0 0 1 -0.19279,-0.22117 55.899099,55.888119 0 0 1 -0.19125,-0.22273 55.899099,55.888119 0 0 1 -0.19072,-0.22376 55.899099,55.888119 0 0 1 -0.18917,-0.22479 55.899099,55.888119 0 0 1 -0.18814,-0.22531 55.899099,55.888119 0 0 1 -0.18711,-0.22634 55.899099,55.888119 0 0 1 -0.18503,-0.2279 55.899099,55.888119 0 0 1 -0.18504,-0.22841 55.899099,55.888119 0 0 1 -0.18348,-0.22944 55.899099,55.888119 0 0 1 -0.18195,-0.23099 55.899099,55.888119 0 0 1 -0.18089,-0.23151 55.899099,55.888119 0 0 1 -0.17936,-0.23203 55.899099,55.888119 0 0 1 -0.17883,-0.23358 55.899099,55.888119 0 0 1 -0.17677,-0.23409 55.899099,55.888119 0 0 1 -0.17625,-0.23513 55.899099,55.888119 0 0 1 -0.17471,-0.23616 55.899099,55.888119 0 0 1 -0.17366,-0.23668 55.899099,55.888119 0 0 1 -0.17263,-0.23823 55.899099,55.888119 0 0 1 -0.17057,-0.23874 55.899099,55.888119 0 0 1 -0.17005,-0.23978 55.899099,55.888119 0 0 1 -0.16849,-0.2403 55.899099,55.888119 0 0 1 -0.16695,-0.24184 55.899099,55.888119 0 0 1 -0.16592,-0.24236 55.899099,55.888119 0 0 1 -0.16488,-0.24288 55.899099,55.888119 0 0 1 -0.16332,-0.24443 55.899099,55.888119 0 0 1 -0.16178,-0.24495 55.899099,55.888119 0 0 1 -0.16075,-0.24598 55.899099,55.888119 0 0 1 -0.15971,-0.2465 55.899099,55.888119 0 0 1 -0.15816,-0.24753 55.899099,55.888119 0 0 1 -0.15713,-0.24804 55.899099,55.888119 0 0 1 -0.15558,-0.24908 55.899099,55.888119 0 0 1 -0.15402,-0.25064 55.899099,55.888119 0 0 1 -0.15351,-0.25063 55.899099,55.888119 0 0 1 -0.15144,-0.25166 55.899099,55.888119 0 0 1 -0.15041,-0.25218 55.899099,55.888119 0 0 1 -0.14885,-0.2527 55.899099,55.888119 0 0 1 -0.14783,-0.25425 55.899099,55.888119 0 0 1 -0.14627,-0.25476 55.899099,55.888119 0 0 1 -0.14524,-0.25528 55.899099,55.888119 0 0 1 -0.14369,-0.25632 55.899099,55.888119 0 0 1 -0.14214,-0.25683 55.899099,55.888119 0 0 1 -0.1411,-0.25786 55.899099,55.888119 0 0 1 -0.13904,-0.25839 55.899099,55.888119 0 0 1 -0.13852,-0.2589 55.899099,55.888119 0 0 1 -0.13696,-0.26044 55.899099,55.888119 0 0 1 -0.13542,-0.26045 55.899099,55.888119 0 0 1 -0.13388,-0.26149 55.899099,55.888119 0 0 1 -0.13334,-0.26148 55.899099,55.888119 0 0 1 -0.13129,-0.26303 55.899099,55.888119 0 0 1 -0.12973,-0.26355 55.899099,55.888119 0 0 1 -0.1287,-0.26355 55.899099,55.888119 0 0 1 -0.12715,-0.2651 55.899099,55.888119 0 0 1 -0.1256,-0.26562 55.899099,55.888119 0 0 1 -0.12456,-0.26613 55.899099,55.888119 0 0 1 -0.12301,-0.26614 55.899099,55.888119 0 0 1 -0.12199,-0.26768 55.899099,55.888119 0 0 1 -0.11991,-0.2682 55.899099,55.888119 0 0 1 -0.11887,-0.26872 55.899099,55.888119 0 0 1 -0.11734,-0.26872 55.899099,55.888119 0 0 1 -0.11629,-0.27026 55.899099,55.888119 0 0 1 -0.11422,-0.27027 55.899099,55.888119 0 0 1 -0.1132,-0.27079 55.899099,55.888119 0 0 1 -0.11165,-0.27233 55.899099,55.888119 0 0 1 -0.1106,-0.27182 55.899099,55.888119 0 0 1 -0.10854,-0.27285 55.899099,55.888119 0 0 1 -0.10751,-0.27337 55.899099,55.888119 0 0 1 -0.10596,-0.2744 55.899099,55.888119 0 0 1 -0.1044,-0.27389 55.899099,55.888119 0 0 1 -0.10286,-0.27543 z m 20.73558,4.47156 c 2.69567,0.43825 5.45286,0.8304 8.26209,1.17203 2.80922,0.34163 5.67053,0.63227 8.57426,0.86764 0.33065,2.24289 0.7032,4.39479 1.11488,6.44199 0.41169,2.04721 0.8623,3.9904 1.34954,5.81463 0.27739,1.03863 0.56599,2.03821 0.86627,2.99826 0.30027,0.96007 0.61237,1.88053 0.93759,2.76004 0.32522,0.8795 0.66338,1.71763 1.01564,2.51458 0.35225,0.79696 0.7185,1.55257 1.09989,2.26498 -0.79563,-0.26653 -1.58174,-0.56995 -2.35742,-0.90951 -0.77568,-0.33957 -1.5406,-0.71554 -2.29436,-1.12603 -0.75377,-0.41048 -1.49624,-0.85549 -2.22614,-1.3348 -0.7299,-0.4793 -1.44714,-0.9929 -2.1512,-1.53892 -0.70405,-0.54603 -1.39482,-1.12467 -2.07107,-1.7353 -0.67625,-0.61063 -1.33828,-1.25284 -1.98476,-1.92598 -0.64648,-0.67314 -1.27749,-1.37743 -1.89224,-2.11098 -0.61475,-0.73355 -1.213,-1.49639 -1.79404,-2.28823 -0.63479,-0.8651 -1.2474,-1.76402 -1.83591,-2.69441 -0.5885,-0.93038 -1.15341,-1.89257 -1.69273,-2.88407 -0.53932,-0.99148 -1.05301,-2.0124 -1.54026,-3.06079 -0.48723,-1.0484 -0.94776,-2.12402 -1.38003,-3.22513 z m 63.19293,0.33125 c -0.427,1.06865 -0.88162,2.11309 -1.36091,3.13108 -0.47928,1.01796 -0.98364,2.00938 -1.51234,2.97294 -0.5287,0.96356 -1.08129,1.89908 -1.65655,2.80448 -0.57526,0.9054 -1.17302,1.78114 -1.79197,2.62465 -0.54988,0.74937 -1.1157,1.47281 -1.69584,2.16989 -0.58013,0.69708 -1.17497,1.36716 -1.7837,2.01021 -0.60872,0.64305 -1.23128,1.25914 -1.86691,1.8464 -0.63565,0.58727 -1.2841,1.14612 -1.94497,1.67587 -0.66087,0.52976 -1.33392,1.03019 -2.01835,1.50068 -0.68444,0.47049 -1.38027,0.91137 -2.08659,1.32085 -0.70631,0.40948 -1.42313,0.78756 -2.14964,1.1343 -0.72652,0.34674 -1.46248,0.66189 -2.20753,0.94413 0.36027,-0.69624 0.70697,-1.43179 1.04097,-2.20504 0.33399,-0.77325 0.655,-1.58429 0.96446,-2.43292 0.30947,-0.84864 0.6075,-1.7348 0.89419,-2.6572 0.28667,-0.92242 0.56186,-1.8807 0.8275,-2.87528 0.48109,-1.8013 0.92642,-3.71837 1.33351,-5.73764 0.40709,-2.01924 0.77595,-4.14144 1.10453,-6.35154 2.63312,-0.19302 5.27869,-0.44167 7.93182,-0.75241 2.65312,-0.31075 5.31433,-0.68337 7.97832,-1.12345 z m -40.52273,2.10582 c 1.52954,0.0806 3.06985,0.14385 4.61923,0.18965 1.54937,0.0459 3.10814,0.0737 4.67504,0.0837 1.56691,0.01 3.14201,7.1e-4 4.72414,-0.0274 1.58213,-0.028 3.17098,-0.075 4.76602,-0.14211 -0.29777,1.89057 -0.62507,3.70107 -0.97946,5.41931 -0.3544,1.71823 -0.73567,3.34387 -1.14175,4.8643 -0.30878,1.1561 -0.63278,2.25217 -0.96758,3.28197 -0.3348,1.02979 -0.68049,1.99375 -1.03269,2.88407 -0.3522,0.89031 -0.71101,1.70765 -1.07198,2.44533 -0.36097,0.73769 -0.72429,1.39544 -1.08542,1.96731 -0.3245,0.51389 -0.63334,0.9397 -0.92363,1.2914 -0.2903,0.35171 -0.56173,0.62931 -0.81045,0.84594 -0.24872,0.21663 -0.47474,0.37244 -0.67451,0.48111 -0.19976,0.10868 -0.37342,0.17012 -0.51686,0.19792 -0.10548,0.003 -0.21115,0.004 -0.31684,0.005 -0.14046,-0.0213 -0.31213,-0.0762 -0.51221,-0.17983 -0.20008,-0.10362 -0.42813,-0.25586 -0.6802,-0.47129 -0.25207,-0.21541 -0.52849,-0.49387 -0.82492,-0.8506 -0.29641,-0.35673 -0.61272,-0.79174 -0.94586,-1.3193 -0.36112,-0.57189 -0.72504,-1.23016 -1.08644,-1.96783 -0.36141,-0.73769 -0.72076,-1.5545 -1.07354,-2.44482 -0.35278,-0.89032 -0.69902,-1.85376 -1.03424,-2.88354 -0.33524,-1.02979 -0.65932,-2.12585 -0.96809,-3.28197 -0.40978,-1.53425 -0.79446,-3.17613 -1.15157,-4.91185 -0.35712,-1.73572 -0.68681,-3.56589 -0.98619,-5.47666 z" />
  </g>
</svg>
