<?xml version="1.0" encoding="UTF-8" standalone="no"?>
<svg
   xmlns:dc="http://purl.org/dc/elements/1.1/"
   xmlns:cc="http://creativecommons.org/ns#"
   xmlns:rdf="http://www.w3.org/1999/02/22-rdf-syntax-ns#"
   xmlns:svg="http://www.w3.org/2000/svg"
   xmlns="http://www.w3.org/2000/svg"
   xmlns:sodipodi="http://sodipodi.sourceforge.net/DTD/sodipodi-0.dtd"
   xmlns:inkscape="http://www.inkscape.org/namespaces/inkscape"
   width="512"
   height="512"
   viewBox="0 0 135.46666 135.46668"
   version="1.1"
   id="svg8"
   inkscape:version="1.0.2 (e86c870879, 2021-01-15)"
   sodipodi:docname="system-monitoring-center-terminal-symbolic.svg"
   inkscape:export-filename="/home/asush/Masaüstü/files/python/task_manager/icon_studies/smart-system-monitor-settings.symbolic.png"
   inkscape:export-xdpi="20.171528"
   inkscape:export-ydpi="20.171528">
  <defs
     id="defs2" />
  <sodipodi:namedview
     id="base"
     pagecolor="#ffffff"
     bordercolor="#666666"
     borderopacity="1.0"
     inkscape:pageopacity="0.0"
     inkscape:pageshadow="2"
     inkscape:zoom="0.11065806"
     inkscape:cx="-576.98206"
     inkscape:cy="1918.1804"
     inkscape:document-units="mm"
     inkscape:current-layer="layer1"
     inkscape:document-rotation="0"
     showgrid="false"
     inkscape:snap-object-midpoints="true"
     inkscape:snap-center="true"
     inkscape:window-width="1366"
     inkscape:window-height="696"
     inkscape:window-x="0"
     inkscape:window-y="0"
     inkscape:window-maximized="1"
     showguides="false"
     units="px" />
  <metadata
     id="metadata5">
    <rdf:RDF>
      <cc:Work
         rdf:about="">
        <dc:format>image/svg+xml</dc:format>
        <dc:type
           rdf:resource="http://purl.org/dc/dcmitype/StillImage" />
        <dc:title></dc:title>
      </cc:Work>
    </rdf:RDF>
  </metadata>
  <g
     inkscape:label="Katman 1"
     inkscape:groupmode="layer"
     id="layer1"
     transform="translate(-120.2562,75.121374)">
    <path
       id="rect831"
       style="opacity:1;fill:#000000;stroke-width:7.39573"
       d="m 192.26601,-0.03850886 c -0.37069,0 -0.74144,0.03458299 -1.10643,0.10386925 -0.36499,0.06928607 -0.72423,0.17297721 -1.07203,0.31147739 -0.3478,0.138512 -0.68408,0.31171419 -1.00323,0.51945308 -0.31916,0.20775024 -0.62102,0.45013154 -0.90006,0.72712014 -0.27907,0.2769767 -0.52325,0.5769183 -0.73253,0.8936662 -0.20925,0.3167596 -0.38377,0.6504321 -0.52325,0.9956049 -0.1395,0.3451609 -0.24401,0.7015376 -0.31371,1.0637416 -0.0697,0.3622158 -0.10447,0.7302586 -0.10447,1.0981477 6e-5,0.3678888 0.035,0.7356239 0.1047,1.0978278 0.0698,0.3622158 0.17449,0.7189124 0.31403,1.0640732 0.13955,0.345161 0.31401,0.6788454 0.52329,0.9955931 0.20927,0.3167598 0.45351,0.6167013 0.73251,0.8936781 L 208.69896,30.08956 188.43102,50.507514 c -0.27697,0.279032 -0.51937,0.581231 -0.7271,0.900364 -0.20773,0.319136 -0.38097,0.655461 -0.51946,1.00324 -0.13849,0.347775 -0.24223,0.70675 -0.31149,1.07171 -0.0693,0.364964 -0.10375,0.73574 -0.10375,1.106429 0,0.370691 0.0346,0.741466 0.10375,1.10643 0.0692,0.36496 0.173,0.724252 0.31149,1.072028 0.13849,0.347778 0.31173,0.684106 0.51946,1.003239 0.20773,0.319134 0.45013,0.621014 0.7271,0.900048 0.27698,0.279034 0.57657,0.523248 0.89336,0.732523 0.31679,0.209276 0.65068,0.38344 0.99591,0.522959 0.34524,0.139515 0.70178,0.24427 1.06406,0.314028 0.36231,0.06975 0.73017,0.104781 1.09815,0.104781 0.36798,0 0.73618,-0.03503 1.09846,-0.104781 0.36231,-0.06975 0.71887,-0.174513 1.06408,-0.314028 0.34523,-0.139519 0.67912,-0.313684 0.99593,-0.522959 0.31678,-0.209275 0.61635,-0.453489 0.89335,-0.732523 L 220.90089,34.12385 c 0.17311,-0.174397 0.33267,-0.35755 0.47867,-0.548435 0.14606,-0.190886 0.27883,-0.389394 0.3978,-0.593981 0.11899,-0.204588 0.22435,-0.415422 0.31626,-0.630925 0.0919,-0.2155 0.17014,-0.435642 0.23506,-0.659273 0.0816,-0.274748 0.14242,-0.554607 0.18216,-0.836988 0.0399,-0.282377 0.0584,-0.567195 0.0564,-0.851952 -0.002,-0.284759 -0.025,-0.569433 -0.0688,-0.851313 -0.0438,-0.281892 -0.10849,-0.560988 -0.19395,-0.834768 -0.0661,-0.216361 -0.14489,-0.429452 -0.23632,-0.637925 -0.0914,-0.208473 -0.19556,-0.41254 -0.31244,-0.610542 -0.11689,-0.198003 -0.24644,-0.389918 -0.38888,-0.57487 -0.14243,-0.184962 -0.29786,-0.362855 -0.46594,-0.532197 -0.13826,-0.139269 -0.28204,-0.270167 -0.43092,-0.392061 0,-2.14e-4 -3.6e-4,-1.07e-4 -6.4e-4,-3.2e-4 L 196.34794,1.623411 c -0.27904,-0.2769768 -0.58122,-0.519358 -0.90037,-0.72710832 -0.31915,-0.20775071 -0.65543,-0.3809529 -1.00325,-0.51945308 -0.34779,-0.138512 -0.70704,-0.24222726 -1.07202,-0.31148921 -0.36498,-0.0692851 -0.73574,-0.10386925 -1.10643,-0.10386925 z M 229.02909,47.41272 c -0.44203,0 -0.87449,0.0458 -1.29305,0.132811 -0.41856,0.08702 -0.82299,0.215309 -1.20898,0.380275 -0.38599,0.164966 -0.75349,0.366515 -1.09783,0.600351 -0.34436,0.233835 -0.66565,0.500041 -0.95929,0.793673 -0.29363,0.293628 -0.55952,0.614615 -0.79335,0.958968 -0.23384,0.344347 -0.4357,0.711831 -0.60068,1.097827 -0.16495,0.385994 -0.29326,0.790736 -0.38026,1.209297 -0.0871,0.418565 -0.13283,0.851009 -0.13283,1.293064 0,0.442058 0.0459,0.874818 0.13283,1.293381 0.0871,0.418561 0.21531,0.822987 0.38026,1.208981 0.16498,0.385994 0.36684,0.753477 0.60068,1.097829 0.23383,0.34435 0.49972,0.665655 0.79335,0.959286 0.29364,0.29363 0.61493,0.559517 0.95929,0.793354 0.34434,0.233836 0.71184,0.435384 1.09783,0.600349 0.38599,0.164968 0.79042,0.293256 1.20898,0.380275 0.41856,0.08702 0.85102,0.132809 1.29305,0.132809 h 20.22752 c 0.44205,0 0.8745,-0.04578 1.29305,-0.132809 0.41857,-0.08701 0.82298,-0.215307 1.20898,-0.380275 0.386,-0.164965 0.75349,-0.366513 1.09784,-0.600349 0.34435,-0.233837 0.66564,-0.499724 0.95927,-0.793354 0.29364,-0.293631 0.55953,-0.614936 0.79336,-0.959286 0.23384,-0.344352 0.43571,-0.711835 0.60067,-1.097829 0.16497,-0.385994 0.29326,-0.79042 0.38028,-1.208981 0.0871,-0.418563 0.13281,-0.851323 0.13281,-1.293381 0,-0.442055 -0.0459,-0.874499 -0.13281,-1.293064 -0.087,-0.418561 -0.21531,-0.823303 -0.38028,-1.209297 -0.16496,-0.385996 -0.36683,-0.75348 -0.60067,-1.097827 -0.23383,-0.344353 -0.49972,-0.66534 -0.79336,-0.958968 -0.29363,-0.293632 -0.61492,-0.559838 -0.95927,-0.793673 -0.34435,-0.233836 -0.71184,-0.435385 -1.09784,-0.600351 -0.386,-0.164966 -0.79041,-0.293254 -1.20898,-0.380275 -0.41855,-0.08702 -0.851,-0.132811 -1.29305,-0.132811 z" />
    <g
       aria-label="{}"
       id="text4032"
       style="font-style:normal;font-weight:normal;font-size:86.5542px;line-height:1.25;font-family:sans-serif;fill:#000000;fill-opacity:1;stroke:none;stroke-width:2.16386"
       transform="matrix(0.57877073,0,0,0.57877073,-138.42638,-308.8904)">
      <path
         d="m 500.2594,497.72983 v 12.67888 h -12.22807 q -12.28443,0 -17.91949,-4.95885 -5.63506,-4.95885 -5.63506,-15.83451 v -10.81932 q 0,-8.45258 -3.04293,-11.72092 -3.04293,-3.32468 -11.04471,-3.32468 h -3.43739 v -12.56618 h 3.43739 q 8.00178,0 11.04471,-3.26834 3.04293,-3.26833 3.04293,-11.72092 v -11.55187 q 0,-10.87566 5.63506,-15.77816 5.63506,-4.95885 17.91949,-4.95885 h 12.22807 v 12.67888 h -3.88819 q -7.94543,0 -10.3685,2.47942 -2.36673,2.42308 -2.36673,10.42486 v 9.3542 q 0,8.84704 -2.53577,12.84793 -2.53578,4.00089 -8.73435,5.40966 6.25492,1.52146 8.73435,5.52236 2.53577,4.00089 2.53577,12.79158 v 9.3542 q 0,8.05813 2.36673,10.4812 2.42307,2.47943 10.3685,2.47943 z"
         style="font-style:normal;font-variant:normal;font-weight:bold;font-stretch:normal;font-size:115.406px;font-family:sans-serif;-inkscape-font-specification:'sans-serif, Bold';font-variant-ligatures:normal;font-variant-caps:normal;font-variant-numeric:normal;font-variant-east-asian:normal;stroke-width:2.16386"
         id="path28877" />
      <path
         d="m 529.11091,497.72983 h 3.94454 q 7.88908,0 10.2558,-2.47943 2.42308,-2.42307 2.42308,-10.4812 v -9.3542 q 0,-8.79069 2.53578,-12.79158 2.53577,-4.0009 8.79069,-5.52236 -6.25492,-1.40877 -8.79069,-5.40966 -2.53578,-4.00089 -2.53578,-12.84793 v -9.3542 q 0,-8.00178 -2.42308,-10.42486 -2.36672,-2.47942 -10.2558,-2.47942 h -3.94454 v -12.67888 h 12.22807 q 12.28443,0 17.91949,4.95885 5.63506,4.9025 5.63506,15.77816 v 11.55187 q 0,8.45259 3.04293,11.72092 3.04293,3.26834 11.04472,3.26834 h 3.43738 v 12.56618 h -3.43738 q -8.00179,0 -11.04472,3.32468 -3.04293,3.26834 -3.04293,11.72092 v 10.81932 q 0,10.87566 -5.63506,15.83451 -5.63506,4.95885 -17.91949,4.95885 h -12.22807 z"
         style="font-style:normal;font-variant:normal;font-weight:bold;font-stretch:normal;font-size:115.406px;font-family:sans-serif;-inkscape-font-specification:'sans-serif, Bold';font-variant-ligatures:normal;font-variant-caps:normal;font-variant-numeric:normal;font-variant-east-asian:normal;stroke-width:2.16386"
         id="path28879" />
    </g>
    <rect
       style="opacity:1;fill:#000000;stroke-width:8.78485"
       id="rect929"
       width="186.8208"
       height="4.7579927"
       x="44.742409"
       y="125.32555"
       transform="rotate(-45)"
       rx="2.3789964"
       ry="2.3789964" />
  </g>
</svg>
