<?xml version="1.0" encoding="UTF-8" standalone="no"?>
<svg
   xmlns:dc="http://purl.org/dc/elements/1.1/"
   xmlns:cc="http://creativecommons.org/ns#"
   xmlns:rdf="http://www.w3.org/1999/02/22-rdf-syntax-ns#"
   xmlns:svg="http://www.w3.org/2000/svg"
   xmlns="http://www.w3.org/2000/svg"
   xmlns:sodipodi="http://sodipodi.sourceforge.net/DTD/sodipodi-0.dtd"
   xmlns:inkscape="http://www.inkscape.org/namespaces/inkscape"
   width="512"
   height="512"
   viewBox="0 0 135.46667 135.46668"
   version="1.1"
   id="svg8"
   inkscape:version="1.0.2 (e86c870879, 2021-01-15)"
   sodipodi:docname="smart-system-monitor-user-all-symbolic.svg"
   inkscape:export-filename="/home/asush/Masaüstü/files/python/task_manager/icon_studies/smart-system-monitor-user-current.symbolic.png"
   inkscape:export-xdpi="8.999999"
   inkscape:export-ydpi="8.999999">
  <defs
     id="defs2" />
  <sodipodi:namedview
     id="base"
     pagecolor="#ffffff"
     bordercolor="#666666"
     borderopacity="1.0"
     inkscape:pageopacity="0.0"
     inkscape:pageshadow="2"
     inkscape:zoom="0.4405594"
     inkscape:cx="186.44931"
     inkscape:cy="421.04282"
     inkscape:document-units="mm"
     inkscape:current-layer="layer1"
     inkscape:document-rotation="0"
     showgrid="false"
     inkscape:snap-object-midpoints="true"
     inkscape:snap-center="true"
     inkscape:window-width="1366"
     inkscape:window-height="696"
     inkscape:window-x="0"
     inkscape:window-y="0"
     inkscape:window-maximized="1"
     units="px" />
  <metadata
     id="metadata5">
    <rdf:RDF>
      <cc:Work
         rdf:about="">
        <dc:format>image/svg+xml</dc:format>
        <dc:type
           rdf:resource="http://purl.org/dc/dcmitype/StillImage" />
        <dc:title></dc:title>
      </cc:Work>
    </rdf:RDF>
  </metadata>
  <g
     inkscape:label="Katman 1"
     inkscape:groupmode="layer"
     id="layer1"
     transform="translate(-147.93097,-157.24948)">
    <path
       id="rect1298"
       style="fill:#000000;stroke:none;stroke-width:1.98945;stroke-miterlimit:4;stroke-dasharray:none;stroke-opacity:1"
       d="m 180.54967,164.49813 c -18.36107,1.747 -32.6187,16.79042 -32.6187,35.2087 v 27.50169 h 32.6187 v -12.69794 c -4.75375,-1.45104 -8.18574,-5.77465 -8.18574,-10.91096 v -12.95787 c 0,-5.1363 3.43199,-9.4594 8.18574,-10.91044 z m 7.16258,0 v 15.23266 c 4.75408,1.45085 8.18574,5.77443 8.18574,10.91096 v 12.95787 c 0,5.13654 -3.43166,9.46063 -8.18574,10.91148 v 12.69742 h 32.61922 v -27.50169 c 0,-18.41828 -14.25809,-33.4617 -32.61922,-35.2087 z m -39.78128,69.71047 v 15.88017 c 0,19.59987 16.14514,35.37872 36.19999,35.37872 20.05485,0 36.20051,-15.77885 36.20051,-35.37872 V 234.2086 Z"
       inkscape:export-xdpi="4.5"
       inkscape:export-ydpi="4.5" />
    <g
       id="g854"
       transform="matrix(0.41764494,0,0,0.41764494,127.95359,102.30796)">
      <path
         id="path1422-2"
         style="color:#000000;font-style:normal;font-variant:normal;font-weight:normal;font-stretch:normal;font-size:medium;line-height:normal;font-family:sans-serif;font-variant-ligatures:normal;font-variant-position:normal;font-variant-caps:normal;font-variant-numeric:normal;font-variant-alternates:normal;font-variant-east-asian:normal;font-feature-settings:normal;font-variation-settings:normal;text-indent:0;text-align:start;text-decoration:none;text-decoration-line:none;text-decoration-style:solid;text-decoration-color:#000000;letter-spacing:normal;word-spacing:normal;text-transform:none;writing-mode:lr-tb;direction:ltr;text-orientation:mixed;dominant-baseline:auto;baseline-shift:baseline;text-anchor:start;white-space:normal;shape-padding:0;shape-margin:0;inline-size:0;clip-rule:nonzero;display:inline;overflow:visible;visibility:visible;isolation:auto;mix-blend-mode:normal;color-interpolation:sRGB;color-interpolation-filters:linearRGB;solid-color:#000000;solid-opacity:1;vector-effect:none;fill:#000000;fill-opacity:1;fill-rule:nonzero;stroke:none;stroke-width:1.82687;stroke-linecap:round;stroke-linejoin:miter;stroke-miterlimit:4;stroke-dasharray:none;stroke-dashoffset:0;stroke-opacity:1;color-rendering:auto;image-rendering:auto;shape-rendering:auto;text-rendering:auto;enable-background:accumulate;stop-color:#000000"
         d="m 278.19606,240.2066 a 7.9508362,9.8410583 0 0 0 -7.95108,9.8403 7.9508362,9.8410583 0 0 0 7.95108,9.84136 l 86.04219,0.0115 a 7.9508362,9.8410583 0 0 0 7.95362,-9.8403 7.9508362,9.8410583 0 0 0 -7.95023,-9.84136 z m 0,37.88239 a 7.9508362,9.8410583 0 0 0 -7.95108,9.84031 7.9508362,9.8410583 0 0 0 7.95108,9.84135 l 86.04219,0.0115 a 7.9508362,9.8410583 0 0 0 7.95362,-9.84031 7.9508362,9.8410583 0 0 0 -7.95023,-9.84136 z m 0,37.8824 a 7.9508362,9.8410583 0 0 0 -7.95108,9.84031 7.9508362,9.8410583 0 0 0 7.95108,9.84135 l 86.04219,0.0115 a 7.9508362,9.8410583 0 0 0 7.95362,-9.84031 7.9508362,9.8410583 0 0 0 -7.95023,-9.84135 z" />
      <ellipse
         style="fill:#000000;stroke-width:0.112192;stroke-linecap:round"
         id="path836"
         cx="247.21762"
         cy="287.93561"
         rx="10.190067"
         ry="9.8177004" />
      <ellipse
         style="fill:#000000;stroke-width:0.112192;stroke-linecap:round"
         id="path836-1"
         cx="247.21762"
         cy="250.06142"
         rx="10.190067"
         ry="9.8177004" />
      <ellipse
         style="fill:#000000;stroke-width:0.112192;stroke-linecap:round"
         id="path836-1-5"
         cx="246.91527"
         cy="325.81531"
         rx="10.190067"
         ry="9.8177004" />
    </g>
  </g>
</svg>
