<?xml version="1.0" encoding="UTF-8" standalone="no"?>
<svg
   xmlns:dc="http://purl.org/dc/elements/1.1/"
   xmlns:cc="http://creativecommons.org/ns#"
   xmlns:rdf="http://www.w3.org/1999/02/22-rdf-syntax-ns#"
   xmlns:svg="http://www.w3.org/2000/svg"
   xmlns="http://www.w3.org/2000/svg"
   xmlns:sodipodi="http://sodipodi.sourceforge.net/DTD/sodipodi-0.dtd"
   xmlns:inkscape="http://www.inkscape.org/namespaces/inkscape"
   width="512"
   height="512"
   viewBox="0 0 135.46668 135.46667"
   version="1.1"
   id="svg8"
   inkscape:version="1.0.2 (e86c870879, 2021-01-15)"
   sodipodi:docname="system-monitoring-center-view-more-symbolic.svg"
   inkscape:export-filename="/home/asush/Masaüstü/files/python/task_manager/icon_studies/smart-system-monitor-settings.symbolic.png"
   inkscape:export-xdpi="20.171528"
   inkscape:export-ydpi="20.171528">
  <defs
     id="defs2" />
  <sodipodi:namedview
     id="base"
     pagecolor="#ffffff"
     bordercolor="#666666"
     borderopacity="1.0"
     inkscape:pageopacity="0.0"
     inkscape:pageshadow="2"
     inkscape:zoom="0.46708186"
     inkscape:cx="232.4452"
     inkscape:cy="324.97907"
     inkscape:document-units="mm"
     inkscape:current-layer="layer1"
     inkscape:document-rotation="0"
     showgrid="false"
     inkscape:snap-object-midpoints="true"
     inkscape:snap-center="true"
     inkscape:window-width="1366"
     inkscape:window-height="696"
     inkscape:window-x="0"
     inkscape:window-y="0"
     inkscape:window-maximized="1"
     units="px" />
  <metadata
     id="metadata5">
    <rdf:RDF>
      <cc:Work
         rdf:about="">
        <dc:format>image/svg+xml</dc:format>
        <dc:type
           rdf:resource="http://purl.org/dc/dcmitype/StillImage" />
        <dc:title />
      </cc:Work>
    </rdf:RDF>
  </metadata>
  <g
     inkscape:label="Katman 1"
     inkscape:groupmode="layer"
     id="layer1"
     transform="translate(-430.38735,-205.32398)">
    <path
       id="path1084"
       style="fill:#bebebe;stroke:none;stroke-width:0.429834;stroke-miterlimit:4;stroke-dasharray:none;stroke-opacity:1;fill-opacity:1"
       d="m 498.12068,205.32398 a 16.153373,16.153373 0 0 0 -16.15342,16.15342 16.153373,16.153373 0 0 0 16.15342,16.15321 16.153373,16.153373 0 0 0 16.15343,-16.15321 16.153373,16.153373 0 0 0 -16.15343,-16.15342 z" />
    <path
       id="path1084-6"
       style="fill:#bebebe;stroke:none;stroke-width:0.429834;stroke-miterlimit:4;stroke-dasharray:none;stroke-opacity:1;fill-opacity:1"
       d="m 498.12068,308.48402 a 16.153373,16.153373 0 0 0 -16.15342,16.15342 16.153373,16.153373 0 0 0 16.15342,16.15321 16.153373,16.153373 0 0 0 16.15343,-16.15321 16.153373,16.153373 0 0 0 -16.15343,-16.15342 z" />
    <path
       id="path1084-5"
       style="fill:#bebebe;stroke:none;stroke-width:0.429834;stroke-miterlimit:4;stroke-dasharray:none;stroke-opacity:1;fill-opacity:1"
       d="m 498.12068,256.904 a 16.153373,16.153373 0 0 0 -16.15342,16.15342 16.153373,16.153373 0 0 0 16.15342,16.15321 16.153373,16.153373 0 0 0 16.15343,-16.15321 16.153373,16.153373 0 0 0 -16.15343,-16.15342 z" />
  </g>
</svg>
