<?xml version="1.0" encoding="UTF-8" standalone="no"?>
<svg
   xmlns:dc="http://purl.org/dc/elements/1.1/"
   xmlns:cc="http://creativecommons.org/ns#"
   xmlns:rdf="http://www.w3.org/1999/02/22-rdf-syntax-ns#"
   xmlns:svg="http://www.w3.org/2000/svg"
   xmlns="http://www.w3.org/2000/svg"
   xmlns:sodipodi="http://sodipodi.sourceforge.net/DTD/sodipodi-0.dtd"
   xmlns:inkscape="http://www.inkscape.org/namespaces/inkscape"
   width="135.46666mm"
   height="135.46666mm"
   viewBox="0 0 135.46665 135.46667"
   version="1.1"
   id="svg8"
   inkscape:version="1.0.2 (e86c870879, 2021-01-15)"
   sodipodi:docname="system-monitoring-center-run-application-symbolic.svg"
   inkscape:export-filename="/home/asush/Masaüstü/files/python/task_manager/icon_studies/smart-system-monitor-settings.symbolic.png"
   inkscape:export-xdpi="20.171528"
   inkscape:export-ydpi="20.171528">
  <defs
     id="defs2" />
  <sodipodi:namedview
     id="base"
     pagecolor="#ffffff"
     bordercolor="#666666"
     borderopacity="1.0"
     inkscape:pageopacity="0.0"
     inkscape:pageshadow="2"
     inkscape:zoom="0.58476457"
     inkscape:cx="257.15494"
     inkscape:cy="259.78849"
     inkscape:document-units="mm"
     inkscape:current-layer="layer1"
     inkscape:document-rotation="0"
     showgrid="false"
     inkscape:snap-object-midpoints="true"
     inkscape:snap-center="true"
     inkscape:window-width="1366"
     inkscape:window-height="696"
     inkscape:window-x="0"
     inkscape:window-y="0"
     inkscape:window-maximized="1" />
  <metadata
     id="metadata5">
    <rdf:RDF>
      <cc:Work
         rdf:about="">
        <dc:format>image/svg+xml</dc:format>
        <dc:type
           rdf:resource="http://purl.org/dc/dcmitype/StillImage" />
        <dc:title />
      </cc:Work>
    </rdf:RDF>
  </metadata>
  <g
     inkscape:label="Katman 1"
     inkscape:groupmode="layer"
     id="layer1"
     transform="translate(-37.745741,-73.079322)">
    <path
       style="color:#000000;font-style:normal;font-variant:normal;font-weight:normal;font-stretch:normal;font-size:medium;line-height:normal;font-family:sans-serif;font-variant-ligatures:normal;font-variant-position:normal;font-variant-caps:normal;font-variant-numeric:normal;font-variant-alternates:normal;font-variant-east-asian:normal;font-feature-settings:normal;font-variation-settings:normal;text-indent:0;text-align:start;text-decoration:none;text-decoration-line:none;text-decoration-style:solid;text-decoration-color:#000000;letter-spacing:normal;word-spacing:normal;text-transform:none;writing-mode:lr-tb;direction:ltr;text-orientation:mixed;dominant-baseline:auto;baseline-shift:baseline;text-anchor:start;white-space:normal;shape-padding:0;shape-margin:0;inline-size:0;clip-rule:nonzero;display:inline;overflow:visible;visibility:visible;isolation:auto;mix-blend-mode:normal;color-interpolation:sRGB;color-interpolation-filters:linearRGB;solid-color:#000000;solid-opacity:1;vector-effect:none;fill:#bebebe;fill-opacity:1;fill-rule:nonzero;stroke-width:0.928226;stroke-linecap:butt;stroke-linejoin:miter;stroke-miterlimit:4;stroke-dasharray:none;stroke-dashoffset:0;stroke-opacity:1;color-rendering:auto;image-rendering:auto;shape-rendering:auto;text-rendering:auto;enable-background:accumulate;stop-color:#000000;stop-opacity:1;stroke:none;opacity:1"
       d="m 246.75781,7.5585938 c -8.85829,0 -15.99219,7.1325252 -15.99219,15.9921872 v 36.921875 c -17.38609,4.708109 -34.09565,11.62929 -49.71874,20.59375 L 154.9375,54.957031 c -6.26524,-6.265217 -16.35276,-6.265217 -22.61719,0 L 77.164062,110.12109 c -6.265232,6.26521 -6.265232,16.34481 0,22.60938 l 26.109378,26.10937 c -8.964461,15.62309 -15.885643,32.33265 -20.593752,49.71875 H 45.757812 c -8.858294,0 -15.992187,7.13313 -15.992187,15.99219 v 78.00781 c 0,8.85827 7.132518,15.99219 15.992187,15.99219 h 36.921876 c 4.708109,17.3861 11.629291,34.09566 20.593752,49.71875 l -26.109378,26.10938 c -6.265232,6.26524 -6.265232,16.35273 0,22.61718 l 55.156248,55.16407 c 6.26523,6.26505 16.35276,6.26505 22.61719,0 l 26.10938,-26.10938 c 15.62309,8.96446 32.33265,15.88564 49.71874,20.59375 v 36.92188 c 0,8.85834 7.13322,15.99218 15.99219,15.99218 h 78.00781 c 8.85827,0 15.99219,-7.13297 15.99219,-15.99218 v -36.92188 c 17.3861,-4.70811 34.09566,-11.62929 49.71875,-20.59375 l 26.10938,26.10938 c 6.26521,6.26524 16.35277,6.26524 22.61718,0 l 55.16407,-55.16407 c 6.26521,-6.26524 6.26521,-16.35262 0,-22.61718 l -26.10938,-26.10938 c 8.96446,-15.62309 15.88564,-32.33265 20.59375,-49.71875 h 36.92188 c 8.85827,0 15.99218,-7.13309 15.99218,-15.99219 v -78.00781 c 0,-8.8583 -7.13308,-15.99219 -15.99218,-15.99219 h -36.92188 c -4.70811,-17.3861 -11.62929,-34.09566 -20.59375,-49.71875 l 26.10938,-26.10937 c 6.26521,-6.26525 6.26521,-16.34496 0,-22.60938 L 439.20312,54.957031 c -6.2652,-6.265217 -16.35277,-6.265217 -22.61718,0 L 390.47656,81.066406 C 374.85347,72.101945 358.14391,65.180764 340.75781,60.472656 V 23.550781 c 0,-8.85829 -7.13324,-15.9921872 -15.99219,-15.9921872 z M 223.26758,150.17188 396.26172,263.55859 223.26758,376.94336 Z"
       id="path18"
       transform="matrix(0.26458333,0,0,0.26458333,29.870253,71.079444)" />
  </g>
</svg>
