<?xml version="1.0" encoding="UTF-8" standalone="no"?>
<svg
   xmlns:dc="http://purl.org/dc/elements/1.1/"
   xmlns:cc="http://creativecommons.org/ns#"
   xmlns:rdf="http://www.w3.org/1999/02/22-rdf-syntax-ns#"
   xmlns:svg="http://www.w3.org/2000/svg"
   xmlns="http://www.w3.org/2000/svg"
   xmlns:sodipodi="http://sodipodi.sourceforge.net/DTD/sodipodi-0.dtd"
   xmlns:inkscape="http://www.inkscape.org/namespaces/inkscape"
   width="33.866669mm"
   height="33.866673mm"
   viewBox="0 0 33.866667 33.866676"
   version="1.1"
   id="svg8"
   inkscape:version="1.0.2 (e86c870879, 2021-01-15)"
   sodipodi:docname="smart-system-monitor-settings.symbolic.svg"
   inkscape:export-filename="/home/asush/Masaüstü/files/python/task_manager/icon_studies/smart-system-monitor-settings.symbolic.png"
   inkscape:export-xdpi="20.171528"
   inkscape:export-ydpi="20.171528">
  <defs
     id="defs2" />
  <sodipodi:namedview
     id="base"
     pagecolor="#ffffff"
     bordercolor="#666666"
     borderopacity="1.0"
     inkscape:pageopacity="0.0"
     inkscape:pageshadow="2"
     inkscape:zoom="3.541058"
     inkscape:cx="72.726276"
     inkscape:cy="64.451403"
     inkscape:document-units="mm"
     inkscape:current-layer="layer1"
     inkscape:document-rotation="0"
     showgrid="false"
     inkscape:snap-object-midpoints="true"
     inkscape:snap-center="true"
     inkscape:window-width="1366"
     inkscape:window-height="696"
     inkscape:window-x="0"
     inkscape:window-y="0"
     inkscape:window-maximized="1" />
  <metadata
     id="metadata5">
    <rdf:RDF>
      <cc:Work
         rdf:about="">
        <dc:format>image/svg+xml</dc:format>
        <dc:type
           rdf:resource="http://purl.org/dc/dcmitype/StillImage" />
        <dc:title />
      </cc:Work>
    </rdf:RDF>
  </metadata>
  <g
     inkscape:label="Katman 1"
     inkscape:groupmode="layer"
     id="layer1"
     transform="translate(-27.130369,-70.630376)">
    <path
       style="color:#000000;font-style:normal;font-variant:normal;font-weight:normal;font-stretch:normal;font-size:medium;line-height:normal;font-family:sans-serif;font-variant-ligatures:normal;font-variant-position:normal;font-variant-caps:normal;font-variant-numeric:normal;font-variant-alternates:normal;font-variant-east-asian:normal;font-feature-settings:normal;font-variation-settings:normal;text-indent:0;text-align:start;text-decoration:none;text-decoration-line:none;text-decoration-style:solid;text-decoration-color:#000000;letter-spacing:normal;word-spacing:normal;text-transform:none;writing-mode:lr-tb;direction:ltr;text-orientation:mixed;dominant-baseline:auto;baseline-shift:baseline;text-anchor:start;white-space:normal;shape-padding:0;shape-margin:0;inline-size:0;clip-rule:nonzero;display:inline;overflow:visible;visibility:visible;isolation:auto;mix-blend-mode:normal;color-interpolation:sRGB;color-interpolation-filters:linearRGB;solid-color:#000000;solid-opacity:1;vector-effect:none;fill:#000000;fill-opacity:1;fill-rule:nonzero;stroke-width:0.0613981;stroke-linecap:butt;stroke-linejoin:miter;stroke-miterlimit:4;stroke-dasharray:none;stroke-dashoffset:0;stroke-opacity:1;color-rendering:auto;image-rendering:auto;shape-rendering:auto;text-rendering:auto;enable-background:accumulate;stop-color:#000000;stop-opacity:1;stroke:none;opacity:1"
       d="m 41.483702,70.630376 c -0.585939,0 -1.057777,0.471642 -1.057777,1.057672 v 2.442224 c -1.150079,0.311413 -2.255406,0.769226 -3.288862,1.362207 l -1.726848,-1.726856 c -0.414419,-0.414419 -1.081563,-0.414419 -1.495929,0 l -3.64867,3.64867 c -0.414419,0.414419 -0.414419,1.081555 0,1.495929 l 1.726856,1.726848 c -0.59298,1.033454 -1.050793,2.138778 -1.362207,3.288854 h -2.442224 c -0.585939,0 -1.057672,0.471793 -1.057672,1.057785 v 5.159993 c 0,0.585939 0.471642,1.057785 1.057672,1.057785 h 2.442224 c 0.311453,1.150044 0.769298,2.255333 1.362304,3.288749 l -1.726953,1.726961 c -0.414419,0.414419 -0.414419,1.081442 0,1.495808 l 3.64867,3.648795 c 0.414419,0.41441 1.081563,0.41441 1.495929,0 l 1.726961,-1.726965 c 1.033422,0.592965 2.13871,1.050775 3.288749,1.362195 v 2.44223 c 0,0.58594 0.471793,1.05779 1.057777,1.05779 h 5.160001 c 0.585939,0 1.057777,-0.47179 1.057777,-1.05779 v -2.44223 c 1.150042,-0.31145 2.255328,-0.7693 3.288742,-1.362308 l 1.726968,1.726958 c 0.414419,0.41442 1.081442,0.41442 1.495808,0 l 3.648791,-3.648675 c 0.414418,-0.414419 0.414418,-1.081434 0,-1.495808 l -1.726961,-1.726961 c 0.592969,-1.033421 1.050779,-2.13871 1.362198,-3.288749 h 2.442225 c 0.585939,0 1.057785,-0.471793 1.057785,-1.057785 v -5.159993 c 0,-0.585939 -0.471793,-1.057785 -1.057785,-1.057785 h -2.442225 c -0.31142,-1.150036 -0.76923,-2.255322 -1.362198,-3.288741 l 1.726848,-1.726961 c 0.414418,-0.414419 0.414418,-1.081563 0,-1.495929 l -3.648678,-3.64867 c -0.414419,-0.414419 -1.081442,-0.414419 -1.495808,0 l -1.726968,1.726953 c -1.033414,-0.593005 -2.1387,-1.050851 -3.288742,-1.362304 v -2.442224 c 0,-0.585939 -0.471793,-1.057672 -1.057777,-1.057672 z m 2.556175,11.560832 c 0.008,-1.8e-5 0.01606,-1.8e-5 0.02409,0 2.967145,1.3e-5 5.37249,2.405354 5.372506,5.372499 -1.4e-5,2.967147 -2.405359,5.372491 -5.372506,5.372504 -2.967143,-1.8e-5 -5.372482,-2.405361 -5.372496,-5.372504 -1.3e-5,-2.957867 2.390845,-5.359371 5.348683,-5.372499 z"
       id="path18" />
  </g>
</svg>
