<?xml version="1.0" encoding="UTF-8" standalone="no"?>
<svg
   xmlns:dc="http://purl.org/dc/elements/1.1/"
   xmlns:cc="http://creativecommons.org/ns#"
   xmlns:rdf="http://www.w3.org/1999/02/22-rdf-syntax-ns#"
   xmlns:svg="http://www.w3.org/2000/svg"
   xmlns="http://www.w3.org/2000/svg"
   xmlns:sodipodi="http://sodipodi.sourceforge.net/DTD/sodipodi-0.dtd"
   xmlns:inkscape="http://www.inkscape.org/namespaces/inkscape"
   width="512"
   height="512"
   viewBox="0 0 135.46667 135.46666"
   version="1.1"
   id="svg8"
   inkscape:version="1.0.2 (e86c870879, 2021-01-15)"
   sodipodi:docname="smart-system-monitor-disk-hdd-symbolic.svg"
   inkscape:export-filename="/home/asush/Masaüstü/files/python/task_manager/icon_studies/smart-system-monitor-settings.symbolic.png"
   inkscape:export-xdpi="20.171528"
   inkscape:export-ydpi="20.171528">
  <defs
     id="defs2" />
  <sodipodi:namedview
     id="base"
     pagecolor="#ffffff"
     bordercolor="#666666"
     borderopacity="1.0"
     inkscape:pageopacity="0.0"
     inkscape:pageshadow="2"
     inkscape:zoom="0.62597653"
     inkscape:cx="24.424796"
     inkscape:cy="156.25297"
     inkscape:document-units="mm"
     inkscape:current-layer="layer1"
     inkscape:document-rotation="0"
     showgrid="false"
     inkscape:snap-object-midpoints="true"
     inkscape:snap-center="true"
     inkscape:window-width="1366"
     inkscape:window-height="696"
     inkscape:window-x="0"
     inkscape:window-y="0"
     inkscape:window-maximized="1"
     units="px" />
  <metadata
     id="metadata5">
    <rdf:RDF>
      <cc:Work
         rdf:about="">
        <dc:format>image/svg+xml</dc:format>
        <dc:type
           rdf:resource="http://purl.org/dc/dcmitype/StillImage" />
        <dc:title></dc:title>
      </cc:Work>
    </rdf:RDF>
  </metadata>
  <g
     inkscape:label="Katman 1"
     inkscape:groupmode="layer"
     id="layer1"
     transform="translate(-97.188524,-105.34864)">
    <g
       id="path3262"
       style="opacity:1"
       transform="translate(13.801741,-5.6666667e-5)">
      <path
         style="color:#000000;font-style:normal;font-variant:normal;font-weight:normal;font-stretch:normal;font-size:medium;line-height:normal;font-family:sans-serif;font-variant-ligatures:normal;font-variant-position:normal;font-variant-caps:normal;font-variant-numeric:normal;font-variant-alternates:normal;font-variant-east-asian:normal;font-feature-settings:normal;font-variation-settings:normal;text-indent:0;text-align:start;text-decoration:none;text-decoration-line:none;text-decoration-style:solid;text-decoration-color:#000000;letter-spacing:normal;word-spacing:normal;text-transform:none;writing-mode:lr-tb;direction:ltr;text-orientation:mixed;dominant-baseline:auto;baseline-shift:baseline;text-anchor:start;white-space:normal;shape-padding:0;shape-margin:0;inline-size:0;clip-rule:nonzero;display:inline;overflow:visible;visibility:visible;isolation:auto;mix-blend-mode:normal;color-interpolation:sRGB;color-interpolation-filters:linearRGB;solid-color:#000000;solid-opacity:1;vector-effect:none;fill:#000000;fill-opacity:1;fill-rule:nonzero;stroke:none;stroke-width:3.90483;stroke-linecap:butt;stroke-linejoin:round;stroke-miterlimit:4;stroke-dasharray:none;stroke-dashoffset:0;stroke-opacity:1;color-rendering:auto;image-rendering:auto;shape-rendering:auto;text-rendering:auto;enable-background:accumulate;stop-color:#000000;stop-opacity:1"
         d="m 108.51731,107.30105 c -5.19447,0 -9.376371,4.18188 -9.376371,9.37637 v 112.80909 c 0,5.19449 4.181901,9.37638 9.376371,9.37638 h 85.20394 c 5.19448,0 9.37638,-4.18189 9.37638,-9.37638 V 116.67742 c 0,-5.19449 -4.1819,-9.37637 -9.37638,-9.37637 z m 2.22975,3.07389 c 0.007,-10e-6 0.0148,-10e-6 0.0222,0 3.95363,6e-5 7.15867,3.2051 7.15873,7.15873 -5e-5,3.95364 -3.20509,7.15868 -7.15873,7.15874 -3.95364,-5e-5 -7.15869,-3.2051 -7.15874,-7.15874 4e-5,-3.94498 3.19158,-7.14644 7.13654,-7.15873 z m 82.00158,0 c 0.007,-10e-6 0.0148,-10e-6 0.0222,0 3.95363,6e-5 7.15867,3.2051 7.15873,7.15873 -5e-5,3.95364 -3.20509,7.15868 -7.15873,7.15874 -3.95364,-6e-5 -7.15868,-3.2051 -7.15873,-7.15874 4e-5,-3.94498 3.19157,-7.14644 7.13653,-7.15873 z m -41.78339,5.43211 c 0,0 6.9e-4,0 6.9e-4,0 0.0511,-9e-5 0.10224,-9e-5 0.15336,0 23.23832,-8e-5 42.07673,18.83833 42.07665,42.07665 -4.9e-4,22.61399 -17.87555,41.18329 -40.47311,42.04504 l -28.23204,27.3926 c -0.50057,0.63664 -1.07371,1.21271 -1.70779,1.71653 -4.50325,3.57684 -11.05347,2.82578 -14.63024,-1.67752 -3.57684,-4.50325 -2.82578,-11.05347 1.67752,-14.63024 0.63007,-0.50041 1.31602,-0.92611 2.04411,-1.26857 l 22.95595,-14.78292 c -15.62323,-6.55958 -25.7874,-21.8505 -25.78772,-38.79492 -2.3e-4,-23.1783 18.74447,-41.99188 41.92262,-42.07665 z m -16.1349,80.87157 c 5.15757,2.16556 10.69517,3.28099 16.28893,3.28105 0.53466,-1.1e-4 1.06927,-0.0104 1.60354,-0.0309 l 16.99922,-16.49341 c 0.18175,-0.14718 0.34991,-0.31038 0.50245,-0.48765 l 0.0114,-0.0121 -6.9e-4,-0.001 c 0.73229,-0.85834 1.05751,-1.99147 0.8919,-3.10752 -0.20524,-1.37996 -1.13112,-2.54558 -2.42885,-3.05775 -0.33105,-0.13074 -0.67843,-0.2156 -1.03247,-0.25223 l 6.9e-4,6.9e-4 c -1.01493,-0.10496 -2.03063,0.19152 -2.82973,0.82598 l 0.007,0.008 z m 57.91829,25.63436 c 0.007,-1e-5 0.0148,-1e-5 0.0222,0 3.95364,6e-5 7.15868,3.2051 7.15873,7.15874 -6e-5,3.95363 -3.2051,7.15867 -7.15873,7.15873 -3.95363,-6e-5 -7.15867,-3.2051 -7.15873,-7.15873 3e-5,-3.94498 3.19157,-7.14645 7.13653,-7.15874 z"
         id="path28985" />
      <path
         style="color:#000000;font-style:normal;font-variant:normal;font-weight:normal;font-stretch:normal;font-size:medium;line-height:normal;font-family:sans-serif;font-variant-ligatures:normal;font-variant-position:normal;font-variant-caps:normal;font-variant-numeric:normal;font-variant-alternates:normal;font-variant-east-asian:normal;font-feature-settings:normal;font-variation-settings:normal;text-indent:0;text-align:start;text-decoration:none;text-decoration-line:none;text-decoration-style:solid;text-decoration-color:#000000;letter-spacing:normal;word-spacing:normal;text-transform:none;writing-mode:lr-tb;direction:ltr;text-orientation:mixed;dominant-baseline:auto;baseline-shift:baseline;text-anchor:start;white-space:normal;shape-padding:0;shape-margin:0;inline-size:0;clip-rule:nonzero;display:inline;overflow:visible;visibility:visible;isolation:auto;mix-blend-mode:normal;color-interpolation:sRGB;color-interpolation-filters:linearRGB;solid-color:#000000;solid-opacity:1;vector-effect:none;fill:#000000;fill-opacity:1;fill-rule:nonzero;stroke:none;stroke-linecap:butt;stroke-linejoin:round;stroke-miterlimit:4;stroke-dasharray:none;stroke-dashoffset:0;stroke-opacity:1;color-rendering:auto;image-rendering:auto;shape-rendering:auto;text-rendering:auto;enable-background:accumulate;stop-color:#000000;stop-opacity:1"
         d="m 108.51758,105.34961 c -6.24235,0 -11.328127,5.08575 -11.328127,11.32812 v 112.8086 c 0,6.24237 5.085777,11.32812 11.328127,11.32812 h 85.20312 c 6.24236,0 11.33008,-5.08575 11.33008,-11.32812 v -112.8086 c 0,-6.24237 -5.08772,-11.32812 -11.33008,-11.32812 z m 5.95312,3.9043 h 74.5918 c -3.16651,1.43226 -5.40231,4.59674 -5.40234,8.27929 6e-5,5.00878 4.10254,9.11126 9.11132,9.11133 3.74553,-5e-5 6.97766,-2.29724 8.37305,-5.54883 v 104.81446 c -1.39514,-3.25102 -4.62641,-5.54796 -8.37109,-5.54883 -0.009,-2e-5 -0.0179,-2e-5 -0.0273,0 a 1.9526102,1.9526102 0 0 0 -0.004,0 c -4.99797,0.0156 -9.08199,4.11334 -9.08203,9.11133 4e-5,3.14688 1.71803,5.79878 4.16406,7.4375 h -79.30664 c -4.14659,0 -7.42383,-3.27722 -7.42383,-7.42383 v -112.8086 c 0,-3.41392 2.26807,-6.12398 5.36719,-7.01562 -2.81277,1.55635 -4.8027,4.44837 -4.80274,7.87109 7e-5,5.00879 4.10255,9.11126 9.11133,9.11133 5.00878,-7e-5 9.11126,-4.10255 9.11133,-9.11133 -5e-5,-3.68556 -2.24114,-6.84851 -5.41016,-8.27929 z m -3.7207,3.07421 h 0.004 c 0.004,0 0.008,0 0.0117,0 a 1.9526102,1.9526102 0 0 0 0.004,0 c 2.89849,5e-5 5.20504,2.30659 5.20508,5.20508 -4e-5,2.8985 -2.30659,5.20699 -5.20508,5.20703 -2.89849,-3e-5 -5.20699,-2.30853 -5.20703,-5.20703 3e-5,-2.89064 2.29742,-5.19395 5.1875,-5.20508 z m 82.00195,0 h 0.002 c 0.005,0 0.009,0 0.0137,0 a 1.9526102,1.9526102 0 0 0 0.004,0 c 2.89849,5e-5 5.20504,2.30659 5.20508,5.20508 -4e-5,2.8985 -2.30658,5.20699 -5.20508,5.20703 -2.89849,-4e-5 -5.20699,-2.30853 -5.20703,-5.20703 3e-5,-2.8913 2.29649,-5.19501 5.1875,-5.20508 z m -41.79297,1.52735 c -24.23078,0.0886 -43.86938,19.79639 -43.86914,44.02734 3.2e-4,16.53295 9.32843,31.47172 23.83594,38.98828 l -20.10937,12.94922 0.22656,-0.125 c -0.86461,0.40667 -1.67953,0.91162 -2.42774,1.50586 -5.32956,4.23304 -6.2253,12.04354 -1.99218,17.37305 4.23303,5.32956 12.04549,6.2253 17.375,1.99219 0.75296,-0.59829 1.43291,-1.28305 2.02734,-2.03907 l -0.17578,0.19532 27.78516,-26.95899 c 23.2181,-1.33409 41.51316,-20.52589 41.51367,-43.88086 8e-5,-24.29216 -19.73372,-44.02527 -44.02539,-44.02734 -0.0522,-1e-4 -0.10407,-9e-5 -0.15625,0 h -0.002 a 1.9526102,1.9526102 0 0 0 -0.006,0 z m 0.006,3.9043 h 0.008 c 0.0474,-9e-5 0.0951,-9e-5 0.14257,0 a 1.9526102,1.9526102 0 0 0 0.004,0 c 22.18316,-8e-5 40.12507,17.93989 40.125,40.12304 -4.3e-4,19.62998 -14.13234,35.88678 -32.90625,39.31641 l 12.74414,-12.36328 -0.13086,0.11718 c 0.27191,-0.22018 0.52362,-0.46537 0.75195,-0.73046 a 1.9526102,1.9526102 0 0 0 0.0176,-0.0215 1.9526102,1.9526102 0 0 0 0.39258,-0.73242 1.9526102,1.9526102 0 0 0 0.002,-0.004 c 0.73926,-1.17578 1.14982,-2.53254 0.94336,-3.92382 a 1.9526102,1.9526102 0 0 0 0,-0.002 c -0.30731,-2.06631 -1.69968,-3.81852 -3.64257,-4.58594 h -0.002 c -0.49604,-0.19571 -1.01644,-0.32403 -1.54687,-0.3789 a 1.9526102,1.9526102 0 0 0 -0.75196,0.0703 c -1.19855,0.0331 -2.36072,0.36524 -3.33007,1.08594 l 0.002,-0.0195 -0.14649,0.0957 c -0.005,0.004 -0.0125,0.004 -0.0176,0.008 a 1.9526102,1.9526102 0 0 0 -0.01,0.01 l -28.90039,18.60937 c -14.38784,-6.45977 -23.71845,-20.71762 -23.71875,-36.55078 -2.2e-4,-22.12301 17.84887,-40.03786 39.9707,-40.12304 z m 16.5,60.69921 c 0.17703,0.0183 0.3501,0.0616 0.51563,0.12696 a 1.9526102,1.9526102 0 0 0 0.002,0 c 0.65178,0.25723 1.10981,0.83622 1.21289,1.52929 0.0821,0.55703 -0.079,1.11973 -0.44336,1.54883 -9.7e-4,0.001 -9.8e-4,0.003 -0.002,0.004 a 1.9526102,1.9526102 0 0 0 -0.006,0.006 1.9526102,1.9526102 0 0 0 -0.11523,2.36914 l -0.89649,-1.29688 0.98633,-1.04687 c -0.0699,0.0782 -0.14307,0.15272 -0.22461,0.21875 a 1.9526102,1.9526102 0 0 0 -0.13086,0.11523 l -16.44922,15.95899 c -0.26495,0.005 -0.5299,0.0156 -0.79492,0.0156 -3.99487,-4e-5 -7.90589,-0.78806 -11.71094,-1.95508 l 26.49219,-17.05859 a 1.9526102,1.9526102 0 0 0 0.17383,-0.12695 c 0.39694,-0.30698 0.89079,-0.4599 1.39062,-0.40821 z m -32.33007,20.34571 c 4.17887,1.6315 8.57425,2.51289 13.04296,2.81445 L 123.131,225.91992 a 1.9526102,1.9526102 0 0 0 -0.17578,0.19531 c -0.40672,0.51728 -0.87153,0.98518 -1.38672,1.39454 -3.677,2.92056 -8.96621,2.31375 -11.88672,-1.36329 -2.92056,-3.67699 -2.31376,-8.9662 1.36328,-11.88671 0.51193,-0.40659 1.06858,-0.753 1.66016,-1.03125 a 1.9526102,1.9526102 0 0 0 0.22656,-0.125 z m 57.61718,25.46093 h 0.002 c 0.005,0 0.009,0 0.0137,0 a 1.9526102,1.9526102 0 0 0 0.004,0 c 2.8985,5e-5 5.20504,2.30854 5.20508,5.20704 -4e-5,2.89849 -2.30659,5.20503 -5.20508,5.20507 -2.89849,-4e-5 -5.20698,-2.30658 -5.20703,-5.20507 3e-5,-2.89131 2.29648,-5.19697 5.1875,-5.20704 z"
         id="path28987" />
    </g>
    <path
       id="path3541"
       style="fill:#000000;fill-opacity:1;stroke:none;stroke-width:5.14248;stroke-linecap:butt;stroke-linejoin:miter;stroke-miterlimit:4;stroke-dasharray:none;stroke-opacity:0.996354"
       d="m 178.30981,157.88318 a 13.388833,13.388833 0 0 1 -13.38884,13.38883 13.388833,13.388833 0 0 1 -13.38883,-13.38883 13.388833,13.388833 0 0 1 13.38883,-13.38883 13.388833,13.388833 0 0 1 13.38884,13.38883 z" />
  </g>
</svg>
