<?xml version="1.0" encoding="UTF-8" standalone="no"?>
<svg
   xmlns:dc="http://purl.org/dc/elements/1.1/"
   xmlns:cc="http://creativecommons.org/ns#"
   xmlns:rdf="http://www.w3.org/1999/02/22-rdf-syntax-ns#"
   xmlns:svg="http://www.w3.org/2000/svg"
   xmlns="http://www.w3.org/2000/svg"
   xmlns:sodipodi="http://sodipodi.sourceforge.net/DTD/sodipodi-0.dtd"
   xmlns:inkscape="http://www.inkscape.org/namespaces/inkscape"
   width="512"
   height="512"
   viewBox="0 0 135.46666 135.46667"
   version="1.1"
   id="svg8"
   inkscape:version="1.0.2 (e86c870879, 2021-01-15)"
   sodipodi:docname="system-monitoring-center-delete.svg">
  <defs
     id="defs2" />
  <sodipodi:namedview
     id="base"
     pagecolor="#ffffff"
     bordercolor="#666666"
     borderopacity="1.0"
     inkscape:pageopacity="0.0"
     inkscape:pageshadow="2"
     inkscape:zoom="0.49497475"
     inkscape:cx="356.38768"
     inkscape:cy="469.47134"
     inkscape:document-units="mm"
     inkscape:current-layer="layer1"
     inkscape:document-rotation="0"
     showgrid="false"
     units="px"
     inkscape:window-width="1366"
     inkscape:window-height="733"
     inkscape:window-x="0"
     inkscape:window-y="0"
     inkscape:window-maximized="0" />
  <metadata
     id="metadata5">
    <rdf:RDF>
      <cc:Work
         rdf:about="">
        <dc:format>image/svg+xml</dc:format>
        <dc:type
           rdf:resource="http://purl.org/dc/dcmitype/StillImage" />
        <dc:title></dc:title>
      </cc:Work>
    </rdf:RDF>
  </metadata>
  <g
     inkscape:label="Katman 1"
     inkscape:groupmode="layer"
     id="layer1"
     transform="translate(-40.217701,-17.71158)">
    <path
       id="rect833"
       style="opacity:1;fill:#000000;stroke-width:14.9245"
       d="m 98.428468,17.711578 c -5.644762,0 -10.190572,4.533443 -10.212865,10.172781 h -0.0013 v 0.0414 3.384795 H 52.525117 c -5.154155,0 -9.303417,4.149925 -9.303417,9.304074 0,5.154155 4.149262,9.303421 9.303417,9.303421 H 163.37695 c 5.15416,0 9.30342,-4.149266 9.30342,-9.303421 0,-5.154149 -4.14926,-9.304074 -9.30342,-9.304074 h -35.68917 v -3.384795 -0.0414 h -0.001 C 127.66417,22.245021 123.11836,17.711578 117.4736,17.711578 Z M 55.196285,59.493512 v 75.731728 c 0,9.94594 8.007068,17.95301 17.95301,17.95301 h 69.603485 c 9.94594,0 17.95301,-8.00707 17.95301,-17.95301 V 59.493512 Z m 27.798547,10.977087 c 3.390559,0 6.120361,2.729799 6.120361,6.12036 v 56.400091 c 0,3.39056 -2.729802,6.12036 -6.120361,6.12036 -3.390558,0 -6.120357,-2.7298 -6.120357,-6.12036 V 76.590959 c 0,-3.390561 2.729799,-6.12036 6.120357,-6.12036 z m 24.956538,0 c 3.39055,0 6.1197,2.729799 6.1197,6.12036 v 56.400091 c 0,3.39056 -2.72915,6.12036 -6.1197,6.12036 -3.39056,0 -6.12037,-2.7298 -6.12037,-6.12036 V 76.590959 c 0,-3.390561 2.72981,-6.12036 6.12037,-6.12036 z m 24.95587,0 c 3.39056,0 6.12036,2.729799 6.12035,6.12036 v 56.400091 c 0,3.39056 -2.72979,6.12036 -6.12035,6.12036 -3.39056,0 -6.12036,-2.7298 -6.12036,-6.12036 V 76.590959 c 0,-3.390561 2.7298,-6.12036 6.12036,-6.12036 z" />
  </g>
</svg>
