<?xml version="1.0" encoding="UTF-8" standalone="no"?>
<svg
   xmlns:dc="http://purl.org/dc/elements/1.1/"
   xmlns:cc="http://creativecommons.org/ns#"
   xmlns:rdf="http://www.w3.org/1999/02/22-rdf-syntax-ns#"
   xmlns:svg="http://www.w3.org/2000/svg"
   xmlns="http://www.w3.org/2000/svg"
   xmlns:sodipodi="http://sodipodi.sourceforge.net/DTD/sodipodi-0.dtd"
   xmlns:inkscape="http://www.inkscape.org/namespaces/inkscape"
   width="512"
   height="512"
   viewBox="0 0 135.46667 135.46668"
   version="1.1"
   id="svg8"
   inkscape:version="1.0.2 (e86c870879, 2021-01-15)"
   sodipodi:docname="system-monitoring-center-performance-symbolic.svg"
   inkscape:export-filename="/home/asush/Masaüstü/files/python/task_manager/icon_studies/smart-system-monitor-settings.symbolic.png"
   inkscape:export-xdpi="20.171528"
   inkscape:export-ydpi="20.171528">
  <defs
     id="defs2" />
  <sodipodi:namedview
     id="base"
     pagecolor="#ffffff"
     bordercolor="#666666"
     borderopacity="1.0"
     inkscape:pageopacity="0.0"
     inkscape:pageshadow="2"
     inkscape:zoom="0.5820278"
     inkscape:cx="225.85742"
     inkscape:cy="292.62539"
     inkscape:document-units="mm"
     inkscape:current-layer="layer1"
     inkscape:document-rotation="0"
     showgrid="false"
     inkscape:snap-object-midpoints="true"
     inkscape:snap-center="true"
     inkscape:window-width="1366"
     inkscape:window-height="696"
     inkscape:window-x="0"
     inkscape:window-y="0"
     inkscape:window-maximized="1"
     units="px" />
  <metadata
     id="metadata5">
    <rdf:RDF>
      <cc:Work
         rdf:about="">
        <dc:format>image/svg+xml</dc:format>
        <dc:type
           rdf:resource="http://purl.org/dc/dcmitype/StillImage" />
        <dc:title />
      </cc:Work>
    </rdf:RDF>
  </metadata>
  <g
     inkscape:label="Katman 1"
     inkscape:groupmode="layer"
     id="layer1"
     transform="translate(-82.260258,-105.95058)">
    <path
       id="path2064"
       style="color:#000000;font-style:normal;font-variant:normal;font-weight:normal;font-stretch:normal;font-size:medium;line-height:normal;font-family:sans-serif;font-variant-ligatures:normal;font-variant-position:normal;font-variant-caps:normal;font-variant-numeric:normal;font-variant-alternates:normal;font-variant-east-asian:normal;font-feature-settings:normal;font-variation-settings:normal;text-indent:0;text-align:start;text-decoration:none;text-decoration-line:none;text-decoration-style:solid;text-decoration-color:#000000;letter-spacing:normal;word-spacing:normal;text-transform:none;writing-mode:lr-tb;direction:ltr;text-orientation:mixed;dominant-baseline:auto;baseline-shift:baseline;text-anchor:start;white-space:normal;shape-padding:0;shape-margin:0;inline-size:0;clip-rule:nonzero;display:inline;overflow:visible;visibility:visible;opacity:1;isolation:auto;mix-blend-mode:normal;color-interpolation:sRGB;color-interpolation-filters:linearRGB;solid-color:#000000;solid-opacity:1;vector-effect:none;fill:#bebebe;fill-opacity:1;fill-rule:nonzero;stroke:none;stroke-width:1.2291;stroke-linecap:butt;stroke-linejoin:round;stroke-miterlimit:4;stroke-dasharray:none;stroke-dashoffset:0;stroke-opacity:1;color-rendering:auto;image-rendering:auto;shape-rendering:auto;text-rendering:auto;enable-background:accumulate;stop-color:#000000;stop-opacity:1"
       d="m 150.25083,131.48271 a 69.766052,69.766052 0 0 0 -67.99057,54.12836 l 10.897952,2.9198 c 6.431831,-24.00392 28.084218,-40.61802 52.934908,-40.61802 5.25281,0 10.36176,0.74488 15.21508,2.14237 l 6.248,-16.39203 a 69.766052,69.766052 0 0 0 -17.30537,-2.18048 z m 26.5786,5.26161 -6.41885,16.83981 c 13.78026,6.81573 24.42639,19.31264 28.61554,34.94674 l 18.7008,-5.01072 a 69.766052,69.766052 0 0 0 -40.89749,-46.77583 z" />
    <path
       id="path3262"
       style="fill:#bebebe;stroke:none;stroke-width:0;stroke-linecap:butt;stroke-linejoin:round;stroke-miterlimit:4;stroke-dasharray:none;fill-opacity:1"
       d="m 154.78343,212.28517 a 12.290957,12.290957 0 0 1 -17.38204,0 12.290957,12.290957 0 0 1 -1e-5,-17.38204 12.290957,12.290957 0 0 1 17.38204,0 12.290957,12.290957 0 0 1 1e-5,17.38204 z" />
    <path
       id="rect3378"
       style="fill:#bebebe;fill-opacity:1;stroke:none;stroke-width:0.47525;stroke-linecap:butt;stroke-linejoin:round;stroke-miterlimit:4;stroke-dasharray:none"
       d="m 179.77737,165.75179 -38.62427,31.63779 c -0.004,0.002 -0.009,0.005 -0.0134,0.006 -0.0194,0.0229 -0.0195,0.0568 0.002,0.0787 l 11.06982,11.06983 c 0.0218,0.0218 0.0551,0.0213 0.0784,0.002 0.002,-0.005 0.004,-0.009 0.006,-0.0136 l 31.6387,-38.62335 z"
       inkscape:transform-center-x="-16.437588"
       inkscape:transform-center-y="-16.437989" />
  </g>
</svg>
